M48
; DRILL file {KiCad (5.1.10)-1} date 07/26/21 22:01:29
; FORMAT={-:-/ absolute / metric / decimal}
; #@! TF.CreationDate,2021-07-26T22:01:29-03:00
; #@! TF.GenerationSoftware,Kicad,Pcbnew,(5.1.10)-1
; #@! TF.FileFunction,Plated,1,2,PTH
FMAT,2
METRIC
T1C0.400
T2C0.550
T3C0.800
T4C0.990
T5C1.000
T6C1.200
T7C1.400
T8C2.390
T9C3.500
%
G90
G05
T1
X108.349Y-58.875
X123.238Y-103.942
X126.111Y-91.465
X130.365Y-103.048
X133.375Y-86.309
X134.48Y-67.462
X135.293Y-92.405
X137.528Y-85.611
X137.528Y-86.906
X137.554Y-84.303
X138.849Y-95.733
X140.741Y-95.733
X142.138Y-84.925
X143.154Y-91.618
X143.535Y-95.745
X144.945Y-84.633
X145.91Y-89.916
X146.329Y-84.633
X147.244Y-91.63
X147.46Y-102.184
X147.752Y-84.633
X148.463Y-71.958
X149.212Y-84.645
X153.124Y-82.779
X153.149Y-84.277
X153.289Y-91.973
X153.302Y-90.691
X162.954Y-88.468
X165.684Y-90.818
X168.808Y-50.94
T2
X115.57Y-71.942
X115.57Y-73.042
T3
X141.348Y-66.355
X141.348Y-71.235
X153.594Y-118.58
X155.321Y-84.252
X155.321Y-89.132
X156.134Y-118.58
X158.674Y-118.58
T4
X142.847Y-98.883
X142.847Y-105.383
X147.048Y-54.373
X147.048Y-56.363
X147.347Y-98.883
X147.347Y-105.383
X149.538Y-54.373
X149.538Y-56.363
X167.166Y-73.912
X167.166Y-78.412
X167.166Y-82.147
X167.166Y-86.647
X173.666Y-73.912
X173.666Y-78.412
X173.666Y-82.147
X173.666Y-86.647
X176.874Y-69.767
X176.874Y-74.267
X176.874Y-77.897
X176.874Y-82.397
X177.235Y-86.188
X177.235Y-90.688
X183.374Y-69.767
X183.374Y-74.267
X183.374Y-77.897
X183.374Y-82.397
X183.735Y-86.188
X183.735Y-90.688
T5
X108.318Y-114.516
X108.318Y-117.056
X108.318Y-119.596
X114.407Y-119.515
X116.947Y-119.515
X119.487Y-119.515
X122.027Y-119.515
X124.567Y-119.515
X127.107Y-119.515
X129.647Y-119.515
X132.187Y-119.515
X134.727Y-119.515
X137.267Y-119.515
X138.697Y-108.369
X139.807Y-119.515
X141.237Y-108.369
X142.347Y-119.515
X143.777Y-108.369
X144.887Y-119.515
X146.317Y-108.369
X147.427Y-119.515
X148.857Y-108.369
X151.397Y-108.369
T6
X145.252Y-124.371
X147.792Y-124.371
X150.332Y-124.371
X152.872Y-124.371
X155.412Y-124.371
X157.952Y-124.371
X160.492Y-124.371
X163.032Y-124.371
X165.572Y-124.371
X168.112Y-124.371
X170.652Y-124.371
X173.192Y-124.371
X175.732Y-124.371
X178.272Y-124.371
X180.812Y-124.371
X183.352Y-124.371
T7
X113.195Y-98.393
X113.195Y-103.393
X113.292Y-82.219
X113.292Y-87.219
X176.847Y-98.77
X176.847Y-103.77
X176.847Y-108.77
T8
X142.273Y-51.663
X154.313Y-51.663
T9
X75.852Y-125.372
X75.852Y-162.372
X190.853Y-125.372
X190.853Y-162.372
T5
G00X108.275Y-53.324
M15
G01X108.275Y-51.324
M16
G05
G00X112.275Y-57.024
M15
G01X110.275Y-57.024
M16
G05
G00X114.275Y-53.574
M15
G01X114.275Y-51.074
M16
G05
T0
M30
