%FSLAX45Y45*%
G04 Gerber Fmt 4.5, Leading zero omitted, Abs format (unit mm)*
G04 Created by KiCad (PCBNEW (5.1.10)-1) date 2021-07-26 22:01:32*
%MOMM*%
%LPD*%
G01*
G04 APERTURE LIST*
%TA.AperFunction,Profile*%
%ADD10C,0.050000*%
%TD*%
%ADD11C,0.200000*%
%ADD12C,0.300000*%
G04 APERTURE END LIST*
D10*
X18605500Y-4762500D02*
X10604500Y-4762500D01*
X18605500Y-12763500D02*
X18605500Y-4762500D01*
X10604500Y-12763500D02*
X18605500Y-12763500D01*
X10604500Y-4762500D02*
X10604500Y-12763500D01*
D11*
X10814878Y-5867466D02*
X10854878Y-5907466D01*
X10854878Y-5867466D02*
X10814878Y-5907466D01*
X12303826Y-10374188D02*
X12343826Y-10414188D01*
X12343826Y-10374188D02*
X12303826Y-10414188D01*
X12591100Y-9126540D02*
X12631100Y-9166540D01*
X12631100Y-9126540D02*
X12591100Y-9166540D01*
X13016550Y-10284780D02*
X13056550Y-10324780D01*
X13056550Y-10284780D02*
X13016550Y-10324780D01*
X13317540Y-8610920D02*
X13357540Y-8650920D01*
X13357540Y-8610920D02*
X13317540Y-8650920D01*
X13428030Y-6726240D02*
X13468030Y-6766240D01*
X13468030Y-6726240D02*
X13428030Y-6766240D01*
X13509310Y-9220520D02*
X13549310Y-9260520D01*
X13549310Y-9220520D02*
X13509310Y-9260520D01*
X13732830Y-8541070D02*
X13772830Y-8581070D01*
X13772830Y-8541070D02*
X13732830Y-8581070D01*
X13732830Y-8670610D02*
X13772830Y-8710610D01*
X13772830Y-8670610D02*
X13732830Y-8710610D01*
X13735370Y-8410260D02*
X13775370Y-8450260D01*
X13775370Y-8410260D02*
X13735370Y-8450260D01*
X13864910Y-9553260D02*
X13904910Y-9593260D01*
X13904910Y-9553260D02*
X13864910Y-9593260D01*
X14054140Y-9553260D02*
X14094140Y-9593260D01*
X14094140Y-9553260D02*
X14054140Y-9593260D01*
X14193840Y-8472490D02*
X14233840Y-8512490D01*
X14233840Y-8472490D02*
X14193840Y-8512490D01*
X14295440Y-9141780D02*
X14335440Y-9181780D01*
X14335440Y-9141780D02*
X14295440Y-9181780D01*
X14333540Y-9554530D02*
X14373540Y-9594530D01*
X14373540Y-9554530D02*
X14333540Y-9594530D01*
X14474510Y-8443280D02*
X14514510Y-8483280D01*
X14514510Y-8443280D02*
X14474510Y-8483280D01*
X14571030Y-8971600D02*
X14611030Y-9011600D01*
X14611030Y-8971600D02*
X14571030Y-9011600D01*
X14612940Y-8443280D02*
X14652940Y-8483280D01*
X14652940Y-8443280D02*
X14612940Y-8483280D01*
X14704380Y-9143050D02*
X14744380Y-9183050D01*
X14744380Y-9143050D02*
X14704380Y-9183050D01*
X14725970Y-10198420D02*
X14765970Y-10238420D01*
X14765970Y-10198420D02*
X14725970Y-10238420D01*
X14755180Y-8443280D02*
X14795180Y-8483280D01*
X14795180Y-8443280D02*
X14755180Y-8483280D01*
X14826300Y-7175820D02*
X14866300Y-7215820D01*
X14866300Y-7175820D02*
X14826300Y-7215820D01*
X14901230Y-8444550D02*
X14941230Y-8484550D01*
X14941230Y-8444550D02*
X14901230Y-8484550D01*
X15292390Y-8257860D02*
X15332390Y-8297860D01*
X15332390Y-8257860D02*
X15292390Y-8297860D01*
X15294930Y-8407720D02*
X15334930Y-8447720D01*
X15334930Y-8407720D02*
X15294930Y-8447720D01*
X15308900Y-9177340D02*
X15348900Y-9217340D01*
X15348900Y-9177340D02*
X15308900Y-9217340D01*
X15310170Y-9049070D02*
X15350170Y-9089070D01*
X15350170Y-9049070D02*
X15310170Y-9089070D01*
X16275370Y-8826820D02*
X16315370Y-8866820D01*
X16315370Y-8826820D02*
X16275370Y-8866820D01*
X16548420Y-9061770D02*
X16588420Y-9101770D01*
X16588420Y-9061770D02*
X16548420Y-9101770D01*
X16860840Y-5073970D02*
X16900840Y-5113970D01*
X16900840Y-5073970D02*
X16860840Y-5113970D01*
X11584500Y-7194160D02*
G75*
G03*
X11584500Y-7194160I-27500J0D01*
G01*
X11584500Y-7304160D02*
G75*
G03*
X11584500Y-7304160I-27500J0D01*
G01*
X14134846Y-6595496D02*
X14134846Y-6675496D01*
X14094846Y-6635496D02*
X14174846Y-6635496D01*
X14134846Y-7083496D02*
X14134846Y-7163496D01*
X14094846Y-7123496D02*
X14174846Y-7123496D01*
X15359380Y-11817990D02*
X15359380Y-11897990D01*
X15319380Y-11857990D02*
X15399380Y-11857990D01*
X15532100Y-8385180D02*
X15532100Y-8465180D01*
X15492100Y-8425180D02*
X15572100Y-8425180D01*
X15532100Y-8873180D02*
X15532100Y-8953180D01*
X15492100Y-8913180D02*
X15572100Y-8913180D01*
X15613380Y-11817990D02*
X15613380Y-11897990D01*
X15573380Y-11857990D02*
X15653380Y-11857990D01*
X15867380Y-11817990D02*
X15867380Y-11897990D01*
X15827380Y-11857990D02*
X15907380Y-11857990D01*
X14319752Y-9923342D02*
X14319752Y-9853338D01*
X14249748Y-9853338D01*
X14249748Y-9923342D01*
X14319752Y-9923342D01*
X14319752Y-10573342D02*
X14319752Y-10503338D01*
X14249748Y-10503338D01*
X14249748Y-10573342D01*
X14319752Y-10573342D01*
X14739832Y-5472262D02*
X14739832Y-5402258D01*
X14669828Y-5402258D01*
X14669828Y-5472262D01*
X14739832Y-5472262D01*
X14739832Y-5671262D02*
X14739832Y-5601258D01*
X14669828Y-5601258D01*
X14669828Y-5671262D01*
X14739832Y-5671262D01*
X14769752Y-9923342D02*
X14769752Y-9853338D01*
X14699748Y-9853338D01*
X14699748Y-9923342D01*
X14769752Y-9923342D01*
X14769752Y-10573342D02*
X14769752Y-10503338D01*
X14699748Y-10503338D01*
X14699748Y-10573342D01*
X14769752Y-10573342D01*
X14988832Y-5472262D02*
X14988832Y-5402258D01*
X14918828Y-5402258D01*
X14918828Y-5472262D01*
X14988832Y-5472262D01*
X14988832Y-5671262D02*
X14988832Y-5601258D01*
X14918828Y-5601258D01*
X14918828Y-5671262D01*
X14988832Y-5671262D01*
X16751624Y-7426192D02*
X16751624Y-7356188D01*
X16681620Y-7356188D01*
X16681620Y-7426192D01*
X16751624Y-7426192D01*
X16751624Y-7876192D02*
X16751624Y-7806188D01*
X16681620Y-7806188D01*
X16681620Y-7876192D01*
X16751624Y-7876192D01*
X16751624Y-8249660D02*
X16751624Y-8179656D01*
X16681620Y-8179656D01*
X16681620Y-8249660D01*
X16751624Y-8249660D01*
X16751624Y-8699660D02*
X16751624Y-8629656D01*
X16681620Y-8629656D01*
X16681620Y-8699660D01*
X16751624Y-8699660D01*
X17401624Y-7426192D02*
X17401624Y-7356188D01*
X17331620Y-7356188D01*
X17331620Y-7426192D01*
X17401624Y-7426192D01*
X17401624Y-7876192D02*
X17401624Y-7806188D01*
X17331620Y-7806188D01*
X17331620Y-7876192D01*
X17401624Y-7876192D01*
X17401624Y-8249660D02*
X17401624Y-8179656D01*
X17331620Y-8179656D01*
X17331620Y-8249660D01*
X17401624Y-8249660D01*
X17401624Y-8699660D02*
X17401624Y-8629656D01*
X17331620Y-8629656D01*
X17331620Y-8699660D01*
X17401624Y-8699660D01*
X17722412Y-7011664D02*
X17722412Y-6941660D01*
X17652408Y-6941660D01*
X17652408Y-7011664D01*
X17722412Y-7011664D01*
X17722412Y-7461664D02*
X17722412Y-7391660D01*
X17652408Y-7391660D01*
X17652408Y-7461664D01*
X17722412Y-7461664D01*
X17722412Y-7824718D02*
X17722412Y-7754714D01*
X17652408Y-7754714D01*
X17652408Y-7824718D01*
X17722412Y-7824718D01*
X17722412Y-8274718D02*
X17722412Y-8204714D01*
X17652408Y-8204714D01*
X17652408Y-8274718D01*
X17722412Y-8274718D01*
X17758480Y-8653774D02*
X17758480Y-8583770D01*
X17688476Y-8583770D01*
X17688476Y-8653774D01*
X17758480Y-8653774D01*
X17758480Y-9103774D02*
X17758480Y-9033770D01*
X17688476Y-9033770D01*
X17688476Y-9103774D01*
X17758480Y-9103774D01*
X18372412Y-7011664D02*
X18372412Y-6941660D01*
X18302408Y-6941660D01*
X18302408Y-7011664D01*
X18372412Y-7011664D01*
X18372412Y-7461664D02*
X18372412Y-7391660D01*
X18302408Y-7391660D01*
X18302408Y-7461664D01*
X18372412Y-7461664D01*
X18372412Y-7824718D02*
X18372412Y-7754714D01*
X18302408Y-7754714D01*
X18302408Y-7824718D01*
X18372412Y-7824718D01*
X18372412Y-8274718D02*
X18372412Y-8204714D01*
X18302408Y-8204714D01*
X18302408Y-8274718D01*
X18372412Y-8274718D01*
X18408480Y-8653774D02*
X18408480Y-8583770D01*
X18338476Y-8583770D01*
X18338476Y-8653774D01*
X18408480Y-8653774D01*
X18408480Y-9103774D02*
X18408480Y-9033770D01*
X18338476Y-9033770D01*
X18338476Y-9103774D01*
X18408480Y-9103774D01*
X10827460Y-5282400D02*
X10877460Y-5232400D01*
X10827460Y-5182400D01*
X10777460Y-5232400D01*
X10827460Y-5282400D01*
X10867460Y-5332400D02*
X10867460Y-5132400D01*
X10787460Y-5332400D02*
X10787460Y-5132400D01*
X10867460Y-5132400D02*
G75*
G03*
X10787460Y-5132400I-40000J0D01*
G01*
X10787460Y-5332400D02*
G75*
G03*
X10867460Y-5332400I40000J0D01*
G01*
X10831830Y-11501590D02*
X10881830Y-11451590D01*
X10831830Y-11401590D01*
X10781830Y-11451590D01*
X10831830Y-11501590D01*
X10831830Y-11755590D02*
X10881830Y-11705590D01*
X10831830Y-11655590D01*
X10781830Y-11705590D01*
X10831830Y-11755590D01*
X10831830Y-12009590D02*
X10881830Y-11959590D01*
X10831830Y-11909590D01*
X10781830Y-11959590D01*
X10831830Y-12009590D01*
X11127460Y-5752400D02*
X11177460Y-5702400D01*
X11127460Y-5652400D01*
X11077460Y-5702400D01*
X11127460Y-5752400D01*
X11227460Y-5662400D02*
X11027460Y-5662400D01*
X11227460Y-5742400D02*
X11027460Y-5742400D01*
X11027460Y-5662400D02*
G75*
G03*
X11027460Y-5742400I0J-40000D01*
G01*
X11227460Y-5742400D02*
G75*
G03*
X11227460Y-5662400I0J40000D01*
G01*
X11427460Y-5282400D02*
X11477460Y-5232400D01*
X11427460Y-5182400D01*
X11377460Y-5232400D01*
X11427460Y-5282400D01*
X11467460Y-5357400D02*
X11467460Y-5107400D01*
X11387460Y-5357400D02*
X11387460Y-5107400D01*
X11467460Y-5107400D02*
G75*
G03*
X11387460Y-5107400I-40000J0D01*
G01*
X11387460Y-5357400D02*
G75*
G03*
X11467460Y-5357400I40000J0D01*
G01*
X11440668Y-12001462D02*
X11490668Y-11951462D01*
X11440668Y-11901462D01*
X11390668Y-11951462D01*
X11440668Y-12001462D01*
X11694668Y-12001462D02*
X11744668Y-11951462D01*
X11694668Y-11901462D01*
X11644668Y-11951462D01*
X11694668Y-12001462D01*
X11948668Y-12001462D02*
X11998668Y-11951462D01*
X11948668Y-11901462D01*
X11898668Y-11951462D01*
X11948668Y-12001462D01*
X12202668Y-12001462D02*
X12252668Y-11951462D01*
X12202668Y-11901462D01*
X12152668Y-11951462D01*
X12202668Y-12001462D01*
X12456668Y-12001462D02*
X12506668Y-11951462D01*
X12456668Y-11901462D01*
X12406668Y-11951462D01*
X12456668Y-12001462D01*
X12710668Y-12001462D02*
X12760668Y-11951462D01*
X12710668Y-11901462D01*
X12660668Y-11951462D01*
X12710668Y-12001462D01*
X12964668Y-12001462D02*
X13014668Y-11951462D01*
X12964668Y-11901462D01*
X12914668Y-11951462D01*
X12964668Y-12001462D01*
X13218668Y-12001462D02*
X13268668Y-11951462D01*
X13218668Y-11901462D01*
X13168668Y-11951462D01*
X13218668Y-12001462D01*
X13472668Y-12001462D02*
X13522668Y-11951462D01*
X13472668Y-11901462D01*
X13422668Y-11951462D01*
X13472668Y-12001462D01*
X13726668Y-12001462D02*
X13776668Y-11951462D01*
X13726668Y-11901462D01*
X13676668Y-11951462D01*
X13726668Y-12001462D01*
X13869670Y-10886910D02*
X13919670Y-10836910D01*
X13869670Y-10786910D01*
X13819670Y-10836910D01*
X13869670Y-10886910D01*
X13980668Y-12001462D02*
X14030668Y-11951462D01*
X13980668Y-11901462D01*
X13930668Y-11951462D01*
X13980668Y-12001462D01*
X14123670Y-10886910D02*
X14173670Y-10836910D01*
X14123670Y-10786910D01*
X14073670Y-10836910D01*
X14123670Y-10886910D01*
X14234668Y-12001462D02*
X14284668Y-11951462D01*
X14234668Y-11901462D01*
X14184668Y-11951462D01*
X14234668Y-12001462D01*
X14377670Y-10886910D02*
X14427670Y-10836910D01*
X14377670Y-10786910D01*
X14327670Y-10836910D01*
X14377670Y-10886910D01*
X14488668Y-12001462D02*
X14538668Y-11951462D01*
X14488668Y-11901462D01*
X14438668Y-11951462D01*
X14488668Y-12001462D01*
X14631670Y-10886910D02*
X14681670Y-10836910D01*
X14631670Y-10786910D01*
X14581670Y-10836910D01*
X14631670Y-10886910D01*
X14742668Y-12001462D02*
X14792668Y-11951462D01*
X14742668Y-11901462D01*
X14692668Y-11951462D01*
X14742668Y-12001462D01*
X14885670Y-10886910D02*
X14935670Y-10836910D01*
X14885670Y-10786910D01*
X14835670Y-10836910D01*
X14885670Y-10886910D01*
X15139670Y-10886910D02*
X15189670Y-10836910D01*
X15139670Y-10786910D01*
X15089670Y-10836910D01*
X15139670Y-10886910D01*
X14465244Y-12377110D02*
X14585244Y-12497110D01*
X14585244Y-12377110D02*
X14465244Y-12497110D01*
X14585244Y-12437110D02*
G75*
G03*
X14585244Y-12437110I-60000J0D01*
G01*
X14719244Y-12377110D02*
X14839244Y-12497110D01*
X14839244Y-12377110D02*
X14719244Y-12497110D01*
X14839244Y-12437110D02*
G75*
G03*
X14839244Y-12437110I-60000J0D01*
G01*
X14973244Y-12377110D02*
X15093244Y-12497110D01*
X15093244Y-12377110D02*
X14973244Y-12497110D01*
X15093244Y-12437110D02*
G75*
G03*
X15093244Y-12437110I-60000J0D01*
G01*
X15227244Y-12377110D02*
X15347244Y-12497110D01*
X15347244Y-12377110D02*
X15227244Y-12497110D01*
X15347244Y-12437110D02*
G75*
G03*
X15347244Y-12437110I-60000J0D01*
G01*
X15481244Y-12377110D02*
X15601244Y-12497110D01*
X15601244Y-12377110D02*
X15481244Y-12497110D01*
X15601244Y-12437110D02*
G75*
G03*
X15601244Y-12437110I-60000J0D01*
G01*
X15735244Y-12377110D02*
X15855244Y-12497110D01*
X15855244Y-12377110D02*
X15735244Y-12497110D01*
X15855244Y-12437110D02*
G75*
G03*
X15855244Y-12437110I-60000J0D01*
G01*
X15989244Y-12377110D02*
X16109244Y-12497110D01*
X16109244Y-12377110D02*
X15989244Y-12497110D01*
X16109244Y-12437110D02*
G75*
G03*
X16109244Y-12437110I-60000J0D01*
G01*
X16243244Y-12377110D02*
X16363244Y-12497110D01*
X16363244Y-12377110D02*
X16243244Y-12497110D01*
X16363244Y-12437110D02*
G75*
G03*
X16363244Y-12437110I-60000J0D01*
G01*
X16497244Y-12377110D02*
X16617244Y-12497110D01*
X16617244Y-12377110D02*
X16497244Y-12497110D01*
X16617244Y-12437110D02*
G75*
G03*
X16617244Y-12437110I-60000J0D01*
G01*
X16751244Y-12377110D02*
X16871244Y-12497110D01*
X16871244Y-12377110D02*
X16751244Y-12497110D01*
X16871244Y-12437110D02*
G75*
G03*
X16871244Y-12437110I-60000J0D01*
G01*
X17005244Y-12377110D02*
X17125244Y-12497110D01*
X17125244Y-12377110D02*
X17005244Y-12497110D01*
X17125244Y-12437110D02*
G75*
G03*
X17125244Y-12437110I-60000J0D01*
G01*
X17259244Y-12377110D02*
X17379244Y-12497110D01*
X17379244Y-12377110D02*
X17259244Y-12497110D01*
X17379244Y-12437110D02*
G75*
G03*
X17379244Y-12437110I-60000J0D01*
G01*
X17513244Y-12377110D02*
X17633244Y-12497110D01*
X17633244Y-12377110D02*
X17513244Y-12497110D01*
X17633244Y-12437110D02*
G75*
G03*
X17633244Y-12437110I-60000J0D01*
G01*
X17767244Y-12377110D02*
X17887244Y-12497110D01*
X17887244Y-12377110D02*
X17767244Y-12497110D01*
X17887244Y-12437110D02*
G75*
G03*
X17887244Y-12437110I-60000J0D01*
G01*
X18021244Y-12377110D02*
X18141244Y-12497110D01*
X18141244Y-12377110D02*
X18021244Y-12497110D01*
X18141244Y-12437110D02*
G75*
G03*
X18141244Y-12437110I-60000J0D01*
G01*
X18275244Y-12377110D02*
X18395244Y-12497110D01*
X18395244Y-12377110D02*
X18275244Y-12497110D01*
X18395244Y-12437110D02*
G75*
G03*
X18395244Y-12437110I-60000J0D01*
G01*
X11249510Y-9769324D02*
X11389510Y-9909324D01*
X11389510Y-9769324D02*
X11249510Y-9909324D01*
X11319510Y-9769324D02*
X11319510Y-9909324D01*
X11249510Y-9839324D02*
X11389510Y-9839324D01*
X11249510Y-10269324D02*
X11389510Y-10409324D01*
X11389510Y-10269324D02*
X11249510Y-10409324D01*
X11319510Y-10269324D02*
X11319510Y-10409324D01*
X11249510Y-10339324D02*
X11389510Y-10339324D01*
X11259162Y-8151852D02*
X11399162Y-8291852D01*
X11399162Y-8151852D02*
X11259162Y-8291852D01*
X11329162Y-8151852D02*
X11329162Y-8291852D01*
X11259162Y-8221852D02*
X11399162Y-8221852D01*
X11259162Y-8651852D02*
X11399162Y-8791852D01*
X11399162Y-8651852D02*
X11259162Y-8791852D01*
X11329162Y-8651852D02*
X11329162Y-8791852D01*
X11259162Y-8721852D02*
X11399162Y-8721852D01*
X17614720Y-9807044D02*
X17754720Y-9947044D01*
X17754720Y-9807044D02*
X17614720Y-9947044D01*
X17684720Y-9807044D02*
X17684720Y-9947044D01*
X17614720Y-9877044D02*
X17754720Y-9877044D01*
X17614720Y-10307044D02*
X17754720Y-10447044D01*
X17754720Y-10307044D02*
X17614720Y-10447044D01*
X17684720Y-10307044D02*
X17684720Y-10447044D01*
X17614720Y-10377044D02*
X17754720Y-10377044D01*
X17614720Y-10807044D02*
X17754720Y-10947044D01*
X17754720Y-10807044D02*
X17614720Y-10947044D01*
X17684720Y-10807044D02*
X17684720Y-10947044D01*
X17614720Y-10877044D02*
X17754720Y-10877044D01*
X14107830Y-5046760D02*
X14346830Y-5285760D01*
X14346830Y-5046760D02*
X14107830Y-5285760D01*
X14311830Y-5250760D02*
X14311830Y-5081760D01*
X14142830Y-5081760D01*
X14142830Y-5250760D01*
X14311830Y-5250760D01*
X15311830Y-5046760D02*
X15550830Y-5285760D01*
X15550830Y-5046760D02*
X15311830Y-5285760D01*
X15515830Y-5250760D02*
X15515830Y-5081760D01*
X15346830Y-5081760D01*
X15346830Y-5250760D01*
X15515830Y-5250760D01*
X7410202Y-12362186D02*
X7760202Y-12712186D01*
X7760202Y-12362186D02*
X7410202Y-12712186D01*
X7585202Y-12712186D02*
X7760202Y-12537186D01*
X7585202Y-12362186D01*
X7410202Y-12537186D01*
X7585202Y-12712186D01*
X7410202Y-16062204D02*
X7760202Y-16412204D01*
X7760202Y-16062204D02*
X7410202Y-16412204D01*
X7585202Y-16412204D02*
X7760202Y-16237204D01*
X7585202Y-16062204D01*
X7410202Y-16237204D01*
X7585202Y-16412204D01*
X18910306Y-12362186D02*
X19260306Y-12712186D01*
X19260306Y-12362186D02*
X18910306Y-12712186D01*
X19085306Y-12712186D02*
X19260306Y-12537186D01*
X19085306Y-12362186D01*
X18910306Y-12537186D01*
X19085306Y-12712186D01*
X18910306Y-16062204D02*
X19260306Y-16412204D01*
X19260306Y-16062204D02*
X18910306Y-16412204D01*
X19085306Y-16412204D02*
X19260306Y-16237204D01*
X19085306Y-16062204D01*
X18910306Y-16237204D01*
X19085306Y-16412204D01*
D12*
X10888428Y-13231714D02*
X10888428Y-12931714D01*
X10959857Y-12931714D01*
X11002714Y-12946000D01*
X11031286Y-12974571D01*
X11045571Y-13003143D01*
X11059857Y-13060286D01*
X11059857Y-13103143D01*
X11045571Y-13160286D01*
X11031286Y-13188857D01*
X11002714Y-13217429D01*
X10959857Y-13231714D01*
X10888428Y-13231714D01*
X11188428Y-13231714D02*
X11188428Y-13031714D01*
X11188428Y-13088857D02*
X11202714Y-13060286D01*
X11217000Y-13046000D01*
X11245571Y-13031714D01*
X11274143Y-13031714D01*
X11374143Y-13231714D02*
X11374143Y-13031714D01*
X11374143Y-12931714D02*
X11359857Y-12946000D01*
X11374143Y-12960286D01*
X11388428Y-12946000D01*
X11374143Y-12931714D01*
X11374143Y-12960286D01*
X11559857Y-13231714D02*
X11531286Y-13217429D01*
X11517000Y-13188857D01*
X11517000Y-12931714D01*
X11717000Y-13231714D02*
X11688428Y-13217429D01*
X11674143Y-13188857D01*
X11674143Y-12931714D01*
X12059857Y-13231714D02*
X12059857Y-12931714D01*
X12159857Y-13146000D01*
X12259857Y-12931714D01*
X12259857Y-13231714D01*
X12531286Y-13231714D02*
X12531286Y-13074571D01*
X12517000Y-13046000D01*
X12488428Y-13031714D01*
X12431286Y-13031714D01*
X12402714Y-13046000D01*
X12531286Y-13217429D02*
X12502714Y-13231714D01*
X12431286Y-13231714D01*
X12402714Y-13217429D01*
X12388428Y-13188857D01*
X12388428Y-13160286D01*
X12402714Y-13131714D01*
X12431286Y-13117429D01*
X12502714Y-13117429D01*
X12531286Y-13103143D01*
X12674143Y-13031714D02*
X12674143Y-13331714D01*
X12674143Y-13046000D02*
X12702714Y-13031714D01*
X12759857Y-13031714D01*
X12788428Y-13046000D01*
X12802714Y-13060286D01*
X12817000Y-13088857D01*
X12817000Y-13174571D01*
X12802714Y-13203143D01*
X12788428Y-13217429D01*
X12759857Y-13231714D01*
X12702714Y-13231714D01*
X12674143Y-13217429D01*
X12945571Y-13203143D02*
X12959857Y-13217429D01*
X12945571Y-13231714D01*
X12931286Y-13217429D01*
X12945571Y-13203143D01*
X12945571Y-13231714D01*
X12945571Y-13046000D02*
X12959857Y-13060286D01*
X12945571Y-13074571D01*
X12931286Y-13060286D01*
X12945571Y-13046000D01*
X12945571Y-13074571D01*
X10562000Y-13706000D02*
X10602000Y-13746000D01*
X10602000Y-13706000D02*
X10562000Y-13746000D01*
X10945571Y-13561714D02*
X10974143Y-13561714D01*
X11002714Y-13576000D01*
X11017000Y-13590286D01*
X11031286Y-13618857D01*
X11045571Y-13676000D01*
X11045571Y-13747429D01*
X11031286Y-13804571D01*
X11017000Y-13833143D01*
X11002714Y-13847429D01*
X10974143Y-13861714D01*
X10945571Y-13861714D01*
X10917000Y-13847429D01*
X10902714Y-13833143D01*
X10888428Y-13804571D01*
X10874143Y-13747429D01*
X10874143Y-13676000D01*
X10888428Y-13618857D01*
X10902714Y-13590286D01*
X10917000Y-13576000D01*
X10945571Y-13561714D01*
X11174143Y-13833143D02*
X11188428Y-13847429D01*
X11174143Y-13861714D01*
X11159857Y-13847429D01*
X11174143Y-13833143D01*
X11174143Y-13861714D01*
X11445571Y-13661714D02*
X11445571Y-13861714D01*
X11374143Y-13547429D02*
X11302714Y-13761714D01*
X11488428Y-13761714D01*
X11659857Y-13561714D02*
X11688428Y-13561714D01*
X11717000Y-13576000D01*
X11731286Y-13590286D01*
X11745571Y-13618857D01*
X11759857Y-13676000D01*
X11759857Y-13747429D01*
X11745571Y-13804571D01*
X11731286Y-13833143D01*
X11717000Y-13847429D01*
X11688428Y-13861714D01*
X11659857Y-13861714D01*
X11631286Y-13847429D01*
X11617000Y-13833143D01*
X11602714Y-13804571D01*
X11588428Y-13747429D01*
X11588428Y-13676000D01*
X11602714Y-13618857D01*
X11617000Y-13590286D01*
X11631286Y-13576000D01*
X11659857Y-13561714D01*
X11945571Y-13561714D02*
X11974143Y-13561714D01*
X12002714Y-13576000D01*
X12017000Y-13590286D01*
X12031286Y-13618857D01*
X12045571Y-13676000D01*
X12045571Y-13747429D01*
X12031286Y-13804571D01*
X12017000Y-13833143D01*
X12002714Y-13847429D01*
X11974143Y-13861714D01*
X11945571Y-13861714D01*
X11917000Y-13847429D01*
X11902714Y-13833143D01*
X11888428Y-13804571D01*
X11874143Y-13747429D01*
X11874143Y-13676000D01*
X11888428Y-13618857D01*
X11902714Y-13590286D01*
X11917000Y-13576000D01*
X11945571Y-13561714D01*
X12174143Y-13861714D02*
X12174143Y-13661714D01*
X12174143Y-13690286D02*
X12188428Y-13676000D01*
X12217000Y-13661714D01*
X12259857Y-13661714D01*
X12288428Y-13676000D01*
X12302714Y-13704571D01*
X12302714Y-13861714D01*
X12302714Y-13704571D02*
X12317000Y-13676000D01*
X12345571Y-13661714D01*
X12388428Y-13661714D01*
X12417000Y-13676000D01*
X12431286Y-13704571D01*
X12431286Y-13861714D01*
X12574143Y-13861714D02*
X12574143Y-13661714D01*
X12574143Y-13690286D02*
X12588428Y-13676000D01*
X12617000Y-13661714D01*
X12659857Y-13661714D01*
X12688428Y-13676000D01*
X12702714Y-13704571D01*
X12702714Y-13861714D01*
X12702714Y-13704571D02*
X12717000Y-13676000D01*
X12745571Y-13661714D01*
X12788428Y-13661714D01*
X12817000Y-13676000D01*
X12831286Y-13704571D01*
X12831286Y-13861714D01*
X13417000Y-13547429D02*
X13159857Y-13933143D01*
X13802714Y-13561714D02*
X13831286Y-13561714D01*
X13859857Y-13576000D01*
X13874143Y-13590286D01*
X13888428Y-13618857D01*
X13902714Y-13676000D01*
X13902714Y-13747429D01*
X13888428Y-13804571D01*
X13874143Y-13833143D01*
X13859857Y-13847429D01*
X13831286Y-13861714D01*
X13802714Y-13861714D01*
X13774143Y-13847429D01*
X13759857Y-13833143D01*
X13745571Y-13804571D01*
X13731286Y-13747429D01*
X13731286Y-13676000D01*
X13745571Y-13618857D01*
X13759857Y-13590286D01*
X13774143Y-13576000D01*
X13802714Y-13561714D01*
X14031286Y-13833143D02*
X14045571Y-13847429D01*
X14031286Y-13861714D01*
X14017000Y-13847429D01*
X14031286Y-13833143D01*
X14031286Y-13861714D01*
X14231286Y-13561714D02*
X14259857Y-13561714D01*
X14288428Y-13576000D01*
X14302714Y-13590286D01*
X14317000Y-13618857D01*
X14331286Y-13676000D01*
X14331286Y-13747429D01*
X14317000Y-13804571D01*
X14302714Y-13833143D01*
X14288428Y-13847429D01*
X14259857Y-13861714D01*
X14231286Y-13861714D01*
X14202714Y-13847429D01*
X14188428Y-13833143D01*
X14174143Y-13804571D01*
X14159857Y-13747429D01*
X14159857Y-13676000D01*
X14174143Y-13618857D01*
X14188428Y-13590286D01*
X14202714Y-13576000D01*
X14231286Y-13561714D01*
X14617000Y-13861714D02*
X14445571Y-13861714D01*
X14531286Y-13861714D02*
X14531286Y-13561714D01*
X14502714Y-13604571D01*
X14474143Y-13633143D01*
X14445571Y-13647429D01*
X14888428Y-13561714D02*
X14745571Y-13561714D01*
X14731286Y-13704571D01*
X14745571Y-13690286D01*
X14774143Y-13676000D01*
X14845571Y-13676000D01*
X14874143Y-13690286D01*
X14888428Y-13704571D01*
X14902714Y-13733143D01*
X14902714Y-13804571D01*
X14888428Y-13833143D01*
X14874143Y-13847429D01*
X14845571Y-13861714D01*
X14774143Y-13861714D01*
X14745571Y-13847429D01*
X14731286Y-13833143D01*
X15002714Y-13561714D02*
X15202714Y-13561714D01*
X15074143Y-13861714D01*
X15302714Y-13561714D02*
X15302714Y-13618857D01*
X15417000Y-13561714D02*
X15417000Y-13618857D01*
X15859857Y-13976000D02*
X15845571Y-13961714D01*
X15817000Y-13918857D01*
X15802714Y-13890286D01*
X15788428Y-13847429D01*
X15774143Y-13776000D01*
X15774143Y-13718857D01*
X15788428Y-13647429D01*
X15802714Y-13604571D01*
X15817000Y-13576000D01*
X15845571Y-13533143D01*
X15859857Y-13518857D01*
X15945571Y-13561714D02*
X16131286Y-13561714D01*
X16031286Y-13676000D01*
X16074143Y-13676000D01*
X16102714Y-13690286D01*
X16117000Y-13704571D01*
X16131286Y-13733143D01*
X16131286Y-13804571D01*
X16117000Y-13833143D01*
X16102714Y-13847429D01*
X16074143Y-13861714D01*
X15988428Y-13861714D01*
X15959857Y-13847429D01*
X15945571Y-13833143D01*
X16317000Y-13561714D02*
X16345571Y-13561714D01*
X16374143Y-13576000D01*
X16388428Y-13590286D01*
X16402714Y-13618857D01*
X16417000Y-13676000D01*
X16417000Y-13747429D01*
X16402714Y-13804571D01*
X16388428Y-13833143D01*
X16374143Y-13847429D01*
X16345571Y-13861714D01*
X16317000Y-13861714D01*
X16288428Y-13847429D01*
X16274143Y-13833143D01*
X16259857Y-13804571D01*
X16245571Y-13747429D01*
X16245571Y-13676000D01*
X16259857Y-13618857D01*
X16274143Y-13590286D01*
X16288428Y-13576000D01*
X16317000Y-13561714D01*
X16774143Y-13861714D02*
X16774143Y-13561714D01*
X16902714Y-13861714D02*
X16902714Y-13704571D01*
X16888428Y-13676000D01*
X16859857Y-13661714D01*
X16817000Y-13661714D01*
X16788428Y-13676000D01*
X16774143Y-13690286D01*
X17088428Y-13861714D02*
X17059857Y-13847429D01*
X17045571Y-13833143D01*
X17031286Y-13804571D01*
X17031286Y-13718857D01*
X17045571Y-13690286D01*
X17059857Y-13676000D01*
X17088428Y-13661714D01*
X17131286Y-13661714D01*
X17159857Y-13676000D01*
X17174143Y-13690286D01*
X17188428Y-13718857D01*
X17188428Y-13804571D01*
X17174143Y-13833143D01*
X17159857Y-13847429D01*
X17131286Y-13861714D01*
X17088428Y-13861714D01*
X17359857Y-13861714D02*
X17331286Y-13847429D01*
X17317000Y-13818857D01*
X17317000Y-13561714D01*
X17588428Y-13847429D02*
X17559857Y-13861714D01*
X17502714Y-13861714D01*
X17474143Y-13847429D01*
X17459857Y-13818857D01*
X17459857Y-13704571D01*
X17474143Y-13676000D01*
X17502714Y-13661714D01*
X17559857Y-13661714D01*
X17588428Y-13676000D01*
X17602714Y-13704571D01*
X17602714Y-13733143D01*
X17459857Y-13761714D01*
X17717000Y-13847429D02*
X17745571Y-13861714D01*
X17802714Y-13861714D01*
X17831286Y-13847429D01*
X17845571Y-13818857D01*
X17845571Y-13804571D01*
X17831286Y-13776000D01*
X17802714Y-13761714D01*
X17759857Y-13761714D01*
X17731286Y-13747429D01*
X17717000Y-13718857D01*
X17717000Y-13704571D01*
X17731286Y-13676000D01*
X17759857Y-13661714D01*
X17802714Y-13661714D01*
X17831286Y-13676000D01*
X17945571Y-13976000D02*
X17959857Y-13961714D01*
X17988428Y-13918857D01*
X18002714Y-13890286D01*
X18017000Y-13847429D01*
X18031286Y-13776000D01*
X18031286Y-13718857D01*
X18017000Y-13647429D01*
X18002714Y-13604571D01*
X17988428Y-13576000D01*
X17959857Y-13533143D01*
X17945571Y-13518857D01*
X10602000Y-14122000D02*
G75*
G03*
X10602000Y-14122000I-27500J0D01*
G01*
X10945571Y-13957714D02*
X10974143Y-13957714D01*
X11002714Y-13972000D01*
X11017000Y-13986286D01*
X11031286Y-14014857D01*
X11045571Y-14072000D01*
X11045571Y-14143429D01*
X11031286Y-14200571D01*
X11017000Y-14229143D01*
X11002714Y-14243429D01*
X10974143Y-14257714D01*
X10945571Y-14257714D01*
X10917000Y-14243429D01*
X10902714Y-14229143D01*
X10888428Y-14200571D01*
X10874143Y-14143429D01*
X10874143Y-14072000D01*
X10888428Y-14014857D01*
X10902714Y-13986286D01*
X10917000Y-13972000D01*
X10945571Y-13957714D01*
X11174143Y-14229143D02*
X11188428Y-14243429D01*
X11174143Y-14257714D01*
X11159857Y-14243429D01*
X11174143Y-14229143D01*
X11174143Y-14257714D01*
X11459857Y-13957714D02*
X11317000Y-13957714D01*
X11302714Y-14100571D01*
X11317000Y-14086286D01*
X11345571Y-14072000D01*
X11417000Y-14072000D01*
X11445571Y-14086286D01*
X11459857Y-14100571D01*
X11474143Y-14129143D01*
X11474143Y-14200571D01*
X11459857Y-14229143D01*
X11445571Y-14243429D01*
X11417000Y-14257714D01*
X11345571Y-14257714D01*
X11317000Y-14243429D01*
X11302714Y-14229143D01*
X11745571Y-13957714D02*
X11602714Y-13957714D01*
X11588428Y-14100571D01*
X11602714Y-14086286D01*
X11631286Y-14072000D01*
X11702714Y-14072000D01*
X11731286Y-14086286D01*
X11745571Y-14100571D01*
X11759857Y-14129143D01*
X11759857Y-14200571D01*
X11745571Y-14229143D01*
X11731286Y-14243429D01*
X11702714Y-14257714D01*
X11631286Y-14257714D01*
X11602714Y-14243429D01*
X11588428Y-14229143D01*
X11945571Y-13957714D02*
X11974143Y-13957714D01*
X12002714Y-13972000D01*
X12017000Y-13986286D01*
X12031286Y-14014857D01*
X12045571Y-14072000D01*
X12045571Y-14143429D01*
X12031286Y-14200571D01*
X12017000Y-14229143D01*
X12002714Y-14243429D01*
X11974143Y-14257714D01*
X11945571Y-14257714D01*
X11917000Y-14243429D01*
X11902714Y-14229143D01*
X11888428Y-14200571D01*
X11874143Y-14143429D01*
X11874143Y-14072000D01*
X11888428Y-14014857D01*
X11902714Y-13986286D01*
X11917000Y-13972000D01*
X11945571Y-13957714D01*
X12174143Y-14257714D02*
X12174143Y-14057714D01*
X12174143Y-14086286D02*
X12188428Y-14072000D01*
X12217000Y-14057714D01*
X12259857Y-14057714D01*
X12288428Y-14072000D01*
X12302714Y-14100571D01*
X12302714Y-14257714D01*
X12302714Y-14100571D02*
X12317000Y-14072000D01*
X12345571Y-14057714D01*
X12388428Y-14057714D01*
X12417000Y-14072000D01*
X12431286Y-14100571D01*
X12431286Y-14257714D01*
X12574143Y-14257714D02*
X12574143Y-14057714D01*
X12574143Y-14086286D02*
X12588428Y-14072000D01*
X12617000Y-14057714D01*
X12659857Y-14057714D01*
X12688428Y-14072000D01*
X12702714Y-14100571D01*
X12702714Y-14257714D01*
X12702714Y-14100571D02*
X12717000Y-14072000D01*
X12745571Y-14057714D01*
X12788428Y-14057714D01*
X12817000Y-14072000D01*
X12831286Y-14100571D01*
X12831286Y-14257714D01*
X13417000Y-13943429D02*
X13159857Y-14329143D01*
X13802714Y-13957714D02*
X13831286Y-13957714D01*
X13859857Y-13972000D01*
X13874143Y-13986286D01*
X13888428Y-14014857D01*
X13902714Y-14072000D01*
X13902714Y-14143429D01*
X13888428Y-14200571D01*
X13874143Y-14229143D01*
X13859857Y-14243429D01*
X13831286Y-14257714D01*
X13802714Y-14257714D01*
X13774143Y-14243429D01*
X13759857Y-14229143D01*
X13745571Y-14200571D01*
X13731286Y-14143429D01*
X13731286Y-14072000D01*
X13745571Y-14014857D01*
X13759857Y-13986286D01*
X13774143Y-13972000D01*
X13802714Y-13957714D01*
X14031286Y-14229143D02*
X14045571Y-14243429D01*
X14031286Y-14257714D01*
X14017000Y-14243429D01*
X14031286Y-14229143D01*
X14031286Y-14257714D01*
X14231286Y-13957714D02*
X14259857Y-13957714D01*
X14288428Y-13972000D01*
X14302714Y-13986286D01*
X14317000Y-14014857D01*
X14331286Y-14072000D01*
X14331286Y-14143429D01*
X14317000Y-14200571D01*
X14302714Y-14229143D01*
X14288428Y-14243429D01*
X14259857Y-14257714D01*
X14231286Y-14257714D01*
X14202714Y-14243429D01*
X14188428Y-14229143D01*
X14174143Y-14200571D01*
X14159857Y-14143429D01*
X14159857Y-14072000D01*
X14174143Y-14014857D01*
X14188428Y-13986286D01*
X14202714Y-13972000D01*
X14231286Y-13957714D01*
X14445571Y-13986286D02*
X14459857Y-13972000D01*
X14488428Y-13957714D01*
X14559857Y-13957714D01*
X14588428Y-13972000D01*
X14602714Y-13986286D01*
X14617000Y-14014857D01*
X14617000Y-14043429D01*
X14602714Y-14086286D01*
X14431286Y-14257714D01*
X14617000Y-14257714D01*
X14902714Y-14257714D02*
X14731286Y-14257714D01*
X14817000Y-14257714D02*
X14817000Y-13957714D01*
X14788428Y-14000571D01*
X14759857Y-14029143D01*
X14731286Y-14043429D01*
X15002714Y-13957714D02*
X15202714Y-13957714D01*
X15074143Y-14257714D01*
X15302714Y-13957714D02*
X15302714Y-14014857D01*
X15417000Y-13957714D02*
X15417000Y-14014857D01*
X15859857Y-14372000D02*
X15845571Y-14357714D01*
X15817000Y-14314857D01*
X15802714Y-14286286D01*
X15788428Y-14243429D01*
X15774143Y-14172000D01*
X15774143Y-14114857D01*
X15788428Y-14043429D01*
X15802714Y-14000571D01*
X15817000Y-13972000D01*
X15845571Y-13929143D01*
X15859857Y-13914857D01*
X15959857Y-13986286D02*
X15974143Y-13972000D01*
X16002714Y-13957714D01*
X16074143Y-13957714D01*
X16102714Y-13972000D01*
X16117000Y-13986286D01*
X16131286Y-14014857D01*
X16131286Y-14043429D01*
X16117000Y-14086286D01*
X15945571Y-14257714D01*
X16131286Y-14257714D01*
X16488428Y-14257714D02*
X16488428Y-13957714D01*
X16617000Y-14257714D02*
X16617000Y-14100571D01*
X16602714Y-14072000D01*
X16574143Y-14057714D01*
X16531286Y-14057714D01*
X16502714Y-14072000D01*
X16488428Y-14086286D01*
X16802714Y-14257714D02*
X16774143Y-14243429D01*
X16759857Y-14229143D01*
X16745571Y-14200571D01*
X16745571Y-14114857D01*
X16759857Y-14086286D01*
X16774143Y-14072000D01*
X16802714Y-14057714D01*
X16845571Y-14057714D01*
X16874143Y-14072000D01*
X16888428Y-14086286D01*
X16902714Y-14114857D01*
X16902714Y-14200571D01*
X16888428Y-14229143D01*
X16874143Y-14243429D01*
X16845571Y-14257714D01*
X16802714Y-14257714D01*
X17074143Y-14257714D02*
X17045571Y-14243429D01*
X17031286Y-14214857D01*
X17031286Y-13957714D01*
X17302714Y-14243429D02*
X17274143Y-14257714D01*
X17217000Y-14257714D01*
X17188428Y-14243429D01*
X17174143Y-14214857D01*
X17174143Y-14100571D01*
X17188428Y-14072000D01*
X17217000Y-14057714D01*
X17274143Y-14057714D01*
X17302714Y-14072000D01*
X17317000Y-14100571D01*
X17317000Y-14129143D01*
X17174143Y-14157714D01*
X17431286Y-14243429D02*
X17459857Y-14257714D01*
X17517000Y-14257714D01*
X17545571Y-14243429D01*
X17559857Y-14214857D01*
X17559857Y-14200571D01*
X17545571Y-14172000D01*
X17517000Y-14157714D01*
X17474143Y-14157714D01*
X17445571Y-14143429D01*
X17431286Y-14114857D01*
X17431286Y-14100571D01*
X17445571Y-14072000D01*
X17474143Y-14057714D01*
X17517000Y-14057714D01*
X17545571Y-14072000D01*
X17659857Y-14372000D02*
X17674143Y-14357714D01*
X17702714Y-14314857D01*
X17717000Y-14286286D01*
X17731286Y-14243429D01*
X17745571Y-14172000D01*
X17745571Y-14114857D01*
X17731286Y-14043429D01*
X17717000Y-14000571D01*
X17702714Y-13972000D01*
X17674143Y-13929143D01*
X17659857Y-13914857D01*
X10562000Y-14478000D02*
X10562000Y-14558000D01*
X10522000Y-14518000D02*
X10602000Y-14518000D01*
X10945571Y-14353714D02*
X10974143Y-14353714D01*
X11002714Y-14368000D01*
X11017000Y-14382286D01*
X11031286Y-14410857D01*
X11045571Y-14468000D01*
X11045571Y-14539429D01*
X11031286Y-14596571D01*
X11017000Y-14625143D01*
X11002714Y-14639429D01*
X10974143Y-14653714D01*
X10945571Y-14653714D01*
X10917000Y-14639429D01*
X10902714Y-14625143D01*
X10888428Y-14596571D01*
X10874143Y-14539429D01*
X10874143Y-14468000D01*
X10888428Y-14410857D01*
X10902714Y-14382286D01*
X10917000Y-14368000D01*
X10945571Y-14353714D01*
X11174143Y-14625143D02*
X11188428Y-14639429D01*
X11174143Y-14653714D01*
X11159857Y-14639429D01*
X11174143Y-14625143D01*
X11174143Y-14653714D01*
X11359857Y-14482286D02*
X11331286Y-14468000D01*
X11317000Y-14453714D01*
X11302714Y-14425143D01*
X11302714Y-14410857D01*
X11317000Y-14382286D01*
X11331286Y-14368000D01*
X11359857Y-14353714D01*
X11417000Y-14353714D01*
X11445571Y-14368000D01*
X11459857Y-14382286D01*
X11474143Y-14410857D01*
X11474143Y-14425143D01*
X11459857Y-14453714D01*
X11445571Y-14468000D01*
X11417000Y-14482286D01*
X11359857Y-14482286D01*
X11331286Y-14496571D01*
X11317000Y-14510857D01*
X11302714Y-14539429D01*
X11302714Y-14596571D01*
X11317000Y-14625143D01*
X11331286Y-14639429D01*
X11359857Y-14653714D01*
X11417000Y-14653714D01*
X11445571Y-14639429D01*
X11459857Y-14625143D01*
X11474143Y-14596571D01*
X11474143Y-14539429D01*
X11459857Y-14510857D01*
X11445571Y-14496571D01*
X11417000Y-14482286D01*
X11659857Y-14353714D02*
X11688428Y-14353714D01*
X11717000Y-14368000D01*
X11731286Y-14382286D01*
X11745571Y-14410857D01*
X11759857Y-14468000D01*
X11759857Y-14539429D01*
X11745571Y-14596571D01*
X11731286Y-14625143D01*
X11717000Y-14639429D01*
X11688428Y-14653714D01*
X11659857Y-14653714D01*
X11631286Y-14639429D01*
X11617000Y-14625143D01*
X11602714Y-14596571D01*
X11588428Y-14539429D01*
X11588428Y-14468000D01*
X11602714Y-14410857D01*
X11617000Y-14382286D01*
X11631286Y-14368000D01*
X11659857Y-14353714D01*
X11945571Y-14353714D02*
X11974143Y-14353714D01*
X12002714Y-14368000D01*
X12017000Y-14382286D01*
X12031286Y-14410857D01*
X12045571Y-14468000D01*
X12045571Y-14539429D01*
X12031286Y-14596571D01*
X12017000Y-14625143D01*
X12002714Y-14639429D01*
X11974143Y-14653714D01*
X11945571Y-14653714D01*
X11917000Y-14639429D01*
X11902714Y-14625143D01*
X11888428Y-14596571D01*
X11874143Y-14539429D01*
X11874143Y-14468000D01*
X11888428Y-14410857D01*
X11902714Y-14382286D01*
X11917000Y-14368000D01*
X11945571Y-14353714D01*
X12174143Y-14653714D02*
X12174143Y-14453714D01*
X12174143Y-14482286D02*
X12188428Y-14468000D01*
X12217000Y-14453714D01*
X12259857Y-14453714D01*
X12288428Y-14468000D01*
X12302714Y-14496571D01*
X12302714Y-14653714D01*
X12302714Y-14496571D02*
X12317000Y-14468000D01*
X12345571Y-14453714D01*
X12388428Y-14453714D01*
X12417000Y-14468000D01*
X12431286Y-14496571D01*
X12431286Y-14653714D01*
X12574143Y-14653714D02*
X12574143Y-14453714D01*
X12574143Y-14482286D02*
X12588428Y-14468000D01*
X12617000Y-14453714D01*
X12659857Y-14453714D01*
X12688428Y-14468000D01*
X12702714Y-14496571D01*
X12702714Y-14653714D01*
X12702714Y-14496571D02*
X12717000Y-14468000D01*
X12745571Y-14453714D01*
X12788428Y-14453714D01*
X12817000Y-14468000D01*
X12831286Y-14496571D01*
X12831286Y-14653714D01*
X13417000Y-14339429D02*
X13159857Y-14725143D01*
X13802714Y-14353714D02*
X13831286Y-14353714D01*
X13859857Y-14368000D01*
X13874143Y-14382286D01*
X13888428Y-14410857D01*
X13902714Y-14468000D01*
X13902714Y-14539429D01*
X13888428Y-14596571D01*
X13874143Y-14625143D01*
X13859857Y-14639429D01*
X13831286Y-14653714D01*
X13802714Y-14653714D01*
X13774143Y-14639429D01*
X13759857Y-14625143D01*
X13745571Y-14596571D01*
X13731286Y-14539429D01*
X13731286Y-14468000D01*
X13745571Y-14410857D01*
X13759857Y-14382286D01*
X13774143Y-14368000D01*
X13802714Y-14353714D01*
X14031286Y-14625143D02*
X14045571Y-14639429D01*
X14031286Y-14653714D01*
X14017000Y-14639429D01*
X14031286Y-14625143D01*
X14031286Y-14653714D01*
X14231286Y-14353714D02*
X14259857Y-14353714D01*
X14288428Y-14368000D01*
X14302714Y-14382286D01*
X14317000Y-14410857D01*
X14331286Y-14468000D01*
X14331286Y-14539429D01*
X14317000Y-14596571D01*
X14302714Y-14625143D01*
X14288428Y-14639429D01*
X14259857Y-14653714D01*
X14231286Y-14653714D01*
X14202714Y-14639429D01*
X14188428Y-14625143D01*
X14174143Y-14596571D01*
X14159857Y-14539429D01*
X14159857Y-14468000D01*
X14174143Y-14410857D01*
X14188428Y-14382286D01*
X14202714Y-14368000D01*
X14231286Y-14353714D01*
X14431286Y-14353714D02*
X14617000Y-14353714D01*
X14517000Y-14468000D01*
X14559857Y-14468000D01*
X14588428Y-14482286D01*
X14602714Y-14496571D01*
X14617000Y-14525143D01*
X14617000Y-14596571D01*
X14602714Y-14625143D01*
X14588428Y-14639429D01*
X14559857Y-14653714D01*
X14474143Y-14653714D01*
X14445571Y-14639429D01*
X14431286Y-14625143D01*
X14902714Y-14653714D02*
X14731286Y-14653714D01*
X14817000Y-14653714D02*
X14817000Y-14353714D01*
X14788428Y-14396571D01*
X14759857Y-14425143D01*
X14731286Y-14439429D01*
X15174143Y-14353714D02*
X15031286Y-14353714D01*
X15017000Y-14496571D01*
X15031286Y-14482286D01*
X15059857Y-14468000D01*
X15131286Y-14468000D01*
X15159857Y-14482286D01*
X15174143Y-14496571D01*
X15188428Y-14525143D01*
X15188428Y-14596571D01*
X15174143Y-14625143D01*
X15159857Y-14639429D01*
X15131286Y-14653714D01*
X15059857Y-14653714D01*
X15031286Y-14639429D01*
X15017000Y-14625143D01*
X15302714Y-14353714D02*
X15302714Y-14410857D01*
X15417000Y-14353714D02*
X15417000Y-14410857D01*
X15859857Y-14768000D02*
X15845571Y-14753714D01*
X15817000Y-14710857D01*
X15802714Y-14682286D01*
X15788428Y-14639429D01*
X15774143Y-14568000D01*
X15774143Y-14510857D01*
X15788428Y-14439429D01*
X15802714Y-14396571D01*
X15817000Y-14368000D01*
X15845571Y-14325143D01*
X15859857Y-14310857D01*
X15945571Y-14353714D02*
X16145571Y-14353714D01*
X16017000Y-14653714D01*
X16488428Y-14653714D02*
X16488428Y-14353714D01*
X16617000Y-14653714D02*
X16617000Y-14496571D01*
X16602714Y-14468000D01*
X16574143Y-14453714D01*
X16531286Y-14453714D01*
X16502714Y-14468000D01*
X16488428Y-14482286D01*
X16802714Y-14653714D02*
X16774143Y-14639429D01*
X16759857Y-14625143D01*
X16745571Y-14596571D01*
X16745571Y-14510857D01*
X16759857Y-14482286D01*
X16774143Y-14468000D01*
X16802714Y-14453714D01*
X16845571Y-14453714D01*
X16874143Y-14468000D01*
X16888428Y-14482286D01*
X16902714Y-14510857D01*
X16902714Y-14596571D01*
X16888428Y-14625143D01*
X16874143Y-14639429D01*
X16845571Y-14653714D01*
X16802714Y-14653714D01*
X17074143Y-14653714D02*
X17045571Y-14639429D01*
X17031286Y-14610857D01*
X17031286Y-14353714D01*
X17302714Y-14639429D02*
X17274143Y-14653714D01*
X17217000Y-14653714D01*
X17188428Y-14639429D01*
X17174143Y-14610857D01*
X17174143Y-14496571D01*
X17188428Y-14468000D01*
X17217000Y-14453714D01*
X17274143Y-14453714D01*
X17302714Y-14468000D01*
X17317000Y-14496571D01*
X17317000Y-14525143D01*
X17174143Y-14553714D01*
X17431286Y-14639429D02*
X17459857Y-14653714D01*
X17517000Y-14653714D01*
X17545571Y-14639429D01*
X17559857Y-14610857D01*
X17559857Y-14596571D01*
X17545571Y-14568000D01*
X17517000Y-14553714D01*
X17474143Y-14553714D01*
X17445571Y-14539429D01*
X17431286Y-14510857D01*
X17431286Y-14496571D01*
X17445571Y-14468000D01*
X17474143Y-14453714D01*
X17517000Y-14453714D01*
X17545571Y-14468000D01*
X17659857Y-14768000D02*
X17674143Y-14753714D01*
X17702714Y-14710857D01*
X17717000Y-14682286D01*
X17731286Y-14639429D01*
X17745571Y-14568000D01*
X17745571Y-14510857D01*
X17731286Y-14439429D01*
X17717000Y-14396571D01*
X17702714Y-14368000D01*
X17674143Y-14325143D01*
X17659857Y-14310857D01*
X10587502Y-14949002D02*
X10587502Y-14878998D01*
X10517498Y-14878998D01*
X10517498Y-14949002D01*
X10587502Y-14949002D01*
X10945571Y-14749714D02*
X10974143Y-14749714D01*
X11002714Y-14764000D01*
X11017000Y-14778286D01*
X11031286Y-14806857D01*
X11045571Y-14864000D01*
X11045571Y-14935429D01*
X11031286Y-14992571D01*
X11017000Y-15021143D01*
X11002714Y-15035429D01*
X10974143Y-15049714D01*
X10945571Y-15049714D01*
X10917000Y-15035429D01*
X10902714Y-15021143D01*
X10888428Y-14992571D01*
X10874143Y-14935429D01*
X10874143Y-14864000D01*
X10888428Y-14806857D01*
X10902714Y-14778286D01*
X10917000Y-14764000D01*
X10945571Y-14749714D01*
X11174143Y-15021143D02*
X11188428Y-15035429D01*
X11174143Y-15049714D01*
X11159857Y-15035429D01*
X11174143Y-15021143D01*
X11174143Y-15049714D01*
X11331286Y-15049714D02*
X11388428Y-15049714D01*
X11417000Y-15035429D01*
X11431286Y-15021143D01*
X11459857Y-14978286D01*
X11474143Y-14921143D01*
X11474143Y-14806857D01*
X11459857Y-14778286D01*
X11445571Y-14764000D01*
X11417000Y-14749714D01*
X11359857Y-14749714D01*
X11331286Y-14764000D01*
X11317000Y-14778286D01*
X11302714Y-14806857D01*
X11302714Y-14878286D01*
X11317000Y-14906857D01*
X11331286Y-14921143D01*
X11359857Y-14935429D01*
X11417000Y-14935429D01*
X11445571Y-14921143D01*
X11459857Y-14906857D01*
X11474143Y-14878286D01*
X11617000Y-15049714D02*
X11674143Y-15049714D01*
X11702714Y-15035429D01*
X11717000Y-15021143D01*
X11745571Y-14978286D01*
X11759857Y-14921143D01*
X11759857Y-14806857D01*
X11745571Y-14778286D01*
X11731286Y-14764000D01*
X11702714Y-14749714D01*
X11645571Y-14749714D01*
X11617000Y-14764000D01*
X11602714Y-14778286D01*
X11588428Y-14806857D01*
X11588428Y-14878286D01*
X11602714Y-14906857D01*
X11617000Y-14921143D01*
X11645571Y-14935429D01*
X11702714Y-14935429D01*
X11731286Y-14921143D01*
X11745571Y-14906857D01*
X11759857Y-14878286D01*
X11945571Y-14749714D02*
X11974143Y-14749714D01*
X12002714Y-14764000D01*
X12017000Y-14778286D01*
X12031286Y-14806857D01*
X12045571Y-14864000D01*
X12045571Y-14935429D01*
X12031286Y-14992571D01*
X12017000Y-15021143D01*
X12002714Y-15035429D01*
X11974143Y-15049714D01*
X11945571Y-15049714D01*
X11917000Y-15035429D01*
X11902714Y-15021143D01*
X11888428Y-14992571D01*
X11874143Y-14935429D01*
X11874143Y-14864000D01*
X11888428Y-14806857D01*
X11902714Y-14778286D01*
X11917000Y-14764000D01*
X11945571Y-14749714D01*
X12174143Y-15049714D02*
X12174143Y-14849714D01*
X12174143Y-14878286D02*
X12188428Y-14864000D01*
X12217000Y-14849714D01*
X12259857Y-14849714D01*
X12288428Y-14864000D01*
X12302714Y-14892571D01*
X12302714Y-15049714D01*
X12302714Y-14892571D02*
X12317000Y-14864000D01*
X12345571Y-14849714D01*
X12388428Y-14849714D01*
X12417000Y-14864000D01*
X12431286Y-14892571D01*
X12431286Y-15049714D01*
X12574143Y-15049714D02*
X12574143Y-14849714D01*
X12574143Y-14878286D02*
X12588428Y-14864000D01*
X12617000Y-14849714D01*
X12659857Y-14849714D01*
X12688428Y-14864000D01*
X12702714Y-14892571D01*
X12702714Y-15049714D01*
X12702714Y-14892571D02*
X12717000Y-14864000D01*
X12745571Y-14849714D01*
X12788428Y-14849714D01*
X12817000Y-14864000D01*
X12831286Y-14892571D01*
X12831286Y-15049714D01*
X13417000Y-14735429D02*
X13159857Y-15121143D01*
X13802714Y-14749714D02*
X13831286Y-14749714D01*
X13859857Y-14764000D01*
X13874143Y-14778286D01*
X13888428Y-14806857D01*
X13902714Y-14864000D01*
X13902714Y-14935429D01*
X13888428Y-14992571D01*
X13874143Y-15021143D01*
X13859857Y-15035429D01*
X13831286Y-15049714D01*
X13802714Y-15049714D01*
X13774143Y-15035429D01*
X13759857Y-15021143D01*
X13745571Y-14992571D01*
X13731286Y-14935429D01*
X13731286Y-14864000D01*
X13745571Y-14806857D01*
X13759857Y-14778286D01*
X13774143Y-14764000D01*
X13802714Y-14749714D01*
X14031286Y-15021143D02*
X14045571Y-15035429D01*
X14031286Y-15049714D01*
X14017000Y-15035429D01*
X14031286Y-15021143D01*
X14031286Y-15049714D01*
X14231286Y-14749714D02*
X14259857Y-14749714D01*
X14288428Y-14764000D01*
X14302714Y-14778286D01*
X14317000Y-14806857D01*
X14331286Y-14864000D01*
X14331286Y-14935429D01*
X14317000Y-14992571D01*
X14302714Y-15021143D01*
X14288428Y-15035429D01*
X14259857Y-15049714D01*
X14231286Y-15049714D01*
X14202714Y-15035429D01*
X14188428Y-15021143D01*
X14174143Y-14992571D01*
X14159857Y-14935429D01*
X14159857Y-14864000D01*
X14174143Y-14806857D01*
X14188428Y-14778286D01*
X14202714Y-14764000D01*
X14231286Y-14749714D01*
X14431286Y-14749714D02*
X14617000Y-14749714D01*
X14517000Y-14864000D01*
X14559857Y-14864000D01*
X14588428Y-14878286D01*
X14602714Y-14892571D01*
X14617000Y-14921143D01*
X14617000Y-14992571D01*
X14602714Y-15021143D01*
X14588428Y-15035429D01*
X14559857Y-15049714D01*
X14474143Y-15049714D01*
X14445571Y-15035429D01*
X14431286Y-15021143D01*
X14759857Y-15049714D02*
X14817000Y-15049714D01*
X14845571Y-15035429D01*
X14859857Y-15021143D01*
X14888428Y-14978286D01*
X14902714Y-14921143D01*
X14902714Y-14806857D01*
X14888428Y-14778286D01*
X14874143Y-14764000D01*
X14845571Y-14749714D01*
X14788428Y-14749714D01*
X14759857Y-14764000D01*
X14745571Y-14778286D01*
X14731286Y-14806857D01*
X14731286Y-14878286D01*
X14745571Y-14906857D01*
X14759857Y-14921143D01*
X14788428Y-14935429D01*
X14845571Y-14935429D01*
X14874143Y-14921143D01*
X14888428Y-14906857D01*
X14902714Y-14878286D01*
X15088428Y-14749714D02*
X15117000Y-14749714D01*
X15145571Y-14764000D01*
X15159857Y-14778286D01*
X15174143Y-14806857D01*
X15188428Y-14864000D01*
X15188428Y-14935429D01*
X15174143Y-14992571D01*
X15159857Y-15021143D01*
X15145571Y-15035429D01*
X15117000Y-15049714D01*
X15088428Y-15049714D01*
X15059857Y-15035429D01*
X15045571Y-15021143D01*
X15031286Y-14992571D01*
X15017000Y-14935429D01*
X15017000Y-14864000D01*
X15031286Y-14806857D01*
X15045571Y-14778286D01*
X15059857Y-14764000D01*
X15088428Y-14749714D01*
X15302714Y-14749714D02*
X15302714Y-14806857D01*
X15417000Y-14749714D02*
X15417000Y-14806857D01*
X15859857Y-15164000D02*
X15845571Y-15149714D01*
X15817000Y-15106857D01*
X15802714Y-15078286D01*
X15788428Y-15035429D01*
X15774143Y-14964000D01*
X15774143Y-14906857D01*
X15788428Y-14835429D01*
X15802714Y-14792571D01*
X15817000Y-14764000D01*
X15845571Y-14721143D01*
X15859857Y-14706857D01*
X15959857Y-14778286D02*
X15974143Y-14764000D01*
X16002714Y-14749714D01*
X16074143Y-14749714D01*
X16102714Y-14764000D01*
X16117000Y-14778286D01*
X16131286Y-14806857D01*
X16131286Y-14835429D01*
X16117000Y-14878286D01*
X15945571Y-15049714D01*
X16131286Y-15049714D01*
X16302714Y-14878286D02*
X16274143Y-14864000D01*
X16259857Y-14849714D01*
X16245571Y-14821143D01*
X16245571Y-14806857D01*
X16259857Y-14778286D01*
X16274143Y-14764000D01*
X16302714Y-14749714D01*
X16359857Y-14749714D01*
X16388428Y-14764000D01*
X16402714Y-14778286D01*
X16417000Y-14806857D01*
X16417000Y-14821143D01*
X16402714Y-14849714D01*
X16388428Y-14864000D01*
X16359857Y-14878286D01*
X16302714Y-14878286D01*
X16274143Y-14892571D01*
X16259857Y-14906857D01*
X16245571Y-14935429D01*
X16245571Y-14992571D01*
X16259857Y-15021143D01*
X16274143Y-15035429D01*
X16302714Y-15049714D01*
X16359857Y-15049714D01*
X16388428Y-15035429D01*
X16402714Y-15021143D01*
X16417000Y-14992571D01*
X16417000Y-14935429D01*
X16402714Y-14906857D01*
X16388428Y-14892571D01*
X16359857Y-14878286D01*
X16774143Y-15049714D02*
X16774143Y-14749714D01*
X16902714Y-15049714D02*
X16902714Y-14892571D01*
X16888428Y-14864000D01*
X16859857Y-14849714D01*
X16817000Y-14849714D01*
X16788428Y-14864000D01*
X16774143Y-14878286D01*
X17088428Y-15049714D02*
X17059857Y-15035429D01*
X17045571Y-15021143D01*
X17031286Y-14992571D01*
X17031286Y-14906857D01*
X17045571Y-14878286D01*
X17059857Y-14864000D01*
X17088428Y-14849714D01*
X17131286Y-14849714D01*
X17159857Y-14864000D01*
X17174143Y-14878286D01*
X17188428Y-14906857D01*
X17188428Y-14992571D01*
X17174143Y-15021143D01*
X17159857Y-15035429D01*
X17131286Y-15049714D01*
X17088428Y-15049714D01*
X17359857Y-15049714D02*
X17331286Y-15035429D01*
X17317000Y-15006857D01*
X17317000Y-14749714D01*
X17588428Y-15035429D02*
X17559857Y-15049714D01*
X17502714Y-15049714D01*
X17474143Y-15035429D01*
X17459857Y-15006857D01*
X17459857Y-14892571D01*
X17474143Y-14864000D01*
X17502714Y-14849714D01*
X17559857Y-14849714D01*
X17588428Y-14864000D01*
X17602714Y-14892571D01*
X17602714Y-14921143D01*
X17459857Y-14949714D01*
X17717000Y-15035429D02*
X17745571Y-15049714D01*
X17802714Y-15049714D01*
X17831286Y-15035429D01*
X17845571Y-15006857D01*
X17845571Y-14992571D01*
X17831286Y-14964000D01*
X17802714Y-14949714D01*
X17759857Y-14949714D01*
X17731286Y-14935429D01*
X17717000Y-14906857D01*
X17717000Y-14892571D01*
X17731286Y-14864000D01*
X17759857Y-14849714D01*
X17802714Y-14849714D01*
X17831286Y-14864000D01*
X17945571Y-15164000D02*
X17959857Y-15149714D01*
X17988428Y-15106857D01*
X18002714Y-15078286D01*
X18017000Y-15035429D01*
X18031286Y-14964000D01*
X18031286Y-14906857D01*
X18017000Y-14835429D01*
X18002714Y-14792571D01*
X17988428Y-14764000D01*
X17959857Y-14721143D01*
X17945571Y-14706857D01*
X10552000Y-15360000D02*
X10602000Y-15310000D01*
X10552000Y-15260000D01*
X10502000Y-15310000D01*
X10552000Y-15360000D01*
X11045571Y-15445714D02*
X10874143Y-15445714D01*
X10959857Y-15445714D02*
X10959857Y-15145714D01*
X10931286Y-15188571D01*
X10902714Y-15217143D01*
X10874143Y-15231429D01*
X11174143Y-15417143D02*
X11188428Y-15431429D01*
X11174143Y-15445714D01*
X11159857Y-15431429D01*
X11174143Y-15417143D01*
X11174143Y-15445714D01*
X11374143Y-15145714D02*
X11402714Y-15145714D01*
X11431286Y-15160000D01*
X11445571Y-15174286D01*
X11459857Y-15202857D01*
X11474143Y-15260000D01*
X11474143Y-15331429D01*
X11459857Y-15388571D01*
X11445571Y-15417143D01*
X11431286Y-15431429D01*
X11402714Y-15445714D01*
X11374143Y-15445714D01*
X11345571Y-15431429D01*
X11331286Y-15417143D01*
X11317000Y-15388571D01*
X11302714Y-15331429D01*
X11302714Y-15260000D01*
X11317000Y-15202857D01*
X11331286Y-15174286D01*
X11345571Y-15160000D01*
X11374143Y-15145714D01*
X11659857Y-15145714D02*
X11688428Y-15145714D01*
X11717000Y-15160000D01*
X11731286Y-15174286D01*
X11745571Y-15202857D01*
X11759857Y-15260000D01*
X11759857Y-15331429D01*
X11745571Y-15388571D01*
X11731286Y-15417143D01*
X11717000Y-15431429D01*
X11688428Y-15445714D01*
X11659857Y-15445714D01*
X11631286Y-15431429D01*
X11617000Y-15417143D01*
X11602714Y-15388571D01*
X11588428Y-15331429D01*
X11588428Y-15260000D01*
X11602714Y-15202857D01*
X11617000Y-15174286D01*
X11631286Y-15160000D01*
X11659857Y-15145714D01*
X11945571Y-15145714D02*
X11974143Y-15145714D01*
X12002714Y-15160000D01*
X12017000Y-15174286D01*
X12031286Y-15202857D01*
X12045571Y-15260000D01*
X12045571Y-15331429D01*
X12031286Y-15388571D01*
X12017000Y-15417143D01*
X12002714Y-15431429D01*
X11974143Y-15445714D01*
X11945571Y-15445714D01*
X11917000Y-15431429D01*
X11902714Y-15417143D01*
X11888428Y-15388571D01*
X11874143Y-15331429D01*
X11874143Y-15260000D01*
X11888428Y-15202857D01*
X11902714Y-15174286D01*
X11917000Y-15160000D01*
X11945571Y-15145714D01*
X12174143Y-15445714D02*
X12174143Y-15245714D01*
X12174143Y-15274286D02*
X12188428Y-15260000D01*
X12217000Y-15245714D01*
X12259857Y-15245714D01*
X12288428Y-15260000D01*
X12302714Y-15288571D01*
X12302714Y-15445714D01*
X12302714Y-15288571D02*
X12317000Y-15260000D01*
X12345571Y-15245714D01*
X12388428Y-15245714D01*
X12417000Y-15260000D01*
X12431286Y-15288571D01*
X12431286Y-15445714D01*
X12574143Y-15445714D02*
X12574143Y-15245714D01*
X12574143Y-15274286D02*
X12588428Y-15260000D01*
X12617000Y-15245714D01*
X12659857Y-15245714D01*
X12688428Y-15260000D01*
X12702714Y-15288571D01*
X12702714Y-15445714D01*
X12702714Y-15288571D02*
X12717000Y-15260000D01*
X12745571Y-15245714D01*
X12788428Y-15245714D01*
X12817000Y-15260000D01*
X12831286Y-15288571D01*
X12831286Y-15445714D01*
X13417000Y-15131429D02*
X13159857Y-15517143D01*
X13802714Y-15145714D02*
X13831286Y-15145714D01*
X13859857Y-15160000D01*
X13874143Y-15174286D01*
X13888428Y-15202857D01*
X13902714Y-15260000D01*
X13902714Y-15331429D01*
X13888428Y-15388571D01*
X13874143Y-15417143D01*
X13859857Y-15431429D01*
X13831286Y-15445714D01*
X13802714Y-15445714D01*
X13774143Y-15431429D01*
X13759857Y-15417143D01*
X13745571Y-15388571D01*
X13731286Y-15331429D01*
X13731286Y-15260000D01*
X13745571Y-15202857D01*
X13759857Y-15174286D01*
X13774143Y-15160000D01*
X13802714Y-15145714D01*
X14031286Y-15417143D02*
X14045571Y-15431429D01*
X14031286Y-15445714D01*
X14017000Y-15431429D01*
X14031286Y-15417143D01*
X14031286Y-15445714D01*
X14231286Y-15145714D02*
X14259857Y-15145714D01*
X14288428Y-15160000D01*
X14302714Y-15174286D01*
X14317000Y-15202857D01*
X14331286Y-15260000D01*
X14331286Y-15331429D01*
X14317000Y-15388571D01*
X14302714Y-15417143D01*
X14288428Y-15431429D01*
X14259857Y-15445714D01*
X14231286Y-15445714D01*
X14202714Y-15431429D01*
X14188428Y-15417143D01*
X14174143Y-15388571D01*
X14159857Y-15331429D01*
X14159857Y-15260000D01*
X14174143Y-15202857D01*
X14188428Y-15174286D01*
X14202714Y-15160000D01*
X14231286Y-15145714D01*
X14431286Y-15145714D02*
X14617000Y-15145714D01*
X14517000Y-15260000D01*
X14559857Y-15260000D01*
X14588428Y-15274286D01*
X14602714Y-15288571D01*
X14617000Y-15317143D01*
X14617000Y-15388571D01*
X14602714Y-15417143D01*
X14588428Y-15431429D01*
X14559857Y-15445714D01*
X14474143Y-15445714D01*
X14445571Y-15431429D01*
X14431286Y-15417143D01*
X14759857Y-15445714D02*
X14817000Y-15445714D01*
X14845571Y-15431429D01*
X14859857Y-15417143D01*
X14888428Y-15374286D01*
X14902714Y-15317143D01*
X14902714Y-15202857D01*
X14888428Y-15174286D01*
X14874143Y-15160000D01*
X14845571Y-15145714D01*
X14788428Y-15145714D01*
X14759857Y-15160000D01*
X14745571Y-15174286D01*
X14731286Y-15202857D01*
X14731286Y-15274286D01*
X14745571Y-15302857D01*
X14759857Y-15317143D01*
X14788428Y-15331429D01*
X14845571Y-15331429D01*
X14874143Y-15317143D01*
X14888428Y-15302857D01*
X14902714Y-15274286D01*
X15159857Y-15245714D02*
X15159857Y-15445714D01*
X15088428Y-15131429D02*
X15017000Y-15345714D01*
X15202714Y-15345714D01*
X15302714Y-15145714D02*
X15302714Y-15202857D01*
X15417000Y-15145714D02*
X15417000Y-15202857D01*
X15859857Y-15560000D02*
X15845571Y-15545714D01*
X15817000Y-15502857D01*
X15802714Y-15474286D01*
X15788428Y-15431429D01*
X15774143Y-15360000D01*
X15774143Y-15302857D01*
X15788428Y-15231429D01*
X15802714Y-15188571D01*
X15817000Y-15160000D01*
X15845571Y-15117143D01*
X15859857Y-15102857D01*
X15959857Y-15174286D02*
X15974143Y-15160000D01*
X16002714Y-15145714D01*
X16074143Y-15145714D01*
X16102714Y-15160000D01*
X16117000Y-15174286D01*
X16131286Y-15202857D01*
X16131286Y-15231429D01*
X16117000Y-15274286D01*
X15945571Y-15445714D01*
X16131286Y-15445714D01*
X16231286Y-15145714D02*
X16417000Y-15145714D01*
X16317000Y-15260000D01*
X16359857Y-15260000D01*
X16388428Y-15274286D01*
X16402714Y-15288571D01*
X16417000Y-15317143D01*
X16417000Y-15388571D01*
X16402714Y-15417143D01*
X16388428Y-15431429D01*
X16359857Y-15445714D01*
X16274143Y-15445714D01*
X16245571Y-15431429D01*
X16231286Y-15417143D01*
X16774143Y-15445714D02*
X16774143Y-15145714D01*
X16902714Y-15445714D02*
X16902714Y-15288571D01*
X16888428Y-15260000D01*
X16859857Y-15245714D01*
X16817000Y-15245714D01*
X16788428Y-15260000D01*
X16774143Y-15274286D01*
X17088428Y-15445714D02*
X17059857Y-15431429D01*
X17045571Y-15417143D01*
X17031286Y-15388571D01*
X17031286Y-15302857D01*
X17045571Y-15274286D01*
X17059857Y-15260000D01*
X17088428Y-15245714D01*
X17131286Y-15245714D01*
X17159857Y-15260000D01*
X17174143Y-15274286D01*
X17188428Y-15302857D01*
X17188428Y-15388571D01*
X17174143Y-15417143D01*
X17159857Y-15431429D01*
X17131286Y-15445714D01*
X17088428Y-15445714D01*
X17359857Y-15445714D02*
X17331286Y-15431429D01*
X17317000Y-15402857D01*
X17317000Y-15145714D01*
X17588428Y-15431429D02*
X17559857Y-15445714D01*
X17502714Y-15445714D01*
X17474143Y-15431429D01*
X17459857Y-15402857D01*
X17459857Y-15288571D01*
X17474143Y-15260000D01*
X17502714Y-15245714D01*
X17559857Y-15245714D01*
X17588428Y-15260000D01*
X17602714Y-15288571D01*
X17602714Y-15317143D01*
X17459857Y-15345714D01*
X17717000Y-15431429D02*
X17745571Y-15445714D01*
X17802714Y-15445714D01*
X17831286Y-15431429D01*
X17845571Y-15402857D01*
X17845571Y-15388571D01*
X17831286Y-15360000D01*
X17802714Y-15345714D01*
X17759857Y-15345714D01*
X17731286Y-15331429D01*
X17717000Y-15302857D01*
X17717000Y-15288571D01*
X17731286Y-15260000D01*
X17759857Y-15245714D01*
X17802714Y-15245714D01*
X17831286Y-15260000D01*
X18202714Y-15331429D02*
X18431286Y-15331429D01*
X18317000Y-15445714D02*
X18317000Y-15217143D01*
X18774143Y-15145714D02*
X18959857Y-15145714D01*
X18859857Y-15260000D01*
X18902714Y-15260000D01*
X18931286Y-15274286D01*
X18945571Y-15288571D01*
X18959857Y-15317143D01*
X18959857Y-15388571D01*
X18945571Y-15417143D01*
X18931286Y-15431429D01*
X18902714Y-15445714D01*
X18817000Y-15445714D01*
X18788428Y-15431429D01*
X18774143Y-15417143D01*
X19302714Y-15431429D02*
X19331286Y-15445714D01*
X19388428Y-15445714D01*
X19417000Y-15431429D01*
X19431286Y-15402857D01*
X19431286Y-15388571D01*
X19417000Y-15360000D01*
X19388428Y-15345714D01*
X19345571Y-15345714D01*
X19317000Y-15331429D01*
X19302714Y-15302857D01*
X19302714Y-15288571D01*
X19317000Y-15260000D01*
X19345571Y-15245714D01*
X19388428Y-15245714D01*
X19417000Y-15260000D01*
X19602714Y-15445714D02*
X19574143Y-15431429D01*
X19559857Y-15402857D01*
X19559857Y-15145714D01*
X19759857Y-15445714D02*
X19731286Y-15431429D01*
X19717000Y-15417143D01*
X19702714Y-15388571D01*
X19702714Y-15302857D01*
X19717000Y-15274286D01*
X19731286Y-15260000D01*
X19759857Y-15245714D01*
X19802714Y-15245714D01*
X19831286Y-15260000D01*
X19845571Y-15274286D01*
X19859857Y-15302857D01*
X19859857Y-15388571D01*
X19845571Y-15417143D01*
X19831286Y-15431429D01*
X19802714Y-15445714D01*
X19759857Y-15445714D01*
X19945571Y-15245714D02*
X20059857Y-15245714D01*
X19988428Y-15145714D02*
X19988428Y-15402857D01*
X20002714Y-15431429D01*
X20031286Y-15445714D01*
X20059857Y-15445714D01*
X20145571Y-15431429D02*
X20174143Y-15445714D01*
X20231286Y-15445714D01*
X20259857Y-15431429D01*
X20274143Y-15402857D01*
X20274143Y-15388571D01*
X20259857Y-15360000D01*
X20231286Y-15345714D01*
X20188428Y-15345714D01*
X20159857Y-15331429D01*
X20145571Y-15302857D01*
X20145571Y-15288571D01*
X20159857Y-15260000D01*
X20188428Y-15245714D01*
X20231286Y-15245714D01*
X20259857Y-15260000D01*
X20374143Y-15560000D02*
X20388428Y-15545714D01*
X20417000Y-15502857D01*
X20431286Y-15474286D01*
X20445571Y-15431429D01*
X20459857Y-15360000D01*
X20459857Y-15302857D01*
X20445571Y-15231429D01*
X20431286Y-15188571D01*
X20417000Y-15160000D01*
X20388428Y-15117143D01*
X20374143Y-15102857D01*
X10482000Y-15646000D02*
X10602000Y-15766000D01*
X10602000Y-15646000D02*
X10482000Y-15766000D01*
X10602000Y-15706000D02*
G75*
G03*
X10602000Y-15706000I-60000J0D01*
G01*
X11045571Y-15841714D02*
X10874143Y-15841714D01*
X10959857Y-15841714D02*
X10959857Y-15541714D01*
X10931286Y-15584571D01*
X10902714Y-15613143D01*
X10874143Y-15627429D01*
X11174143Y-15813143D02*
X11188428Y-15827429D01*
X11174143Y-15841714D01*
X11159857Y-15827429D01*
X11174143Y-15813143D01*
X11174143Y-15841714D01*
X11302714Y-15570286D02*
X11317000Y-15556000D01*
X11345571Y-15541714D01*
X11417000Y-15541714D01*
X11445571Y-15556000D01*
X11459857Y-15570286D01*
X11474143Y-15598857D01*
X11474143Y-15627429D01*
X11459857Y-15670286D01*
X11288428Y-15841714D01*
X11474143Y-15841714D01*
X11659857Y-15541714D02*
X11688428Y-15541714D01*
X11717000Y-15556000D01*
X11731286Y-15570286D01*
X11745571Y-15598857D01*
X11759857Y-15656000D01*
X11759857Y-15727429D01*
X11745571Y-15784571D01*
X11731286Y-15813143D01*
X11717000Y-15827429D01*
X11688428Y-15841714D01*
X11659857Y-15841714D01*
X11631286Y-15827429D01*
X11617000Y-15813143D01*
X11602714Y-15784571D01*
X11588428Y-15727429D01*
X11588428Y-15656000D01*
X11602714Y-15598857D01*
X11617000Y-15570286D01*
X11631286Y-15556000D01*
X11659857Y-15541714D01*
X11945571Y-15541714D02*
X11974143Y-15541714D01*
X12002714Y-15556000D01*
X12017000Y-15570286D01*
X12031286Y-15598857D01*
X12045571Y-15656000D01*
X12045571Y-15727429D01*
X12031286Y-15784571D01*
X12017000Y-15813143D01*
X12002714Y-15827429D01*
X11974143Y-15841714D01*
X11945571Y-15841714D01*
X11917000Y-15827429D01*
X11902714Y-15813143D01*
X11888428Y-15784571D01*
X11874143Y-15727429D01*
X11874143Y-15656000D01*
X11888428Y-15598857D01*
X11902714Y-15570286D01*
X11917000Y-15556000D01*
X11945571Y-15541714D01*
X12174143Y-15841714D02*
X12174143Y-15641714D01*
X12174143Y-15670286D02*
X12188428Y-15656000D01*
X12217000Y-15641714D01*
X12259857Y-15641714D01*
X12288428Y-15656000D01*
X12302714Y-15684571D01*
X12302714Y-15841714D01*
X12302714Y-15684571D02*
X12317000Y-15656000D01*
X12345571Y-15641714D01*
X12388428Y-15641714D01*
X12417000Y-15656000D01*
X12431286Y-15684571D01*
X12431286Y-15841714D01*
X12574143Y-15841714D02*
X12574143Y-15641714D01*
X12574143Y-15670286D02*
X12588428Y-15656000D01*
X12617000Y-15641714D01*
X12659857Y-15641714D01*
X12688428Y-15656000D01*
X12702714Y-15684571D01*
X12702714Y-15841714D01*
X12702714Y-15684571D02*
X12717000Y-15656000D01*
X12745571Y-15641714D01*
X12788428Y-15641714D01*
X12817000Y-15656000D01*
X12831286Y-15684571D01*
X12831286Y-15841714D01*
X13417000Y-15527429D02*
X13159857Y-15913143D01*
X13802714Y-15541714D02*
X13831286Y-15541714D01*
X13859857Y-15556000D01*
X13874143Y-15570286D01*
X13888428Y-15598857D01*
X13902714Y-15656000D01*
X13902714Y-15727429D01*
X13888428Y-15784571D01*
X13874143Y-15813143D01*
X13859857Y-15827429D01*
X13831286Y-15841714D01*
X13802714Y-15841714D01*
X13774143Y-15827429D01*
X13759857Y-15813143D01*
X13745571Y-15784571D01*
X13731286Y-15727429D01*
X13731286Y-15656000D01*
X13745571Y-15598857D01*
X13759857Y-15570286D01*
X13774143Y-15556000D01*
X13802714Y-15541714D01*
X14031286Y-15813143D02*
X14045571Y-15827429D01*
X14031286Y-15841714D01*
X14017000Y-15827429D01*
X14031286Y-15813143D01*
X14031286Y-15841714D01*
X14231286Y-15541714D02*
X14259857Y-15541714D01*
X14288428Y-15556000D01*
X14302714Y-15570286D01*
X14317000Y-15598857D01*
X14331286Y-15656000D01*
X14331286Y-15727429D01*
X14317000Y-15784571D01*
X14302714Y-15813143D01*
X14288428Y-15827429D01*
X14259857Y-15841714D01*
X14231286Y-15841714D01*
X14202714Y-15827429D01*
X14188428Y-15813143D01*
X14174143Y-15784571D01*
X14159857Y-15727429D01*
X14159857Y-15656000D01*
X14174143Y-15598857D01*
X14188428Y-15570286D01*
X14202714Y-15556000D01*
X14231286Y-15541714D01*
X14588428Y-15641714D02*
X14588428Y-15841714D01*
X14517000Y-15527429D02*
X14445571Y-15741714D01*
X14631286Y-15741714D01*
X14717000Y-15541714D02*
X14917000Y-15541714D01*
X14788428Y-15841714D01*
X15017000Y-15570286D02*
X15031286Y-15556000D01*
X15059857Y-15541714D01*
X15131286Y-15541714D01*
X15159857Y-15556000D01*
X15174143Y-15570286D01*
X15188428Y-15598857D01*
X15188428Y-15627429D01*
X15174143Y-15670286D01*
X15002714Y-15841714D01*
X15188428Y-15841714D01*
X15302714Y-15541714D02*
X15302714Y-15598857D01*
X15417000Y-15541714D02*
X15417000Y-15598857D01*
X15859857Y-15956000D02*
X15845571Y-15941714D01*
X15817000Y-15898857D01*
X15802714Y-15870286D01*
X15788428Y-15827429D01*
X15774143Y-15756000D01*
X15774143Y-15698857D01*
X15788428Y-15627429D01*
X15802714Y-15584571D01*
X15817000Y-15556000D01*
X15845571Y-15513143D01*
X15859857Y-15498857D01*
X16131286Y-15841714D02*
X15959857Y-15841714D01*
X16045571Y-15841714D02*
X16045571Y-15541714D01*
X16017000Y-15584571D01*
X15988428Y-15613143D01*
X15959857Y-15627429D01*
X16388428Y-15541714D02*
X16331286Y-15541714D01*
X16302714Y-15556000D01*
X16288428Y-15570286D01*
X16259857Y-15613143D01*
X16245571Y-15670286D01*
X16245571Y-15784571D01*
X16259857Y-15813143D01*
X16274143Y-15827429D01*
X16302714Y-15841714D01*
X16359857Y-15841714D01*
X16388428Y-15827429D01*
X16402714Y-15813143D01*
X16417000Y-15784571D01*
X16417000Y-15713143D01*
X16402714Y-15684571D01*
X16388428Y-15670286D01*
X16359857Y-15656000D01*
X16302714Y-15656000D01*
X16274143Y-15670286D01*
X16259857Y-15684571D01*
X16245571Y-15713143D01*
X16774143Y-15841714D02*
X16774143Y-15541714D01*
X16902714Y-15841714D02*
X16902714Y-15684571D01*
X16888428Y-15656000D01*
X16859857Y-15641714D01*
X16817000Y-15641714D01*
X16788428Y-15656000D01*
X16774143Y-15670286D01*
X17088428Y-15841714D02*
X17059857Y-15827429D01*
X17045571Y-15813143D01*
X17031286Y-15784571D01*
X17031286Y-15698857D01*
X17045571Y-15670286D01*
X17059857Y-15656000D01*
X17088428Y-15641714D01*
X17131286Y-15641714D01*
X17159857Y-15656000D01*
X17174143Y-15670286D01*
X17188428Y-15698857D01*
X17188428Y-15784571D01*
X17174143Y-15813143D01*
X17159857Y-15827429D01*
X17131286Y-15841714D01*
X17088428Y-15841714D01*
X17359857Y-15841714D02*
X17331286Y-15827429D01*
X17317000Y-15798857D01*
X17317000Y-15541714D01*
X17588428Y-15827429D02*
X17559857Y-15841714D01*
X17502714Y-15841714D01*
X17474143Y-15827429D01*
X17459857Y-15798857D01*
X17459857Y-15684571D01*
X17474143Y-15656000D01*
X17502714Y-15641714D01*
X17559857Y-15641714D01*
X17588428Y-15656000D01*
X17602714Y-15684571D01*
X17602714Y-15713143D01*
X17459857Y-15741714D01*
X17717000Y-15827429D02*
X17745571Y-15841714D01*
X17802714Y-15841714D01*
X17831286Y-15827429D01*
X17845571Y-15798857D01*
X17845571Y-15784571D01*
X17831286Y-15756000D01*
X17802714Y-15741714D01*
X17759857Y-15741714D01*
X17731286Y-15727429D01*
X17717000Y-15698857D01*
X17717000Y-15684571D01*
X17731286Y-15656000D01*
X17759857Y-15641714D01*
X17802714Y-15641714D01*
X17831286Y-15656000D01*
X17945571Y-15956000D02*
X17959857Y-15941714D01*
X17988428Y-15898857D01*
X18002714Y-15870286D01*
X18017000Y-15827429D01*
X18031286Y-15756000D01*
X18031286Y-15698857D01*
X18017000Y-15627429D01*
X18002714Y-15584571D01*
X17988428Y-15556000D01*
X17959857Y-15513143D01*
X17945571Y-15498857D01*
X10462000Y-16032000D02*
X10602000Y-16172000D01*
X10602000Y-16032000D02*
X10462000Y-16172000D01*
X10532000Y-16032000D02*
X10532000Y-16172000D01*
X10462000Y-16102000D02*
X10602000Y-16102000D01*
X11045571Y-16237714D02*
X10874143Y-16237714D01*
X10959857Y-16237714D02*
X10959857Y-15937714D01*
X10931286Y-15980571D01*
X10902714Y-16009143D01*
X10874143Y-16023429D01*
X11174143Y-16209143D02*
X11188428Y-16223429D01*
X11174143Y-16237714D01*
X11159857Y-16223429D01*
X11174143Y-16209143D01*
X11174143Y-16237714D01*
X11445571Y-16037714D02*
X11445571Y-16237714D01*
X11374143Y-15923429D02*
X11302714Y-16137714D01*
X11488428Y-16137714D01*
X11659857Y-15937714D02*
X11688428Y-15937714D01*
X11717000Y-15952000D01*
X11731286Y-15966286D01*
X11745571Y-15994857D01*
X11759857Y-16052000D01*
X11759857Y-16123429D01*
X11745571Y-16180571D01*
X11731286Y-16209143D01*
X11717000Y-16223429D01*
X11688428Y-16237714D01*
X11659857Y-16237714D01*
X11631286Y-16223429D01*
X11617000Y-16209143D01*
X11602714Y-16180571D01*
X11588428Y-16123429D01*
X11588428Y-16052000D01*
X11602714Y-15994857D01*
X11617000Y-15966286D01*
X11631286Y-15952000D01*
X11659857Y-15937714D01*
X11945571Y-15937714D02*
X11974143Y-15937714D01*
X12002714Y-15952000D01*
X12017000Y-15966286D01*
X12031286Y-15994857D01*
X12045571Y-16052000D01*
X12045571Y-16123429D01*
X12031286Y-16180571D01*
X12017000Y-16209143D01*
X12002714Y-16223429D01*
X11974143Y-16237714D01*
X11945571Y-16237714D01*
X11917000Y-16223429D01*
X11902714Y-16209143D01*
X11888428Y-16180571D01*
X11874143Y-16123429D01*
X11874143Y-16052000D01*
X11888428Y-15994857D01*
X11902714Y-15966286D01*
X11917000Y-15952000D01*
X11945571Y-15937714D01*
X12174143Y-16237714D02*
X12174143Y-16037714D01*
X12174143Y-16066286D02*
X12188428Y-16052000D01*
X12217000Y-16037714D01*
X12259857Y-16037714D01*
X12288428Y-16052000D01*
X12302714Y-16080571D01*
X12302714Y-16237714D01*
X12302714Y-16080571D02*
X12317000Y-16052000D01*
X12345571Y-16037714D01*
X12388428Y-16037714D01*
X12417000Y-16052000D01*
X12431286Y-16080571D01*
X12431286Y-16237714D01*
X12574143Y-16237714D02*
X12574143Y-16037714D01*
X12574143Y-16066286D02*
X12588428Y-16052000D01*
X12617000Y-16037714D01*
X12659857Y-16037714D01*
X12688428Y-16052000D01*
X12702714Y-16080571D01*
X12702714Y-16237714D01*
X12702714Y-16080571D02*
X12717000Y-16052000D01*
X12745571Y-16037714D01*
X12788428Y-16037714D01*
X12817000Y-16052000D01*
X12831286Y-16080571D01*
X12831286Y-16237714D01*
X13417000Y-15923429D02*
X13159857Y-16309143D01*
X13802714Y-15937714D02*
X13831286Y-15937714D01*
X13859857Y-15952000D01*
X13874143Y-15966286D01*
X13888428Y-15994857D01*
X13902714Y-16052000D01*
X13902714Y-16123429D01*
X13888428Y-16180571D01*
X13874143Y-16209143D01*
X13859857Y-16223429D01*
X13831286Y-16237714D01*
X13802714Y-16237714D01*
X13774143Y-16223429D01*
X13759857Y-16209143D01*
X13745571Y-16180571D01*
X13731286Y-16123429D01*
X13731286Y-16052000D01*
X13745571Y-15994857D01*
X13759857Y-15966286D01*
X13774143Y-15952000D01*
X13802714Y-15937714D01*
X14031286Y-16209143D02*
X14045571Y-16223429D01*
X14031286Y-16237714D01*
X14017000Y-16223429D01*
X14031286Y-16209143D01*
X14031286Y-16237714D01*
X14231286Y-15937714D02*
X14259857Y-15937714D01*
X14288428Y-15952000D01*
X14302714Y-15966286D01*
X14317000Y-15994857D01*
X14331286Y-16052000D01*
X14331286Y-16123429D01*
X14317000Y-16180571D01*
X14302714Y-16209143D01*
X14288428Y-16223429D01*
X14259857Y-16237714D01*
X14231286Y-16237714D01*
X14202714Y-16223429D01*
X14188428Y-16209143D01*
X14174143Y-16180571D01*
X14159857Y-16123429D01*
X14159857Y-16052000D01*
X14174143Y-15994857D01*
X14188428Y-15966286D01*
X14202714Y-15952000D01*
X14231286Y-15937714D01*
X14602714Y-15937714D02*
X14459857Y-15937714D01*
X14445571Y-16080571D01*
X14459857Y-16066286D01*
X14488428Y-16052000D01*
X14559857Y-16052000D01*
X14588428Y-16066286D01*
X14602714Y-16080571D01*
X14617000Y-16109143D01*
X14617000Y-16180571D01*
X14602714Y-16209143D01*
X14588428Y-16223429D01*
X14559857Y-16237714D01*
X14488428Y-16237714D01*
X14459857Y-16223429D01*
X14445571Y-16209143D01*
X14888428Y-15937714D02*
X14745571Y-15937714D01*
X14731286Y-16080571D01*
X14745571Y-16066286D01*
X14774143Y-16052000D01*
X14845571Y-16052000D01*
X14874143Y-16066286D01*
X14888428Y-16080571D01*
X14902714Y-16109143D01*
X14902714Y-16180571D01*
X14888428Y-16209143D01*
X14874143Y-16223429D01*
X14845571Y-16237714D01*
X14774143Y-16237714D01*
X14745571Y-16223429D01*
X14731286Y-16209143D01*
X15188428Y-16237714D02*
X15017000Y-16237714D01*
X15102714Y-16237714D02*
X15102714Y-15937714D01*
X15074143Y-15980571D01*
X15045571Y-16009143D01*
X15017000Y-16023429D01*
X15302714Y-15937714D02*
X15302714Y-15994857D01*
X15417000Y-15937714D02*
X15417000Y-15994857D01*
X15859857Y-16352000D02*
X15845571Y-16337714D01*
X15817000Y-16294857D01*
X15802714Y-16266286D01*
X15788428Y-16223429D01*
X15774143Y-16152000D01*
X15774143Y-16094857D01*
X15788428Y-16023429D01*
X15802714Y-15980571D01*
X15817000Y-15952000D01*
X15845571Y-15909143D01*
X15859857Y-15894857D01*
X15945571Y-15937714D02*
X16145571Y-15937714D01*
X16017000Y-16237714D01*
X16488428Y-16237714D02*
X16488428Y-15937714D01*
X16617000Y-16237714D02*
X16617000Y-16080571D01*
X16602714Y-16052000D01*
X16574143Y-16037714D01*
X16531286Y-16037714D01*
X16502714Y-16052000D01*
X16488428Y-16066286D01*
X16802714Y-16237714D02*
X16774143Y-16223429D01*
X16759857Y-16209143D01*
X16745571Y-16180571D01*
X16745571Y-16094857D01*
X16759857Y-16066286D01*
X16774143Y-16052000D01*
X16802714Y-16037714D01*
X16845571Y-16037714D01*
X16874143Y-16052000D01*
X16888428Y-16066286D01*
X16902714Y-16094857D01*
X16902714Y-16180571D01*
X16888428Y-16209143D01*
X16874143Y-16223429D01*
X16845571Y-16237714D01*
X16802714Y-16237714D01*
X17074143Y-16237714D02*
X17045571Y-16223429D01*
X17031286Y-16194857D01*
X17031286Y-15937714D01*
X17302714Y-16223429D02*
X17274143Y-16237714D01*
X17217000Y-16237714D01*
X17188428Y-16223429D01*
X17174143Y-16194857D01*
X17174143Y-16080571D01*
X17188428Y-16052000D01*
X17217000Y-16037714D01*
X17274143Y-16037714D01*
X17302714Y-16052000D01*
X17317000Y-16080571D01*
X17317000Y-16109143D01*
X17174143Y-16137714D01*
X17431286Y-16223429D02*
X17459857Y-16237714D01*
X17517000Y-16237714D01*
X17545571Y-16223429D01*
X17559857Y-16194857D01*
X17559857Y-16180571D01*
X17545571Y-16152000D01*
X17517000Y-16137714D01*
X17474143Y-16137714D01*
X17445571Y-16123429D01*
X17431286Y-16094857D01*
X17431286Y-16080571D01*
X17445571Y-16052000D01*
X17474143Y-16037714D01*
X17517000Y-16037714D01*
X17545571Y-16052000D01*
X17659857Y-16352000D02*
X17674143Y-16337714D01*
X17702714Y-16294857D01*
X17717000Y-16266286D01*
X17731286Y-16223429D01*
X17745571Y-16152000D01*
X17745571Y-16094857D01*
X17731286Y-16023429D01*
X17717000Y-15980571D01*
X17702714Y-15952000D01*
X17674143Y-15909143D01*
X17659857Y-15894857D01*
X10363000Y-16378500D02*
X10602000Y-16617500D01*
X10602000Y-16378500D02*
X10363000Y-16617500D01*
X10567000Y-16582500D02*
X10567000Y-16413500D01*
X10398000Y-16413500D01*
X10398000Y-16582500D01*
X10567000Y-16582500D01*
X10874143Y-16362286D02*
X10888428Y-16348000D01*
X10917000Y-16333714D01*
X10988428Y-16333714D01*
X11017000Y-16348000D01*
X11031286Y-16362286D01*
X11045571Y-16390857D01*
X11045571Y-16419429D01*
X11031286Y-16462286D01*
X10859857Y-16633714D01*
X11045571Y-16633714D01*
X11174143Y-16605143D02*
X11188428Y-16619429D01*
X11174143Y-16633714D01*
X11159857Y-16619429D01*
X11174143Y-16605143D01*
X11174143Y-16633714D01*
X11288428Y-16333714D02*
X11474143Y-16333714D01*
X11374143Y-16448000D01*
X11417000Y-16448000D01*
X11445571Y-16462286D01*
X11459857Y-16476571D01*
X11474143Y-16505143D01*
X11474143Y-16576571D01*
X11459857Y-16605143D01*
X11445571Y-16619429D01*
X11417000Y-16633714D01*
X11331286Y-16633714D01*
X11302714Y-16619429D01*
X11288428Y-16605143D01*
X11617000Y-16633714D02*
X11674143Y-16633714D01*
X11702714Y-16619429D01*
X11717000Y-16605143D01*
X11745571Y-16562286D01*
X11759857Y-16505143D01*
X11759857Y-16390857D01*
X11745571Y-16362286D01*
X11731286Y-16348000D01*
X11702714Y-16333714D01*
X11645571Y-16333714D01*
X11617000Y-16348000D01*
X11602714Y-16362286D01*
X11588428Y-16390857D01*
X11588428Y-16462286D01*
X11602714Y-16490857D01*
X11617000Y-16505143D01*
X11645571Y-16519429D01*
X11702714Y-16519429D01*
X11731286Y-16505143D01*
X11745571Y-16490857D01*
X11759857Y-16462286D01*
X11945571Y-16333714D02*
X11974143Y-16333714D01*
X12002714Y-16348000D01*
X12017000Y-16362286D01*
X12031286Y-16390857D01*
X12045571Y-16448000D01*
X12045571Y-16519429D01*
X12031286Y-16576571D01*
X12017000Y-16605143D01*
X12002714Y-16619429D01*
X11974143Y-16633714D01*
X11945571Y-16633714D01*
X11917000Y-16619429D01*
X11902714Y-16605143D01*
X11888428Y-16576571D01*
X11874143Y-16519429D01*
X11874143Y-16448000D01*
X11888428Y-16390857D01*
X11902714Y-16362286D01*
X11917000Y-16348000D01*
X11945571Y-16333714D01*
X12174143Y-16633714D02*
X12174143Y-16433714D01*
X12174143Y-16462286D02*
X12188428Y-16448000D01*
X12217000Y-16433714D01*
X12259857Y-16433714D01*
X12288428Y-16448000D01*
X12302714Y-16476571D01*
X12302714Y-16633714D01*
X12302714Y-16476571D02*
X12317000Y-16448000D01*
X12345571Y-16433714D01*
X12388428Y-16433714D01*
X12417000Y-16448000D01*
X12431286Y-16476571D01*
X12431286Y-16633714D01*
X12574143Y-16633714D02*
X12574143Y-16433714D01*
X12574143Y-16462286D02*
X12588428Y-16448000D01*
X12617000Y-16433714D01*
X12659857Y-16433714D01*
X12688428Y-16448000D01*
X12702714Y-16476571D01*
X12702714Y-16633714D01*
X12702714Y-16476571D02*
X12717000Y-16448000D01*
X12745571Y-16433714D01*
X12788428Y-16433714D01*
X12817000Y-16448000D01*
X12831286Y-16476571D01*
X12831286Y-16633714D01*
X13417000Y-16319429D02*
X13159857Y-16705143D01*
X13802714Y-16333714D02*
X13831286Y-16333714D01*
X13859857Y-16348000D01*
X13874143Y-16362286D01*
X13888428Y-16390857D01*
X13902714Y-16448000D01*
X13902714Y-16519429D01*
X13888428Y-16576571D01*
X13874143Y-16605143D01*
X13859857Y-16619429D01*
X13831286Y-16633714D01*
X13802714Y-16633714D01*
X13774143Y-16619429D01*
X13759857Y-16605143D01*
X13745571Y-16576571D01*
X13731286Y-16519429D01*
X13731286Y-16448000D01*
X13745571Y-16390857D01*
X13759857Y-16362286D01*
X13774143Y-16348000D01*
X13802714Y-16333714D01*
X14031286Y-16605143D02*
X14045571Y-16619429D01*
X14031286Y-16633714D01*
X14017000Y-16619429D01*
X14031286Y-16605143D01*
X14031286Y-16633714D01*
X14231286Y-16333714D02*
X14259857Y-16333714D01*
X14288428Y-16348000D01*
X14302714Y-16362286D01*
X14317000Y-16390857D01*
X14331286Y-16448000D01*
X14331286Y-16519429D01*
X14317000Y-16576571D01*
X14302714Y-16605143D01*
X14288428Y-16619429D01*
X14259857Y-16633714D01*
X14231286Y-16633714D01*
X14202714Y-16619429D01*
X14188428Y-16605143D01*
X14174143Y-16576571D01*
X14159857Y-16519429D01*
X14159857Y-16448000D01*
X14174143Y-16390857D01*
X14188428Y-16362286D01*
X14202714Y-16348000D01*
X14231286Y-16333714D01*
X14474143Y-16633714D02*
X14531286Y-16633714D01*
X14559857Y-16619429D01*
X14574143Y-16605143D01*
X14602714Y-16562286D01*
X14617000Y-16505143D01*
X14617000Y-16390857D01*
X14602714Y-16362286D01*
X14588428Y-16348000D01*
X14559857Y-16333714D01*
X14502714Y-16333714D01*
X14474143Y-16348000D01*
X14459857Y-16362286D01*
X14445571Y-16390857D01*
X14445571Y-16462286D01*
X14459857Y-16490857D01*
X14474143Y-16505143D01*
X14502714Y-16519429D01*
X14559857Y-16519429D01*
X14588428Y-16505143D01*
X14602714Y-16490857D01*
X14617000Y-16462286D01*
X14874143Y-16433714D02*
X14874143Y-16633714D01*
X14802714Y-16319429D02*
X14731286Y-16533714D01*
X14917000Y-16533714D01*
X15188428Y-16633714D02*
X15017000Y-16633714D01*
X15102714Y-16633714D02*
X15102714Y-16333714D01*
X15074143Y-16376571D01*
X15045571Y-16405143D01*
X15017000Y-16419429D01*
X15302714Y-16333714D02*
X15302714Y-16390857D01*
X15417000Y-16333714D02*
X15417000Y-16390857D01*
X15859857Y-16748000D02*
X15845571Y-16733714D01*
X15817000Y-16690857D01*
X15802714Y-16662286D01*
X15788428Y-16619429D01*
X15774143Y-16548000D01*
X15774143Y-16490857D01*
X15788428Y-16419429D01*
X15802714Y-16376571D01*
X15817000Y-16348000D01*
X15845571Y-16305143D01*
X15859857Y-16290857D01*
X15959857Y-16362286D02*
X15974143Y-16348000D01*
X16002714Y-16333714D01*
X16074143Y-16333714D01*
X16102714Y-16348000D01*
X16117000Y-16362286D01*
X16131286Y-16390857D01*
X16131286Y-16419429D01*
X16117000Y-16462286D01*
X15945571Y-16633714D01*
X16131286Y-16633714D01*
X16488428Y-16633714D02*
X16488428Y-16333714D01*
X16617000Y-16633714D02*
X16617000Y-16476571D01*
X16602714Y-16448000D01*
X16574143Y-16433714D01*
X16531286Y-16433714D01*
X16502714Y-16448000D01*
X16488428Y-16462286D01*
X16802714Y-16633714D02*
X16774143Y-16619429D01*
X16759857Y-16605143D01*
X16745571Y-16576571D01*
X16745571Y-16490857D01*
X16759857Y-16462286D01*
X16774143Y-16448000D01*
X16802714Y-16433714D01*
X16845571Y-16433714D01*
X16874143Y-16448000D01*
X16888428Y-16462286D01*
X16902714Y-16490857D01*
X16902714Y-16576571D01*
X16888428Y-16605143D01*
X16874143Y-16619429D01*
X16845571Y-16633714D01*
X16802714Y-16633714D01*
X17074143Y-16633714D02*
X17045571Y-16619429D01*
X17031286Y-16590857D01*
X17031286Y-16333714D01*
X17302714Y-16619429D02*
X17274143Y-16633714D01*
X17217000Y-16633714D01*
X17188428Y-16619429D01*
X17174143Y-16590857D01*
X17174143Y-16476571D01*
X17188428Y-16448000D01*
X17217000Y-16433714D01*
X17274143Y-16433714D01*
X17302714Y-16448000D01*
X17317000Y-16476571D01*
X17317000Y-16505143D01*
X17174143Y-16533714D01*
X17431286Y-16619429D02*
X17459857Y-16633714D01*
X17517000Y-16633714D01*
X17545571Y-16619429D01*
X17559857Y-16590857D01*
X17559857Y-16576571D01*
X17545571Y-16548000D01*
X17517000Y-16533714D01*
X17474143Y-16533714D01*
X17445571Y-16519429D01*
X17431286Y-16490857D01*
X17431286Y-16476571D01*
X17445571Y-16448000D01*
X17474143Y-16433714D01*
X17517000Y-16433714D01*
X17545571Y-16448000D01*
X17659857Y-16748000D02*
X17674143Y-16733714D01*
X17702714Y-16690857D01*
X17717000Y-16662286D01*
X17731286Y-16619429D01*
X17745571Y-16548000D01*
X17745571Y-16490857D01*
X17731286Y-16419429D01*
X17717000Y-16376571D01*
X17702714Y-16348000D01*
X17674143Y-16305143D01*
X17659857Y-16290857D01*
X10252000Y-16719000D02*
X10602000Y-17069000D01*
X10602000Y-16719000D02*
X10252000Y-17069000D01*
X10427000Y-17069000D02*
X10602000Y-16894000D01*
X10427000Y-16719000D01*
X10252000Y-16894000D01*
X10427000Y-17069000D01*
X10859857Y-16729714D02*
X11045571Y-16729714D01*
X10945571Y-16844000D01*
X10988428Y-16844000D01*
X11017000Y-16858286D01*
X11031286Y-16872572D01*
X11045571Y-16901143D01*
X11045571Y-16972572D01*
X11031286Y-17001143D01*
X11017000Y-17015429D01*
X10988428Y-17029714D01*
X10902714Y-17029714D01*
X10874143Y-17015429D01*
X10859857Y-17001143D01*
X11174143Y-17001143D02*
X11188428Y-17015429D01*
X11174143Y-17029714D01*
X11159857Y-17015429D01*
X11174143Y-17001143D01*
X11174143Y-17029714D01*
X11459857Y-16729714D02*
X11317000Y-16729714D01*
X11302714Y-16872572D01*
X11317000Y-16858286D01*
X11345571Y-16844000D01*
X11417000Y-16844000D01*
X11445571Y-16858286D01*
X11459857Y-16872572D01*
X11474143Y-16901143D01*
X11474143Y-16972572D01*
X11459857Y-17001143D01*
X11445571Y-17015429D01*
X11417000Y-17029714D01*
X11345571Y-17029714D01*
X11317000Y-17015429D01*
X11302714Y-17001143D01*
X11659857Y-16729714D02*
X11688428Y-16729714D01*
X11717000Y-16744000D01*
X11731286Y-16758286D01*
X11745571Y-16786857D01*
X11759857Y-16844000D01*
X11759857Y-16915429D01*
X11745571Y-16972572D01*
X11731286Y-17001143D01*
X11717000Y-17015429D01*
X11688428Y-17029714D01*
X11659857Y-17029714D01*
X11631286Y-17015429D01*
X11617000Y-17001143D01*
X11602714Y-16972572D01*
X11588428Y-16915429D01*
X11588428Y-16844000D01*
X11602714Y-16786857D01*
X11617000Y-16758286D01*
X11631286Y-16744000D01*
X11659857Y-16729714D01*
X11945571Y-16729714D02*
X11974143Y-16729714D01*
X12002714Y-16744000D01*
X12017000Y-16758286D01*
X12031286Y-16786857D01*
X12045571Y-16844000D01*
X12045571Y-16915429D01*
X12031286Y-16972572D01*
X12017000Y-17001143D01*
X12002714Y-17015429D01*
X11974143Y-17029714D01*
X11945571Y-17029714D01*
X11917000Y-17015429D01*
X11902714Y-17001143D01*
X11888428Y-16972572D01*
X11874143Y-16915429D01*
X11874143Y-16844000D01*
X11888428Y-16786857D01*
X11902714Y-16758286D01*
X11917000Y-16744000D01*
X11945571Y-16729714D01*
X12174143Y-17029714D02*
X12174143Y-16829714D01*
X12174143Y-16858286D02*
X12188428Y-16844000D01*
X12217000Y-16829714D01*
X12259857Y-16829714D01*
X12288428Y-16844000D01*
X12302714Y-16872572D01*
X12302714Y-17029714D01*
X12302714Y-16872572D02*
X12317000Y-16844000D01*
X12345571Y-16829714D01*
X12388428Y-16829714D01*
X12417000Y-16844000D01*
X12431286Y-16872572D01*
X12431286Y-17029714D01*
X12574143Y-17029714D02*
X12574143Y-16829714D01*
X12574143Y-16858286D02*
X12588428Y-16844000D01*
X12617000Y-16829714D01*
X12659857Y-16829714D01*
X12688428Y-16844000D01*
X12702714Y-16872572D01*
X12702714Y-17029714D01*
X12702714Y-16872572D02*
X12717000Y-16844000D01*
X12745571Y-16829714D01*
X12788428Y-16829714D01*
X12817000Y-16844000D01*
X12831286Y-16872572D01*
X12831286Y-17029714D01*
X13417000Y-16715429D02*
X13159857Y-17101143D01*
X13802714Y-16729714D02*
X13831286Y-16729714D01*
X13859857Y-16744000D01*
X13874143Y-16758286D01*
X13888428Y-16786857D01*
X13902714Y-16844000D01*
X13902714Y-16915429D01*
X13888428Y-16972572D01*
X13874143Y-17001143D01*
X13859857Y-17015429D01*
X13831286Y-17029714D01*
X13802714Y-17029714D01*
X13774143Y-17015429D01*
X13759857Y-17001143D01*
X13745571Y-16972572D01*
X13731286Y-16915429D01*
X13731286Y-16844000D01*
X13745571Y-16786857D01*
X13759857Y-16758286D01*
X13774143Y-16744000D01*
X13802714Y-16729714D01*
X14031286Y-17001143D02*
X14045571Y-17015429D01*
X14031286Y-17029714D01*
X14017000Y-17015429D01*
X14031286Y-17001143D01*
X14031286Y-17029714D01*
X14331286Y-17029714D02*
X14159857Y-17029714D01*
X14245571Y-17029714D02*
X14245571Y-16729714D01*
X14217000Y-16772571D01*
X14188428Y-16801143D01*
X14159857Y-16815429D01*
X14431286Y-16729714D02*
X14617000Y-16729714D01*
X14517000Y-16844000D01*
X14559857Y-16844000D01*
X14588428Y-16858286D01*
X14602714Y-16872572D01*
X14617000Y-16901143D01*
X14617000Y-16972572D01*
X14602714Y-17001143D01*
X14588428Y-17015429D01*
X14559857Y-17029714D01*
X14474143Y-17029714D01*
X14445571Y-17015429D01*
X14431286Y-17001143D01*
X14717000Y-16729714D02*
X14917000Y-16729714D01*
X14788428Y-17029714D01*
X15074143Y-16858286D02*
X15045571Y-16844000D01*
X15031286Y-16829714D01*
X15017000Y-16801143D01*
X15017000Y-16786857D01*
X15031286Y-16758286D01*
X15045571Y-16744000D01*
X15074143Y-16729714D01*
X15131286Y-16729714D01*
X15159857Y-16744000D01*
X15174143Y-16758286D01*
X15188428Y-16786857D01*
X15188428Y-16801143D01*
X15174143Y-16829714D01*
X15159857Y-16844000D01*
X15131286Y-16858286D01*
X15074143Y-16858286D01*
X15045571Y-16872572D01*
X15031286Y-16886857D01*
X15017000Y-16915429D01*
X15017000Y-16972572D01*
X15031286Y-17001143D01*
X15045571Y-17015429D01*
X15074143Y-17029714D01*
X15131286Y-17029714D01*
X15159857Y-17015429D01*
X15174143Y-17001143D01*
X15188428Y-16972572D01*
X15188428Y-16915429D01*
X15174143Y-16886857D01*
X15159857Y-16872572D01*
X15131286Y-16858286D01*
X15302714Y-16729714D02*
X15302714Y-16786857D01*
X15417000Y-16729714D02*
X15417000Y-16786857D01*
X15859857Y-17144000D02*
X15845571Y-17129714D01*
X15817000Y-17086857D01*
X15802714Y-17058286D01*
X15788428Y-17015429D01*
X15774143Y-16944000D01*
X15774143Y-16886857D01*
X15788428Y-16815429D01*
X15802714Y-16772571D01*
X15817000Y-16744000D01*
X15845571Y-16701143D01*
X15859857Y-16686857D01*
X16102714Y-16829714D02*
X16102714Y-17029714D01*
X16031286Y-16715429D02*
X15959857Y-16929714D01*
X16145571Y-16929714D01*
X16488428Y-17029714D02*
X16488428Y-16729714D01*
X16617000Y-17029714D02*
X16617000Y-16872572D01*
X16602714Y-16844000D01*
X16574143Y-16829714D01*
X16531286Y-16829714D01*
X16502714Y-16844000D01*
X16488428Y-16858286D01*
X16802714Y-17029714D02*
X16774143Y-17015429D01*
X16759857Y-17001143D01*
X16745571Y-16972572D01*
X16745571Y-16886857D01*
X16759857Y-16858286D01*
X16774143Y-16844000D01*
X16802714Y-16829714D01*
X16845571Y-16829714D01*
X16874143Y-16844000D01*
X16888428Y-16858286D01*
X16902714Y-16886857D01*
X16902714Y-16972572D01*
X16888428Y-17001143D01*
X16874143Y-17015429D01*
X16845571Y-17029714D01*
X16802714Y-17029714D01*
X17074143Y-17029714D02*
X17045571Y-17015429D01*
X17031286Y-16986857D01*
X17031286Y-16729714D01*
X17302714Y-17015429D02*
X17274143Y-17029714D01*
X17217000Y-17029714D01*
X17188428Y-17015429D01*
X17174143Y-16986857D01*
X17174143Y-16872572D01*
X17188428Y-16844000D01*
X17217000Y-16829714D01*
X17274143Y-16829714D01*
X17302714Y-16844000D01*
X17317000Y-16872572D01*
X17317000Y-16901143D01*
X17174143Y-16929714D01*
X17431286Y-17015429D02*
X17459857Y-17029714D01*
X17517000Y-17029714D01*
X17545571Y-17015429D01*
X17559857Y-16986857D01*
X17559857Y-16972572D01*
X17545571Y-16944000D01*
X17517000Y-16929714D01*
X17474143Y-16929714D01*
X17445571Y-16915429D01*
X17431286Y-16886857D01*
X17431286Y-16872572D01*
X17445571Y-16844000D01*
X17474143Y-16829714D01*
X17517000Y-16829714D01*
X17545571Y-16844000D01*
X17659857Y-17144000D02*
X17674143Y-17129714D01*
X17702714Y-17086857D01*
X17717000Y-17058286D01*
X17731286Y-17015429D01*
X17745571Y-16944000D01*
X17745571Y-16886857D01*
X17731286Y-16815429D01*
X17717000Y-16772571D01*
X17702714Y-16744000D01*
X17674143Y-16701143D01*
X17659857Y-16686857D01*
M02*
