%TF.GenerationSoftware,KiCad,Pcbnew,(5.1.10)-1*%
%TF.CreationDate,2021-07-26T21:59:56-03:00*%
%TF.ProjectId,PBLE01,50424c45-3031-42e6-9b69-6361645f7063,rev?*%
%TF.SameCoordinates,Original*%
%TF.FileFunction,Copper,L2,Bot*%
%TF.FilePolarity,Positive*%
%FSLAX46Y46*%
G04 Gerber Fmt 4.6, Leading zero omitted, Abs format (unit mm)*
G04 Created by KiCad (PCBNEW (5.1.10)-1) date 2021-07-26 21:59:56*
%MOMM*%
%LPD*%
G01*
G04 APERTURE LIST*
%TA.AperFunction,ComponentPad*%
%ADD10R,1.800000X2.600000*%
%TD*%
%TA.AperFunction,ComponentPad*%
%ADD11O,1.800000X2.600000*%
%TD*%
%TA.AperFunction,ComponentPad*%
%ADD12C,4.000000*%
%TD*%
%TA.AperFunction,ComponentPad*%
%ADD13C,0.925000*%
%TD*%
%TA.AperFunction,ComponentPad*%
%ADD14R,0.925000X0.925000*%
%TD*%
%TA.AperFunction,ComponentPad*%
%ADD15C,3.585000*%
%TD*%
%TA.AperFunction,ComponentPad*%
%ADD16C,1.540000*%
%TD*%
%TA.AperFunction,ComponentPad*%
%ADD17C,1.498000*%
%TD*%
%TA.AperFunction,ComponentPad*%
%ADD18R,1.498000X1.498000*%
%TD*%
%TA.AperFunction,ComponentPad*%
%ADD19C,1.440000*%
%TD*%
%TA.AperFunction,ComponentPad*%
%ADD20O,2.500000X5.000000*%
%TD*%
%TA.AperFunction,ComponentPad*%
%ADD21O,2.250000X4.500000*%
%TD*%
%TA.AperFunction,ComponentPad*%
%ADD22O,4.500000X2.250000*%
%TD*%
%TA.AperFunction,ComponentPad*%
%ADD23C,1.500000*%
%TD*%
%TA.AperFunction,ComponentPad*%
%ADD24R,1.700000X1.700000*%
%TD*%
%TA.AperFunction,ComponentPad*%
%ADD25O,1.700000X1.700000*%
%TD*%
%TA.AperFunction,ComponentPad*%
%ADD26R,2.100000X2.100000*%
%TD*%
%TA.AperFunction,ComponentPad*%
%ADD27C,2.100000*%
%TD*%
%TA.AperFunction,ComponentPad*%
%ADD28R,2.800000X2.800000*%
%TD*%
%TA.AperFunction,ComponentPad*%
%ADD29C,2.800000*%
%TD*%
%TA.AperFunction,ViaPad*%
%ADD30C,0.800000*%
%TD*%
%TA.AperFunction,Conductor*%
%ADD31C,0.300000*%
%TD*%
%TA.AperFunction,Conductor*%
%ADD32C,0.250000*%
%TD*%
%TA.AperFunction,Conductor*%
%ADD33C,0.254000*%
%TD*%
%TA.AperFunction,Conductor*%
%ADD34C,0.100000*%
%TD*%
G04 APERTURE END LIST*
D10*
%TO.P,DS1,1*%
%TO.N,GND*%
X145252440Y-124371100D03*
D11*
%TO.P,DS1,2*%
%TO.N,+5V*%
X147792440Y-124371100D03*
%TO.P,DS1,3*%
%TO.N,GND*%
X150332440Y-124371100D03*
%TO.P,DS1,4*%
%TO.N,+5V*%
X152872440Y-124371100D03*
%TO.P,DS1,5*%
%TO.N,Net-(DS1-Pad5)*%
X155412440Y-124371100D03*
%TO.P,DS1,6*%
%TO.N,/RS*%
X157952440Y-124371100D03*
%TO.P,DS1,7*%
%TO.N,GND*%
X160492440Y-124371100D03*
%TO.P,DS1,8*%
%TO.N,/EN*%
X163032440Y-124371100D03*
%TO.P,DS1,9*%
%TO.N,Net-(DS1-Pad9)*%
X165572440Y-124371100D03*
%TO.P,DS1,10*%
%TO.N,Net-(DS1-Pad10)*%
X168112440Y-124371100D03*
%TO.P,DS1,11*%
%TO.N,Net-(DS1-Pad11)*%
X170652440Y-124371100D03*
%TO.P,DS1,12*%
%TO.N,Net-(DS1-Pad12)*%
X173192440Y-124371100D03*
%TO.P,DS1,13*%
%TO.N,/DB4*%
X175732440Y-124371100D03*
%TO.P,DS1,14*%
%TO.N,/DB5*%
X178272440Y-124371100D03*
%TO.P,DS1,15*%
%TO.N,/DB6*%
X180812440Y-124371100D03*
%TO.P,DS1,16*%
%TO.N,/DB7*%
X183352440Y-124371100D03*
D12*
%TO.P,DS1,*%
%TO.N,*%
X190853060Y-162372040D03*
X190853060Y-125371860D03*
X75852020Y-162372040D03*
X75852020Y-125371860D03*
%TD*%
D13*
%TO.P,Y3,2*%
%TO.N,Net-(C10-Pad1)*%
X115570000Y-73041600D03*
D14*
%TO.P,Y3,1*%
%TO.N,Net-(C9-Pad2)*%
X115570000Y-71941600D03*
%TD*%
D15*
%TO.P,J3,MH2*%
%TO.N,Net-(J3-PadMH2)*%
X142273300Y-51662600D03*
%TO.P,J3,MH1*%
%TO.N,Net-(J3-PadMH1)*%
X154313300Y-51662600D03*
D16*
%TO.P,J3,4*%
%TO.N,GND*%
X147048300Y-54372600D03*
%TO.P,J3,3*%
%TO.N,Net-(J3-Pad3)*%
X149538300Y-54372600D03*
%TO.P,J3,2*%
%TO.N,Net-(J3-Pad2)*%
X149538300Y-56362600D03*
%TO.P,J3,1*%
%TO.N,/Comunica\u00E7\u00E3o serial /VBUS*%
X147048300Y-56362600D03*
%TD*%
D17*
%TO.P,SW1,2*%
%TO.N,Net-(SW1-Pad2)*%
X147347500Y-105383400D03*
%TO.P,SW1,4*%
%TO.N,Net-(SW1-Pad4)*%
X142847500Y-105383400D03*
D18*
%TO.P,SW1,1*%
%TO.N,VPP*%
X147347500Y-98883400D03*
D17*
%TO.P,SW1,3*%
%TO.N,GND*%
X142847500Y-98883400D03*
%TD*%
D19*
%TO.P,RV1,1*%
%TO.N,GND*%
X153593800Y-118579900D03*
%TO.P,RV1,2*%
%TO.N,Net-(DS1-Pad5)*%
X156133800Y-118579900D03*
%TO.P,RV1,3*%
%TO.N,+5V*%
X158673800Y-118579900D03*
%TD*%
D20*
%TO.P,J2,1*%
%TO.N,Net-(C3-Pad1)*%
X114274600Y-52324000D03*
D21*
%TO.P,J2,2*%
%TO.N,GND*%
X108274600Y-52324000D03*
D22*
%TO.P,J2,3*%
X111274600Y-57024000D03*
%TD*%
D23*
%TO.P,Y2,2*%
%TO.N,Net-(C8-Pad1)*%
X141348460Y-71234960D03*
%TO.P,Y2,1*%
%TO.N,Net-(C7-Pad2)*%
X141348460Y-66354960D03*
%TD*%
D17*
%TO.P,SW2,2*%
%TO.N,Net-(SW2-Pad2)*%
X183734780Y-86187720D03*
%TO.P,SW2,4*%
%TO.N,Net-(SW2-Pad4)*%
X183734780Y-90687720D03*
D18*
%TO.P,SW2,1*%
%TO.N,GND*%
X177234780Y-86187720D03*
D17*
%TO.P,SW2,3*%
%TO.N,/CHAVE5*%
X177234780Y-90687720D03*
%TD*%
D23*
%TO.P,Y1,1*%
%TO.N,Net-(C1-Pad2)*%
X155321000Y-84251800D03*
%TO.P,Y1,2*%
%TO.N,Net-(C2-Pad2)*%
X155321000Y-89131800D03*
%TD*%
D24*
%TO.P,J1,1*%
%TO.N,Net-(J1-Pad1)*%
X138696700Y-108369100D03*
D25*
%TO.P,J1,2*%
%TO.N,PGC*%
X141236700Y-108369100D03*
%TO.P,J1,3*%
%TO.N,PGD*%
X143776700Y-108369100D03*
%TO.P,J1,4*%
%TO.N,GND*%
X146316700Y-108369100D03*
%TO.P,J1,5*%
%TO.N,+5V*%
X148856700Y-108369100D03*
%TO.P,J1,6*%
%TO.N,VPP*%
X151396700Y-108369100D03*
%TD*%
D24*
%TO.P,J6,1*%
%TO.N,/Perif\u00E9ricos/Sa\u00EDda_analog*%
X108318300Y-119595900D03*
D25*
%TO.P,J6,2*%
%TO.N,GND*%
X108318300Y-117055900D03*
%TO.P,J6,3*%
%TO.N,+5V*%
X108318300Y-114515900D03*
%TD*%
D24*
%TO.P,J7,1*%
%TO.N,RD5*%
X114406680Y-119514620D03*
D25*
%TO.P,J7,2*%
%TO.N,RD6*%
X116946680Y-119514620D03*
%TO.P,J7,3*%
%TO.N,RD7*%
X119486680Y-119514620D03*
%TO.P,J7,4*%
%TO.N,ICCK*%
X122026680Y-119514620D03*
%TO.P,J7,5*%
%TO.N,ICDT*%
X124566680Y-119514620D03*
%TO.P,J7,6*%
%TO.N,VUSB*%
X127106680Y-119514620D03*
%TO.P,J7,7*%
%TO.N,RB5*%
X129646680Y-119514620D03*
%TO.P,J7,8*%
%TO.N,RC2*%
X132186680Y-119514620D03*
%TO.P,J7,9*%
%TO.N,RC1*%
X134726680Y-119514620D03*
%TO.P,J7,10*%
%TO.N,ICPORTS*%
X137266680Y-119514620D03*
%TO.P,J7,11*%
%TO.N,RE0*%
X139806680Y-119514620D03*
%TO.P,J7,12*%
%TO.N,RE1*%
X142346680Y-119514620D03*
%TO.P,J7,13*%
%TO.N,RC0*%
X144886680Y-119514620D03*
%TO.P,J7,14*%
%TO.N,ICRST*%
X147426680Y-119514620D03*
%TD*%
D26*
%TO.P,RV2,1*%
%TO.N,+5V*%
X176847200Y-98770440D03*
D27*
%TO.P,RV2,2*%
%TO.N,/TRIMPOT*%
X176847200Y-103770440D03*
%TO.P,RV2,3*%
%TO.N,GND*%
X176847200Y-108770440D03*
%TD*%
D17*
%TO.P,SW3,3*%
%TO.N,/CHAVE4*%
X176874100Y-74266620D03*
D18*
%TO.P,SW3,1*%
%TO.N,GND*%
X176874100Y-69766620D03*
D17*
%TO.P,SW3,4*%
%TO.N,Net-(SW3-Pad4)*%
X183374100Y-74266620D03*
%TO.P,SW3,2*%
%TO.N,Net-(SW3-Pad2)*%
X183374100Y-69766620D03*
%TD*%
%TO.P,SW4,3*%
%TO.N,/CHAVE3*%
X176874100Y-82397160D03*
D18*
%TO.P,SW4,1*%
%TO.N,GND*%
X176874100Y-77897160D03*
D17*
%TO.P,SW4,4*%
%TO.N,Net-(SW4-Pad4)*%
X183374100Y-82397160D03*
%TO.P,SW4,2*%
%TO.N,Net-(SW4-Pad2)*%
X183374100Y-77897160D03*
%TD*%
%TO.P,SW5,3*%
%TO.N,/CHAVE2*%
X167166220Y-78411900D03*
D18*
%TO.P,SW5,1*%
%TO.N,GND*%
X167166220Y-73911900D03*
D17*
%TO.P,SW5,4*%
%TO.N,Net-(SW5-Pad4)*%
X173666220Y-78411900D03*
%TO.P,SW5,2*%
%TO.N,Net-(SW5-Pad2)*%
X173666220Y-73911900D03*
%TD*%
%TO.P,SW6,2*%
%TO.N,Net-(SW6-Pad2)*%
X167166220Y-86646580D03*
%TO.P,SW6,4*%
%TO.N,Net-(SW6-Pad4)*%
X167166220Y-82146580D03*
D18*
%TO.P,SW6,1*%
%TO.N,GND*%
X173666220Y-86646580D03*
D17*
%TO.P,SW6,3*%
%TO.N,/CHAVE1*%
X173666220Y-82146580D03*
%TD*%
D28*
%TO.P,J4,1*%
%TO.N,Net-(J4-Pad1)*%
X113291620Y-87218520D03*
D29*
%TO.P,J4,2*%
%TO.N,Net-(J4-Pad2)*%
X113291620Y-82218520D03*
%TD*%
%TO.P,J5,2*%
%TO.N,Net-(J5-Pad2)*%
X113195100Y-98393240D03*
D28*
%TO.P,J5,1*%
%TO.N,Net-(J5-Pad1)*%
X113195100Y-103393240D03*
%TD*%
D30*
%TO.N,/DIFERENCIAL2*%
X123238260Y-103941880D03*
%TO.N,GND*%
X134480300Y-67462400D03*
X108348780Y-58874660D03*
X162953700Y-88468200D03*
X135293100Y-92405200D03*
X147243800Y-91630500D03*
X143154400Y-91617800D03*
%TO.N,+5V*%
X126111000Y-91465400D03*
X145910300Y-89916000D03*
X147459700Y-102184200D03*
X133375400Y-86309200D03*
%TO.N,RB5*%
X143535400Y-95745300D03*
%TO.N,RC0*%
X153149300Y-84277200D03*
%TO.N,RC2*%
X146329400Y-84632800D03*
%TO.N,RD7*%
X137528300Y-86906100D03*
%TO.N,RD6*%
X137528300Y-85610700D03*
%TO.N,RD5*%
X137553700Y-84302600D03*
%TO.N,RE1*%
X153301700Y-90690700D03*
%TO.N,RE0*%
X153289000Y-91973400D03*
%TO.N,VUSB*%
X144945100Y-84632800D03*
%TO.N,ICCK*%
X138849100Y-95732600D03*
%TO.N,ICDT*%
X140741400Y-95732600D03*
%TO.N,ICPORTS*%
X149212300Y-84645500D03*
%TO.N,ICRST*%
X153123900Y-82778600D03*
%TO.N,/DIFERENCIAL2*%
X130365500Y-103047800D03*
%TO.N,/TX*%
X168808400Y-50939700D03*
X148463000Y-71958200D03*
%TO.N,/CHAVE5*%
X142138400Y-84924900D03*
X165684200Y-90817700D03*
%TO.N,RC1*%
X147751800Y-84632800D03*
%TD*%
D31*
%TO.N,+5V*%
X152882600Y-124371100D02*
X158673800Y-118579900D01*
X152872440Y-124371100D02*
X152882600Y-124371100D01*
X145910300Y-100634800D02*
X147459700Y-102184200D01*
X145910300Y-89916000D02*
X145910300Y-100634800D01*
X128219200Y-91465400D02*
X133375400Y-86309200D01*
X126111000Y-91465400D02*
X128219200Y-91465400D01*
D32*
%TO.N,RB5*%
X129646680Y-109634020D02*
X143535400Y-95745300D01*
X129646680Y-119514620D02*
X129646680Y-109634020D01*
%TO.N,RC0*%
X158109920Y-89237820D02*
X153149300Y-84277200D01*
X158109920Y-112438180D02*
X158109920Y-89237820D01*
X156298900Y-114249200D02*
X158109920Y-112438180D01*
X150431500Y-114249200D02*
X156298900Y-114249200D01*
X145166080Y-119514620D02*
X150431500Y-114249200D01*
X144886680Y-119514620D02*
X145166080Y-119514620D01*
%TO.N,RC2*%
X146329400Y-88663780D02*
X146329400Y-84632800D01*
X153537920Y-95872300D02*
X146329400Y-88663780D01*
X152641300Y-110197900D02*
X153537920Y-109301280D01*
X153537920Y-109301280D02*
X153537920Y-95872300D01*
X141503400Y-110197900D02*
X152641300Y-110197900D01*
X132186680Y-119514620D02*
X141503400Y-110197900D01*
%TO.N,RD7*%
X119486680Y-104947720D02*
X137528300Y-86906100D01*
X119486680Y-119514620D02*
X119486680Y-104947720D01*
%TO.N,RD6*%
X116946680Y-106192320D02*
X137528300Y-85610700D01*
X116946680Y-119514620D02*
X116946680Y-106192320D01*
%TO.N,RD5*%
X114406680Y-107449620D02*
X137553700Y-84302600D01*
X114406680Y-119514620D02*
X114406680Y-107449620D01*
%TO.N,RE1*%
X157228540Y-94617540D02*
X153301700Y-90690700D01*
X157228540Y-111605060D02*
X157228540Y-94617540D01*
X155371800Y-113461800D02*
X157228540Y-111605060D01*
X148399500Y-113461800D02*
X155371800Y-113461800D01*
X142346680Y-119514620D02*
X148399500Y-113461800D01*
%TO.N,RE0*%
X156396001Y-110684999D02*
X156396001Y-95080401D01*
X154432000Y-112649000D02*
X156396001Y-110684999D01*
X146672300Y-112649000D02*
X154432000Y-112649000D01*
X156396001Y-95080401D02*
X153289000Y-91973400D01*
X139806680Y-119514620D02*
X146672300Y-112649000D01*
%TO.N,VUSB*%
X144945100Y-92760800D02*
X144945100Y-84632800D01*
X127106680Y-110599220D02*
X144945100Y-92760800D01*
X127106680Y-119514620D02*
X127106680Y-110599220D01*
%TO.N,ICCK*%
X122026680Y-112555020D02*
X138849100Y-95732600D01*
X122026680Y-119514620D02*
X122026680Y-112555020D01*
%TO.N,ICDT*%
X124566680Y-119514620D02*
X124566680Y-111907320D01*
X124566680Y-111907320D02*
X140741400Y-95732600D01*
%TO.N,ICPORTS*%
X149212300Y-89107150D02*
X149212300Y-84645500D01*
X155440380Y-95335230D02*
X149212300Y-89107150D01*
X155440380Y-110015020D02*
X155440380Y-95335230D01*
X153631900Y-111823500D02*
X155440380Y-110015020D01*
X144957800Y-111823500D02*
X153631900Y-111823500D01*
X137266680Y-119514620D02*
X144957800Y-111823500D01*
%TO.N,ICRST*%
X158369000Y-82778600D02*
X153123900Y-82778600D01*
X159197040Y-83606640D02*
X158369000Y-82778600D01*
X159197040Y-112786160D02*
X159197040Y-83606640D01*
X156959300Y-115023900D02*
X159197040Y-112786160D01*
X151917400Y-115023900D02*
X156959300Y-115023900D01*
X147426680Y-119514620D02*
X151917400Y-115023900D01*
%TO.N,/DIFERENCIAL2*%
X129440940Y-103972360D02*
X130365500Y-103047800D01*
X123268740Y-103972360D02*
X123238260Y-103941880D01*
X129440940Y-103972360D02*
X123268740Y-103972360D01*
%TO.N,/TX*%
X148463000Y-71285100D02*
X168808400Y-50939700D01*
X148463000Y-71958200D02*
X148463000Y-71285100D01*
%TO.N,/CHAVE5*%
X165684200Y-88861900D02*
X165684200Y-90817700D01*
X156743400Y-79921100D02*
X165684200Y-88861900D01*
X147142200Y-79921100D02*
X156743400Y-79921100D01*
X142138400Y-84924900D02*
X147142200Y-79921100D01*
%TO.N,RC1*%
X147751800Y-88582500D02*
X147751800Y-84632800D01*
X154472640Y-95303340D02*
X147751800Y-88582500D01*
X154472640Y-109636560D02*
X154472640Y-95303340D01*
X153080289Y-111028911D02*
X154472640Y-109636560D01*
X143212389Y-111028911D02*
X153080289Y-111028911D01*
X134726680Y-119514620D02*
X143212389Y-111028911D01*
%TD*%
D33*
%TO.N,GND*%
X185395000Y-126975000D02*
X106705000Y-126975000D01*
X106705000Y-125671100D01*
X143714368Y-125671100D01*
X143726628Y-125795582D01*
X143762938Y-125915280D01*
X143821903Y-126025594D01*
X143901255Y-126122285D01*
X143997946Y-126201637D01*
X144108260Y-126260602D01*
X144227958Y-126296912D01*
X144352440Y-126309172D01*
X144966690Y-126306100D01*
X145125440Y-126147350D01*
X145125440Y-124498100D01*
X143876190Y-124498100D01*
X143717440Y-124656850D01*
X143714368Y-125671100D01*
X106705000Y-125671100D01*
X106705000Y-123071100D01*
X143714368Y-123071100D01*
X143717440Y-124085350D01*
X143876190Y-124244100D01*
X145125440Y-124244100D01*
X145125440Y-122594850D01*
X145379440Y-122594850D01*
X145379440Y-124244100D01*
X145399440Y-124244100D01*
X145399440Y-124498100D01*
X145379440Y-124498100D01*
X145379440Y-126147350D01*
X145538190Y-126306100D01*
X146152440Y-126309172D01*
X146276922Y-126296912D01*
X146396620Y-126260602D01*
X146506934Y-126201637D01*
X146603625Y-126122285D01*
X146682977Y-126025594D01*
X146741942Y-125915280D01*
X146746935Y-125898820D01*
X146935513Y-126053581D01*
X147202179Y-126196117D01*
X147491527Y-126283890D01*
X147792440Y-126313527D01*
X148093352Y-126283890D01*
X148382700Y-126196117D01*
X148649366Y-126053581D01*
X148883101Y-125861761D01*
X149067221Y-125637409D01*
X149126692Y-125729496D01*
X149336834Y-125946310D01*
X149585236Y-126117962D01*
X149862353Y-126237855D01*
X149967700Y-126262136D01*
X150205440Y-126141478D01*
X150205440Y-124498100D01*
X150185440Y-124498100D01*
X150185440Y-124244100D01*
X150205440Y-124244100D01*
X150205440Y-122600722D01*
X150459440Y-122600722D01*
X150459440Y-124244100D01*
X150479440Y-124244100D01*
X150479440Y-124498100D01*
X150459440Y-124498100D01*
X150459440Y-126141478D01*
X150697180Y-126262136D01*
X150802527Y-126237855D01*
X151079644Y-126117962D01*
X151328046Y-125946310D01*
X151538188Y-125729496D01*
X151597659Y-125637408D01*
X151781779Y-125861761D01*
X152015513Y-126053581D01*
X152282179Y-126196117D01*
X152571527Y-126283890D01*
X152872440Y-126313527D01*
X153173352Y-126283890D01*
X153462700Y-126196117D01*
X153729366Y-126053581D01*
X153963101Y-125861761D01*
X154142440Y-125643235D01*
X154321779Y-125861761D01*
X154555513Y-126053581D01*
X154822179Y-126196117D01*
X155111527Y-126283890D01*
X155412440Y-126313527D01*
X155713352Y-126283890D01*
X156002700Y-126196117D01*
X156269366Y-126053581D01*
X156503101Y-125861761D01*
X156682440Y-125643235D01*
X156861779Y-125861761D01*
X157095513Y-126053581D01*
X157362179Y-126196117D01*
X157651527Y-126283890D01*
X157952440Y-126313527D01*
X158253352Y-126283890D01*
X158542700Y-126196117D01*
X158809366Y-126053581D01*
X159043101Y-125861761D01*
X159227221Y-125637409D01*
X159286692Y-125729496D01*
X159496834Y-125946310D01*
X159745236Y-126117962D01*
X160022353Y-126237855D01*
X160127700Y-126262136D01*
X160365440Y-126141478D01*
X160365440Y-124498100D01*
X160345440Y-124498100D01*
X160345440Y-124244100D01*
X160365440Y-124244100D01*
X160365440Y-122600722D01*
X160619440Y-122600722D01*
X160619440Y-124244100D01*
X160639440Y-124244100D01*
X160639440Y-124498100D01*
X160619440Y-124498100D01*
X160619440Y-126141478D01*
X160857180Y-126262136D01*
X160962527Y-126237855D01*
X161239644Y-126117962D01*
X161488046Y-125946310D01*
X161698188Y-125729496D01*
X161757659Y-125637408D01*
X161941779Y-125861761D01*
X162175513Y-126053581D01*
X162442179Y-126196117D01*
X162731527Y-126283890D01*
X163032440Y-126313527D01*
X163333352Y-126283890D01*
X163622700Y-126196117D01*
X163889366Y-126053581D01*
X164123101Y-125861761D01*
X164302440Y-125643235D01*
X164481779Y-125861761D01*
X164715513Y-126053581D01*
X164982179Y-126196117D01*
X165271527Y-126283890D01*
X165572440Y-126313527D01*
X165873352Y-126283890D01*
X166162700Y-126196117D01*
X166429366Y-126053581D01*
X166663101Y-125861761D01*
X166842440Y-125643235D01*
X167021779Y-125861761D01*
X167255513Y-126053581D01*
X167522179Y-126196117D01*
X167811527Y-126283890D01*
X168112440Y-126313527D01*
X168413352Y-126283890D01*
X168702700Y-126196117D01*
X168969366Y-126053581D01*
X169203101Y-125861761D01*
X169382440Y-125643235D01*
X169561779Y-125861761D01*
X169795513Y-126053581D01*
X170062179Y-126196117D01*
X170351527Y-126283890D01*
X170652440Y-126313527D01*
X170953352Y-126283890D01*
X171242700Y-126196117D01*
X171509366Y-126053581D01*
X171743101Y-125861761D01*
X171922440Y-125643235D01*
X172101779Y-125861761D01*
X172335513Y-126053581D01*
X172602179Y-126196117D01*
X172891527Y-126283890D01*
X173192440Y-126313527D01*
X173493352Y-126283890D01*
X173782700Y-126196117D01*
X174049366Y-126053581D01*
X174283101Y-125861761D01*
X174462440Y-125643235D01*
X174641779Y-125861761D01*
X174875513Y-126053581D01*
X175142179Y-126196117D01*
X175431527Y-126283890D01*
X175732440Y-126313527D01*
X176033352Y-126283890D01*
X176322700Y-126196117D01*
X176589366Y-126053581D01*
X176823101Y-125861761D01*
X177002440Y-125643235D01*
X177181779Y-125861761D01*
X177415513Y-126053581D01*
X177682179Y-126196117D01*
X177971527Y-126283890D01*
X178272440Y-126313527D01*
X178573352Y-126283890D01*
X178862700Y-126196117D01*
X179129366Y-126053581D01*
X179363101Y-125861761D01*
X179542440Y-125643235D01*
X179721779Y-125861761D01*
X179955513Y-126053581D01*
X180222179Y-126196117D01*
X180511527Y-126283890D01*
X180812440Y-126313527D01*
X181113352Y-126283890D01*
X181402700Y-126196117D01*
X181669366Y-126053581D01*
X181903101Y-125861761D01*
X182082440Y-125643235D01*
X182261779Y-125861761D01*
X182495513Y-126053581D01*
X182762179Y-126196117D01*
X183051527Y-126283890D01*
X183352440Y-126313527D01*
X183653352Y-126283890D01*
X183942700Y-126196117D01*
X184209366Y-126053581D01*
X184443101Y-125861761D01*
X184634921Y-125628027D01*
X184777457Y-125361361D01*
X184865230Y-125072013D01*
X184887440Y-124846508D01*
X184887440Y-123895693D01*
X184865230Y-123670187D01*
X184777457Y-123380839D01*
X184634921Y-123114173D01*
X184443101Y-122880439D01*
X184209367Y-122688619D01*
X183942701Y-122546083D01*
X183653353Y-122458310D01*
X183352440Y-122428673D01*
X183051528Y-122458310D01*
X182762180Y-122546083D01*
X182495514Y-122688619D01*
X182261779Y-122880439D01*
X182082440Y-123098965D01*
X181903101Y-122880439D01*
X181669367Y-122688619D01*
X181402701Y-122546083D01*
X181113353Y-122458310D01*
X180812440Y-122428673D01*
X180511528Y-122458310D01*
X180222180Y-122546083D01*
X179955514Y-122688619D01*
X179721779Y-122880439D01*
X179542440Y-123098965D01*
X179363101Y-122880439D01*
X179129367Y-122688619D01*
X178862701Y-122546083D01*
X178573353Y-122458310D01*
X178272440Y-122428673D01*
X177971528Y-122458310D01*
X177682180Y-122546083D01*
X177415514Y-122688619D01*
X177181779Y-122880439D01*
X177002440Y-123098965D01*
X176823101Y-122880439D01*
X176589367Y-122688619D01*
X176322701Y-122546083D01*
X176033353Y-122458310D01*
X175732440Y-122428673D01*
X175431528Y-122458310D01*
X175142180Y-122546083D01*
X174875514Y-122688619D01*
X174641779Y-122880439D01*
X174462440Y-123098965D01*
X174283101Y-122880439D01*
X174049367Y-122688619D01*
X173782701Y-122546083D01*
X173493353Y-122458310D01*
X173192440Y-122428673D01*
X172891528Y-122458310D01*
X172602180Y-122546083D01*
X172335514Y-122688619D01*
X172101779Y-122880439D01*
X171922440Y-123098965D01*
X171743101Y-122880439D01*
X171509367Y-122688619D01*
X171242701Y-122546083D01*
X170953353Y-122458310D01*
X170652440Y-122428673D01*
X170351528Y-122458310D01*
X170062180Y-122546083D01*
X169795514Y-122688619D01*
X169561779Y-122880439D01*
X169382440Y-123098965D01*
X169203101Y-122880439D01*
X168969367Y-122688619D01*
X168702701Y-122546083D01*
X168413353Y-122458310D01*
X168112440Y-122428673D01*
X167811528Y-122458310D01*
X167522180Y-122546083D01*
X167255514Y-122688619D01*
X167021779Y-122880439D01*
X166842440Y-123098965D01*
X166663101Y-122880439D01*
X166429367Y-122688619D01*
X166162701Y-122546083D01*
X165873353Y-122458310D01*
X165572440Y-122428673D01*
X165271528Y-122458310D01*
X164982180Y-122546083D01*
X164715514Y-122688619D01*
X164481779Y-122880439D01*
X164302440Y-123098965D01*
X164123101Y-122880439D01*
X163889367Y-122688619D01*
X163622701Y-122546083D01*
X163333353Y-122458310D01*
X163032440Y-122428673D01*
X162731528Y-122458310D01*
X162442180Y-122546083D01*
X162175514Y-122688619D01*
X161941779Y-122880439D01*
X161757659Y-123104791D01*
X161698188Y-123012704D01*
X161488046Y-122795890D01*
X161239644Y-122624238D01*
X160962527Y-122504345D01*
X160857180Y-122480064D01*
X160619440Y-122600722D01*
X160365440Y-122600722D01*
X160127700Y-122480064D01*
X160022353Y-122504345D01*
X159745236Y-122624238D01*
X159496834Y-122795890D01*
X159286692Y-123012704D01*
X159227221Y-123104791D01*
X159043101Y-122880439D01*
X158809367Y-122688619D01*
X158542701Y-122546083D01*
X158253353Y-122458310D01*
X157952440Y-122428673D01*
X157651528Y-122458310D01*
X157362180Y-122546083D01*
X157095514Y-122688619D01*
X156861779Y-122880439D01*
X156682440Y-123098965D01*
X156503101Y-122880439D01*
X156269367Y-122688619D01*
X156002701Y-122546083D01*
X155860815Y-122503042D01*
X158447437Y-119916420D01*
X158540344Y-119934900D01*
X158807256Y-119934900D01*
X159069039Y-119882828D01*
X159315633Y-119780685D01*
X159537562Y-119632397D01*
X159726297Y-119443662D01*
X159874585Y-119221733D01*
X159976728Y-118975139D01*
X160028800Y-118713356D01*
X160028800Y-118446444D01*
X159976728Y-118184661D01*
X159874585Y-117938067D01*
X159726297Y-117716138D01*
X159537562Y-117527403D01*
X159315633Y-117379115D01*
X159069039Y-117276972D01*
X158807256Y-117224900D01*
X158540344Y-117224900D01*
X158278561Y-117276972D01*
X158031967Y-117379115D01*
X157810038Y-117527403D01*
X157621303Y-117716138D01*
X157473015Y-117938067D01*
X157403800Y-118105166D01*
X157334585Y-117938067D01*
X157186297Y-117716138D01*
X156997562Y-117527403D01*
X156775633Y-117379115D01*
X156529039Y-117276972D01*
X156267256Y-117224900D01*
X156000344Y-117224900D01*
X155738561Y-117276972D01*
X155491967Y-117379115D01*
X155270038Y-117527403D01*
X155081303Y-117716138D01*
X154933015Y-117938067D01*
X154863362Y-118106224D01*
X154821675Y-117991547D01*
X154765168Y-117885832D01*
X154529360Y-117823945D01*
X153773405Y-118579900D01*
X154529360Y-119335855D01*
X154765168Y-119273968D01*
X154865564Y-119058893D01*
X154933015Y-119221733D01*
X155081303Y-119443662D01*
X155270038Y-119632397D01*
X155491967Y-119780685D01*
X155738561Y-119882828D01*
X156000344Y-119934900D01*
X156208643Y-119934900D01*
X153550520Y-122593023D01*
X153462701Y-122546083D01*
X153173353Y-122458310D01*
X152872440Y-122428673D01*
X152571528Y-122458310D01*
X152282180Y-122546083D01*
X152015514Y-122688619D01*
X151781779Y-122880439D01*
X151597659Y-123104791D01*
X151538188Y-123012704D01*
X151328046Y-122795890D01*
X151079644Y-122624238D01*
X150802527Y-122504345D01*
X150697180Y-122480064D01*
X150459440Y-122600722D01*
X150205440Y-122600722D01*
X149967700Y-122480064D01*
X149862353Y-122504345D01*
X149585236Y-122624238D01*
X149336834Y-122795890D01*
X149126692Y-123012704D01*
X149067221Y-123104791D01*
X148883101Y-122880439D01*
X148649367Y-122688619D01*
X148382701Y-122546083D01*
X148093353Y-122458310D01*
X147792440Y-122428673D01*
X147491528Y-122458310D01*
X147202180Y-122546083D01*
X146935514Y-122688619D01*
X146746935Y-122843380D01*
X146741942Y-122826920D01*
X146682977Y-122716606D01*
X146603625Y-122619915D01*
X146506934Y-122540563D01*
X146396620Y-122481598D01*
X146276922Y-122445288D01*
X146152440Y-122433028D01*
X145538190Y-122436100D01*
X145379440Y-122594850D01*
X145125440Y-122594850D01*
X144966690Y-122436100D01*
X144352440Y-122433028D01*
X144227958Y-122445288D01*
X144108260Y-122481598D01*
X143997946Y-122540563D01*
X143901255Y-122619915D01*
X143821903Y-122716606D01*
X143762938Y-122826920D01*
X143726628Y-122946618D01*
X143714368Y-123071100D01*
X106705000Y-123071100D01*
X106705000Y-118745900D01*
X106830228Y-118745900D01*
X106830228Y-120445900D01*
X106842488Y-120570382D01*
X106878798Y-120690080D01*
X106937763Y-120800394D01*
X107017115Y-120897085D01*
X107113806Y-120976437D01*
X107224120Y-121035402D01*
X107343818Y-121071712D01*
X107468300Y-121083972D01*
X109168300Y-121083972D01*
X109292782Y-121071712D01*
X109412480Y-121035402D01*
X109522794Y-120976437D01*
X109619485Y-120897085D01*
X109698837Y-120800394D01*
X109757802Y-120690080D01*
X109794112Y-120570382D01*
X109806372Y-120445900D01*
X109806372Y-118745900D01*
X109798367Y-118664620D01*
X112918608Y-118664620D01*
X112918608Y-120364620D01*
X112930868Y-120489102D01*
X112967178Y-120608800D01*
X113026143Y-120719114D01*
X113105495Y-120815805D01*
X113202186Y-120895157D01*
X113312500Y-120954122D01*
X113432198Y-120990432D01*
X113556680Y-121002692D01*
X115256680Y-121002692D01*
X115381162Y-120990432D01*
X115500860Y-120954122D01*
X115611174Y-120895157D01*
X115707865Y-120815805D01*
X115787217Y-120719114D01*
X115846182Y-120608800D01*
X115868193Y-120536240D01*
X116000048Y-120668095D01*
X116243269Y-120830610D01*
X116513522Y-120942552D01*
X116800420Y-120999620D01*
X117092940Y-120999620D01*
X117379838Y-120942552D01*
X117650091Y-120830610D01*
X117893312Y-120668095D01*
X118100155Y-120461252D01*
X118216680Y-120286860D01*
X118333205Y-120461252D01*
X118540048Y-120668095D01*
X118783269Y-120830610D01*
X119053522Y-120942552D01*
X119340420Y-120999620D01*
X119632940Y-120999620D01*
X119919838Y-120942552D01*
X120190091Y-120830610D01*
X120433312Y-120668095D01*
X120640155Y-120461252D01*
X120756680Y-120286860D01*
X120873205Y-120461252D01*
X121080048Y-120668095D01*
X121323269Y-120830610D01*
X121593522Y-120942552D01*
X121880420Y-120999620D01*
X122172940Y-120999620D01*
X122459838Y-120942552D01*
X122730091Y-120830610D01*
X122973312Y-120668095D01*
X123180155Y-120461252D01*
X123296680Y-120286860D01*
X123413205Y-120461252D01*
X123620048Y-120668095D01*
X123863269Y-120830610D01*
X124133522Y-120942552D01*
X124420420Y-120999620D01*
X124712940Y-120999620D01*
X124999838Y-120942552D01*
X125270091Y-120830610D01*
X125513312Y-120668095D01*
X125720155Y-120461252D01*
X125836680Y-120286860D01*
X125953205Y-120461252D01*
X126160048Y-120668095D01*
X126403269Y-120830610D01*
X126673522Y-120942552D01*
X126960420Y-120999620D01*
X127252940Y-120999620D01*
X127539838Y-120942552D01*
X127810091Y-120830610D01*
X128053312Y-120668095D01*
X128260155Y-120461252D01*
X128376680Y-120286860D01*
X128493205Y-120461252D01*
X128700048Y-120668095D01*
X128943269Y-120830610D01*
X129213522Y-120942552D01*
X129500420Y-120999620D01*
X129792940Y-120999620D01*
X130079838Y-120942552D01*
X130350091Y-120830610D01*
X130593312Y-120668095D01*
X130800155Y-120461252D01*
X130916680Y-120286860D01*
X131033205Y-120461252D01*
X131240048Y-120668095D01*
X131483269Y-120830610D01*
X131753522Y-120942552D01*
X132040420Y-120999620D01*
X132332940Y-120999620D01*
X132619838Y-120942552D01*
X132890091Y-120830610D01*
X133133312Y-120668095D01*
X133340155Y-120461252D01*
X133456680Y-120286860D01*
X133573205Y-120461252D01*
X133780048Y-120668095D01*
X134023269Y-120830610D01*
X134293522Y-120942552D01*
X134580420Y-120999620D01*
X134872940Y-120999620D01*
X135159838Y-120942552D01*
X135430091Y-120830610D01*
X135673312Y-120668095D01*
X135880155Y-120461252D01*
X135996680Y-120286860D01*
X136113205Y-120461252D01*
X136320048Y-120668095D01*
X136563269Y-120830610D01*
X136833522Y-120942552D01*
X137120420Y-120999620D01*
X137412940Y-120999620D01*
X137699838Y-120942552D01*
X137970091Y-120830610D01*
X138213312Y-120668095D01*
X138420155Y-120461252D01*
X138536680Y-120286860D01*
X138653205Y-120461252D01*
X138860048Y-120668095D01*
X139103269Y-120830610D01*
X139373522Y-120942552D01*
X139660420Y-120999620D01*
X139952940Y-120999620D01*
X140239838Y-120942552D01*
X140510091Y-120830610D01*
X140753312Y-120668095D01*
X140960155Y-120461252D01*
X141076680Y-120286860D01*
X141193205Y-120461252D01*
X141400048Y-120668095D01*
X141643269Y-120830610D01*
X141913522Y-120942552D01*
X142200420Y-120999620D01*
X142492940Y-120999620D01*
X142779838Y-120942552D01*
X143050091Y-120830610D01*
X143293312Y-120668095D01*
X143500155Y-120461252D01*
X143616680Y-120286860D01*
X143733205Y-120461252D01*
X143940048Y-120668095D01*
X144183269Y-120830610D01*
X144453522Y-120942552D01*
X144740420Y-120999620D01*
X145032940Y-120999620D01*
X145319838Y-120942552D01*
X145590091Y-120830610D01*
X145833312Y-120668095D01*
X146040155Y-120461252D01*
X146156680Y-120286860D01*
X146273205Y-120461252D01*
X146480048Y-120668095D01*
X146723269Y-120830610D01*
X146993522Y-120942552D01*
X147280420Y-120999620D01*
X147572940Y-120999620D01*
X147859838Y-120942552D01*
X148130091Y-120830610D01*
X148373312Y-120668095D01*
X148580155Y-120461252D01*
X148742670Y-120218031D01*
X148854612Y-119947778D01*
X148911680Y-119660880D01*
X148911680Y-119515460D01*
X152837845Y-119515460D01*
X152899732Y-119751268D01*
X153141590Y-119864166D01*
X153400827Y-119927711D01*
X153667480Y-119939461D01*
X153931301Y-119898963D01*
X154182153Y-119807775D01*
X154287868Y-119751268D01*
X154349755Y-119515460D01*
X153593800Y-118759505D01*
X152837845Y-119515460D01*
X148911680Y-119515460D01*
X148911680Y-119368360D01*
X148867889Y-119148212D01*
X149362521Y-118653580D01*
X152234239Y-118653580D01*
X152274737Y-118917401D01*
X152365925Y-119168253D01*
X152422432Y-119273968D01*
X152658240Y-119335855D01*
X153414195Y-118579900D01*
X152658240Y-117823945D01*
X152422432Y-117885832D01*
X152309534Y-118127690D01*
X152245989Y-118386927D01*
X152234239Y-118653580D01*
X149362521Y-118653580D01*
X150371761Y-117644340D01*
X152837845Y-117644340D01*
X153593800Y-118400295D01*
X154349755Y-117644340D01*
X154287868Y-117408532D01*
X154046010Y-117295634D01*
X153786773Y-117232089D01*
X153520120Y-117220339D01*
X153256299Y-117260837D01*
X153005447Y-117352025D01*
X152899732Y-117408532D01*
X152837845Y-117644340D01*
X150371761Y-117644340D01*
X152232202Y-115783900D01*
X156921978Y-115783900D01*
X156959300Y-115787576D01*
X156996622Y-115783900D01*
X156996633Y-115783900D01*
X157108286Y-115772903D01*
X157251547Y-115729446D01*
X157383576Y-115658874D01*
X157499301Y-115563901D01*
X157523104Y-115534897D01*
X159708044Y-113349958D01*
X159737041Y-113326161D01*
X159832014Y-113210436D01*
X159902586Y-113078407D01*
X159946043Y-112935146D01*
X159957040Y-112823493D01*
X159957040Y-112823484D01*
X159960716Y-112786161D01*
X159957040Y-112748838D01*
X159957040Y-109941506D01*
X175855739Y-109941506D01*
X175957539Y-110211019D01*
X176255677Y-110356903D01*
X176576546Y-110441820D01*
X176907817Y-110462506D01*
X177236757Y-110418168D01*
X177550727Y-110310509D01*
X177736861Y-110211019D01*
X177838661Y-109941506D01*
X176847200Y-108950045D01*
X175855739Y-109941506D01*
X159957040Y-109941506D01*
X159957040Y-108831057D01*
X175155134Y-108831057D01*
X175199472Y-109159997D01*
X175307131Y-109473967D01*
X175406621Y-109660101D01*
X175676134Y-109761901D01*
X176667595Y-108770440D01*
X177026805Y-108770440D01*
X178018266Y-109761901D01*
X178287779Y-109660101D01*
X178433663Y-109361963D01*
X178518580Y-109041094D01*
X178539266Y-108709823D01*
X178494928Y-108380883D01*
X178387269Y-108066913D01*
X178287779Y-107880779D01*
X178018266Y-107778979D01*
X177026805Y-108770440D01*
X176667595Y-108770440D01*
X175676134Y-107778979D01*
X175406621Y-107880779D01*
X175260737Y-108178917D01*
X175175820Y-108499786D01*
X175155134Y-108831057D01*
X159957040Y-108831057D01*
X159957040Y-107599374D01*
X175855739Y-107599374D01*
X176847200Y-108590835D01*
X177838661Y-107599374D01*
X177736861Y-107329861D01*
X177438723Y-107183977D01*
X177117854Y-107099060D01*
X176786583Y-107078374D01*
X176457643Y-107122712D01*
X176143673Y-107230371D01*
X175957539Y-107329861D01*
X175855739Y-107599374D01*
X159957040Y-107599374D01*
X159957040Y-103604482D01*
X175162200Y-103604482D01*
X175162200Y-103936398D01*
X175226954Y-104261936D01*
X175353972Y-104568587D01*
X175538375Y-104844565D01*
X175773075Y-105079265D01*
X176049053Y-105263668D01*
X176355704Y-105390686D01*
X176681242Y-105455440D01*
X177013158Y-105455440D01*
X177338696Y-105390686D01*
X177645347Y-105263668D01*
X177921325Y-105079265D01*
X178156025Y-104844565D01*
X178340428Y-104568587D01*
X178467446Y-104261936D01*
X178532200Y-103936398D01*
X178532200Y-103604482D01*
X178467446Y-103278944D01*
X178340428Y-102972293D01*
X178156025Y-102696315D01*
X177921325Y-102461615D01*
X177645347Y-102277212D01*
X177338696Y-102150194D01*
X177013158Y-102085440D01*
X176681242Y-102085440D01*
X176355704Y-102150194D01*
X176049053Y-102277212D01*
X175773075Y-102461615D01*
X175538375Y-102696315D01*
X175353972Y-102972293D01*
X175226954Y-103278944D01*
X175162200Y-103604482D01*
X159957040Y-103604482D01*
X159957040Y-97720440D01*
X175159128Y-97720440D01*
X175159128Y-99820440D01*
X175171388Y-99944922D01*
X175207698Y-100064620D01*
X175266663Y-100174934D01*
X175346015Y-100271625D01*
X175442706Y-100350977D01*
X175553020Y-100409942D01*
X175672718Y-100446252D01*
X175797200Y-100458512D01*
X177897200Y-100458512D01*
X178021682Y-100446252D01*
X178141380Y-100409942D01*
X178251694Y-100350977D01*
X178348385Y-100271625D01*
X178427737Y-100174934D01*
X178486702Y-100064620D01*
X178523012Y-99944922D01*
X178535272Y-99820440D01*
X178535272Y-97720440D01*
X178523012Y-97595958D01*
X178486702Y-97476260D01*
X178427737Y-97365946D01*
X178348385Y-97269255D01*
X178251694Y-97189903D01*
X178141380Y-97130938D01*
X178021682Y-97094628D01*
X177897200Y-97082368D01*
X175797200Y-97082368D01*
X175672718Y-97094628D01*
X175553020Y-97130938D01*
X175442706Y-97189903D01*
X175346015Y-97269255D01*
X175266663Y-97365946D01*
X175207698Y-97476260D01*
X175171388Y-97595958D01*
X175159128Y-97720440D01*
X159957040Y-97720440D01*
X159957040Y-84209541D01*
X164924200Y-89176702D01*
X164924201Y-90113988D01*
X164880263Y-90157926D01*
X164766995Y-90327444D01*
X164688974Y-90515802D01*
X164649200Y-90715761D01*
X164649200Y-90919639D01*
X164688974Y-91119598D01*
X164766995Y-91307956D01*
X164880263Y-91477474D01*
X165024426Y-91621637D01*
X165193944Y-91734905D01*
X165382302Y-91812926D01*
X165582261Y-91852700D01*
X165786139Y-91852700D01*
X165986098Y-91812926D01*
X166174456Y-91734905D01*
X166343974Y-91621637D01*
X166488137Y-91477474D01*
X166601405Y-91307956D01*
X166679426Y-91119598D01*
X166719200Y-90919639D01*
X166719200Y-90715761D01*
X166686509Y-90551408D01*
X175850780Y-90551408D01*
X175850780Y-90824032D01*
X175903966Y-91091418D01*
X176008295Y-91343290D01*
X176159757Y-91569969D01*
X176352531Y-91762743D01*
X176579210Y-91914205D01*
X176831082Y-92018534D01*
X177098468Y-92071720D01*
X177371092Y-92071720D01*
X177638478Y-92018534D01*
X177890350Y-91914205D01*
X178117029Y-91762743D01*
X178309803Y-91569969D01*
X178461265Y-91343290D01*
X178565594Y-91091418D01*
X178618780Y-90824032D01*
X178618780Y-90551408D01*
X182350780Y-90551408D01*
X182350780Y-90824032D01*
X182403966Y-91091418D01*
X182508295Y-91343290D01*
X182659757Y-91569969D01*
X182852531Y-91762743D01*
X183079210Y-91914205D01*
X183331082Y-92018534D01*
X183598468Y-92071720D01*
X183871092Y-92071720D01*
X184138478Y-92018534D01*
X184390350Y-91914205D01*
X184617029Y-91762743D01*
X184809803Y-91569969D01*
X184961265Y-91343290D01*
X185065594Y-91091418D01*
X185118780Y-90824032D01*
X185118780Y-90551408D01*
X185065594Y-90284022D01*
X184961265Y-90032150D01*
X184809803Y-89805471D01*
X184617029Y-89612697D01*
X184390350Y-89461235D01*
X184138478Y-89356906D01*
X183871092Y-89303720D01*
X183598468Y-89303720D01*
X183331082Y-89356906D01*
X183079210Y-89461235D01*
X182852531Y-89612697D01*
X182659757Y-89805471D01*
X182508295Y-90032150D01*
X182403966Y-90284022D01*
X182350780Y-90551408D01*
X178618780Y-90551408D01*
X178565594Y-90284022D01*
X178461265Y-90032150D01*
X178309803Y-89805471D01*
X178117029Y-89612697D01*
X177890350Y-89461235D01*
X177638478Y-89356906D01*
X177371092Y-89303720D01*
X177098468Y-89303720D01*
X176831082Y-89356906D01*
X176579210Y-89461235D01*
X176352531Y-89612697D01*
X176159757Y-89805471D01*
X176008295Y-90032150D01*
X175903966Y-90284022D01*
X175850780Y-90551408D01*
X166686509Y-90551408D01*
X166679426Y-90515802D01*
X166601405Y-90327444D01*
X166488137Y-90157926D01*
X166444200Y-90113989D01*
X166444200Y-88899233D01*
X166447877Y-88861900D01*
X166433203Y-88712914D01*
X166389746Y-88569653D01*
X166319174Y-88437624D01*
X166247999Y-88350897D01*
X166224201Y-88321899D01*
X166195204Y-88298102D01*
X164407370Y-86510268D01*
X165782220Y-86510268D01*
X165782220Y-86782892D01*
X165835406Y-87050278D01*
X165939735Y-87302150D01*
X166091197Y-87528829D01*
X166283971Y-87721603D01*
X166510650Y-87873065D01*
X166762522Y-87977394D01*
X167029908Y-88030580D01*
X167302532Y-88030580D01*
X167569918Y-87977394D01*
X167821790Y-87873065D01*
X168048469Y-87721603D01*
X168241243Y-87528829D01*
X168330277Y-87395580D01*
X172279148Y-87395580D01*
X172291408Y-87520062D01*
X172327718Y-87639760D01*
X172386683Y-87750074D01*
X172466035Y-87846765D01*
X172562726Y-87926117D01*
X172673040Y-87985082D01*
X172792738Y-88021392D01*
X172917220Y-88033652D01*
X173380470Y-88030580D01*
X173539220Y-87871830D01*
X173539220Y-86773580D01*
X173793220Y-86773580D01*
X173793220Y-87871830D01*
X173951970Y-88030580D01*
X174415220Y-88033652D01*
X174539702Y-88021392D01*
X174659400Y-87985082D01*
X174769714Y-87926117D01*
X174866405Y-87846765D01*
X174945757Y-87750074D01*
X175004722Y-87639760D01*
X175041032Y-87520062D01*
X175053292Y-87395580D01*
X175050250Y-86936720D01*
X175847708Y-86936720D01*
X175859968Y-87061202D01*
X175896278Y-87180900D01*
X175955243Y-87291214D01*
X176034595Y-87387905D01*
X176131286Y-87467257D01*
X176241600Y-87526222D01*
X176361298Y-87562532D01*
X176485780Y-87574792D01*
X176949030Y-87571720D01*
X177107780Y-87412970D01*
X177107780Y-86314720D01*
X177361780Y-86314720D01*
X177361780Y-87412970D01*
X177520530Y-87571720D01*
X177983780Y-87574792D01*
X178108262Y-87562532D01*
X178227960Y-87526222D01*
X178338274Y-87467257D01*
X178434965Y-87387905D01*
X178514317Y-87291214D01*
X178573282Y-87180900D01*
X178609592Y-87061202D01*
X178621852Y-86936720D01*
X178618780Y-86473470D01*
X178460030Y-86314720D01*
X177361780Y-86314720D01*
X177107780Y-86314720D01*
X176009530Y-86314720D01*
X175850780Y-86473470D01*
X175847708Y-86936720D01*
X175050250Y-86936720D01*
X175050220Y-86932330D01*
X174891470Y-86773580D01*
X173793220Y-86773580D01*
X173539220Y-86773580D01*
X172440970Y-86773580D01*
X172282220Y-86932330D01*
X172279148Y-87395580D01*
X168330277Y-87395580D01*
X168392705Y-87302150D01*
X168497034Y-87050278D01*
X168550220Y-86782892D01*
X168550220Y-86510268D01*
X168497034Y-86242882D01*
X168392705Y-85991010D01*
X168330278Y-85897580D01*
X172279148Y-85897580D01*
X172282220Y-86360830D01*
X172440970Y-86519580D01*
X173539220Y-86519580D01*
X173539220Y-85421330D01*
X173793220Y-85421330D01*
X173793220Y-86519580D01*
X174891470Y-86519580D01*
X175050220Y-86360830D01*
X175053292Y-85897580D01*
X175041032Y-85773098D01*
X175004722Y-85653400D01*
X174945757Y-85543086D01*
X174866405Y-85446395D01*
X174857053Y-85438720D01*
X175847708Y-85438720D01*
X175850780Y-85901970D01*
X176009530Y-86060720D01*
X177107780Y-86060720D01*
X177107780Y-84962470D01*
X177361780Y-84962470D01*
X177361780Y-86060720D01*
X178460030Y-86060720D01*
X178469342Y-86051408D01*
X182350780Y-86051408D01*
X182350780Y-86324032D01*
X182403966Y-86591418D01*
X182508295Y-86843290D01*
X182659757Y-87069969D01*
X182852531Y-87262743D01*
X183079210Y-87414205D01*
X183331082Y-87518534D01*
X183598468Y-87571720D01*
X183871092Y-87571720D01*
X184138478Y-87518534D01*
X184390350Y-87414205D01*
X184617029Y-87262743D01*
X184809803Y-87069969D01*
X184961265Y-86843290D01*
X185065594Y-86591418D01*
X185118780Y-86324032D01*
X185118780Y-86051408D01*
X185065594Y-85784022D01*
X184961265Y-85532150D01*
X184809803Y-85305471D01*
X184617029Y-85112697D01*
X184390350Y-84961235D01*
X184138478Y-84856906D01*
X183871092Y-84803720D01*
X183598468Y-84803720D01*
X183331082Y-84856906D01*
X183079210Y-84961235D01*
X182852531Y-85112697D01*
X182659757Y-85305471D01*
X182508295Y-85532150D01*
X182403966Y-85784022D01*
X182350780Y-86051408D01*
X178469342Y-86051408D01*
X178618780Y-85901970D01*
X178621852Y-85438720D01*
X178609592Y-85314238D01*
X178573282Y-85194540D01*
X178514317Y-85084226D01*
X178434965Y-84987535D01*
X178338274Y-84908183D01*
X178227960Y-84849218D01*
X178108262Y-84812908D01*
X177983780Y-84800648D01*
X177520530Y-84803720D01*
X177361780Y-84962470D01*
X177107780Y-84962470D01*
X176949030Y-84803720D01*
X176485780Y-84800648D01*
X176361298Y-84812908D01*
X176241600Y-84849218D01*
X176131286Y-84908183D01*
X176034595Y-84987535D01*
X175955243Y-85084226D01*
X175896278Y-85194540D01*
X175859968Y-85314238D01*
X175847708Y-85438720D01*
X174857053Y-85438720D01*
X174769714Y-85367043D01*
X174659400Y-85308078D01*
X174539702Y-85271768D01*
X174415220Y-85259508D01*
X173951970Y-85262580D01*
X173793220Y-85421330D01*
X173539220Y-85421330D01*
X173380470Y-85262580D01*
X172917220Y-85259508D01*
X172792738Y-85271768D01*
X172673040Y-85308078D01*
X172562726Y-85367043D01*
X172466035Y-85446395D01*
X172386683Y-85543086D01*
X172327718Y-85653400D01*
X172291408Y-85773098D01*
X172279148Y-85897580D01*
X168330278Y-85897580D01*
X168241243Y-85764331D01*
X168048469Y-85571557D01*
X167821790Y-85420095D01*
X167569918Y-85315766D01*
X167302532Y-85262580D01*
X167029908Y-85262580D01*
X166762522Y-85315766D01*
X166510650Y-85420095D01*
X166283971Y-85571557D01*
X166091197Y-85764331D01*
X165939735Y-85991010D01*
X165835406Y-86242882D01*
X165782220Y-86510268D01*
X164407370Y-86510268D01*
X159907370Y-82010268D01*
X165782220Y-82010268D01*
X165782220Y-82282892D01*
X165835406Y-82550278D01*
X165939735Y-82802150D01*
X166091197Y-83028829D01*
X166283971Y-83221603D01*
X166510650Y-83373065D01*
X166762522Y-83477394D01*
X167029908Y-83530580D01*
X167302532Y-83530580D01*
X167569918Y-83477394D01*
X167821790Y-83373065D01*
X168048469Y-83221603D01*
X168241243Y-83028829D01*
X168392705Y-82802150D01*
X168497034Y-82550278D01*
X168550220Y-82282892D01*
X168550220Y-82010268D01*
X172282220Y-82010268D01*
X172282220Y-82282892D01*
X172335406Y-82550278D01*
X172439735Y-82802150D01*
X172591197Y-83028829D01*
X172783971Y-83221603D01*
X173010650Y-83373065D01*
X173262522Y-83477394D01*
X173529908Y-83530580D01*
X173802532Y-83530580D01*
X174069918Y-83477394D01*
X174321790Y-83373065D01*
X174548469Y-83221603D01*
X174741243Y-83028829D01*
X174892705Y-82802150D01*
X174997034Y-82550278D01*
X175050220Y-82282892D01*
X175050220Y-82260848D01*
X175490100Y-82260848D01*
X175490100Y-82533472D01*
X175543286Y-82800858D01*
X175647615Y-83052730D01*
X175799077Y-83279409D01*
X175991851Y-83472183D01*
X176218530Y-83623645D01*
X176470402Y-83727974D01*
X176737788Y-83781160D01*
X177010412Y-83781160D01*
X177277798Y-83727974D01*
X177529670Y-83623645D01*
X177756349Y-83472183D01*
X177949123Y-83279409D01*
X178100585Y-83052730D01*
X178204914Y-82800858D01*
X178258100Y-82533472D01*
X178258100Y-82260848D01*
X181990100Y-82260848D01*
X181990100Y-82533472D01*
X182043286Y-82800858D01*
X182147615Y-83052730D01*
X182299077Y-83279409D01*
X182491851Y-83472183D01*
X182718530Y-83623645D01*
X182970402Y-83727974D01*
X183237788Y-83781160D01*
X183510412Y-83781160D01*
X183777798Y-83727974D01*
X184029670Y-83623645D01*
X184256349Y-83472183D01*
X184449123Y-83279409D01*
X184600585Y-83052730D01*
X184704914Y-82800858D01*
X184758100Y-82533472D01*
X184758100Y-82260848D01*
X184704914Y-81993462D01*
X184600585Y-81741590D01*
X184449123Y-81514911D01*
X184256349Y-81322137D01*
X184029670Y-81170675D01*
X183777798Y-81066346D01*
X183510412Y-81013160D01*
X183237788Y-81013160D01*
X182970402Y-81066346D01*
X182718530Y-81170675D01*
X182491851Y-81322137D01*
X182299077Y-81514911D01*
X182147615Y-81741590D01*
X182043286Y-81993462D01*
X181990100Y-82260848D01*
X178258100Y-82260848D01*
X178204914Y-81993462D01*
X178100585Y-81741590D01*
X177949123Y-81514911D01*
X177756349Y-81322137D01*
X177529670Y-81170675D01*
X177277798Y-81066346D01*
X177010412Y-81013160D01*
X176737788Y-81013160D01*
X176470402Y-81066346D01*
X176218530Y-81170675D01*
X175991851Y-81322137D01*
X175799077Y-81514911D01*
X175647615Y-81741590D01*
X175543286Y-81993462D01*
X175490100Y-82260848D01*
X175050220Y-82260848D01*
X175050220Y-82010268D01*
X174997034Y-81742882D01*
X174892705Y-81491010D01*
X174741243Y-81264331D01*
X174548469Y-81071557D01*
X174321790Y-80920095D01*
X174069918Y-80815766D01*
X173802532Y-80762580D01*
X173529908Y-80762580D01*
X173262522Y-80815766D01*
X173010650Y-80920095D01*
X172783971Y-81071557D01*
X172591197Y-81264331D01*
X172439735Y-81491010D01*
X172335406Y-81742882D01*
X172282220Y-82010268D01*
X168550220Y-82010268D01*
X168497034Y-81742882D01*
X168392705Y-81491010D01*
X168241243Y-81264331D01*
X168048469Y-81071557D01*
X167821790Y-80920095D01*
X167569918Y-80815766D01*
X167302532Y-80762580D01*
X167029908Y-80762580D01*
X166762522Y-80815766D01*
X166510650Y-80920095D01*
X166283971Y-81071557D01*
X166091197Y-81264331D01*
X165939735Y-81491010D01*
X165835406Y-81742882D01*
X165782220Y-82010268D01*
X159907370Y-82010268D01*
X157307204Y-79410103D01*
X157283401Y-79381099D01*
X157167676Y-79286126D01*
X157035647Y-79215554D01*
X156892386Y-79172097D01*
X156780733Y-79161100D01*
X156780722Y-79161100D01*
X156743400Y-79157424D01*
X156706078Y-79161100D01*
X147179523Y-79161100D01*
X147142200Y-79157424D01*
X147104877Y-79161100D01*
X147104867Y-79161100D01*
X146993214Y-79172097D01*
X146849953Y-79215554D01*
X146717924Y-79286126D01*
X146602199Y-79381099D01*
X146578401Y-79410097D01*
X142098599Y-83889900D01*
X142036461Y-83889900D01*
X141836502Y-83929674D01*
X141648144Y-84007695D01*
X141478626Y-84120963D01*
X141334463Y-84265126D01*
X141221195Y-84434644D01*
X141143174Y-84623002D01*
X141103400Y-84822961D01*
X141103400Y-85026839D01*
X141143174Y-85226798D01*
X141221195Y-85415156D01*
X141334463Y-85584674D01*
X141478626Y-85728837D01*
X141648144Y-85842105D01*
X141836502Y-85920126D01*
X142036461Y-85959900D01*
X142240339Y-85959900D01*
X142440298Y-85920126D01*
X142628656Y-85842105D01*
X142798174Y-85728837D01*
X142942337Y-85584674D01*
X143055605Y-85415156D01*
X143133626Y-85226798D01*
X143173400Y-85026839D01*
X143173400Y-84964701D01*
X144093012Y-84045089D01*
X144027895Y-84142544D01*
X143949874Y-84330902D01*
X143910100Y-84530861D01*
X143910100Y-84734739D01*
X143949874Y-84934698D01*
X144027895Y-85123056D01*
X144141163Y-85292574D01*
X144185101Y-85336512D01*
X144185100Y-92445997D01*
X141550518Y-95080580D01*
X141545337Y-95072826D01*
X141401174Y-94928663D01*
X141231656Y-94815395D01*
X141043298Y-94737374D01*
X140843339Y-94697600D01*
X140639461Y-94697600D01*
X140439502Y-94737374D01*
X140251144Y-94815395D01*
X140081626Y-94928663D01*
X139937463Y-95072826D01*
X139824195Y-95242344D01*
X139795250Y-95312223D01*
X139766305Y-95242344D01*
X139653037Y-95072826D01*
X139508874Y-94928663D01*
X139339356Y-94815395D01*
X139150998Y-94737374D01*
X138951039Y-94697600D01*
X138747161Y-94697600D01*
X138547202Y-94737374D01*
X138358844Y-94815395D01*
X138189326Y-94928663D01*
X138045163Y-95072826D01*
X137931895Y-95242344D01*
X137853874Y-95430702D01*
X137814100Y-95630661D01*
X137814100Y-95692798D01*
X131144155Y-102362744D01*
X131025274Y-102243863D01*
X130855756Y-102130595D01*
X130667398Y-102052574D01*
X130467439Y-102012800D01*
X130263561Y-102012800D01*
X130063602Y-102052574D01*
X129875244Y-102130595D01*
X129705726Y-102243863D01*
X129561563Y-102388026D01*
X129448295Y-102557544D01*
X129370274Y-102745902D01*
X129330500Y-102945861D01*
X129330500Y-103007999D01*
X129126139Y-103212360D01*
X123972451Y-103212360D01*
X123898034Y-103137943D01*
X123728516Y-103024675D01*
X123540158Y-102946654D01*
X123340199Y-102906880D01*
X123136321Y-102906880D01*
X122936362Y-102946654D01*
X122748004Y-103024675D01*
X122578486Y-103137943D01*
X122434323Y-103282106D01*
X122321055Y-103451624D01*
X122243034Y-103639982D01*
X122203260Y-103839941D01*
X122203260Y-104043819D01*
X122243034Y-104243778D01*
X122321055Y-104432136D01*
X122434323Y-104601654D01*
X122578486Y-104745817D01*
X122748004Y-104859085D01*
X122936362Y-104937106D01*
X123136321Y-104976880D01*
X123340199Y-104976880D01*
X123540158Y-104937106D01*
X123728516Y-104859085D01*
X123898034Y-104745817D01*
X123911491Y-104732360D01*
X128774539Y-104732360D01*
X121515678Y-111991221D01*
X121486680Y-112015019D01*
X121462882Y-112044017D01*
X121462881Y-112044018D01*
X121391706Y-112130744D01*
X121321134Y-112262774D01*
X121313120Y-112289195D01*
X121277678Y-112406034D01*
X121268422Y-112500014D01*
X121263004Y-112555020D01*
X121266681Y-112592352D01*
X121266680Y-118236441D01*
X121080048Y-118361145D01*
X120873205Y-118567988D01*
X120756680Y-118742380D01*
X120640155Y-118567988D01*
X120433312Y-118361145D01*
X120246680Y-118236442D01*
X120246680Y-105262521D01*
X137568102Y-87941100D01*
X137630239Y-87941100D01*
X137830198Y-87901326D01*
X138018556Y-87823305D01*
X138188074Y-87710037D01*
X138332237Y-87565874D01*
X138445505Y-87396356D01*
X138523526Y-87207998D01*
X138563300Y-87008039D01*
X138563300Y-86804161D01*
X138523526Y-86604202D01*
X138445505Y-86415844D01*
X138340305Y-86258400D01*
X138445505Y-86100956D01*
X138523526Y-85912598D01*
X138563300Y-85712639D01*
X138563300Y-85508761D01*
X138523526Y-85308802D01*
X138445505Y-85120444D01*
X138346996Y-84973015D01*
X138357637Y-84962374D01*
X138470905Y-84792856D01*
X138548926Y-84604498D01*
X138588700Y-84404539D01*
X138588700Y-84200661D01*
X138548926Y-84000702D01*
X138470905Y-83812344D01*
X138357637Y-83642826D01*
X138213474Y-83498663D01*
X138043956Y-83385395D01*
X137855598Y-83307374D01*
X137655639Y-83267600D01*
X137451761Y-83267600D01*
X137251802Y-83307374D01*
X137063444Y-83385395D01*
X136893926Y-83498663D01*
X136749763Y-83642826D01*
X136636495Y-83812344D01*
X136558474Y-84000702D01*
X136518700Y-84200661D01*
X136518700Y-84262798D01*
X134410400Y-86371098D01*
X134410400Y-86207261D01*
X134370626Y-86007302D01*
X134292605Y-85818944D01*
X134179337Y-85649426D01*
X134035174Y-85505263D01*
X133865656Y-85391995D01*
X133677298Y-85313974D01*
X133477339Y-85274200D01*
X133273461Y-85274200D01*
X133073502Y-85313974D01*
X132885144Y-85391995D01*
X132715626Y-85505263D01*
X132571463Y-85649426D01*
X132458195Y-85818944D01*
X132380174Y-86007302D01*
X132340400Y-86207261D01*
X132340400Y-86234042D01*
X127894043Y-90680400D01*
X126789711Y-90680400D01*
X126770774Y-90661463D01*
X126601256Y-90548195D01*
X126412898Y-90470174D01*
X126212939Y-90430400D01*
X126009061Y-90430400D01*
X125809102Y-90470174D01*
X125620744Y-90548195D01*
X125451226Y-90661463D01*
X125307063Y-90805626D01*
X125193795Y-90975144D01*
X125115774Y-91163502D01*
X125076000Y-91363461D01*
X125076000Y-91567339D01*
X125115774Y-91767298D01*
X125193795Y-91955656D01*
X125307063Y-92125174D01*
X125451226Y-92269337D01*
X125620744Y-92382605D01*
X125809102Y-92460626D01*
X126009061Y-92500400D01*
X126212939Y-92500400D01*
X126412898Y-92460626D01*
X126601256Y-92382605D01*
X126770774Y-92269337D01*
X126789711Y-92250400D01*
X128180647Y-92250400D01*
X128219200Y-92254197D01*
X128257753Y-92250400D01*
X128257761Y-92250400D01*
X128373087Y-92239041D01*
X128521060Y-92194154D01*
X128657433Y-92121262D01*
X128673067Y-92108431D01*
X113895678Y-106885821D01*
X113866680Y-106909619D01*
X113842882Y-106938617D01*
X113842881Y-106938618D01*
X113771706Y-107025344D01*
X113701134Y-107157374D01*
X113657678Y-107300635D01*
X113643004Y-107449620D01*
X113646681Y-107486952D01*
X113646680Y-118026548D01*
X113556680Y-118026548D01*
X113432198Y-118038808D01*
X113312500Y-118075118D01*
X113202186Y-118134083D01*
X113105495Y-118213435D01*
X113026143Y-118310126D01*
X112967178Y-118420440D01*
X112930868Y-118540138D01*
X112918608Y-118664620D01*
X109798367Y-118664620D01*
X109794112Y-118621418D01*
X109757802Y-118501720D01*
X109698837Y-118391406D01*
X109619485Y-118294715D01*
X109522794Y-118215363D01*
X109412480Y-118156398D01*
X109331834Y-118131934D01*
X109415888Y-118056169D01*
X109589941Y-117822820D01*
X109715125Y-117559999D01*
X109759776Y-117412790D01*
X109638455Y-117182900D01*
X108445300Y-117182900D01*
X108445300Y-117202900D01*
X108191300Y-117202900D01*
X108191300Y-117182900D01*
X106998145Y-117182900D01*
X106876824Y-117412790D01*
X106921475Y-117559999D01*
X107046659Y-117822820D01*
X107220712Y-118056169D01*
X107304766Y-118131934D01*
X107224120Y-118156398D01*
X107113806Y-118215363D01*
X107017115Y-118294715D01*
X106937763Y-118391406D01*
X106878798Y-118501720D01*
X106842488Y-118621418D01*
X106830228Y-118745900D01*
X106705000Y-118745900D01*
X106705000Y-114369640D01*
X106833300Y-114369640D01*
X106833300Y-114662160D01*
X106890368Y-114949058D01*
X107002310Y-115219311D01*
X107164825Y-115462532D01*
X107371668Y-115669375D01*
X107553834Y-115791095D01*
X107436945Y-115860722D01*
X107220712Y-116055631D01*
X107046659Y-116288980D01*
X106921475Y-116551801D01*
X106876824Y-116699010D01*
X106998145Y-116928900D01*
X108191300Y-116928900D01*
X108191300Y-116908900D01*
X108445300Y-116908900D01*
X108445300Y-116928900D01*
X109638455Y-116928900D01*
X109759776Y-116699010D01*
X109715125Y-116551801D01*
X109589941Y-116288980D01*
X109415888Y-116055631D01*
X109199655Y-115860722D01*
X109082766Y-115791095D01*
X109264932Y-115669375D01*
X109471775Y-115462532D01*
X109634290Y-115219311D01*
X109746232Y-114949058D01*
X109803300Y-114662160D01*
X109803300Y-114369640D01*
X109746232Y-114082742D01*
X109634290Y-113812489D01*
X109471775Y-113569268D01*
X109264932Y-113362425D01*
X109021711Y-113199910D01*
X108751458Y-113087968D01*
X108464560Y-113030900D01*
X108172040Y-113030900D01*
X107885142Y-113087968D01*
X107614889Y-113199910D01*
X107371668Y-113362425D01*
X107164825Y-113569268D01*
X107002310Y-113812489D01*
X106890368Y-114082742D01*
X106833300Y-114369640D01*
X106705000Y-114369640D01*
X106705000Y-101993240D01*
X111157028Y-101993240D01*
X111157028Y-104793240D01*
X111169288Y-104917722D01*
X111205598Y-105037420D01*
X111264563Y-105147734D01*
X111343915Y-105244425D01*
X111440606Y-105323777D01*
X111550920Y-105382742D01*
X111670618Y-105419052D01*
X111795100Y-105431312D01*
X114595100Y-105431312D01*
X114719582Y-105419052D01*
X114839280Y-105382742D01*
X114949594Y-105323777D01*
X115046285Y-105244425D01*
X115125637Y-105147734D01*
X115184602Y-105037420D01*
X115220912Y-104917722D01*
X115233172Y-104793240D01*
X115233172Y-101993240D01*
X115220912Y-101868758D01*
X115184602Y-101749060D01*
X115125637Y-101638746D01*
X115046285Y-101542055D01*
X114949594Y-101462703D01*
X114839280Y-101403738D01*
X114719582Y-101367428D01*
X114595100Y-101355168D01*
X111795100Y-101355168D01*
X111670618Y-101367428D01*
X111550920Y-101403738D01*
X111440606Y-101462703D01*
X111343915Y-101542055D01*
X111264563Y-101638746D01*
X111205598Y-101749060D01*
X111169288Y-101868758D01*
X111157028Y-101993240D01*
X106705000Y-101993240D01*
X106705000Y-98192810D01*
X111160100Y-98192810D01*
X111160100Y-98593670D01*
X111238304Y-98986827D01*
X111391707Y-99357174D01*
X111614413Y-99690477D01*
X111897863Y-99973927D01*
X112231166Y-100196633D01*
X112601513Y-100350036D01*
X112994670Y-100428240D01*
X113395530Y-100428240D01*
X113788687Y-100350036D01*
X114159034Y-100196633D01*
X114492337Y-99973927D01*
X114775787Y-99690477D01*
X114998493Y-99357174D01*
X115151896Y-98986827D01*
X115230100Y-98593670D01*
X115230100Y-98192810D01*
X115151896Y-97799653D01*
X114998493Y-97429306D01*
X114775787Y-97096003D01*
X114492337Y-96812553D01*
X114159034Y-96589847D01*
X113788687Y-96436444D01*
X113395530Y-96358240D01*
X112994670Y-96358240D01*
X112601513Y-96436444D01*
X112231166Y-96589847D01*
X111897863Y-96812553D01*
X111614413Y-97096003D01*
X111391707Y-97429306D01*
X111238304Y-97799653D01*
X111160100Y-98192810D01*
X106705000Y-98192810D01*
X106705000Y-85818520D01*
X111253548Y-85818520D01*
X111253548Y-88618520D01*
X111265808Y-88743002D01*
X111302118Y-88862700D01*
X111361083Y-88973014D01*
X111440435Y-89069705D01*
X111537126Y-89149057D01*
X111647440Y-89208022D01*
X111767138Y-89244332D01*
X111891620Y-89256592D01*
X114691620Y-89256592D01*
X114816102Y-89244332D01*
X114935800Y-89208022D01*
X115046114Y-89149057D01*
X115142805Y-89069705D01*
X115222157Y-88973014D01*
X115281122Y-88862700D01*
X115317432Y-88743002D01*
X115329692Y-88618520D01*
X115329692Y-85818520D01*
X115317432Y-85694038D01*
X115281122Y-85574340D01*
X115222157Y-85464026D01*
X115142805Y-85367335D01*
X115046114Y-85287983D01*
X114935800Y-85229018D01*
X114816102Y-85192708D01*
X114691620Y-85180448D01*
X111891620Y-85180448D01*
X111767138Y-85192708D01*
X111647440Y-85229018D01*
X111537126Y-85287983D01*
X111440435Y-85367335D01*
X111361083Y-85464026D01*
X111302118Y-85574340D01*
X111265808Y-85694038D01*
X111253548Y-85818520D01*
X106705000Y-85818520D01*
X106705000Y-82018090D01*
X111256620Y-82018090D01*
X111256620Y-82418950D01*
X111334824Y-82812107D01*
X111488227Y-83182454D01*
X111710933Y-83515757D01*
X111994383Y-83799207D01*
X112327686Y-84021913D01*
X112698033Y-84175316D01*
X113091190Y-84253520D01*
X113492050Y-84253520D01*
X113885207Y-84175316D01*
X114255554Y-84021913D01*
X114588857Y-83799207D01*
X114872307Y-83515757D01*
X115095013Y-83182454D01*
X115248416Y-82812107D01*
X115326620Y-82418950D01*
X115326620Y-82018090D01*
X115248416Y-81624933D01*
X115095013Y-81254586D01*
X114872307Y-80921283D01*
X114588857Y-80637833D01*
X114255554Y-80415127D01*
X113885207Y-80261724D01*
X113492050Y-80183520D01*
X113091190Y-80183520D01*
X112698033Y-80261724D01*
X112327686Y-80415127D01*
X111994383Y-80637833D01*
X111710933Y-80921283D01*
X111488227Y-81254586D01*
X111334824Y-81624933D01*
X111256620Y-82018090D01*
X106705000Y-82018090D01*
X106705000Y-78275588D01*
X165782220Y-78275588D01*
X165782220Y-78548212D01*
X165835406Y-78815598D01*
X165939735Y-79067470D01*
X166091197Y-79294149D01*
X166283971Y-79486923D01*
X166510650Y-79638385D01*
X166762522Y-79742714D01*
X167029908Y-79795900D01*
X167302532Y-79795900D01*
X167569918Y-79742714D01*
X167821790Y-79638385D01*
X168048469Y-79486923D01*
X168241243Y-79294149D01*
X168392705Y-79067470D01*
X168497034Y-78815598D01*
X168550220Y-78548212D01*
X168550220Y-78275588D01*
X172282220Y-78275588D01*
X172282220Y-78548212D01*
X172335406Y-78815598D01*
X172439735Y-79067470D01*
X172591197Y-79294149D01*
X172783971Y-79486923D01*
X173010650Y-79638385D01*
X173262522Y-79742714D01*
X173529908Y-79795900D01*
X173802532Y-79795900D01*
X174069918Y-79742714D01*
X174321790Y-79638385D01*
X174548469Y-79486923D01*
X174741243Y-79294149D01*
X174892705Y-79067470D01*
X174997034Y-78815598D01*
X175030737Y-78646160D01*
X175487028Y-78646160D01*
X175499288Y-78770642D01*
X175535598Y-78890340D01*
X175594563Y-79000654D01*
X175673915Y-79097345D01*
X175770606Y-79176697D01*
X175880920Y-79235662D01*
X176000618Y-79271972D01*
X176125100Y-79284232D01*
X176588350Y-79281160D01*
X176747100Y-79122410D01*
X176747100Y-78024160D01*
X177001100Y-78024160D01*
X177001100Y-79122410D01*
X177159850Y-79281160D01*
X177623100Y-79284232D01*
X177747582Y-79271972D01*
X177867280Y-79235662D01*
X177977594Y-79176697D01*
X178074285Y-79097345D01*
X178153637Y-79000654D01*
X178212602Y-78890340D01*
X178248912Y-78770642D01*
X178261172Y-78646160D01*
X178258100Y-78182910D01*
X178099350Y-78024160D01*
X177001100Y-78024160D01*
X176747100Y-78024160D01*
X175648850Y-78024160D01*
X175490100Y-78182910D01*
X175487028Y-78646160D01*
X175030737Y-78646160D01*
X175050220Y-78548212D01*
X175050220Y-78275588D01*
X174997034Y-78008202D01*
X174892705Y-77756330D01*
X174741243Y-77529651D01*
X174548469Y-77336877D01*
X174321790Y-77185415D01*
X174231849Y-77148160D01*
X175487028Y-77148160D01*
X175490100Y-77611410D01*
X175648850Y-77770160D01*
X176747100Y-77770160D01*
X176747100Y-76671910D01*
X177001100Y-76671910D01*
X177001100Y-77770160D01*
X178099350Y-77770160D01*
X178108662Y-77760848D01*
X181990100Y-77760848D01*
X181990100Y-78033472D01*
X182043286Y-78300858D01*
X182147615Y-78552730D01*
X182299077Y-78779409D01*
X182491851Y-78972183D01*
X182718530Y-79123645D01*
X182970402Y-79227974D01*
X183237788Y-79281160D01*
X183510412Y-79281160D01*
X183777798Y-79227974D01*
X184029670Y-79123645D01*
X184256349Y-78972183D01*
X184449123Y-78779409D01*
X184600585Y-78552730D01*
X184704914Y-78300858D01*
X184758100Y-78033472D01*
X184758100Y-77760848D01*
X184704914Y-77493462D01*
X184600585Y-77241590D01*
X184449123Y-77014911D01*
X184256349Y-76822137D01*
X184029670Y-76670675D01*
X183777798Y-76566346D01*
X183510412Y-76513160D01*
X183237788Y-76513160D01*
X182970402Y-76566346D01*
X182718530Y-76670675D01*
X182491851Y-76822137D01*
X182299077Y-77014911D01*
X182147615Y-77241590D01*
X182043286Y-77493462D01*
X181990100Y-77760848D01*
X178108662Y-77760848D01*
X178258100Y-77611410D01*
X178261172Y-77148160D01*
X178248912Y-77023678D01*
X178212602Y-76903980D01*
X178153637Y-76793666D01*
X178074285Y-76696975D01*
X177977594Y-76617623D01*
X177867280Y-76558658D01*
X177747582Y-76522348D01*
X177623100Y-76510088D01*
X177159850Y-76513160D01*
X177001100Y-76671910D01*
X176747100Y-76671910D01*
X176588350Y-76513160D01*
X176125100Y-76510088D01*
X176000618Y-76522348D01*
X175880920Y-76558658D01*
X175770606Y-76617623D01*
X175673915Y-76696975D01*
X175594563Y-76793666D01*
X175535598Y-76903980D01*
X175499288Y-77023678D01*
X175487028Y-77148160D01*
X174231849Y-77148160D01*
X174069918Y-77081086D01*
X173802532Y-77027900D01*
X173529908Y-77027900D01*
X173262522Y-77081086D01*
X173010650Y-77185415D01*
X172783971Y-77336877D01*
X172591197Y-77529651D01*
X172439735Y-77756330D01*
X172335406Y-78008202D01*
X172282220Y-78275588D01*
X168550220Y-78275588D01*
X168497034Y-78008202D01*
X168392705Y-77756330D01*
X168241243Y-77529651D01*
X168048469Y-77336877D01*
X167821790Y-77185415D01*
X167569918Y-77081086D01*
X167302532Y-77027900D01*
X167029908Y-77027900D01*
X166762522Y-77081086D01*
X166510650Y-77185415D01*
X166283971Y-77336877D01*
X166091197Y-77529651D01*
X165939735Y-77756330D01*
X165835406Y-78008202D01*
X165782220Y-78275588D01*
X106705000Y-78275588D01*
X106705000Y-74660900D01*
X165779148Y-74660900D01*
X165791408Y-74785382D01*
X165827718Y-74905080D01*
X165886683Y-75015394D01*
X165966035Y-75112085D01*
X166062726Y-75191437D01*
X166173040Y-75250402D01*
X166292738Y-75286712D01*
X166417220Y-75298972D01*
X166880470Y-75295900D01*
X167039220Y-75137150D01*
X167039220Y-74038900D01*
X167293220Y-74038900D01*
X167293220Y-75137150D01*
X167451970Y-75295900D01*
X167915220Y-75298972D01*
X168039702Y-75286712D01*
X168159400Y-75250402D01*
X168269714Y-75191437D01*
X168366405Y-75112085D01*
X168445757Y-75015394D01*
X168504722Y-74905080D01*
X168541032Y-74785382D01*
X168553292Y-74660900D01*
X168550220Y-74197650D01*
X168391470Y-74038900D01*
X167293220Y-74038900D01*
X167039220Y-74038900D01*
X165940970Y-74038900D01*
X165782220Y-74197650D01*
X165779148Y-74660900D01*
X106705000Y-74660900D01*
X106705000Y-71479100D01*
X114469428Y-71479100D01*
X114469428Y-72404100D01*
X114481688Y-72528582D01*
X114517998Y-72648280D01*
X114533207Y-72676734D01*
X114514677Y-72721471D01*
X114472500Y-72933506D01*
X114472500Y-73149694D01*
X114514677Y-73361729D01*
X114597408Y-73561461D01*
X114717516Y-73741215D01*
X114870385Y-73894084D01*
X115050139Y-74014192D01*
X115249871Y-74096923D01*
X115461906Y-74139100D01*
X115678094Y-74139100D01*
X115890129Y-74096923D01*
X116089861Y-74014192D01*
X116269615Y-73894084D01*
X116422484Y-73741215D01*
X116542592Y-73561461D01*
X116625323Y-73361729D01*
X116664873Y-73162900D01*
X165779148Y-73162900D01*
X165782220Y-73626150D01*
X165940970Y-73784900D01*
X167039220Y-73784900D01*
X167039220Y-72686650D01*
X167293220Y-72686650D01*
X167293220Y-73784900D01*
X168391470Y-73784900D01*
X168400782Y-73775588D01*
X172282220Y-73775588D01*
X172282220Y-74048212D01*
X172335406Y-74315598D01*
X172439735Y-74567470D01*
X172591197Y-74794149D01*
X172783971Y-74986923D01*
X173010650Y-75138385D01*
X173262522Y-75242714D01*
X173529908Y-75295900D01*
X173802532Y-75295900D01*
X174069918Y-75242714D01*
X174321790Y-75138385D01*
X174548469Y-74986923D01*
X174741243Y-74794149D01*
X174892705Y-74567470D01*
X174997034Y-74315598D01*
X175033890Y-74130308D01*
X175490100Y-74130308D01*
X175490100Y-74402932D01*
X175543286Y-74670318D01*
X175647615Y-74922190D01*
X175799077Y-75148869D01*
X175991851Y-75341643D01*
X176218530Y-75493105D01*
X176470402Y-75597434D01*
X176737788Y-75650620D01*
X177010412Y-75650620D01*
X177277798Y-75597434D01*
X177529670Y-75493105D01*
X177756349Y-75341643D01*
X177949123Y-75148869D01*
X178100585Y-74922190D01*
X178204914Y-74670318D01*
X178258100Y-74402932D01*
X178258100Y-74130308D01*
X181990100Y-74130308D01*
X181990100Y-74402932D01*
X182043286Y-74670318D01*
X182147615Y-74922190D01*
X182299077Y-75148869D01*
X182491851Y-75341643D01*
X182718530Y-75493105D01*
X182970402Y-75597434D01*
X183237788Y-75650620D01*
X183510412Y-75650620D01*
X183777798Y-75597434D01*
X184029670Y-75493105D01*
X184256349Y-75341643D01*
X184449123Y-75148869D01*
X184600585Y-74922190D01*
X184704914Y-74670318D01*
X184758100Y-74402932D01*
X184758100Y-74130308D01*
X184704914Y-73862922D01*
X184600585Y-73611050D01*
X184449123Y-73384371D01*
X184256349Y-73191597D01*
X184029670Y-73040135D01*
X183777798Y-72935806D01*
X183510412Y-72882620D01*
X183237788Y-72882620D01*
X182970402Y-72935806D01*
X182718530Y-73040135D01*
X182491851Y-73191597D01*
X182299077Y-73384371D01*
X182147615Y-73611050D01*
X182043286Y-73862922D01*
X181990100Y-74130308D01*
X178258100Y-74130308D01*
X178204914Y-73862922D01*
X178100585Y-73611050D01*
X177949123Y-73384371D01*
X177756349Y-73191597D01*
X177529670Y-73040135D01*
X177277798Y-72935806D01*
X177010412Y-72882620D01*
X176737788Y-72882620D01*
X176470402Y-72935806D01*
X176218530Y-73040135D01*
X175991851Y-73191597D01*
X175799077Y-73384371D01*
X175647615Y-73611050D01*
X175543286Y-73862922D01*
X175490100Y-74130308D01*
X175033890Y-74130308D01*
X175050220Y-74048212D01*
X175050220Y-73775588D01*
X174997034Y-73508202D01*
X174892705Y-73256330D01*
X174741243Y-73029651D01*
X174548469Y-72836877D01*
X174321790Y-72685415D01*
X174069918Y-72581086D01*
X173802532Y-72527900D01*
X173529908Y-72527900D01*
X173262522Y-72581086D01*
X173010650Y-72685415D01*
X172783971Y-72836877D01*
X172591197Y-73029651D01*
X172439735Y-73256330D01*
X172335406Y-73508202D01*
X172282220Y-73775588D01*
X168400782Y-73775588D01*
X168550220Y-73626150D01*
X168553292Y-73162900D01*
X168541032Y-73038418D01*
X168504722Y-72918720D01*
X168445757Y-72808406D01*
X168366405Y-72711715D01*
X168269714Y-72632363D01*
X168159400Y-72573398D01*
X168039702Y-72537088D01*
X167915220Y-72524828D01*
X167451970Y-72527900D01*
X167293220Y-72686650D01*
X167039220Y-72686650D01*
X166880470Y-72527900D01*
X166417220Y-72524828D01*
X166292738Y-72537088D01*
X166173040Y-72573398D01*
X166062726Y-72632363D01*
X165966035Y-72711715D01*
X165886683Y-72808406D01*
X165827718Y-72918720D01*
X165791408Y-73038418D01*
X165779148Y-73162900D01*
X116664873Y-73162900D01*
X116667500Y-73149694D01*
X116667500Y-72933506D01*
X116625323Y-72721471D01*
X116606793Y-72676734D01*
X116622002Y-72648280D01*
X116658312Y-72528582D01*
X116670572Y-72404100D01*
X116670572Y-71479100D01*
X116658312Y-71354618D01*
X116622002Y-71234920D01*
X116563037Y-71124606D01*
X116541653Y-71098549D01*
X139963460Y-71098549D01*
X139963460Y-71371371D01*
X140016685Y-71638949D01*
X140121089Y-71891003D01*
X140272661Y-72117846D01*
X140465574Y-72310759D01*
X140692417Y-72462331D01*
X140944471Y-72566735D01*
X141212049Y-72619960D01*
X141484871Y-72619960D01*
X141752449Y-72566735D01*
X142004503Y-72462331D01*
X142231346Y-72310759D01*
X142424259Y-72117846D01*
X142575831Y-71891003D01*
X142590221Y-71856261D01*
X147428000Y-71856261D01*
X147428000Y-72060139D01*
X147467774Y-72260098D01*
X147545795Y-72448456D01*
X147659063Y-72617974D01*
X147803226Y-72762137D01*
X147972744Y-72875405D01*
X148161102Y-72953426D01*
X148361061Y-72993200D01*
X148564939Y-72993200D01*
X148764898Y-72953426D01*
X148953256Y-72875405D01*
X149122774Y-72762137D01*
X149266937Y-72617974D01*
X149380205Y-72448456D01*
X149458226Y-72260098D01*
X149498000Y-72060139D01*
X149498000Y-71856261D01*
X149458226Y-71656302D01*
X149380205Y-71467944D01*
X149370092Y-71452809D01*
X150307281Y-70515620D01*
X175487028Y-70515620D01*
X175499288Y-70640102D01*
X175535598Y-70759800D01*
X175594563Y-70870114D01*
X175673915Y-70966805D01*
X175770606Y-71046157D01*
X175880920Y-71105122D01*
X176000618Y-71141432D01*
X176125100Y-71153692D01*
X176588350Y-71150620D01*
X176747100Y-70991870D01*
X176747100Y-69893620D01*
X177001100Y-69893620D01*
X177001100Y-70991870D01*
X177159850Y-71150620D01*
X177623100Y-71153692D01*
X177747582Y-71141432D01*
X177867280Y-71105122D01*
X177977594Y-71046157D01*
X178074285Y-70966805D01*
X178153637Y-70870114D01*
X178212602Y-70759800D01*
X178248912Y-70640102D01*
X178261172Y-70515620D01*
X178258100Y-70052370D01*
X178099350Y-69893620D01*
X177001100Y-69893620D01*
X176747100Y-69893620D01*
X175648850Y-69893620D01*
X175490100Y-70052370D01*
X175487028Y-70515620D01*
X150307281Y-70515620D01*
X151805281Y-69017620D01*
X175487028Y-69017620D01*
X175490100Y-69480870D01*
X175648850Y-69639620D01*
X176747100Y-69639620D01*
X176747100Y-68541370D01*
X177001100Y-68541370D01*
X177001100Y-69639620D01*
X178099350Y-69639620D01*
X178108662Y-69630308D01*
X181990100Y-69630308D01*
X181990100Y-69902932D01*
X182043286Y-70170318D01*
X182147615Y-70422190D01*
X182299077Y-70648869D01*
X182491851Y-70841643D01*
X182718530Y-70993105D01*
X182970402Y-71097434D01*
X183237788Y-71150620D01*
X183510412Y-71150620D01*
X183777798Y-71097434D01*
X184029670Y-70993105D01*
X184256349Y-70841643D01*
X184449123Y-70648869D01*
X184600585Y-70422190D01*
X184704914Y-70170318D01*
X184758100Y-69902932D01*
X184758100Y-69630308D01*
X184704914Y-69362922D01*
X184600585Y-69111050D01*
X184449123Y-68884371D01*
X184256349Y-68691597D01*
X184029670Y-68540135D01*
X183777798Y-68435806D01*
X183510412Y-68382620D01*
X183237788Y-68382620D01*
X182970402Y-68435806D01*
X182718530Y-68540135D01*
X182491851Y-68691597D01*
X182299077Y-68884371D01*
X182147615Y-69111050D01*
X182043286Y-69362922D01*
X181990100Y-69630308D01*
X178108662Y-69630308D01*
X178258100Y-69480870D01*
X178261172Y-69017620D01*
X178248912Y-68893138D01*
X178212602Y-68773440D01*
X178153637Y-68663126D01*
X178074285Y-68566435D01*
X177977594Y-68487083D01*
X177867280Y-68428118D01*
X177747582Y-68391808D01*
X177623100Y-68379548D01*
X177159850Y-68382620D01*
X177001100Y-68541370D01*
X176747100Y-68541370D01*
X176588350Y-68382620D01*
X176125100Y-68379548D01*
X176000618Y-68391808D01*
X175880920Y-68428118D01*
X175770606Y-68487083D01*
X175673915Y-68566435D01*
X175594563Y-68663126D01*
X175535598Y-68773440D01*
X175499288Y-68893138D01*
X175487028Y-69017620D01*
X151805281Y-69017620D01*
X168848202Y-51974700D01*
X168910339Y-51974700D01*
X169110298Y-51934926D01*
X169298656Y-51856905D01*
X169468174Y-51743637D01*
X169612337Y-51599474D01*
X169725605Y-51429956D01*
X169803626Y-51241598D01*
X169843400Y-51041639D01*
X169843400Y-50837761D01*
X169803626Y-50637802D01*
X169725605Y-50449444D01*
X169612337Y-50279926D01*
X169468174Y-50135763D01*
X169298656Y-50022495D01*
X169110298Y-49944474D01*
X168910339Y-49904700D01*
X168706461Y-49904700D01*
X168506502Y-49944474D01*
X168318144Y-50022495D01*
X168148626Y-50135763D01*
X168004463Y-50279926D01*
X167891195Y-50449444D01*
X167813174Y-50637802D01*
X167773400Y-50837761D01*
X167773400Y-50899898D01*
X147951998Y-70721301D01*
X147923000Y-70745099D01*
X147899202Y-70774097D01*
X147899201Y-70774098D01*
X147828026Y-70860824D01*
X147757454Y-70992854D01*
X147746819Y-71027915D01*
X147713997Y-71136114D01*
X147703000Y-71247767D01*
X147703000Y-71247778D01*
X147702267Y-71255222D01*
X147659063Y-71298426D01*
X147545795Y-71467944D01*
X147467774Y-71656302D01*
X147428000Y-71856261D01*
X142590221Y-71856261D01*
X142680235Y-71638949D01*
X142733460Y-71371371D01*
X142733460Y-71098549D01*
X142680235Y-70830971D01*
X142575831Y-70578917D01*
X142424259Y-70352074D01*
X142231346Y-70159161D01*
X142004503Y-70007589D01*
X141752449Y-69903185D01*
X141484871Y-69849960D01*
X141212049Y-69849960D01*
X140944471Y-69903185D01*
X140692417Y-70007589D01*
X140465574Y-70159161D01*
X140272661Y-70352074D01*
X140121089Y-70578917D01*
X140016685Y-70830971D01*
X139963460Y-71098549D01*
X116541653Y-71098549D01*
X116483685Y-71027915D01*
X116386994Y-70948563D01*
X116276680Y-70889598D01*
X116156982Y-70853288D01*
X116032500Y-70841028D01*
X115107500Y-70841028D01*
X114983018Y-70853288D01*
X114863320Y-70889598D01*
X114753006Y-70948563D01*
X114656315Y-71027915D01*
X114576963Y-71124606D01*
X114517998Y-71234920D01*
X114481688Y-71354618D01*
X114469428Y-71479100D01*
X106705000Y-71479100D01*
X106705000Y-66218549D01*
X139963460Y-66218549D01*
X139963460Y-66491371D01*
X140016685Y-66758949D01*
X140121089Y-67011003D01*
X140272661Y-67237846D01*
X140465574Y-67430759D01*
X140692417Y-67582331D01*
X140944471Y-67686735D01*
X141212049Y-67739960D01*
X141484871Y-67739960D01*
X141752449Y-67686735D01*
X142004503Y-67582331D01*
X142231346Y-67430759D01*
X142424259Y-67237846D01*
X142575831Y-67011003D01*
X142680235Y-66758949D01*
X142733460Y-66491371D01*
X142733460Y-66218549D01*
X142680235Y-65950971D01*
X142575831Y-65698917D01*
X142424259Y-65472074D01*
X142231346Y-65279161D01*
X142004503Y-65127589D01*
X141752449Y-65023185D01*
X141484871Y-64969960D01*
X141212049Y-64969960D01*
X140944471Y-65023185D01*
X140692417Y-65127589D01*
X140465574Y-65279161D01*
X140272661Y-65472074D01*
X140121089Y-65698917D01*
X140016685Y-65950971D01*
X139963460Y-66218549D01*
X106705000Y-66218549D01*
X106705000Y-57424043D01*
X108435667Y-57424043D01*
X108474971Y-57580190D01*
X108615656Y-57896207D01*
X108815289Y-58178705D01*
X109066199Y-58416829D01*
X109358744Y-58601427D01*
X109681681Y-58725406D01*
X110022600Y-58784000D01*
X111147600Y-58784000D01*
X111147600Y-57151000D01*
X111401600Y-57151000D01*
X111401600Y-58784000D01*
X112526600Y-58784000D01*
X112867519Y-58725406D01*
X113190456Y-58601427D01*
X113483001Y-58416829D01*
X113733911Y-58178705D01*
X113933544Y-57896207D01*
X114074229Y-57580190D01*
X114113533Y-57424043D01*
X113995806Y-57151000D01*
X111401600Y-57151000D01*
X111147600Y-57151000D01*
X108553394Y-57151000D01*
X108435667Y-57424043D01*
X106705000Y-57424043D01*
X106705000Y-56623957D01*
X108435667Y-56623957D01*
X108553394Y-56897000D01*
X111147600Y-56897000D01*
X111147600Y-55264000D01*
X111401600Y-55264000D01*
X111401600Y-56897000D01*
X113995806Y-56897000D01*
X114113533Y-56623957D01*
X114074229Y-56467810D01*
X113965788Y-56224220D01*
X145643300Y-56224220D01*
X145643300Y-56500980D01*
X145697294Y-56772423D01*
X145803205Y-57028117D01*
X145956965Y-57258235D01*
X146152665Y-57453935D01*
X146382783Y-57607695D01*
X146638477Y-57713606D01*
X146909920Y-57767600D01*
X147186680Y-57767600D01*
X147458123Y-57713606D01*
X147713817Y-57607695D01*
X147943935Y-57453935D01*
X148139635Y-57258235D01*
X148293300Y-57028259D01*
X148446965Y-57258235D01*
X148642665Y-57453935D01*
X148872783Y-57607695D01*
X149128477Y-57713606D01*
X149399920Y-57767600D01*
X149676680Y-57767600D01*
X149948123Y-57713606D01*
X150203817Y-57607695D01*
X150433935Y-57453935D01*
X150629635Y-57258235D01*
X150783395Y-57028117D01*
X150889306Y-56772423D01*
X150943300Y-56500980D01*
X150943300Y-56224220D01*
X150889306Y-55952777D01*
X150783395Y-55697083D01*
X150629635Y-55466965D01*
X150530270Y-55367600D01*
X150629635Y-55268235D01*
X150783395Y-55038117D01*
X150889306Y-54782423D01*
X150943300Y-54510980D01*
X150943300Y-54234220D01*
X150889306Y-53962777D01*
X150783395Y-53707083D01*
X150629635Y-53476965D01*
X150433935Y-53281265D01*
X150203817Y-53127505D01*
X149948123Y-53021594D01*
X149676680Y-52967600D01*
X149399920Y-52967600D01*
X149128477Y-53021594D01*
X148872783Y-53127505D01*
X148642665Y-53281265D01*
X148446965Y-53476965D01*
X148293205Y-53707083D01*
X148292504Y-53708775D01*
X148260487Y-53648876D01*
X148019578Y-53580927D01*
X147227905Y-54372600D01*
X148019578Y-55164273D01*
X148260487Y-55096324D01*
X148290720Y-55032117D01*
X148293205Y-55038117D01*
X148446965Y-55268235D01*
X148546330Y-55367600D01*
X148446965Y-55466965D01*
X148293300Y-55696941D01*
X148139635Y-55466965D01*
X147943935Y-55271265D01*
X147713817Y-55117505D01*
X147542737Y-55046642D01*
X147048300Y-54552205D01*
X146553863Y-55046642D01*
X146382783Y-55117505D01*
X146152665Y-55271265D01*
X145956965Y-55466965D01*
X145803205Y-55697083D01*
X145697294Y-55952777D01*
X145643300Y-56224220D01*
X113965788Y-56224220D01*
X113933544Y-56151793D01*
X113733911Y-55869295D01*
X113483001Y-55631171D01*
X113190456Y-55446573D01*
X112867519Y-55322594D01*
X112526600Y-55264000D01*
X111401600Y-55264000D01*
X111147600Y-55264000D01*
X110022600Y-55264000D01*
X109681681Y-55322594D01*
X109358744Y-55446573D01*
X109066199Y-55631171D01*
X108815289Y-55869295D01*
X108615656Y-56151793D01*
X108474971Y-56467810D01*
X108435667Y-56623957D01*
X106705000Y-56623957D01*
X106705000Y-54252260D01*
X106881771Y-54532401D01*
X107119895Y-54783311D01*
X107402393Y-54982944D01*
X107718410Y-55123629D01*
X107874557Y-55162933D01*
X108147600Y-55045206D01*
X108147600Y-52451000D01*
X108401600Y-52451000D01*
X108401600Y-55045206D01*
X108674643Y-55162933D01*
X108830790Y-55123629D01*
X109146807Y-54982944D01*
X109429305Y-54783311D01*
X109667429Y-54532401D01*
X109852027Y-54239856D01*
X109976006Y-53916919D01*
X110019029Y-53666596D01*
X112389600Y-53666596D01*
X112416875Y-53943523D01*
X112524661Y-54298847D01*
X112699697Y-54626317D01*
X112935255Y-54913345D01*
X113222283Y-55148903D01*
X113549752Y-55323939D01*
X113905076Y-55431725D01*
X114274600Y-55468120D01*
X114644123Y-55431725D01*
X114999447Y-55323939D01*
X115326917Y-55148903D01*
X115613945Y-54913345D01*
X115849503Y-54626317D01*
X115946792Y-54444301D01*
X145638323Y-54444301D01*
X145679404Y-54717995D01*
X145773090Y-54978417D01*
X145836113Y-55096324D01*
X146077022Y-55164273D01*
X146868695Y-54372600D01*
X146077022Y-53580927D01*
X145836113Y-53648876D01*
X145718213Y-53899268D01*
X145651428Y-54167850D01*
X145638323Y-54444301D01*
X115946792Y-54444301D01*
X116024539Y-54298848D01*
X116132325Y-53943524D01*
X116159600Y-53666597D01*
X116159600Y-51423512D01*
X139845800Y-51423512D01*
X139845800Y-51901688D01*
X139939087Y-52370676D01*
X140122077Y-52812453D01*
X140387737Y-53210041D01*
X140725859Y-53548163D01*
X141123447Y-53813823D01*
X141565224Y-53996813D01*
X142034212Y-54090100D01*
X142512388Y-54090100D01*
X142981376Y-53996813D01*
X143423153Y-53813823D01*
X143820741Y-53548163D01*
X143967582Y-53401322D01*
X146256627Y-53401322D01*
X147048300Y-54192995D01*
X147839973Y-53401322D01*
X147772024Y-53160413D01*
X147521632Y-53042513D01*
X147253050Y-52975728D01*
X146976599Y-52962623D01*
X146702905Y-53003704D01*
X146442483Y-53097390D01*
X146324576Y-53160413D01*
X146256627Y-53401322D01*
X143967582Y-53401322D01*
X144158863Y-53210041D01*
X144424523Y-52812453D01*
X144607513Y-52370676D01*
X144700800Y-51901688D01*
X144700800Y-51423512D01*
X151885800Y-51423512D01*
X151885800Y-51901688D01*
X151979087Y-52370676D01*
X152162077Y-52812453D01*
X152427737Y-53210041D01*
X152765859Y-53548163D01*
X153163447Y-53813823D01*
X153605224Y-53996813D01*
X154074212Y-54090100D01*
X154552388Y-54090100D01*
X155021376Y-53996813D01*
X155463153Y-53813823D01*
X155860741Y-53548163D01*
X156198863Y-53210041D01*
X156464523Y-52812453D01*
X156647513Y-52370676D01*
X156740800Y-51901688D01*
X156740800Y-51423512D01*
X156647513Y-50954524D01*
X156464523Y-50512747D01*
X156198863Y-50115159D01*
X155860741Y-49777037D01*
X155463153Y-49511377D01*
X155021376Y-49328387D01*
X154552388Y-49235100D01*
X154074212Y-49235100D01*
X153605224Y-49328387D01*
X153163447Y-49511377D01*
X152765859Y-49777037D01*
X152427737Y-50115159D01*
X152162077Y-50512747D01*
X151979087Y-50954524D01*
X151885800Y-51423512D01*
X144700800Y-51423512D01*
X144607513Y-50954524D01*
X144424523Y-50512747D01*
X144158863Y-50115159D01*
X143820741Y-49777037D01*
X143423153Y-49511377D01*
X142981376Y-49328387D01*
X142512388Y-49235100D01*
X142034212Y-49235100D01*
X141565224Y-49328387D01*
X141123447Y-49511377D01*
X140725859Y-49777037D01*
X140387737Y-50115159D01*
X140122077Y-50512747D01*
X139939087Y-50954524D01*
X139845800Y-51423512D01*
X116159600Y-51423512D01*
X116159600Y-50981403D01*
X116132325Y-50704476D01*
X116024539Y-50349152D01*
X115849503Y-50021683D01*
X115613945Y-49734655D01*
X115326917Y-49499097D01*
X114999448Y-49324061D01*
X114644124Y-49216275D01*
X114274600Y-49179880D01*
X113905077Y-49216275D01*
X113549753Y-49324061D01*
X113222284Y-49499097D01*
X112935256Y-49734655D01*
X112699698Y-50021683D01*
X112524662Y-50349152D01*
X112416876Y-50704476D01*
X112389601Y-50981403D01*
X112389600Y-53666596D01*
X110019029Y-53666596D01*
X110034600Y-53576000D01*
X110034600Y-52451000D01*
X108401600Y-52451000D01*
X108147600Y-52451000D01*
X108127600Y-52451000D01*
X108127600Y-52197000D01*
X108147600Y-52197000D01*
X108147600Y-49602794D01*
X108401600Y-49602794D01*
X108401600Y-52197000D01*
X110034600Y-52197000D01*
X110034600Y-51072000D01*
X109976006Y-50731081D01*
X109852027Y-50408144D01*
X109667429Y-50115599D01*
X109429305Y-49864689D01*
X109146807Y-49665056D01*
X108830790Y-49524371D01*
X108674643Y-49485067D01*
X108401600Y-49602794D01*
X108147600Y-49602794D01*
X107874557Y-49485067D01*
X107718410Y-49524371D01*
X107402393Y-49665056D01*
X107119895Y-49864689D01*
X106881771Y-50115599D01*
X106705000Y-50395740D01*
X106705000Y-48285000D01*
X185395001Y-48285000D01*
X185395000Y-126975000D01*
%TA.AperFunction,Conductor*%
D34*
G36*
X185395000Y-126975000D02*
G01*
X106705000Y-126975000D01*
X106705000Y-125671100D01*
X143714368Y-125671100D01*
X143726628Y-125795582D01*
X143762938Y-125915280D01*
X143821903Y-126025594D01*
X143901255Y-126122285D01*
X143997946Y-126201637D01*
X144108260Y-126260602D01*
X144227958Y-126296912D01*
X144352440Y-126309172D01*
X144966690Y-126306100D01*
X145125440Y-126147350D01*
X145125440Y-124498100D01*
X143876190Y-124498100D01*
X143717440Y-124656850D01*
X143714368Y-125671100D01*
X106705000Y-125671100D01*
X106705000Y-123071100D01*
X143714368Y-123071100D01*
X143717440Y-124085350D01*
X143876190Y-124244100D01*
X145125440Y-124244100D01*
X145125440Y-122594850D01*
X145379440Y-122594850D01*
X145379440Y-124244100D01*
X145399440Y-124244100D01*
X145399440Y-124498100D01*
X145379440Y-124498100D01*
X145379440Y-126147350D01*
X145538190Y-126306100D01*
X146152440Y-126309172D01*
X146276922Y-126296912D01*
X146396620Y-126260602D01*
X146506934Y-126201637D01*
X146603625Y-126122285D01*
X146682977Y-126025594D01*
X146741942Y-125915280D01*
X146746935Y-125898820D01*
X146935513Y-126053581D01*
X147202179Y-126196117D01*
X147491527Y-126283890D01*
X147792440Y-126313527D01*
X148093352Y-126283890D01*
X148382700Y-126196117D01*
X148649366Y-126053581D01*
X148883101Y-125861761D01*
X149067221Y-125637409D01*
X149126692Y-125729496D01*
X149336834Y-125946310D01*
X149585236Y-126117962D01*
X149862353Y-126237855D01*
X149967700Y-126262136D01*
X150205440Y-126141478D01*
X150205440Y-124498100D01*
X150185440Y-124498100D01*
X150185440Y-124244100D01*
X150205440Y-124244100D01*
X150205440Y-122600722D01*
X150459440Y-122600722D01*
X150459440Y-124244100D01*
X150479440Y-124244100D01*
X150479440Y-124498100D01*
X150459440Y-124498100D01*
X150459440Y-126141478D01*
X150697180Y-126262136D01*
X150802527Y-126237855D01*
X151079644Y-126117962D01*
X151328046Y-125946310D01*
X151538188Y-125729496D01*
X151597659Y-125637408D01*
X151781779Y-125861761D01*
X152015513Y-126053581D01*
X152282179Y-126196117D01*
X152571527Y-126283890D01*
X152872440Y-126313527D01*
X153173352Y-126283890D01*
X153462700Y-126196117D01*
X153729366Y-126053581D01*
X153963101Y-125861761D01*
X154142440Y-125643235D01*
X154321779Y-125861761D01*
X154555513Y-126053581D01*
X154822179Y-126196117D01*
X155111527Y-126283890D01*
X155412440Y-126313527D01*
X155713352Y-126283890D01*
X156002700Y-126196117D01*
X156269366Y-126053581D01*
X156503101Y-125861761D01*
X156682440Y-125643235D01*
X156861779Y-125861761D01*
X157095513Y-126053581D01*
X157362179Y-126196117D01*
X157651527Y-126283890D01*
X157952440Y-126313527D01*
X158253352Y-126283890D01*
X158542700Y-126196117D01*
X158809366Y-126053581D01*
X159043101Y-125861761D01*
X159227221Y-125637409D01*
X159286692Y-125729496D01*
X159496834Y-125946310D01*
X159745236Y-126117962D01*
X160022353Y-126237855D01*
X160127700Y-126262136D01*
X160365440Y-126141478D01*
X160365440Y-124498100D01*
X160345440Y-124498100D01*
X160345440Y-124244100D01*
X160365440Y-124244100D01*
X160365440Y-122600722D01*
X160619440Y-122600722D01*
X160619440Y-124244100D01*
X160639440Y-124244100D01*
X160639440Y-124498100D01*
X160619440Y-124498100D01*
X160619440Y-126141478D01*
X160857180Y-126262136D01*
X160962527Y-126237855D01*
X161239644Y-126117962D01*
X161488046Y-125946310D01*
X161698188Y-125729496D01*
X161757659Y-125637408D01*
X161941779Y-125861761D01*
X162175513Y-126053581D01*
X162442179Y-126196117D01*
X162731527Y-126283890D01*
X163032440Y-126313527D01*
X163333352Y-126283890D01*
X163622700Y-126196117D01*
X163889366Y-126053581D01*
X164123101Y-125861761D01*
X164302440Y-125643235D01*
X164481779Y-125861761D01*
X164715513Y-126053581D01*
X164982179Y-126196117D01*
X165271527Y-126283890D01*
X165572440Y-126313527D01*
X165873352Y-126283890D01*
X166162700Y-126196117D01*
X166429366Y-126053581D01*
X166663101Y-125861761D01*
X166842440Y-125643235D01*
X167021779Y-125861761D01*
X167255513Y-126053581D01*
X167522179Y-126196117D01*
X167811527Y-126283890D01*
X168112440Y-126313527D01*
X168413352Y-126283890D01*
X168702700Y-126196117D01*
X168969366Y-126053581D01*
X169203101Y-125861761D01*
X169382440Y-125643235D01*
X169561779Y-125861761D01*
X169795513Y-126053581D01*
X170062179Y-126196117D01*
X170351527Y-126283890D01*
X170652440Y-126313527D01*
X170953352Y-126283890D01*
X171242700Y-126196117D01*
X171509366Y-126053581D01*
X171743101Y-125861761D01*
X171922440Y-125643235D01*
X172101779Y-125861761D01*
X172335513Y-126053581D01*
X172602179Y-126196117D01*
X172891527Y-126283890D01*
X173192440Y-126313527D01*
X173493352Y-126283890D01*
X173782700Y-126196117D01*
X174049366Y-126053581D01*
X174283101Y-125861761D01*
X174462440Y-125643235D01*
X174641779Y-125861761D01*
X174875513Y-126053581D01*
X175142179Y-126196117D01*
X175431527Y-126283890D01*
X175732440Y-126313527D01*
X176033352Y-126283890D01*
X176322700Y-126196117D01*
X176589366Y-126053581D01*
X176823101Y-125861761D01*
X177002440Y-125643235D01*
X177181779Y-125861761D01*
X177415513Y-126053581D01*
X177682179Y-126196117D01*
X177971527Y-126283890D01*
X178272440Y-126313527D01*
X178573352Y-126283890D01*
X178862700Y-126196117D01*
X179129366Y-126053581D01*
X179363101Y-125861761D01*
X179542440Y-125643235D01*
X179721779Y-125861761D01*
X179955513Y-126053581D01*
X180222179Y-126196117D01*
X180511527Y-126283890D01*
X180812440Y-126313527D01*
X181113352Y-126283890D01*
X181402700Y-126196117D01*
X181669366Y-126053581D01*
X181903101Y-125861761D01*
X182082440Y-125643235D01*
X182261779Y-125861761D01*
X182495513Y-126053581D01*
X182762179Y-126196117D01*
X183051527Y-126283890D01*
X183352440Y-126313527D01*
X183653352Y-126283890D01*
X183942700Y-126196117D01*
X184209366Y-126053581D01*
X184443101Y-125861761D01*
X184634921Y-125628027D01*
X184777457Y-125361361D01*
X184865230Y-125072013D01*
X184887440Y-124846508D01*
X184887440Y-123895693D01*
X184865230Y-123670187D01*
X184777457Y-123380839D01*
X184634921Y-123114173D01*
X184443101Y-122880439D01*
X184209367Y-122688619D01*
X183942701Y-122546083D01*
X183653353Y-122458310D01*
X183352440Y-122428673D01*
X183051528Y-122458310D01*
X182762180Y-122546083D01*
X182495514Y-122688619D01*
X182261779Y-122880439D01*
X182082440Y-123098965D01*
X181903101Y-122880439D01*
X181669367Y-122688619D01*
X181402701Y-122546083D01*
X181113353Y-122458310D01*
X180812440Y-122428673D01*
X180511528Y-122458310D01*
X180222180Y-122546083D01*
X179955514Y-122688619D01*
X179721779Y-122880439D01*
X179542440Y-123098965D01*
X179363101Y-122880439D01*
X179129367Y-122688619D01*
X178862701Y-122546083D01*
X178573353Y-122458310D01*
X178272440Y-122428673D01*
X177971528Y-122458310D01*
X177682180Y-122546083D01*
X177415514Y-122688619D01*
X177181779Y-122880439D01*
X177002440Y-123098965D01*
X176823101Y-122880439D01*
X176589367Y-122688619D01*
X176322701Y-122546083D01*
X176033353Y-122458310D01*
X175732440Y-122428673D01*
X175431528Y-122458310D01*
X175142180Y-122546083D01*
X174875514Y-122688619D01*
X174641779Y-122880439D01*
X174462440Y-123098965D01*
X174283101Y-122880439D01*
X174049367Y-122688619D01*
X173782701Y-122546083D01*
X173493353Y-122458310D01*
X173192440Y-122428673D01*
X172891528Y-122458310D01*
X172602180Y-122546083D01*
X172335514Y-122688619D01*
X172101779Y-122880439D01*
X171922440Y-123098965D01*
X171743101Y-122880439D01*
X171509367Y-122688619D01*
X171242701Y-122546083D01*
X170953353Y-122458310D01*
X170652440Y-122428673D01*
X170351528Y-122458310D01*
X170062180Y-122546083D01*
X169795514Y-122688619D01*
X169561779Y-122880439D01*
X169382440Y-123098965D01*
X169203101Y-122880439D01*
X168969367Y-122688619D01*
X168702701Y-122546083D01*
X168413353Y-122458310D01*
X168112440Y-122428673D01*
X167811528Y-122458310D01*
X167522180Y-122546083D01*
X167255514Y-122688619D01*
X167021779Y-122880439D01*
X166842440Y-123098965D01*
X166663101Y-122880439D01*
X166429367Y-122688619D01*
X166162701Y-122546083D01*
X165873353Y-122458310D01*
X165572440Y-122428673D01*
X165271528Y-122458310D01*
X164982180Y-122546083D01*
X164715514Y-122688619D01*
X164481779Y-122880439D01*
X164302440Y-123098965D01*
X164123101Y-122880439D01*
X163889367Y-122688619D01*
X163622701Y-122546083D01*
X163333353Y-122458310D01*
X163032440Y-122428673D01*
X162731528Y-122458310D01*
X162442180Y-122546083D01*
X162175514Y-122688619D01*
X161941779Y-122880439D01*
X161757659Y-123104791D01*
X161698188Y-123012704D01*
X161488046Y-122795890D01*
X161239644Y-122624238D01*
X160962527Y-122504345D01*
X160857180Y-122480064D01*
X160619440Y-122600722D01*
X160365440Y-122600722D01*
X160127700Y-122480064D01*
X160022353Y-122504345D01*
X159745236Y-122624238D01*
X159496834Y-122795890D01*
X159286692Y-123012704D01*
X159227221Y-123104791D01*
X159043101Y-122880439D01*
X158809367Y-122688619D01*
X158542701Y-122546083D01*
X158253353Y-122458310D01*
X157952440Y-122428673D01*
X157651528Y-122458310D01*
X157362180Y-122546083D01*
X157095514Y-122688619D01*
X156861779Y-122880439D01*
X156682440Y-123098965D01*
X156503101Y-122880439D01*
X156269367Y-122688619D01*
X156002701Y-122546083D01*
X155860815Y-122503042D01*
X158447437Y-119916420D01*
X158540344Y-119934900D01*
X158807256Y-119934900D01*
X159069039Y-119882828D01*
X159315633Y-119780685D01*
X159537562Y-119632397D01*
X159726297Y-119443662D01*
X159874585Y-119221733D01*
X159976728Y-118975139D01*
X160028800Y-118713356D01*
X160028800Y-118446444D01*
X159976728Y-118184661D01*
X159874585Y-117938067D01*
X159726297Y-117716138D01*
X159537562Y-117527403D01*
X159315633Y-117379115D01*
X159069039Y-117276972D01*
X158807256Y-117224900D01*
X158540344Y-117224900D01*
X158278561Y-117276972D01*
X158031967Y-117379115D01*
X157810038Y-117527403D01*
X157621303Y-117716138D01*
X157473015Y-117938067D01*
X157403800Y-118105166D01*
X157334585Y-117938067D01*
X157186297Y-117716138D01*
X156997562Y-117527403D01*
X156775633Y-117379115D01*
X156529039Y-117276972D01*
X156267256Y-117224900D01*
X156000344Y-117224900D01*
X155738561Y-117276972D01*
X155491967Y-117379115D01*
X155270038Y-117527403D01*
X155081303Y-117716138D01*
X154933015Y-117938067D01*
X154863362Y-118106224D01*
X154821675Y-117991547D01*
X154765168Y-117885832D01*
X154529360Y-117823945D01*
X153773405Y-118579900D01*
X154529360Y-119335855D01*
X154765168Y-119273968D01*
X154865564Y-119058893D01*
X154933015Y-119221733D01*
X155081303Y-119443662D01*
X155270038Y-119632397D01*
X155491967Y-119780685D01*
X155738561Y-119882828D01*
X156000344Y-119934900D01*
X156208643Y-119934900D01*
X153550520Y-122593023D01*
X153462701Y-122546083D01*
X153173353Y-122458310D01*
X152872440Y-122428673D01*
X152571528Y-122458310D01*
X152282180Y-122546083D01*
X152015514Y-122688619D01*
X151781779Y-122880439D01*
X151597659Y-123104791D01*
X151538188Y-123012704D01*
X151328046Y-122795890D01*
X151079644Y-122624238D01*
X150802527Y-122504345D01*
X150697180Y-122480064D01*
X150459440Y-122600722D01*
X150205440Y-122600722D01*
X149967700Y-122480064D01*
X149862353Y-122504345D01*
X149585236Y-122624238D01*
X149336834Y-122795890D01*
X149126692Y-123012704D01*
X149067221Y-123104791D01*
X148883101Y-122880439D01*
X148649367Y-122688619D01*
X148382701Y-122546083D01*
X148093353Y-122458310D01*
X147792440Y-122428673D01*
X147491528Y-122458310D01*
X147202180Y-122546083D01*
X146935514Y-122688619D01*
X146746935Y-122843380D01*
X146741942Y-122826920D01*
X146682977Y-122716606D01*
X146603625Y-122619915D01*
X146506934Y-122540563D01*
X146396620Y-122481598D01*
X146276922Y-122445288D01*
X146152440Y-122433028D01*
X145538190Y-122436100D01*
X145379440Y-122594850D01*
X145125440Y-122594850D01*
X144966690Y-122436100D01*
X144352440Y-122433028D01*
X144227958Y-122445288D01*
X144108260Y-122481598D01*
X143997946Y-122540563D01*
X143901255Y-122619915D01*
X143821903Y-122716606D01*
X143762938Y-122826920D01*
X143726628Y-122946618D01*
X143714368Y-123071100D01*
X106705000Y-123071100D01*
X106705000Y-118745900D01*
X106830228Y-118745900D01*
X106830228Y-120445900D01*
X106842488Y-120570382D01*
X106878798Y-120690080D01*
X106937763Y-120800394D01*
X107017115Y-120897085D01*
X107113806Y-120976437D01*
X107224120Y-121035402D01*
X107343818Y-121071712D01*
X107468300Y-121083972D01*
X109168300Y-121083972D01*
X109292782Y-121071712D01*
X109412480Y-121035402D01*
X109522794Y-120976437D01*
X109619485Y-120897085D01*
X109698837Y-120800394D01*
X109757802Y-120690080D01*
X109794112Y-120570382D01*
X109806372Y-120445900D01*
X109806372Y-118745900D01*
X109798367Y-118664620D01*
X112918608Y-118664620D01*
X112918608Y-120364620D01*
X112930868Y-120489102D01*
X112967178Y-120608800D01*
X113026143Y-120719114D01*
X113105495Y-120815805D01*
X113202186Y-120895157D01*
X113312500Y-120954122D01*
X113432198Y-120990432D01*
X113556680Y-121002692D01*
X115256680Y-121002692D01*
X115381162Y-120990432D01*
X115500860Y-120954122D01*
X115611174Y-120895157D01*
X115707865Y-120815805D01*
X115787217Y-120719114D01*
X115846182Y-120608800D01*
X115868193Y-120536240D01*
X116000048Y-120668095D01*
X116243269Y-120830610D01*
X116513522Y-120942552D01*
X116800420Y-120999620D01*
X117092940Y-120999620D01*
X117379838Y-120942552D01*
X117650091Y-120830610D01*
X117893312Y-120668095D01*
X118100155Y-120461252D01*
X118216680Y-120286860D01*
X118333205Y-120461252D01*
X118540048Y-120668095D01*
X118783269Y-120830610D01*
X119053522Y-120942552D01*
X119340420Y-120999620D01*
X119632940Y-120999620D01*
X119919838Y-120942552D01*
X120190091Y-120830610D01*
X120433312Y-120668095D01*
X120640155Y-120461252D01*
X120756680Y-120286860D01*
X120873205Y-120461252D01*
X121080048Y-120668095D01*
X121323269Y-120830610D01*
X121593522Y-120942552D01*
X121880420Y-120999620D01*
X122172940Y-120999620D01*
X122459838Y-120942552D01*
X122730091Y-120830610D01*
X122973312Y-120668095D01*
X123180155Y-120461252D01*
X123296680Y-120286860D01*
X123413205Y-120461252D01*
X123620048Y-120668095D01*
X123863269Y-120830610D01*
X124133522Y-120942552D01*
X124420420Y-120999620D01*
X124712940Y-120999620D01*
X124999838Y-120942552D01*
X125270091Y-120830610D01*
X125513312Y-120668095D01*
X125720155Y-120461252D01*
X125836680Y-120286860D01*
X125953205Y-120461252D01*
X126160048Y-120668095D01*
X126403269Y-120830610D01*
X126673522Y-120942552D01*
X126960420Y-120999620D01*
X127252940Y-120999620D01*
X127539838Y-120942552D01*
X127810091Y-120830610D01*
X128053312Y-120668095D01*
X128260155Y-120461252D01*
X128376680Y-120286860D01*
X128493205Y-120461252D01*
X128700048Y-120668095D01*
X128943269Y-120830610D01*
X129213522Y-120942552D01*
X129500420Y-120999620D01*
X129792940Y-120999620D01*
X130079838Y-120942552D01*
X130350091Y-120830610D01*
X130593312Y-120668095D01*
X130800155Y-120461252D01*
X130916680Y-120286860D01*
X131033205Y-120461252D01*
X131240048Y-120668095D01*
X131483269Y-120830610D01*
X131753522Y-120942552D01*
X132040420Y-120999620D01*
X132332940Y-120999620D01*
X132619838Y-120942552D01*
X132890091Y-120830610D01*
X133133312Y-120668095D01*
X133340155Y-120461252D01*
X133456680Y-120286860D01*
X133573205Y-120461252D01*
X133780048Y-120668095D01*
X134023269Y-120830610D01*
X134293522Y-120942552D01*
X134580420Y-120999620D01*
X134872940Y-120999620D01*
X135159838Y-120942552D01*
X135430091Y-120830610D01*
X135673312Y-120668095D01*
X135880155Y-120461252D01*
X135996680Y-120286860D01*
X136113205Y-120461252D01*
X136320048Y-120668095D01*
X136563269Y-120830610D01*
X136833522Y-120942552D01*
X137120420Y-120999620D01*
X137412940Y-120999620D01*
X137699838Y-120942552D01*
X137970091Y-120830610D01*
X138213312Y-120668095D01*
X138420155Y-120461252D01*
X138536680Y-120286860D01*
X138653205Y-120461252D01*
X138860048Y-120668095D01*
X139103269Y-120830610D01*
X139373522Y-120942552D01*
X139660420Y-120999620D01*
X139952940Y-120999620D01*
X140239838Y-120942552D01*
X140510091Y-120830610D01*
X140753312Y-120668095D01*
X140960155Y-120461252D01*
X141076680Y-120286860D01*
X141193205Y-120461252D01*
X141400048Y-120668095D01*
X141643269Y-120830610D01*
X141913522Y-120942552D01*
X142200420Y-120999620D01*
X142492940Y-120999620D01*
X142779838Y-120942552D01*
X143050091Y-120830610D01*
X143293312Y-120668095D01*
X143500155Y-120461252D01*
X143616680Y-120286860D01*
X143733205Y-120461252D01*
X143940048Y-120668095D01*
X144183269Y-120830610D01*
X144453522Y-120942552D01*
X144740420Y-120999620D01*
X145032940Y-120999620D01*
X145319838Y-120942552D01*
X145590091Y-120830610D01*
X145833312Y-120668095D01*
X146040155Y-120461252D01*
X146156680Y-120286860D01*
X146273205Y-120461252D01*
X146480048Y-120668095D01*
X146723269Y-120830610D01*
X146993522Y-120942552D01*
X147280420Y-120999620D01*
X147572940Y-120999620D01*
X147859838Y-120942552D01*
X148130091Y-120830610D01*
X148373312Y-120668095D01*
X148580155Y-120461252D01*
X148742670Y-120218031D01*
X148854612Y-119947778D01*
X148911680Y-119660880D01*
X148911680Y-119515460D01*
X152837845Y-119515460D01*
X152899732Y-119751268D01*
X153141590Y-119864166D01*
X153400827Y-119927711D01*
X153667480Y-119939461D01*
X153931301Y-119898963D01*
X154182153Y-119807775D01*
X154287868Y-119751268D01*
X154349755Y-119515460D01*
X153593800Y-118759505D01*
X152837845Y-119515460D01*
X148911680Y-119515460D01*
X148911680Y-119368360D01*
X148867889Y-119148212D01*
X149362521Y-118653580D01*
X152234239Y-118653580D01*
X152274737Y-118917401D01*
X152365925Y-119168253D01*
X152422432Y-119273968D01*
X152658240Y-119335855D01*
X153414195Y-118579900D01*
X152658240Y-117823945D01*
X152422432Y-117885832D01*
X152309534Y-118127690D01*
X152245989Y-118386927D01*
X152234239Y-118653580D01*
X149362521Y-118653580D01*
X150371761Y-117644340D01*
X152837845Y-117644340D01*
X153593800Y-118400295D01*
X154349755Y-117644340D01*
X154287868Y-117408532D01*
X154046010Y-117295634D01*
X153786773Y-117232089D01*
X153520120Y-117220339D01*
X153256299Y-117260837D01*
X153005447Y-117352025D01*
X152899732Y-117408532D01*
X152837845Y-117644340D01*
X150371761Y-117644340D01*
X152232202Y-115783900D01*
X156921978Y-115783900D01*
X156959300Y-115787576D01*
X156996622Y-115783900D01*
X156996633Y-115783900D01*
X157108286Y-115772903D01*
X157251547Y-115729446D01*
X157383576Y-115658874D01*
X157499301Y-115563901D01*
X157523104Y-115534897D01*
X159708044Y-113349958D01*
X159737041Y-113326161D01*
X159832014Y-113210436D01*
X159902586Y-113078407D01*
X159946043Y-112935146D01*
X159957040Y-112823493D01*
X159957040Y-112823484D01*
X159960716Y-112786161D01*
X159957040Y-112748838D01*
X159957040Y-109941506D01*
X175855739Y-109941506D01*
X175957539Y-110211019D01*
X176255677Y-110356903D01*
X176576546Y-110441820D01*
X176907817Y-110462506D01*
X177236757Y-110418168D01*
X177550727Y-110310509D01*
X177736861Y-110211019D01*
X177838661Y-109941506D01*
X176847200Y-108950045D01*
X175855739Y-109941506D01*
X159957040Y-109941506D01*
X159957040Y-108831057D01*
X175155134Y-108831057D01*
X175199472Y-109159997D01*
X175307131Y-109473967D01*
X175406621Y-109660101D01*
X175676134Y-109761901D01*
X176667595Y-108770440D01*
X177026805Y-108770440D01*
X178018266Y-109761901D01*
X178287779Y-109660101D01*
X178433663Y-109361963D01*
X178518580Y-109041094D01*
X178539266Y-108709823D01*
X178494928Y-108380883D01*
X178387269Y-108066913D01*
X178287779Y-107880779D01*
X178018266Y-107778979D01*
X177026805Y-108770440D01*
X176667595Y-108770440D01*
X175676134Y-107778979D01*
X175406621Y-107880779D01*
X175260737Y-108178917D01*
X175175820Y-108499786D01*
X175155134Y-108831057D01*
X159957040Y-108831057D01*
X159957040Y-107599374D01*
X175855739Y-107599374D01*
X176847200Y-108590835D01*
X177838661Y-107599374D01*
X177736861Y-107329861D01*
X177438723Y-107183977D01*
X177117854Y-107099060D01*
X176786583Y-107078374D01*
X176457643Y-107122712D01*
X176143673Y-107230371D01*
X175957539Y-107329861D01*
X175855739Y-107599374D01*
X159957040Y-107599374D01*
X159957040Y-103604482D01*
X175162200Y-103604482D01*
X175162200Y-103936398D01*
X175226954Y-104261936D01*
X175353972Y-104568587D01*
X175538375Y-104844565D01*
X175773075Y-105079265D01*
X176049053Y-105263668D01*
X176355704Y-105390686D01*
X176681242Y-105455440D01*
X177013158Y-105455440D01*
X177338696Y-105390686D01*
X177645347Y-105263668D01*
X177921325Y-105079265D01*
X178156025Y-104844565D01*
X178340428Y-104568587D01*
X178467446Y-104261936D01*
X178532200Y-103936398D01*
X178532200Y-103604482D01*
X178467446Y-103278944D01*
X178340428Y-102972293D01*
X178156025Y-102696315D01*
X177921325Y-102461615D01*
X177645347Y-102277212D01*
X177338696Y-102150194D01*
X177013158Y-102085440D01*
X176681242Y-102085440D01*
X176355704Y-102150194D01*
X176049053Y-102277212D01*
X175773075Y-102461615D01*
X175538375Y-102696315D01*
X175353972Y-102972293D01*
X175226954Y-103278944D01*
X175162200Y-103604482D01*
X159957040Y-103604482D01*
X159957040Y-97720440D01*
X175159128Y-97720440D01*
X175159128Y-99820440D01*
X175171388Y-99944922D01*
X175207698Y-100064620D01*
X175266663Y-100174934D01*
X175346015Y-100271625D01*
X175442706Y-100350977D01*
X175553020Y-100409942D01*
X175672718Y-100446252D01*
X175797200Y-100458512D01*
X177897200Y-100458512D01*
X178021682Y-100446252D01*
X178141380Y-100409942D01*
X178251694Y-100350977D01*
X178348385Y-100271625D01*
X178427737Y-100174934D01*
X178486702Y-100064620D01*
X178523012Y-99944922D01*
X178535272Y-99820440D01*
X178535272Y-97720440D01*
X178523012Y-97595958D01*
X178486702Y-97476260D01*
X178427737Y-97365946D01*
X178348385Y-97269255D01*
X178251694Y-97189903D01*
X178141380Y-97130938D01*
X178021682Y-97094628D01*
X177897200Y-97082368D01*
X175797200Y-97082368D01*
X175672718Y-97094628D01*
X175553020Y-97130938D01*
X175442706Y-97189903D01*
X175346015Y-97269255D01*
X175266663Y-97365946D01*
X175207698Y-97476260D01*
X175171388Y-97595958D01*
X175159128Y-97720440D01*
X159957040Y-97720440D01*
X159957040Y-84209541D01*
X164924200Y-89176702D01*
X164924201Y-90113988D01*
X164880263Y-90157926D01*
X164766995Y-90327444D01*
X164688974Y-90515802D01*
X164649200Y-90715761D01*
X164649200Y-90919639D01*
X164688974Y-91119598D01*
X164766995Y-91307956D01*
X164880263Y-91477474D01*
X165024426Y-91621637D01*
X165193944Y-91734905D01*
X165382302Y-91812926D01*
X165582261Y-91852700D01*
X165786139Y-91852700D01*
X165986098Y-91812926D01*
X166174456Y-91734905D01*
X166343974Y-91621637D01*
X166488137Y-91477474D01*
X166601405Y-91307956D01*
X166679426Y-91119598D01*
X166719200Y-90919639D01*
X166719200Y-90715761D01*
X166686509Y-90551408D01*
X175850780Y-90551408D01*
X175850780Y-90824032D01*
X175903966Y-91091418D01*
X176008295Y-91343290D01*
X176159757Y-91569969D01*
X176352531Y-91762743D01*
X176579210Y-91914205D01*
X176831082Y-92018534D01*
X177098468Y-92071720D01*
X177371092Y-92071720D01*
X177638478Y-92018534D01*
X177890350Y-91914205D01*
X178117029Y-91762743D01*
X178309803Y-91569969D01*
X178461265Y-91343290D01*
X178565594Y-91091418D01*
X178618780Y-90824032D01*
X178618780Y-90551408D01*
X182350780Y-90551408D01*
X182350780Y-90824032D01*
X182403966Y-91091418D01*
X182508295Y-91343290D01*
X182659757Y-91569969D01*
X182852531Y-91762743D01*
X183079210Y-91914205D01*
X183331082Y-92018534D01*
X183598468Y-92071720D01*
X183871092Y-92071720D01*
X184138478Y-92018534D01*
X184390350Y-91914205D01*
X184617029Y-91762743D01*
X184809803Y-91569969D01*
X184961265Y-91343290D01*
X185065594Y-91091418D01*
X185118780Y-90824032D01*
X185118780Y-90551408D01*
X185065594Y-90284022D01*
X184961265Y-90032150D01*
X184809803Y-89805471D01*
X184617029Y-89612697D01*
X184390350Y-89461235D01*
X184138478Y-89356906D01*
X183871092Y-89303720D01*
X183598468Y-89303720D01*
X183331082Y-89356906D01*
X183079210Y-89461235D01*
X182852531Y-89612697D01*
X182659757Y-89805471D01*
X182508295Y-90032150D01*
X182403966Y-90284022D01*
X182350780Y-90551408D01*
X178618780Y-90551408D01*
X178565594Y-90284022D01*
X178461265Y-90032150D01*
X178309803Y-89805471D01*
X178117029Y-89612697D01*
X177890350Y-89461235D01*
X177638478Y-89356906D01*
X177371092Y-89303720D01*
X177098468Y-89303720D01*
X176831082Y-89356906D01*
X176579210Y-89461235D01*
X176352531Y-89612697D01*
X176159757Y-89805471D01*
X176008295Y-90032150D01*
X175903966Y-90284022D01*
X175850780Y-90551408D01*
X166686509Y-90551408D01*
X166679426Y-90515802D01*
X166601405Y-90327444D01*
X166488137Y-90157926D01*
X166444200Y-90113989D01*
X166444200Y-88899233D01*
X166447877Y-88861900D01*
X166433203Y-88712914D01*
X166389746Y-88569653D01*
X166319174Y-88437624D01*
X166247999Y-88350897D01*
X166224201Y-88321899D01*
X166195204Y-88298102D01*
X164407370Y-86510268D01*
X165782220Y-86510268D01*
X165782220Y-86782892D01*
X165835406Y-87050278D01*
X165939735Y-87302150D01*
X166091197Y-87528829D01*
X166283971Y-87721603D01*
X166510650Y-87873065D01*
X166762522Y-87977394D01*
X167029908Y-88030580D01*
X167302532Y-88030580D01*
X167569918Y-87977394D01*
X167821790Y-87873065D01*
X168048469Y-87721603D01*
X168241243Y-87528829D01*
X168330277Y-87395580D01*
X172279148Y-87395580D01*
X172291408Y-87520062D01*
X172327718Y-87639760D01*
X172386683Y-87750074D01*
X172466035Y-87846765D01*
X172562726Y-87926117D01*
X172673040Y-87985082D01*
X172792738Y-88021392D01*
X172917220Y-88033652D01*
X173380470Y-88030580D01*
X173539220Y-87871830D01*
X173539220Y-86773580D01*
X173793220Y-86773580D01*
X173793220Y-87871830D01*
X173951970Y-88030580D01*
X174415220Y-88033652D01*
X174539702Y-88021392D01*
X174659400Y-87985082D01*
X174769714Y-87926117D01*
X174866405Y-87846765D01*
X174945757Y-87750074D01*
X175004722Y-87639760D01*
X175041032Y-87520062D01*
X175053292Y-87395580D01*
X175050250Y-86936720D01*
X175847708Y-86936720D01*
X175859968Y-87061202D01*
X175896278Y-87180900D01*
X175955243Y-87291214D01*
X176034595Y-87387905D01*
X176131286Y-87467257D01*
X176241600Y-87526222D01*
X176361298Y-87562532D01*
X176485780Y-87574792D01*
X176949030Y-87571720D01*
X177107780Y-87412970D01*
X177107780Y-86314720D01*
X177361780Y-86314720D01*
X177361780Y-87412970D01*
X177520530Y-87571720D01*
X177983780Y-87574792D01*
X178108262Y-87562532D01*
X178227960Y-87526222D01*
X178338274Y-87467257D01*
X178434965Y-87387905D01*
X178514317Y-87291214D01*
X178573282Y-87180900D01*
X178609592Y-87061202D01*
X178621852Y-86936720D01*
X178618780Y-86473470D01*
X178460030Y-86314720D01*
X177361780Y-86314720D01*
X177107780Y-86314720D01*
X176009530Y-86314720D01*
X175850780Y-86473470D01*
X175847708Y-86936720D01*
X175050250Y-86936720D01*
X175050220Y-86932330D01*
X174891470Y-86773580D01*
X173793220Y-86773580D01*
X173539220Y-86773580D01*
X172440970Y-86773580D01*
X172282220Y-86932330D01*
X172279148Y-87395580D01*
X168330277Y-87395580D01*
X168392705Y-87302150D01*
X168497034Y-87050278D01*
X168550220Y-86782892D01*
X168550220Y-86510268D01*
X168497034Y-86242882D01*
X168392705Y-85991010D01*
X168330278Y-85897580D01*
X172279148Y-85897580D01*
X172282220Y-86360830D01*
X172440970Y-86519580D01*
X173539220Y-86519580D01*
X173539220Y-85421330D01*
X173793220Y-85421330D01*
X173793220Y-86519580D01*
X174891470Y-86519580D01*
X175050220Y-86360830D01*
X175053292Y-85897580D01*
X175041032Y-85773098D01*
X175004722Y-85653400D01*
X174945757Y-85543086D01*
X174866405Y-85446395D01*
X174857053Y-85438720D01*
X175847708Y-85438720D01*
X175850780Y-85901970D01*
X176009530Y-86060720D01*
X177107780Y-86060720D01*
X177107780Y-84962470D01*
X177361780Y-84962470D01*
X177361780Y-86060720D01*
X178460030Y-86060720D01*
X178469342Y-86051408D01*
X182350780Y-86051408D01*
X182350780Y-86324032D01*
X182403966Y-86591418D01*
X182508295Y-86843290D01*
X182659757Y-87069969D01*
X182852531Y-87262743D01*
X183079210Y-87414205D01*
X183331082Y-87518534D01*
X183598468Y-87571720D01*
X183871092Y-87571720D01*
X184138478Y-87518534D01*
X184390350Y-87414205D01*
X184617029Y-87262743D01*
X184809803Y-87069969D01*
X184961265Y-86843290D01*
X185065594Y-86591418D01*
X185118780Y-86324032D01*
X185118780Y-86051408D01*
X185065594Y-85784022D01*
X184961265Y-85532150D01*
X184809803Y-85305471D01*
X184617029Y-85112697D01*
X184390350Y-84961235D01*
X184138478Y-84856906D01*
X183871092Y-84803720D01*
X183598468Y-84803720D01*
X183331082Y-84856906D01*
X183079210Y-84961235D01*
X182852531Y-85112697D01*
X182659757Y-85305471D01*
X182508295Y-85532150D01*
X182403966Y-85784022D01*
X182350780Y-86051408D01*
X178469342Y-86051408D01*
X178618780Y-85901970D01*
X178621852Y-85438720D01*
X178609592Y-85314238D01*
X178573282Y-85194540D01*
X178514317Y-85084226D01*
X178434965Y-84987535D01*
X178338274Y-84908183D01*
X178227960Y-84849218D01*
X178108262Y-84812908D01*
X177983780Y-84800648D01*
X177520530Y-84803720D01*
X177361780Y-84962470D01*
X177107780Y-84962470D01*
X176949030Y-84803720D01*
X176485780Y-84800648D01*
X176361298Y-84812908D01*
X176241600Y-84849218D01*
X176131286Y-84908183D01*
X176034595Y-84987535D01*
X175955243Y-85084226D01*
X175896278Y-85194540D01*
X175859968Y-85314238D01*
X175847708Y-85438720D01*
X174857053Y-85438720D01*
X174769714Y-85367043D01*
X174659400Y-85308078D01*
X174539702Y-85271768D01*
X174415220Y-85259508D01*
X173951970Y-85262580D01*
X173793220Y-85421330D01*
X173539220Y-85421330D01*
X173380470Y-85262580D01*
X172917220Y-85259508D01*
X172792738Y-85271768D01*
X172673040Y-85308078D01*
X172562726Y-85367043D01*
X172466035Y-85446395D01*
X172386683Y-85543086D01*
X172327718Y-85653400D01*
X172291408Y-85773098D01*
X172279148Y-85897580D01*
X168330278Y-85897580D01*
X168241243Y-85764331D01*
X168048469Y-85571557D01*
X167821790Y-85420095D01*
X167569918Y-85315766D01*
X167302532Y-85262580D01*
X167029908Y-85262580D01*
X166762522Y-85315766D01*
X166510650Y-85420095D01*
X166283971Y-85571557D01*
X166091197Y-85764331D01*
X165939735Y-85991010D01*
X165835406Y-86242882D01*
X165782220Y-86510268D01*
X164407370Y-86510268D01*
X159907370Y-82010268D01*
X165782220Y-82010268D01*
X165782220Y-82282892D01*
X165835406Y-82550278D01*
X165939735Y-82802150D01*
X166091197Y-83028829D01*
X166283971Y-83221603D01*
X166510650Y-83373065D01*
X166762522Y-83477394D01*
X167029908Y-83530580D01*
X167302532Y-83530580D01*
X167569918Y-83477394D01*
X167821790Y-83373065D01*
X168048469Y-83221603D01*
X168241243Y-83028829D01*
X168392705Y-82802150D01*
X168497034Y-82550278D01*
X168550220Y-82282892D01*
X168550220Y-82010268D01*
X172282220Y-82010268D01*
X172282220Y-82282892D01*
X172335406Y-82550278D01*
X172439735Y-82802150D01*
X172591197Y-83028829D01*
X172783971Y-83221603D01*
X173010650Y-83373065D01*
X173262522Y-83477394D01*
X173529908Y-83530580D01*
X173802532Y-83530580D01*
X174069918Y-83477394D01*
X174321790Y-83373065D01*
X174548469Y-83221603D01*
X174741243Y-83028829D01*
X174892705Y-82802150D01*
X174997034Y-82550278D01*
X175050220Y-82282892D01*
X175050220Y-82260848D01*
X175490100Y-82260848D01*
X175490100Y-82533472D01*
X175543286Y-82800858D01*
X175647615Y-83052730D01*
X175799077Y-83279409D01*
X175991851Y-83472183D01*
X176218530Y-83623645D01*
X176470402Y-83727974D01*
X176737788Y-83781160D01*
X177010412Y-83781160D01*
X177277798Y-83727974D01*
X177529670Y-83623645D01*
X177756349Y-83472183D01*
X177949123Y-83279409D01*
X178100585Y-83052730D01*
X178204914Y-82800858D01*
X178258100Y-82533472D01*
X178258100Y-82260848D01*
X181990100Y-82260848D01*
X181990100Y-82533472D01*
X182043286Y-82800858D01*
X182147615Y-83052730D01*
X182299077Y-83279409D01*
X182491851Y-83472183D01*
X182718530Y-83623645D01*
X182970402Y-83727974D01*
X183237788Y-83781160D01*
X183510412Y-83781160D01*
X183777798Y-83727974D01*
X184029670Y-83623645D01*
X184256349Y-83472183D01*
X184449123Y-83279409D01*
X184600585Y-83052730D01*
X184704914Y-82800858D01*
X184758100Y-82533472D01*
X184758100Y-82260848D01*
X184704914Y-81993462D01*
X184600585Y-81741590D01*
X184449123Y-81514911D01*
X184256349Y-81322137D01*
X184029670Y-81170675D01*
X183777798Y-81066346D01*
X183510412Y-81013160D01*
X183237788Y-81013160D01*
X182970402Y-81066346D01*
X182718530Y-81170675D01*
X182491851Y-81322137D01*
X182299077Y-81514911D01*
X182147615Y-81741590D01*
X182043286Y-81993462D01*
X181990100Y-82260848D01*
X178258100Y-82260848D01*
X178204914Y-81993462D01*
X178100585Y-81741590D01*
X177949123Y-81514911D01*
X177756349Y-81322137D01*
X177529670Y-81170675D01*
X177277798Y-81066346D01*
X177010412Y-81013160D01*
X176737788Y-81013160D01*
X176470402Y-81066346D01*
X176218530Y-81170675D01*
X175991851Y-81322137D01*
X175799077Y-81514911D01*
X175647615Y-81741590D01*
X175543286Y-81993462D01*
X175490100Y-82260848D01*
X175050220Y-82260848D01*
X175050220Y-82010268D01*
X174997034Y-81742882D01*
X174892705Y-81491010D01*
X174741243Y-81264331D01*
X174548469Y-81071557D01*
X174321790Y-80920095D01*
X174069918Y-80815766D01*
X173802532Y-80762580D01*
X173529908Y-80762580D01*
X173262522Y-80815766D01*
X173010650Y-80920095D01*
X172783971Y-81071557D01*
X172591197Y-81264331D01*
X172439735Y-81491010D01*
X172335406Y-81742882D01*
X172282220Y-82010268D01*
X168550220Y-82010268D01*
X168497034Y-81742882D01*
X168392705Y-81491010D01*
X168241243Y-81264331D01*
X168048469Y-81071557D01*
X167821790Y-80920095D01*
X167569918Y-80815766D01*
X167302532Y-80762580D01*
X167029908Y-80762580D01*
X166762522Y-80815766D01*
X166510650Y-80920095D01*
X166283971Y-81071557D01*
X166091197Y-81264331D01*
X165939735Y-81491010D01*
X165835406Y-81742882D01*
X165782220Y-82010268D01*
X159907370Y-82010268D01*
X157307204Y-79410103D01*
X157283401Y-79381099D01*
X157167676Y-79286126D01*
X157035647Y-79215554D01*
X156892386Y-79172097D01*
X156780733Y-79161100D01*
X156780722Y-79161100D01*
X156743400Y-79157424D01*
X156706078Y-79161100D01*
X147179523Y-79161100D01*
X147142200Y-79157424D01*
X147104877Y-79161100D01*
X147104867Y-79161100D01*
X146993214Y-79172097D01*
X146849953Y-79215554D01*
X146717924Y-79286126D01*
X146602199Y-79381099D01*
X146578401Y-79410097D01*
X142098599Y-83889900D01*
X142036461Y-83889900D01*
X141836502Y-83929674D01*
X141648144Y-84007695D01*
X141478626Y-84120963D01*
X141334463Y-84265126D01*
X141221195Y-84434644D01*
X141143174Y-84623002D01*
X141103400Y-84822961D01*
X141103400Y-85026839D01*
X141143174Y-85226798D01*
X141221195Y-85415156D01*
X141334463Y-85584674D01*
X141478626Y-85728837D01*
X141648144Y-85842105D01*
X141836502Y-85920126D01*
X142036461Y-85959900D01*
X142240339Y-85959900D01*
X142440298Y-85920126D01*
X142628656Y-85842105D01*
X142798174Y-85728837D01*
X142942337Y-85584674D01*
X143055605Y-85415156D01*
X143133626Y-85226798D01*
X143173400Y-85026839D01*
X143173400Y-84964701D01*
X144093012Y-84045089D01*
X144027895Y-84142544D01*
X143949874Y-84330902D01*
X143910100Y-84530861D01*
X143910100Y-84734739D01*
X143949874Y-84934698D01*
X144027895Y-85123056D01*
X144141163Y-85292574D01*
X144185101Y-85336512D01*
X144185100Y-92445997D01*
X141550518Y-95080580D01*
X141545337Y-95072826D01*
X141401174Y-94928663D01*
X141231656Y-94815395D01*
X141043298Y-94737374D01*
X140843339Y-94697600D01*
X140639461Y-94697600D01*
X140439502Y-94737374D01*
X140251144Y-94815395D01*
X140081626Y-94928663D01*
X139937463Y-95072826D01*
X139824195Y-95242344D01*
X139795250Y-95312223D01*
X139766305Y-95242344D01*
X139653037Y-95072826D01*
X139508874Y-94928663D01*
X139339356Y-94815395D01*
X139150998Y-94737374D01*
X138951039Y-94697600D01*
X138747161Y-94697600D01*
X138547202Y-94737374D01*
X138358844Y-94815395D01*
X138189326Y-94928663D01*
X138045163Y-95072826D01*
X137931895Y-95242344D01*
X137853874Y-95430702D01*
X137814100Y-95630661D01*
X137814100Y-95692798D01*
X131144155Y-102362744D01*
X131025274Y-102243863D01*
X130855756Y-102130595D01*
X130667398Y-102052574D01*
X130467439Y-102012800D01*
X130263561Y-102012800D01*
X130063602Y-102052574D01*
X129875244Y-102130595D01*
X129705726Y-102243863D01*
X129561563Y-102388026D01*
X129448295Y-102557544D01*
X129370274Y-102745902D01*
X129330500Y-102945861D01*
X129330500Y-103007999D01*
X129126139Y-103212360D01*
X123972451Y-103212360D01*
X123898034Y-103137943D01*
X123728516Y-103024675D01*
X123540158Y-102946654D01*
X123340199Y-102906880D01*
X123136321Y-102906880D01*
X122936362Y-102946654D01*
X122748004Y-103024675D01*
X122578486Y-103137943D01*
X122434323Y-103282106D01*
X122321055Y-103451624D01*
X122243034Y-103639982D01*
X122203260Y-103839941D01*
X122203260Y-104043819D01*
X122243034Y-104243778D01*
X122321055Y-104432136D01*
X122434323Y-104601654D01*
X122578486Y-104745817D01*
X122748004Y-104859085D01*
X122936362Y-104937106D01*
X123136321Y-104976880D01*
X123340199Y-104976880D01*
X123540158Y-104937106D01*
X123728516Y-104859085D01*
X123898034Y-104745817D01*
X123911491Y-104732360D01*
X128774539Y-104732360D01*
X121515678Y-111991221D01*
X121486680Y-112015019D01*
X121462882Y-112044017D01*
X121462881Y-112044018D01*
X121391706Y-112130744D01*
X121321134Y-112262774D01*
X121313120Y-112289195D01*
X121277678Y-112406034D01*
X121268422Y-112500014D01*
X121263004Y-112555020D01*
X121266681Y-112592352D01*
X121266680Y-118236441D01*
X121080048Y-118361145D01*
X120873205Y-118567988D01*
X120756680Y-118742380D01*
X120640155Y-118567988D01*
X120433312Y-118361145D01*
X120246680Y-118236442D01*
X120246680Y-105262521D01*
X137568102Y-87941100D01*
X137630239Y-87941100D01*
X137830198Y-87901326D01*
X138018556Y-87823305D01*
X138188074Y-87710037D01*
X138332237Y-87565874D01*
X138445505Y-87396356D01*
X138523526Y-87207998D01*
X138563300Y-87008039D01*
X138563300Y-86804161D01*
X138523526Y-86604202D01*
X138445505Y-86415844D01*
X138340305Y-86258400D01*
X138445505Y-86100956D01*
X138523526Y-85912598D01*
X138563300Y-85712639D01*
X138563300Y-85508761D01*
X138523526Y-85308802D01*
X138445505Y-85120444D01*
X138346996Y-84973015D01*
X138357637Y-84962374D01*
X138470905Y-84792856D01*
X138548926Y-84604498D01*
X138588700Y-84404539D01*
X138588700Y-84200661D01*
X138548926Y-84000702D01*
X138470905Y-83812344D01*
X138357637Y-83642826D01*
X138213474Y-83498663D01*
X138043956Y-83385395D01*
X137855598Y-83307374D01*
X137655639Y-83267600D01*
X137451761Y-83267600D01*
X137251802Y-83307374D01*
X137063444Y-83385395D01*
X136893926Y-83498663D01*
X136749763Y-83642826D01*
X136636495Y-83812344D01*
X136558474Y-84000702D01*
X136518700Y-84200661D01*
X136518700Y-84262798D01*
X134410400Y-86371098D01*
X134410400Y-86207261D01*
X134370626Y-86007302D01*
X134292605Y-85818944D01*
X134179337Y-85649426D01*
X134035174Y-85505263D01*
X133865656Y-85391995D01*
X133677298Y-85313974D01*
X133477339Y-85274200D01*
X133273461Y-85274200D01*
X133073502Y-85313974D01*
X132885144Y-85391995D01*
X132715626Y-85505263D01*
X132571463Y-85649426D01*
X132458195Y-85818944D01*
X132380174Y-86007302D01*
X132340400Y-86207261D01*
X132340400Y-86234042D01*
X127894043Y-90680400D01*
X126789711Y-90680400D01*
X126770774Y-90661463D01*
X126601256Y-90548195D01*
X126412898Y-90470174D01*
X126212939Y-90430400D01*
X126009061Y-90430400D01*
X125809102Y-90470174D01*
X125620744Y-90548195D01*
X125451226Y-90661463D01*
X125307063Y-90805626D01*
X125193795Y-90975144D01*
X125115774Y-91163502D01*
X125076000Y-91363461D01*
X125076000Y-91567339D01*
X125115774Y-91767298D01*
X125193795Y-91955656D01*
X125307063Y-92125174D01*
X125451226Y-92269337D01*
X125620744Y-92382605D01*
X125809102Y-92460626D01*
X126009061Y-92500400D01*
X126212939Y-92500400D01*
X126412898Y-92460626D01*
X126601256Y-92382605D01*
X126770774Y-92269337D01*
X126789711Y-92250400D01*
X128180647Y-92250400D01*
X128219200Y-92254197D01*
X128257753Y-92250400D01*
X128257761Y-92250400D01*
X128373087Y-92239041D01*
X128521060Y-92194154D01*
X128657433Y-92121262D01*
X128673067Y-92108431D01*
X113895678Y-106885821D01*
X113866680Y-106909619D01*
X113842882Y-106938617D01*
X113842881Y-106938618D01*
X113771706Y-107025344D01*
X113701134Y-107157374D01*
X113657678Y-107300635D01*
X113643004Y-107449620D01*
X113646681Y-107486952D01*
X113646680Y-118026548D01*
X113556680Y-118026548D01*
X113432198Y-118038808D01*
X113312500Y-118075118D01*
X113202186Y-118134083D01*
X113105495Y-118213435D01*
X113026143Y-118310126D01*
X112967178Y-118420440D01*
X112930868Y-118540138D01*
X112918608Y-118664620D01*
X109798367Y-118664620D01*
X109794112Y-118621418D01*
X109757802Y-118501720D01*
X109698837Y-118391406D01*
X109619485Y-118294715D01*
X109522794Y-118215363D01*
X109412480Y-118156398D01*
X109331834Y-118131934D01*
X109415888Y-118056169D01*
X109589941Y-117822820D01*
X109715125Y-117559999D01*
X109759776Y-117412790D01*
X109638455Y-117182900D01*
X108445300Y-117182900D01*
X108445300Y-117202900D01*
X108191300Y-117202900D01*
X108191300Y-117182900D01*
X106998145Y-117182900D01*
X106876824Y-117412790D01*
X106921475Y-117559999D01*
X107046659Y-117822820D01*
X107220712Y-118056169D01*
X107304766Y-118131934D01*
X107224120Y-118156398D01*
X107113806Y-118215363D01*
X107017115Y-118294715D01*
X106937763Y-118391406D01*
X106878798Y-118501720D01*
X106842488Y-118621418D01*
X106830228Y-118745900D01*
X106705000Y-118745900D01*
X106705000Y-114369640D01*
X106833300Y-114369640D01*
X106833300Y-114662160D01*
X106890368Y-114949058D01*
X107002310Y-115219311D01*
X107164825Y-115462532D01*
X107371668Y-115669375D01*
X107553834Y-115791095D01*
X107436945Y-115860722D01*
X107220712Y-116055631D01*
X107046659Y-116288980D01*
X106921475Y-116551801D01*
X106876824Y-116699010D01*
X106998145Y-116928900D01*
X108191300Y-116928900D01*
X108191300Y-116908900D01*
X108445300Y-116908900D01*
X108445300Y-116928900D01*
X109638455Y-116928900D01*
X109759776Y-116699010D01*
X109715125Y-116551801D01*
X109589941Y-116288980D01*
X109415888Y-116055631D01*
X109199655Y-115860722D01*
X109082766Y-115791095D01*
X109264932Y-115669375D01*
X109471775Y-115462532D01*
X109634290Y-115219311D01*
X109746232Y-114949058D01*
X109803300Y-114662160D01*
X109803300Y-114369640D01*
X109746232Y-114082742D01*
X109634290Y-113812489D01*
X109471775Y-113569268D01*
X109264932Y-113362425D01*
X109021711Y-113199910D01*
X108751458Y-113087968D01*
X108464560Y-113030900D01*
X108172040Y-113030900D01*
X107885142Y-113087968D01*
X107614889Y-113199910D01*
X107371668Y-113362425D01*
X107164825Y-113569268D01*
X107002310Y-113812489D01*
X106890368Y-114082742D01*
X106833300Y-114369640D01*
X106705000Y-114369640D01*
X106705000Y-101993240D01*
X111157028Y-101993240D01*
X111157028Y-104793240D01*
X111169288Y-104917722D01*
X111205598Y-105037420D01*
X111264563Y-105147734D01*
X111343915Y-105244425D01*
X111440606Y-105323777D01*
X111550920Y-105382742D01*
X111670618Y-105419052D01*
X111795100Y-105431312D01*
X114595100Y-105431312D01*
X114719582Y-105419052D01*
X114839280Y-105382742D01*
X114949594Y-105323777D01*
X115046285Y-105244425D01*
X115125637Y-105147734D01*
X115184602Y-105037420D01*
X115220912Y-104917722D01*
X115233172Y-104793240D01*
X115233172Y-101993240D01*
X115220912Y-101868758D01*
X115184602Y-101749060D01*
X115125637Y-101638746D01*
X115046285Y-101542055D01*
X114949594Y-101462703D01*
X114839280Y-101403738D01*
X114719582Y-101367428D01*
X114595100Y-101355168D01*
X111795100Y-101355168D01*
X111670618Y-101367428D01*
X111550920Y-101403738D01*
X111440606Y-101462703D01*
X111343915Y-101542055D01*
X111264563Y-101638746D01*
X111205598Y-101749060D01*
X111169288Y-101868758D01*
X111157028Y-101993240D01*
X106705000Y-101993240D01*
X106705000Y-98192810D01*
X111160100Y-98192810D01*
X111160100Y-98593670D01*
X111238304Y-98986827D01*
X111391707Y-99357174D01*
X111614413Y-99690477D01*
X111897863Y-99973927D01*
X112231166Y-100196633D01*
X112601513Y-100350036D01*
X112994670Y-100428240D01*
X113395530Y-100428240D01*
X113788687Y-100350036D01*
X114159034Y-100196633D01*
X114492337Y-99973927D01*
X114775787Y-99690477D01*
X114998493Y-99357174D01*
X115151896Y-98986827D01*
X115230100Y-98593670D01*
X115230100Y-98192810D01*
X115151896Y-97799653D01*
X114998493Y-97429306D01*
X114775787Y-97096003D01*
X114492337Y-96812553D01*
X114159034Y-96589847D01*
X113788687Y-96436444D01*
X113395530Y-96358240D01*
X112994670Y-96358240D01*
X112601513Y-96436444D01*
X112231166Y-96589847D01*
X111897863Y-96812553D01*
X111614413Y-97096003D01*
X111391707Y-97429306D01*
X111238304Y-97799653D01*
X111160100Y-98192810D01*
X106705000Y-98192810D01*
X106705000Y-85818520D01*
X111253548Y-85818520D01*
X111253548Y-88618520D01*
X111265808Y-88743002D01*
X111302118Y-88862700D01*
X111361083Y-88973014D01*
X111440435Y-89069705D01*
X111537126Y-89149057D01*
X111647440Y-89208022D01*
X111767138Y-89244332D01*
X111891620Y-89256592D01*
X114691620Y-89256592D01*
X114816102Y-89244332D01*
X114935800Y-89208022D01*
X115046114Y-89149057D01*
X115142805Y-89069705D01*
X115222157Y-88973014D01*
X115281122Y-88862700D01*
X115317432Y-88743002D01*
X115329692Y-88618520D01*
X115329692Y-85818520D01*
X115317432Y-85694038D01*
X115281122Y-85574340D01*
X115222157Y-85464026D01*
X115142805Y-85367335D01*
X115046114Y-85287983D01*
X114935800Y-85229018D01*
X114816102Y-85192708D01*
X114691620Y-85180448D01*
X111891620Y-85180448D01*
X111767138Y-85192708D01*
X111647440Y-85229018D01*
X111537126Y-85287983D01*
X111440435Y-85367335D01*
X111361083Y-85464026D01*
X111302118Y-85574340D01*
X111265808Y-85694038D01*
X111253548Y-85818520D01*
X106705000Y-85818520D01*
X106705000Y-82018090D01*
X111256620Y-82018090D01*
X111256620Y-82418950D01*
X111334824Y-82812107D01*
X111488227Y-83182454D01*
X111710933Y-83515757D01*
X111994383Y-83799207D01*
X112327686Y-84021913D01*
X112698033Y-84175316D01*
X113091190Y-84253520D01*
X113492050Y-84253520D01*
X113885207Y-84175316D01*
X114255554Y-84021913D01*
X114588857Y-83799207D01*
X114872307Y-83515757D01*
X115095013Y-83182454D01*
X115248416Y-82812107D01*
X115326620Y-82418950D01*
X115326620Y-82018090D01*
X115248416Y-81624933D01*
X115095013Y-81254586D01*
X114872307Y-80921283D01*
X114588857Y-80637833D01*
X114255554Y-80415127D01*
X113885207Y-80261724D01*
X113492050Y-80183520D01*
X113091190Y-80183520D01*
X112698033Y-80261724D01*
X112327686Y-80415127D01*
X111994383Y-80637833D01*
X111710933Y-80921283D01*
X111488227Y-81254586D01*
X111334824Y-81624933D01*
X111256620Y-82018090D01*
X106705000Y-82018090D01*
X106705000Y-78275588D01*
X165782220Y-78275588D01*
X165782220Y-78548212D01*
X165835406Y-78815598D01*
X165939735Y-79067470D01*
X166091197Y-79294149D01*
X166283971Y-79486923D01*
X166510650Y-79638385D01*
X166762522Y-79742714D01*
X167029908Y-79795900D01*
X167302532Y-79795900D01*
X167569918Y-79742714D01*
X167821790Y-79638385D01*
X168048469Y-79486923D01*
X168241243Y-79294149D01*
X168392705Y-79067470D01*
X168497034Y-78815598D01*
X168550220Y-78548212D01*
X168550220Y-78275588D01*
X172282220Y-78275588D01*
X172282220Y-78548212D01*
X172335406Y-78815598D01*
X172439735Y-79067470D01*
X172591197Y-79294149D01*
X172783971Y-79486923D01*
X173010650Y-79638385D01*
X173262522Y-79742714D01*
X173529908Y-79795900D01*
X173802532Y-79795900D01*
X174069918Y-79742714D01*
X174321790Y-79638385D01*
X174548469Y-79486923D01*
X174741243Y-79294149D01*
X174892705Y-79067470D01*
X174997034Y-78815598D01*
X175030737Y-78646160D01*
X175487028Y-78646160D01*
X175499288Y-78770642D01*
X175535598Y-78890340D01*
X175594563Y-79000654D01*
X175673915Y-79097345D01*
X175770606Y-79176697D01*
X175880920Y-79235662D01*
X176000618Y-79271972D01*
X176125100Y-79284232D01*
X176588350Y-79281160D01*
X176747100Y-79122410D01*
X176747100Y-78024160D01*
X177001100Y-78024160D01*
X177001100Y-79122410D01*
X177159850Y-79281160D01*
X177623100Y-79284232D01*
X177747582Y-79271972D01*
X177867280Y-79235662D01*
X177977594Y-79176697D01*
X178074285Y-79097345D01*
X178153637Y-79000654D01*
X178212602Y-78890340D01*
X178248912Y-78770642D01*
X178261172Y-78646160D01*
X178258100Y-78182910D01*
X178099350Y-78024160D01*
X177001100Y-78024160D01*
X176747100Y-78024160D01*
X175648850Y-78024160D01*
X175490100Y-78182910D01*
X175487028Y-78646160D01*
X175030737Y-78646160D01*
X175050220Y-78548212D01*
X175050220Y-78275588D01*
X174997034Y-78008202D01*
X174892705Y-77756330D01*
X174741243Y-77529651D01*
X174548469Y-77336877D01*
X174321790Y-77185415D01*
X174231849Y-77148160D01*
X175487028Y-77148160D01*
X175490100Y-77611410D01*
X175648850Y-77770160D01*
X176747100Y-77770160D01*
X176747100Y-76671910D01*
X177001100Y-76671910D01*
X177001100Y-77770160D01*
X178099350Y-77770160D01*
X178108662Y-77760848D01*
X181990100Y-77760848D01*
X181990100Y-78033472D01*
X182043286Y-78300858D01*
X182147615Y-78552730D01*
X182299077Y-78779409D01*
X182491851Y-78972183D01*
X182718530Y-79123645D01*
X182970402Y-79227974D01*
X183237788Y-79281160D01*
X183510412Y-79281160D01*
X183777798Y-79227974D01*
X184029670Y-79123645D01*
X184256349Y-78972183D01*
X184449123Y-78779409D01*
X184600585Y-78552730D01*
X184704914Y-78300858D01*
X184758100Y-78033472D01*
X184758100Y-77760848D01*
X184704914Y-77493462D01*
X184600585Y-77241590D01*
X184449123Y-77014911D01*
X184256349Y-76822137D01*
X184029670Y-76670675D01*
X183777798Y-76566346D01*
X183510412Y-76513160D01*
X183237788Y-76513160D01*
X182970402Y-76566346D01*
X182718530Y-76670675D01*
X182491851Y-76822137D01*
X182299077Y-77014911D01*
X182147615Y-77241590D01*
X182043286Y-77493462D01*
X181990100Y-77760848D01*
X178108662Y-77760848D01*
X178258100Y-77611410D01*
X178261172Y-77148160D01*
X178248912Y-77023678D01*
X178212602Y-76903980D01*
X178153637Y-76793666D01*
X178074285Y-76696975D01*
X177977594Y-76617623D01*
X177867280Y-76558658D01*
X177747582Y-76522348D01*
X177623100Y-76510088D01*
X177159850Y-76513160D01*
X177001100Y-76671910D01*
X176747100Y-76671910D01*
X176588350Y-76513160D01*
X176125100Y-76510088D01*
X176000618Y-76522348D01*
X175880920Y-76558658D01*
X175770606Y-76617623D01*
X175673915Y-76696975D01*
X175594563Y-76793666D01*
X175535598Y-76903980D01*
X175499288Y-77023678D01*
X175487028Y-77148160D01*
X174231849Y-77148160D01*
X174069918Y-77081086D01*
X173802532Y-77027900D01*
X173529908Y-77027900D01*
X173262522Y-77081086D01*
X173010650Y-77185415D01*
X172783971Y-77336877D01*
X172591197Y-77529651D01*
X172439735Y-77756330D01*
X172335406Y-78008202D01*
X172282220Y-78275588D01*
X168550220Y-78275588D01*
X168497034Y-78008202D01*
X168392705Y-77756330D01*
X168241243Y-77529651D01*
X168048469Y-77336877D01*
X167821790Y-77185415D01*
X167569918Y-77081086D01*
X167302532Y-77027900D01*
X167029908Y-77027900D01*
X166762522Y-77081086D01*
X166510650Y-77185415D01*
X166283971Y-77336877D01*
X166091197Y-77529651D01*
X165939735Y-77756330D01*
X165835406Y-78008202D01*
X165782220Y-78275588D01*
X106705000Y-78275588D01*
X106705000Y-74660900D01*
X165779148Y-74660900D01*
X165791408Y-74785382D01*
X165827718Y-74905080D01*
X165886683Y-75015394D01*
X165966035Y-75112085D01*
X166062726Y-75191437D01*
X166173040Y-75250402D01*
X166292738Y-75286712D01*
X166417220Y-75298972D01*
X166880470Y-75295900D01*
X167039220Y-75137150D01*
X167039220Y-74038900D01*
X167293220Y-74038900D01*
X167293220Y-75137150D01*
X167451970Y-75295900D01*
X167915220Y-75298972D01*
X168039702Y-75286712D01*
X168159400Y-75250402D01*
X168269714Y-75191437D01*
X168366405Y-75112085D01*
X168445757Y-75015394D01*
X168504722Y-74905080D01*
X168541032Y-74785382D01*
X168553292Y-74660900D01*
X168550220Y-74197650D01*
X168391470Y-74038900D01*
X167293220Y-74038900D01*
X167039220Y-74038900D01*
X165940970Y-74038900D01*
X165782220Y-74197650D01*
X165779148Y-74660900D01*
X106705000Y-74660900D01*
X106705000Y-71479100D01*
X114469428Y-71479100D01*
X114469428Y-72404100D01*
X114481688Y-72528582D01*
X114517998Y-72648280D01*
X114533207Y-72676734D01*
X114514677Y-72721471D01*
X114472500Y-72933506D01*
X114472500Y-73149694D01*
X114514677Y-73361729D01*
X114597408Y-73561461D01*
X114717516Y-73741215D01*
X114870385Y-73894084D01*
X115050139Y-74014192D01*
X115249871Y-74096923D01*
X115461906Y-74139100D01*
X115678094Y-74139100D01*
X115890129Y-74096923D01*
X116089861Y-74014192D01*
X116269615Y-73894084D01*
X116422484Y-73741215D01*
X116542592Y-73561461D01*
X116625323Y-73361729D01*
X116664873Y-73162900D01*
X165779148Y-73162900D01*
X165782220Y-73626150D01*
X165940970Y-73784900D01*
X167039220Y-73784900D01*
X167039220Y-72686650D01*
X167293220Y-72686650D01*
X167293220Y-73784900D01*
X168391470Y-73784900D01*
X168400782Y-73775588D01*
X172282220Y-73775588D01*
X172282220Y-74048212D01*
X172335406Y-74315598D01*
X172439735Y-74567470D01*
X172591197Y-74794149D01*
X172783971Y-74986923D01*
X173010650Y-75138385D01*
X173262522Y-75242714D01*
X173529908Y-75295900D01*
X173802532Y-75295900D01*
X174069918Y-75242714D01*
X174321790Y-75138385D01*
X174548469Y-74986923D01*
X174741243Y-74794149D01*
X174892705Y-74567470D01*
X174997034Y-74315598D01*
X175033890Y-74130308D01*
X175490100Y-74130308D01*
X175490100Y-74402932D01*
X175543286Y-74670318D01*
X175647615Y-74922190D01*
X175799077Y-75148869D01*
X175991851Y-75341643D01*
X176218530Y-75493105D01*
X176470402Y-75597434D01*
X176737788Y-75650620D01*
X177010412Y-75650620D01*
X177277798Y-75597434D01*
X177529670Y-75493105D01*
X177756349Y-75341643D01*
X177949123Y-75148869D01*
X178100585Y-74922190D01*
X178204914Y-74670318D01*
X178258100Y-74402932D01*
X178258100Y-74130308D01*
X181990100Y-74130308D01*
X181990100Y-74402932D01*
X182043286Y-74670318D01*
X182147615Y-74922190D01*
X182299077Y-75148869D01*
X182491851Y-75341643D01*
X182718530Y-75493105D01*
X182970402Y-75597434D01*
X183237788Y-75650620D01*
X183510412Y-75650620D01*
X183777798Y-75597434D01*
X184029670Y-75493105D01*
X184256349Y-75341643D01*
X184449123Y-75148869D01*
X184600585Y-74922190D01*
X184704914Y-74670318D01*
X184758100Y-74402932D01*
X184758100Y-74130308D01*
X184704914Y-73862922D01*
X184600585Y-73611050D01*
X184449123Y-73384371D01*
X184256349Y-73191597D01*
X184029670Y-73040135D01*
X183777798Y-72935806D01*
X183510412Y-72882620D01*
X183237788Y-72882620D01*
X182970402Y-72935806D01*
X182718530Y-73040135D01*
X182491851Y-73191597D01*
X182299077Y-73384371D01*
X182147615Y-73611050D01*
X182043286Y-73862922D01*
X181990100Y-74130308D01*
X178258100Y-74130308D01*
X178204914Y-73862922D01*
X178100585Y-73611050D01*
X177949123Y-73384371D01*
X177756349Y-73191597D01*
X177529670Y-73040135D01*
X177277798Y-72935806D01*
X177010412Y-72882620D01*
X176737788Y-72882620D01*
X176470402Y-72935806D01*
X176218530Y-73040135D01*
X175991851Y-73191597D01*
X175799077Y-73384371D01*
X175647615Y-73611050D01*
X175543286Y-73862922D01*
X175490100Y-74130308D01*
X175033890Y-74130308D01*
X175050220Y-74048212D01*
X175050220Y-73775588D01*
X174997034Y-73508202D01*
X174892705Y-73256330D01*
X174741243Y-73029651D01*
X174548469Y-72836877D01*
X174321790Y-72685415D01*
X174069918Y-72581086D01*
X173802532Y-72527900D01*
X173529908Y-72527900D01*
X173262522Y-72581086D01*
X173010650Y-72685415D01*
X172783971Y-72836877D01*
X172591197Y-73029651D01*
X172439735Y-73256330D01*
X172335406Y-73508202D01*
X172282220Y-73775588D01*
X168400782Y-73775588D01*
X168550220Y-73626150D01*
X168553292Y-73162900D01*
X168541032Y-73038418D01*
X168504722Y-72918720D01*
X168445757Y-72808406D01*
X168366405Y-72711715D01*
X168269714Y-72632363D01*
X168159400Y-72573398D01*
X168039702Y-72537088D01*
X167915220Y-72524828D01*
X167451970Y-72527900D01*
X167293220Y-72686650D01*
X167039220Y-72686650D01*
X166880470Y-72527900D01*
X166417220Y-72524828D01*
X166292738Y-72537088D01*
X166173040Y-72573398D01*
X166062726Y-72632363D01*
X165966035Y-72711715D01*
X165886683Y-72808406D01*
X165827718Y-72918720D01*
X165791408Y-73038418D01*
X165779148Y-73162900D01*
X116664873Y-73162900D01*
X116667500Y-73149694D01*
X116667500Y-72933506D01*
X116625323Y-72721471D01*
X116606793Y-72676734D01*
X116622002Y-72648280D01*
X116658312Y-72528582D01*
X116670572Y-72404100D01*
X116670572Y-71479100D01*
X116658312Y-71354618D01*
X116622002Y-71234920D01*
X116563037Y-71124606D01*
X116541653Y-71098549D01*
X139963460Y-71098549D01*
X139963460Y-71371371D01*
X140016685Y-71638949D01*
X140121089Y-71891003D01*
X140272661Y-72117846D01*
X140465574Y-72310759D01*
X140692417Y-72462331D01*
X140944471Y-72566735D01*
X141212049Y-72619960D01*
X141484871Y-72619960D01*
X141752449Y-72566735D01*
X142004503Y-72462331D01*
X142231346Y-72310759D01*
X142424259Y-72117846D01*
X142575831Y-71891003D01*
X142590221Y-71856261D01*
X147428000Y-71856261D01*
X147428000Y-72060139D01*
X147467774Y-72260098D01*
X147545795Y-72448456D01*
X147659063Y-72617974D01*
X147803226Y-72762137D01*
X147972744Y-72875405D01*
X148161102Y-72953426D01*
X148361061Y-72993200D01*
X148564939Y-72993200D01*
X148764898Y-72953426D01*
X148953256Y-72875405D01*
X149122774Y-72762137D01*
X149266937Y-72617974D01*
X149380205Y-72448456D01*
X149458226Y-72260098D01*
X149498000Y-72060139D01*
X149498000Y-71856261D01*
X149458226Y-71656302D01*
X149380205Y-71467944D01*
X149370092Y-71452809D01*
X150307281Y-70515620D01*
X175487028Y-70515620D01*
X175499288Y-70640102D01*
X175535598Y-70759800D01*
X175594563Y-70870114D01*
X175673915Y-70966805D01*
X175770606Y-71046157D01*
X175880920Y-71105122D01*
X176000618Y-71141432D01*
X176125100Y-71153692D01*
X176588350Y-71150620D01*
X176747100Y-70991870D01*
X176747100Y-69893620D01*
X177001100Y-69893620D01*
X177001100Y-70991870D01*
X177159850Y-71150620D01*
X177623100Y-71153692D01*
X177747582Y-71141432D01*
X177867280Y-71105122D01*
X177977594Y-71046157D01*
X178074285Y-70966805D01*
X178153637Y-70870114D01*
X178212602Y-70759800D01*
X178248912Y-70640102D01*
X178261172Y-70515620D01*
X178258100Y-70052370D01*
X178099350Y-69893620D01*
X177001100Y-69893620D01*
X176747100Y-69893620D01*
X175648850Y-69893620D01*
X175490100Y-70052370D01*
X175487028Y-70515620D01*
X150307281Y-70515620D01*
X151805281Y-69017620D01*
X175487028Y-69017620D01*
X175490100Y-69480870D01*
X175648850Y-69639620D01*
X176747100Y-69639620D01*
X176747100Y-68541370D01*
X177001100Y-68541370D01*
X177001100Y-69639620D01*
X178099350Y-69639620D01*
X178108662Y-69630308D01*
X181990100Y-69630308D01*
X181990100Y-69902932D01*
X182043286Y-70170318D01*
X182147615Y-70422190D01*
X182299077Y-70648869D01*
X182491851Y-70841643D01*
X182718530Y-70993105D01*
X182970402Y-71097434D01*
X183237788Y-71150620D01*
X183510412Y-71150620D01*
X183777798Y-71097434D01*
X184029670Y-70993105D01*
X184256349Y-70841643D01*
X184449123Y-70648869D01*
X184600585Y-70422190D01*
X184704914Y-70170318D01*
X184758100Y-69902932D01*
X184758100Y-69630308D01*
X184704914Y-69362922D01*
X184600585Y-69111050D01*
X184449123Y-68884371D01*
X184256349Y-68691597D01*
X184029670Y-68540135D01*
X183777798Y-68435806D01*
X183510412Y-68382620D01*
X183237788Y-68382620D01*
X182970402Y-68435806D01*
X182718530Y-68540135D01*
X182491851Y-68691597D01*
X182299077Y-68884371D01*
X182147615Y-69111050D01*
X182043286Y-69362922D01*
X181990100Y-69630308D01*
X178108662Y-69630308D01*
X178258100Y-69480870D01*
X178261172Y-69017620D01*
X178248912Y-68893138D01*
X178212602Y-68773440D01*
X178153637Y-68663126D01*
X178074285Y-68566435D01*
X177977594Y-68487083D01*
X177867280Y-68428118D01*
X177747582Y-68391808D01*
X177623100Y-68379548D01*
X177159850Y-68382620D01*
X177001100Y-68541370D01*
X176747100Y-68541370D01*
X176588350Y-68382620D01*
X176125100Y-68379548D01*
X176000618Y-68391808D01*
X175880920Y-68428118D01*
X175770606Y-68487083D01*
X175673915Y-68566435D01*
X175594563Y-68663126D01*
X175535598Y-68773440D01*
X175499288Y-68893138D01*
X175487028Y-69017620D01*
X151805281Y-69017620D01*
X168848202Y-51974700D01*
X168910339Y-51974700D01*
X169110298Y-51934926D01*
X169298656Y-51856905D01*
X169468174Y-51743637D01*
X169612337Y-51599474D01*
X169725605Y-51429956D01*
X169803626Y-51241598D01*
X169843400Y-51041639D01*
X169843400Y-50837761D01*
X169803626Y-50637802D01*
X169725605Y-50449444D01*
X169612337Y-50279926D01*
X169468174Y-50135763D01*
X169298656Y-50022495D01*
X169110298Y-49944474D01*
X168910339Y-49904700D01*
X168706461Y-49904700D01*
X168506502Y-49944474D01*
X168318144Y-50022495D01*
X168148626Y-50135763D01*
X168004463Y-50279926D01*
X167891195Y-50449444D01*
X167813174Y-50637802D01*
X167773400Y-50837761D01*
X167773400Y-50899898D01*
X147951998Y-70721301D01*
X147923000Y-70745099D01*
X147899202Y-70774097D01*
X147899201Y-70774098D01*
X147828026Y-70860824D01*
X147757454Y-70992854D01*
X147746819Y-71027915D01*
X147713997Y-71136114D01*
X147703000Y-71247767D01*
X147703000Y-71247778D01*
X147702267Y-71255222D01*
X147659063Y-71298426D01*
X147545795Y-71467944D01*
X147467774Y-71656302D01*
X147428000Y-71856261D01*
X142590221Y-71856261D01*
X142680235Y-71638949D01*
X142733460Y-71371371D01*
X142733460Y-71098549D01*
X142680235Y-70830971D01*
X142575831Y-70578917D01*
X142424259Y-70352074D01*
X142231346Y-70159161D01*
X142004503Y-70007589D01*
X141752449Y-69903185D01*
X141484871Y-69849960D01*
X141212049Y-69849960D01*
X140944471Y-69903185D01*
X140692417Y-70007589D01*
X140465574Y-70159161D01*
X140272661Y-70352074D01*
X140121089Y-70578917D01*
X140016685Y-70830971D01*
X139963460Y-71098549D01*
X116541653Y-71098549D01*
X116483685Y-71027915D01*
X116386994Y-70948563D01*
X116276680Y-70889598D01*
X116156982Y-70853288D01*
X116032500Y-70841028D01*
X115107500Y-70841028D01*
X114983018Y-70853288D01*
X114863320Y-70889598D01*
X114753006Y-70948563D01*
X114656315Y-71027915D01*
X114576963Y-71124606D01*
X114517998Y-71234920D01*
X114481688Y-71354618D01*
X114469428Y-71479100D01*
X106705000Y-71479100D01*
X106705000Y-66218549D01*
X139963460Y-66218549D01*
X139963460Y-66491371D01*
X140016685Y-66758949D01*
X140121089Y-67011003D01*
X140272661Y-67237846D01*
X140465574Y-67430759D01*
X140692417Y-67582331D01*
X140944471Y-67686735D01*
X141212049Y-67739960D01*
X141484871Y-67739960D01*
X141752449Y-67686735D01*
X142004503Y-67582331D01*
X142231346Y-67430759D01*
X142424259Y-67237846D01*
X142575831Y-67011003D01*
X142680235Y-66758949D01*
X142733460Y-66491371D01*
X142733460Y-66218549D01*
X142680235Y-65950971D01*
X142575831Y-65698917D01*
X142424259Y-65472074D01*
X142231346Y-65279161D01*
X142004503Y-65127589D01*
X141752449Y-65023185D01*
X141484871Y-64969960D01*
X141212049Y-64969960D01*
X140944471Y-65023185D01*
X140692417Y-65127589D01*
X140465574Y-65279161D01*
X140272661Y-65472074D01*
X140121089Y-65698917D01*
X140016685Y-65950971D01*
X139963460Y-66218549D01*
X106705000Y-66218549D01*
X106705000Y-57424043D01*
X108435667Y-57424043D01*
X108474971Y-57580190D01*
X108615656Y-57896207D01*
X108815289Y-58178705D01*
X109066199Y-58416829D01*
X109358744Y-58601427D01*
X109681681Y-58725406D01*
X110022600Y-58784000D01*
X111147600Y-58784000D01*
X111147600Y-57151000D01*
X111401600Y-57151000D01*
X111401600Y-58784000D01*
X112526600Y-58784000D01*
X112867519Y-58725406D01*
X113190456Y-58601427D01*
X113483001Y-58416829D01*
X113733911Y-58178705D01*
X113933544Y-57896207D01*
X114074229Y-57580190D01*
X114113533Y-57424043D01*
X113995806Y-57151000D01*
X111401600Y-57151000D01*
X111147600Y-57151000D01*
X108553394Y-57151000D01*
X108435667Y-57424043D01*
X106705000Y-57424043D01*
X106705000Y-56623957D01*
X108435667Y-56623957D01*
X108553394Y-56897000D01*
X111147600Y-56897000D01*
X111147600Y-55264000D01*
X111401600Y-55264000D01*
X111401600Y-56897000D01*
X113995806Y-56897000D01*
X114113533Y-56623957D01*
X114074229Y-56467810D01*
X113965788Y-56224220D01*
X145643300Y-56224220D01*
X145643300Y-56500980D01*
X145697294Y-56772423D01*
X145803205Y-57028117D01*
X145956965Y-57258235D01*
X146152665Y-57453935D01*
X146382783Y-57607695D01*
X146638477Y-57713606D01*
X146909920Y-57767600D01*
X147186680Y-57767600D01*
X147458123Y-57713606D01*
X147713817Y-57607695D01*
X147943935Y-57453935D01*
X148139635Y-57258235D01*
X148293300Y-57028259D01*
X148446965Y-57258235D01*
X148642665Y-57453935D01*
X148872783Y-57607695D01*
X149128477Y-57713606D01*
X149399920Y-57767600D01*
X149676680Y-57767600D01*
X149948123Y-57713606D01*
X150203817Y-57607695D01*
X150433935Y-57453935D01*
X150629635Y-57258235D01*
X150783395Y-57028117D01*
X150889306Y-56772423D01*
X150943300Y-56500980D01*
X150943300Y-56224220D01*
X150889306Y-55952777D01*
X150783395Y-55697083D01*
X150629635Y-55466965D01*
X150530270Y-55367600D01*
X150629635Y-55268235D01*
X150783395Y-55038117D01*
X150889306Y-54782423D01*
X150943300Y-54510980D01*
X150943300Y-54234220D01*
X150889306Y-53962777D01*
X150783395Y-53707083D01*
X150629635Y-53476965D01*
X150433935Y-53281265D01*
X150203817Y-53127505D01*
X149948123Y-53021594D01*
X149676680Y-52967600D01*
X149399920Y-52967600D01*
X149128477Y-53021594D01*
X148872783Y-53127505D01*
X148642665Y-53281265D01*
X148446965Y-53476965D01*
X148293205Y-53707083D01*
X148292504Y-53708775D01*
X148260487Y-53648876D01*
X148019578Y-53580927D01*
X147227905Y-54372600D01*
X148019578Y-55164273D01*
X148260487Y-55096324D01*
X148290720Y-55032117D01*
X148293205Y-55038117D01*
X148446965Y-55268235D01*
X148546330Y-55367600D01*
X148446965Y-55466965D01*
X148293300Y-55696941D01*
X148139635Y-55466965D01*
X147943935Y-55271265D01*
X147713817Y-55117505D01*
X147542737Y-55046642D01*
X147048300Y-54552205D01*
X146553863Y-55046642D01*
X146382783Y-55117505D01*
X146152665Y-55271265D01*
X145956965Y-55466965D01*
X145803205Y-55697083D01*
X145697294Y-55952777D01*
X145643300Y-56224220D01*
X113965788Y-56224220D01*
X113933544Y-56151793D01*
X113733911Y-55869295D01*
X113483001Y-55631171D01*
X113190456Y-55446573D01*
X112867519Y-55322594D01*
X112526600Y-55264000D01*
X111401600Y-55264000D01*
X111147600Y-55264000D01*
X110022600Y-55264000D01*
X109681681Y-55322594D01*
X109358744Y-55446573D01*
X109066199Y-55631171D01*
X108815289Y-55869295D01*
X108615656Y-56151793D01*
X108474971Y-56467810D01*
X108435667Y-56623957D01*
X106705000Y-56623957D01*
X106705000Y-54252260D01*
X106881771Y-54532401D01*
X107119895Y-54783311D01*
X107402393Y-54982944D01*
X107718410Y-55123629D01*
X107874557Y-55162933D01*
X108147600Y-55045206D01*
X108147600Y-52451000D01*
X108401600Y-52451000D01*
X108401600Y-55045206D01*
X108674643Y-55162933D01*
X108830790Y-55123629D01*
X109146807Y-54982944D01*
X109429305Y-54783311D01*
X109667429Y-54532401D01*
X109852027Y-54239856D01*
X109976006Y-53916919D01*
X110019029Y-53666596D01*
X112389600Y-53666596D01*
X112416875Y-53943523D01*
X112524661Y-54298847D01*
X112699697Y-54626317D01*
X112935255Y-54913345D01*
X113222283Y-55148903D01*
X113549752Y-55323939D01*
X113905076Y-55431725D01*
X114274600Y-55468120D01*
X114644123Y-55431725D01*
X114999447Y-55323939D01*
X115326917Y-55148903D01*
X115613945Y-54913345D01*
X115849503Y-54626317D01*
X115946792Y-54444301D01*
X145638323Y-54444301D01*
X145679404Y-54717995D01*
X145773090Y-54978417D01*
X145836113Y-55096324D01*
X146077022Y-55164273D01*
X146868695Y-54372600D01*
X146077022Y-53580927D01*
X145836113Y-53648876D01*
X145718213Y-53899268D01*
X145651428Y-54167850D01*
X145638323Y-54444301D01*
X115946792Y-54444301D01*
X116024539Y-54298848D01*
X116132325Y-53943524D01*
X116159600Y-53666597D01*
X116159600Y-51423512D01*
X139845800Y-51423512D01*
X139845800Y-51901688D01*
X139939087Y-52370676D01*
X140122077Y-52812453D01*
X140387737Y-53210041D01*
X140725859Y-53548163D01*
X141123447Y-53813823D01*
X141565224Y-53996813D01*
X142034212Y-54090100D01*
X142512388Y-54090100D01*
X142981376Y-53996813D01*
X143423153Y-53813823D01*
X143820741Y-53548163D01*
X143967582Y-53401322D01*
X146256627Y-53401322D01*
X147048300Y-54192995D01*
X147839973Y-53401322D01*
X147772024Y-53160413D01*
X147521632Y-53042513D01*
X147253050Y-52975728D01*
X146976599Y-52962623D01*
X146702905Y-53003704D01*
X146442483Y-53097390D01*
X146324576Y-53160413D01*
X146256627Y-53401322D01*
X143967582Y-53401322D01*
X144158863Y-53210041D01*
X144424523Y-52812453D01*
X144607513Y-52370676D01*
X144700800Y-51901688D01*
X144700800Y-51423512D01*
X151885800Y-51423512D01*
X151885800Y-51901688D01*
X151979087Y-52370676D01*
X152162077Y-52812453D01*
X152427737Y-53210041D01*
X152765859Y-53548163D01*
X153163447Y-53813823D01*
X153605224Y-53996813D01*
X154074212Y-54090100D01*
X154552388Y-54090100D01*
X155021376Y-53996813D01*
X155463153Y-53813823D01*
X155860741Y-53548163D01*
X156198863Y-53210041D01*
X156464523Y-52812453D01*
X156647513Y-52370676D01*
X156740800Y-51901688D01*
X156740800Y-51423512D01*
X156647513Y-50954524D01*
X156464523Y-50512747D01*
X156198863Y-50115159D01*
X155860741Y-49777037D01*
X155463153Y-49511377D01*
X155021376Y-49328387D01*
X154552388Y-49235100D01*
X154074212Y-49235100D01*
X153605224Y-49328387D01*
X153163447Y-49511377D01*
X152765859Y-49777037D01*
X152427737Y-50115159D01*
X152162077Y-50512747D01*
X151979087Y-50954524D01*
X151885800Y-51423512D01*
X144700800Y-51423512D01*
X144607513Y-50954524D01*
X144424523Y-50512747D01*
X144158863Y-50115159D01*
X143820741Y-49777037D01*
X143423153Y-49511377D01*
X142981376Y-49328387D01*
X142512388Y-49235100D01*
X142034212Y-49235100D01*
X141565224Y-49328387D01*
X141123447Y-49511377D01*
X140725859Y-49777037D01*
X140387737Y-50115159D01*
X140122077Y-50512747D01*
X139939087Y-50954524D01*
X139845800Y-51423512D01*
X116159600Y-51423512D01*
X116159600Y-50981403D01*
X116132325Y-50704476D01*
X116024539Y-50349152D01*
X115849503Y-50021683D01*
X115613945Y-49734655D01*
X115326917Y-49499097D01*
X114999448Y-49324061D01*
X114644124Y-49216275D01*
X114274600Y-49179880D01*
X113905077Y-49216275D01*
X113549753Y-49324061D01*
X113222284Y-49499097D01*
X112935256Y-49734655D01*
X112699698Y-50021683D01*
X112524662Y-50349152D01*
X112416876Y-50704476D01*
X112389601Y-50981403D01*
X112389600Y-53666596D01*
X110019029Y-53666596D01*
X110034600Y-53576000D01*
X110034600Y-52451000D01*
X108401600Y-52451000D01*
X108147600Y-52451000D01*
X108127600Y-52451000D01*
X108127600Y-52197000D01*
X108147600Y-52197000D01*
X108147600Y-49602794D01*
X108401600Y-49602794D01*
X108401600Y-52197000D01*
X110034600Y-52197000D01*
X110034600Y-51072000D01*
X109976006Y-50731081D01*
X109852027Y-50408144D01*
X109667429Y-50115599D01*
X109429305Y-49864689D01*
X109146807Y-49665056D01*
X108830790Y-49524371D01*
X108674643Y-49485067D01*
X108401600Y-49602794D01*
X108147600Y-49602794D01*
X107874557Y-49485067D01*
X107718410Y-49524371D01*
X107402393Y-49665056D01*
X107119895Y-49864689D01*
X106881771Y-50115599D01*
X106705000Y-50395740D01*
X106705000Y-48285000D01*
X185395001Y-48285000D01*
X185395000Y-126975000D01*
G37*
%TD.AperFunction*%
D33*
X152777921Y-96187103D02*
X152777920Y-107823169D01*
X152712690Y-107665689D01*
X152550175Y-107422468D01*
X152343332Y-107215625D01*
X152100111Y-107053110D01*
X151829858Y-106941168D01*
X151542960Y-106884100D01*
X151250440Y-106884100D01*
X150963542Y-106941168D01*
X150693289Y-107053110D01*
X150450068Y-107215625D01*
X150243225Y-107422468D01*
X150126700Y-107596860D01*
X150010175Y-107422468D01*
X149803332Y-107215625D01*
X149560111Y-107053110D01*
X149289858Y-106941168D01*
X149002960Y-106884100D01*
X148710440Y-106884100D01*
X148423542Y-106941168D01*
X148153289Y-107053110D01*
X147910068Y-107215625D01*
X147703225Y-107422468D01*
X147581505Y-107604634D01*
X147511878Y-107487745D01*
X147316969Y-107271512D01*
X147083620Y-107097459D01*
X146820799Y-106972275D01*
X146673590Y-106927624D01*
X146443700Y-107048945D01*
X146443700Y-108242100D01*
X146463700Y-108242100D01*
X146463700Y-108496100D01*
X146443700Y-108496100D01*
X146443700Y-108516100D01*
X146189700Y-108516100D01*
X146189700Y-108496100D01*
X146169700Y-108496100D01*
X146169700Y-108242100D01*
X146189700Y-108242100D01*
X146189700Y-107048945D01*
X145959810Y-106927624D01*
X145812601Y-106972275D01*
X145549780Y-107097459D01*
X145316431Y-107271512D01*
X145121522Y-107487745D01*
X145051895Y-107604634D01*
X144930175Y-107422468D01*
X144723332Y-107215625D01*
X144480111Y-107053110D01*
X144209858Y-106941168D01*
X143922960Y-106884100D01*
X143630440Y-106884100D01*
X143343542Y-106941168D01*
X143073289Y-107053110D01*
X142830068Y-107215625D01*
X142623225Y-107422468D01*
X142506700Y-107596860D01*
X142390175Y-107422468D01*
X142183332Y-107215625D01*
X141940111Y-107053110D01*
X141669858Y-106941168D01*
X141382960Y-106884100D01*
X141090440Y-106884100D01*
X140803542Y-106941168D01*
X140533289Y-107053110D01*
X140290068Y-107215625D01*
X140158213Y-107347480D01*
X140136202Y-107274920D01*
X140077237Y-107164606D01*
X139997885Y-107067915D01*
X139901194Y-106988563D01*
X139790880Y-106929598D01*
X139671182Y-106893288D01*
X139546700Y-106881028D01*
X137846700Y-106881028D01*
X137722218Y-106893288D01*
X137602520Y-106929598D01*
X137492206Y-106988563D01*
X137395515Y-107067915D01*
X137316163Y-107164606D01*
X137257198Y-107274920D01*
X137220888Y-107394618D01*
X137208628Y-107519100D01*
X137208628Y-109219100D01*
X137220888Y-109343582D01*
X137257198Y-109463280D01*
X137316163Y-109573594D01*
X137395515Y-109670285D01*
X137492206Y-109749637D01*
X137602520Y-109808602D01*
X137722218Y-109844912D01*
X137846700Y-109857172D01*
X139546700Y-109857172D01*
X139671182Y-109844912D01*
X139790880Y-109808602D01*
X139901194Y-109749637D01*
X139997885Y-109670285D01*
X140077237Y-109573594D01*
X140136202Y-109463280D01*
X140158213Y-109390720D01*
X140290068Y-109522575D01*
X140533289Y-109685090D01*
X140803542Y-109797032D01*
X140825165Y-109801333D01*
X132553088Y-118073411D01*
X132332940Y-118029620D01*
X132040420Y-118029620D01*
X131753522Y-118086688D01*
X131483269Y-118198630D01*
X131240048Y-118361145D01*
X131033205Y-118567988D01*
X130916680Y-118742380D01*
X130800155Y-118567988D01*
X130593312Y-118361145D01*
X130406680Y-118236442D01*
X130406680Y-109948821D01*
X135108413Y-105247088D01*
X141463500Y-105247088D01*
X141463500Y-105519712D01*
X141516686Y-105787098D01*
X141621015Y-106038970D01*
X141772477Y-106265649D01*
X141965251Y-106458423D01*
X142191930Y-106609885D01*
X142443802Y-106714214D01*
X142711188Y-106767400D01*
X142983812Y-106767400D01*
X143251198Y-106714214D01*
X143503070Y-106609885D01*
X143729749Y-106458423D01*
X143922523Y-106265649D01*
X144073985Y-106038970D01*
X144178314Y-105787098D01*
X144231500Y-105519712D01*
X144231500Y-105247088D01*
X145963500Y-105247088D01*
X145963500Y-105519712D01*
X146016686Y-105787098D01*
X146121015Y-106038970D01*
X146272477Y-106265649D01*
X146465251Y-106458423D01*
X146691930Y-106609885D01*
X146943802Y-106714214D01*
X147211188Y-106767400D01*
X147483812Y-106767400D01*
X147751198Y-106714214D01*
X148003070Y-106609885D01*
X148229749Y-106458423D01*
X148422523Y-106265649D01*
X148573985Y-106038970D01*
X148678314Y-105787098D01*
X148731500Y-105519712D01*
X148731500Y-105247088D01*
X148678314Y-104979702D01*
X148573985Y-104727830D01*
X148422523Y-104501151D01*
X148229749Y-104308377D01*
X148003070Y-104156915D01*
X147751198Y-104052586D01*
X147483812Y-103999400D01*
X147211188Y-103999400D01*
X146943802Y-104052586D01*
X146691930Y-104156915D01*
X146465251Y-104308377D01*
X146272477Y-104501151D01*
X146121015Y-104727830D01*
X146016686Y-104979702D01*
X145963500Y-105247088D01*
X144231500Y-105247088D01*
X144178314Y-104979702D01*
X144073985Y-104727830D01*
X143922523Y-104501151D01*
X143729749Y-104308377D01*
X143503070Y-104156915D01*
X143251198Y-104052586D01*
X142983812Y-103999400D01*
X142711188Y-103999400D01*
X142443802Y-104052586D01*
X142191930Y-104156915D01*
X141965251Y-104308377D01*
X141772477Y-104501151D01*
X141621015Y-104727830D01*
X141516686Y-104979702D01*
X141463500Y-105247088D01*
X135108413Y-105247088D01*
X140515822Y-99839679D01*
X142070826Y-99839679D01*
X142136229Y-100078445D01*
X142383038Y-100194245D01*
X142647695Y-100259670D01*
X142920031Y-100272205D01*
X143189581Y-100231370D01*
X143445984Y-100138732D01*
X143558771Y-100078445D01*
X143624174Y-99839679D01*
X142847500Y-99063005D01*
X142070826Y-99839679D01*
X140515822Y-99839679D01*
X141461548Y-98893954D01*
X141458695Y-98955931D01*
X141499530Y-99225481D01*
X141592168Y-99481884D01*
X141652455Y-99594671D01*
X141891221Y-99660074D01*
X142667895Y-98883400D01*
X143027105Y-98883400D01*
X143803779Y-99660074D01*
X144042545Y-99594671D01*
X144158345Y-99347862D01*
X144223770Y-99083205D01*
X144236305Y-98810869D01*
X144195470Y-98541319D01*
X144102832Y-98284916D01*
X144042545Y-98172129D01*
X143803779Y-98106726D01*
X143027105Y-98883400D01*
X142667895Y-98883400D01*
X142653753Y-98869258D01*
X142833358Y-98689653D01*
X142847500Y-98703795D01*
X143624174Y-97927121D01*
X143558771Y-97688355D01*
X143311962Y-97572555D01*
X143047305Y-97507130D01*
X142857125Y-97498376D01*
X143575202Y-96780300D01*
X143637339Y-96780300D01*
X143837298Y-96740526D01*
X144025656Y-96662505D01*
X144195174Y-96549237D01*
X144339337Y-96405074D01*
X144452605Y-96235556D01*
X144530626Y-96047198D01*
X144570400Y-95847239D01*
X144570400Y-95643361D01*
X144530626Y-95443402D01*
X144452605Y-95255044D01*
X144339337Y-95085526D01*
X144195174Y-94941363D01*
X144025656Y-94828095D01*
X143974003Y-94806700D01*
X145125300Y-93655403D01*
X145125301Y-100596237D01*
X145121503Y-100634800D01*
X145136659Y-100788686D01*
X145181546Y-100936659D01*
X145181547Y-100936660D01*
X145254439Y-101073033D01*
X145294990Y-101122444D01*
X145327955Y-101162612D01*
X145327959Y-101162616D01*
X145352537Y-101192564D01*
X145382485Y-101217142D01*
X146424700Y-102259358D01*
X146424700Y-102286139D01*
X146464474Y-102486098D01*
X146542495Y-102674456D01*
X146655763Y-102843974D01*
X146799926Y-102988137D01*
X146969444Y-103101405D01*
X147157802Y-103179426D01*
X147357761Y-103219200D01*
X147561639Y-103219200D01*
X147761598Y-103179426D01*
X147949956Y-103101405D01*
X148119474Y-102988137D01*
X148263637Y-102843974D01*
X148376905Y-102674456D01*
X148454926Y-102486098D01*
X148494700Y-102286139D01*
X148494700Y-102082261D01*
X148454926Y-101882302D01*
X148376905Y-101693944D01*
X148263637Y-101524426D01*
X148119474Y-101380263D01*
X147949956Y-101266995D01*
X147761598Y-101188974D01*
X147561639Y-101149200D01*
X147534858Y-101149200D01*
X146695300Y-100309643D01*
X146695300Y-100270472D01*
X148096500Y-100270472D01*
X148220982Y-100258212D01*
X148340680Y-100221902D01*
X148450994Y-100162937D01*
X148547685Y-100083585D01*
X148627037Y-99986894D01*
X148686002Y-99876580D01*
X148722312Y-99756882D01*
X148734572Y-99632400D01*
X148734572Y-98134400D01*
X148722312Y-98009918D01*
X148686002Y-97890220D01*
X148627037Y-97779906D01*
X148547685Y-97683215D01*
X148450994Y-97603863D01*
X148340680Y-97544898D01*
X148220982Y-97508588D01*
X148096500Y-97496328D01*
X146695300Y-97496328D01*
X146695300Y-90594711D01*
X146714237Y-90575774D01*
X146827505Y-90406256D01*
X146877171Y-90286352D01*
X152777921Y-96187103D01*
%TA.AperFunction,Conductor*%
D34*
G36*
X152777921Y-96187103D02*
G01*
X152777920Y-107823169D01*
X152712690Y-107665689D01*
X152550175Y-107422468D01*
X152343332Y-107215625D01*
X152100111Y-107053110D01*
X151829858Y-106941168D01*
X151542960Y-106884100D01*
X151250440Y-106884100D01*
X150963542Y-106941168D01*
X150693289Y-107053110D01*
X150450068Y-107215625D01*
X150243225Y-107422468D01*
X150126700Y-107596860D01*
X150010175Y-107422468D01*
X149803332Y-107215625D01*
X149560111Y-107053110D01*
X149289858Y-106941168D01*
X149002960Y-106884100D01*
X148710440Y-106884100D01*
X148423542Y-106941168D01*
X148153289Y-107053110D01*
X147910068Y-107215625D01*
X147703225Y-107422468D01*
X147581505Y-107604634D01*
X147511878Y-107487745D01*
X147316969Y-107271512D01*
X147083620Y-107097459D01*
X146820799Y-106972275D01*
X146673590Y-106927624D01*
X146443700Y-107048945D01*
X146443700Y-108242100D01*
X146463700Y-108242100D01*
X146463700Y-108496100D01*
X146443700Y-108496100D01*
X146443700Y-108516100D01*
X146189700Y-108516100D01*
X146189700Y-108496100D01*
X146169700Y-108496100D01*
X146169700Y-108242100D01*
X146189700Y-108242100D01*
X146189700Y-107048945D01*
X145959810Y-106927624D01*
X145812601Y-106972275D01*
X145549780Y-107097459D01*
X145316431Y-107271512D01*
X145121522Y-107487745D01*
X145051895Y-107604634D01*
X144930175Y-107422468D01*
X144723332Y-107215625D01*
X144480111Y-107053110D01*
X144209858Y-106941168D01*
X143922960Y-106884100D01*
X143630440Y-106884100D01*
X143343542Y-106941168D01*
X143073289Y-107053110D01*
X142830068Y-107215625D01*
X142623225Y-107422468D01*
X142506700Y-107596860D01*
X142390175Y-107422468D01*
X142183332Y-107215625D01*
X141940111Y-107053110D01*
X141669858Y-106941168D01*
X141382960Y-106884100D01*
X141090440Y-106884100D01*
X140803542Y-106941168D01*
X140533289Y-107053110D01*
X140290068Y-107215625D01*
X140158213Y-107347480D01*
X140136202Y-107274920D01*
X140077237Y-107164606D01*
X139997885Y-107067915D01*
X139901194Y-106988563D01*
X139790880Y-106929598D01*
X139671182Y-106893288D01*
X139546700Y-106881028D01*
X137846700Y-106881028D01*
X137722218Y-106893288D01*
X137602520Y-106929598D01*
X137492206Y-106988563D01*
X137395515Y-107067915D01*
X137316163Y-107164606D01*
X137257198Y-107274920D01*
X137220888Y-107394618D01*
X137208628Y-107519100D01*
X137208628Y-109219100D01*
X137220888Y-109343582D01*
X137257198Y-109463280D01*
X137316163Y-109573594D01*
X137395515Y-109670285D01*
X137492206Y-109749637D01*
X137602520Y-109808602D01*
X137722218Y-109844912D01*
X137846700Y-109857172D01*
X139546700Y-109857172D01*
X139671182Y-109844912D01*
X139790880Y-109808602D01*
X139901194Y-109749637D01*
X139997885Y-109670285D01*
X140077237Y-109573594D01*
X140136202Y-109463280D01*
X140158213Y-109390720D01*
X140290068Y-109522575D01*
X140533289Y-109685090D01*
X140803542Y-109797032D01*
X140825165Y-109801333D01*
X132553088Y-118073411D01*
X132332940Y-118029620D01*
X132040420Y-118029620D01*
X131753522Y-118086688D01*
X131483269Y-118198630D01*
X131240048Y-118361145D01*
X131033205Y-118567988D01*
X130916680Y-118742380D01*
X130800155Y-118567988D01*
X130593312Y-118361145D01*
X130406680Y-118236442D01*
X130406680Y-109948821D01*
X135108413Y-105247088D01*
X141463500Y-105247088D01*
X141463500Y-105519712D01*
X141516686Y-105787098D01*
X141621015Y-106038970D01*
X141772477Y-106265649D01*
X141965251Y-106458423D01*
X142191930Y-106609885D01*
X142443802Y-106714214D01*
X142711188Y-106767400D01*
X142983812Y-106767400D01*
X143251198Y-106714214D01*
X143503070Y-106609885D01*
X143729749Y-106458423D01*
X143922523Y-106265649D01*
X144073985Y-106038970D01*
X144178314Y-105787098D01*
X144231500Y-105519712D01*
X144231500Y-105247088D01*
X145963500Y-105247088D01*
X145963500Y-105519712D01*
X146016686Y-105787098D01*
X146121015Y-106038970D01*
X146272477Y-106265649D01*
X146465251Y-106458423D01*
X146691930Y-106609885D01*
X146943802Y-106714214D01*
X147211188Y-106767400D01*
X147483812Y-106767400D01*
X147751198Y-106714214D01*
X148003070Y-106609885D01*
X148229749Y-106458423D01*
X148422523Y-106265649D01*
X148573985Y-106038970D01*
X148678314Y-105787098D01*
X148731500Y-105519712D01*
X148731500Y-105247088D01*
X148678314Y-104979702D01*
X148573985Y-104727830D01*
X148422523Y-104501151D01*
X148229749Y-104308377D01*
X148003070Y-104156915D01*
X147751198Y-104052586D01*
X147483812Y-103999400D01*
X147211188Y-103999400D01*
X146943802Y-104052586D01*
X146691930Y-104156915D01*
X146465251Y-104308377D01*
X146272477Y-104501151D01*
X146121015Y-104727830D01*
X146016686Y-104979702D01*
X145963500Y-105247088D01*
X144231500Y-105247088D01*
X144178314Y-104979702D01*
X144073985Y-104727830D01*
X143922523Y-104501151D01*
X143729749Y-104308377D01*
X143503070Y-104156915D01*
X143251198Y-104052586D01*
X142983812Y-103999400D01*
X142711188Y-103999400D01*
X142443802Y-104052586D01*
X142191930Y-104156915D01*
X141965251Y-104308377D01*
X141772477Y-104501151D01*
X141621015Y-104727830D01*
X141516686Y-104979702D01*
X141463500Y-105247088D01*
X135108413Y-105247088D01*
X140515822Y-99839679D01*
X142070826Y-99839679D01*
X142136229Y-100078445D01*
X142383038Y-100194245D01*
X142647695Y-100259670D01*
X142920031Y-100272205D01*
X143189581Y-100231370D01*
X143445984Y-100138732D01*
X143558771Y-100078445D01*
X143624174Y-99839679D01*
X142847500Y-99063005D01*
X142070826Y-99839679D01*
X140515822Y-99839679D01*
X141461548Y-98893954D01*
X141458695Y-98955931D01*
X141499530Y-99225481D01*
X141592168Y-99481884D01*
X141652455Y-99594671D01*
X141891221Y-99660074D01*
X142667895Y-98883400D01*
X143027105Y-98883400D01*
X143803779Y-99660074D01*
X144042545Y-99594671D01*
X144158345Y-99347862D01*
X144223770Y-99083205D01*
X144236305Y-98810869D01*
X144195470Y-98541319D01*
X144102832Y-98284916D01*
X144042545Y-98172129D01*
X143803779Y-98106726D01*
X143027105Y-98883400D01*
X142667895Y-98883400D01*
X142653753Y-98869258D01*
X142833358Y-98689653D01*
X142847500Y-98703795D01*
X143624174Y-97927121D01*
X143558771Y-97688355D01*
X143311962Y-97572555D01*
X143047305Y-97507130D01*
X142857125Y-97498376D01*
X143575202Y-96780300D01*
X143637339Y-96780300D01*
X143837298Y-96740526D01*
X144025656Y-96662505D01*
X144195174Y-96549237D01*
X144339337Y-96405074D01*
X144452605Y-96235556D01*
X144530626Y-96047198D01*
X144570400Y-95847239D01*
X144570400Y-95643361D01*
X144530626Y-95443402D01*
X144452605Y-95255044D01*
X144339337Y-95085526D01*
X144195174Y-94941363D01*
X144025656Y-94828095D01*
X143974003Y-94806700D01*
X145125300Y-93655403D01*
X145125301Y-100596237D01*
X145121503Y-100634800D01*
X145136659Y-100788686D01*
X145181546Y-100936659D01*
X145181547Y-100936660D01*
X145254439Y-101073033D01*
X145294990Y-101122444D01*
X145327955Y-101162612D01*
X145327959Y-101162616D01*
X145352537Y-101192564D01*
X145382485Y-101217142D01*
X146424700Y-102259358D01*
X146424700Y-102286139D01*
X146464474Y-102486098D01*
X146542495Y-102674456D01*
X146655763Y-102843974D01*
X146799926Y-102988137D01*
X146969444Y-103101405D01*
X147157802Y-103179426D01*
X147357761Y-103219200D01*
X147561639Y-103219200D01*
X147761598Y-103179426D01*
X147949956Y-103101405D01*
X148119474Y-102988137D01*
X148263637Y-102843974D01*
X148376905Y-102674456D01*
X148454926Y-102486098D01*
X148494700Y-102286139D01*
X148494700Y-102082261D01*
X148454926Y-101882302D01*
X148376905Y-101693944D01*
X148263637Y-101524426D01*
X148119474Y-101380263D01*
X147949956Y-101266995D01*
X147761598Y-101188974D01*
X147561639Y-101149200D01*
X147534858Y-101149200D01*
X146695300Y-100309643D01*
X146695300Y-100270472D01*
X148096500Y-100270472D01*
X148220982Y-100258212D01*
X148340680Y-100221902D01*
X148450994Y-100162937D01*
X148547685Y-100083585D01*
X148627037Y-99986894D01*
X148686002Y-99876580D01*
X148722312Y-99756882D01*
X148734572Y-99632400D01*
X148734572Y-98134400D01*
X148722312Y-98009918D01*
X148686002Y-97890220D01*
X148627037Y-97779906D01*
X148547685Y-97683215D01*
X148450994Y-97603863D01*
X148340680Y-97544898D01*
X148220982Y-97508588D01*
X148096500Y-97496328D01*
X146695300Y-97496328D01*
X146695300Y-90594711D01*
X146714237Y-90575774D01*
X146827505Y-90406256D01*
X146877171Y-90286352D01*
X152777921Y-96187103D01*
G37*
%TD.AperFunction*%
%TD*%
M02*
