%TF.GenerationSoftware,KiCad,Pcbnew,(5.1.10)-1*%
%TF.CreationDate,2021-07-26T21:59:56-03:00*%
%TF.ProjectId,PBLE01,50424c45-3031-42e6-9b69-6361645f7063,rev?*%
%TF.SameCoordinates,Original*%
%TF.FileFunction,Legend,Top*%
%TF.FilePolarity,Positive*%
%FSLAX46Y46*%
G04 Gerber Fmt 4.6, Leading zero omitted, Abs format (unit mm)*
G04 Created by KiCad (PCBNEW (5.1.10)-1) date 2021-07-26 21:59:56*
%MOMM*%
%LPD*%
G01*
G04 APERTURE LIST*
%ADD10C,0.500000*%
%ADD11C,0.120000*%
%ADD12C,0.127000*%
%ADD13C,0.254000*%
%ADD14C,0.100000*%
%ADD15C,0.200000*%
%ADD16C,0.400000*%
%ADD17C,0.152400*%
%ADD18C,0.150000*%
G04 APERTURE END LIST*
D10*
X183880000Y-53083604D02*
X183975238Y-52893128D01*
X183975238Y-52607414D01*
X183880000Y-52321700D01*
X183689523Y-52131223D01*
X183499047Y-52035985D01*
X183118095Y-51940747D01*
X182832380Y-51940747D01*
X182451428Y-52035985D01*
X182260952Y-52131223D01*
X182070476Y-52321700D01*
X181975238Y-52607414D01*
X181975238Y-52797890D01*
X182070476Y-53083604D01*
X182165714Y-53178842D01*
X182832380Y-53178842D01*
X182832380Y-52797890D01*
X181975238Y-55178842D02*
X182927619Y-54512176D01*
X181975238Y-54035985D02*
X183975238Y-54035985D01*
X183975238Y-54797890D01*
X183880000Y-54988366D01*
X183784761Y-55083604D01*
X183594285Y-55178842D01*
X183308571Y-55178842D01*
X183118095Y-55083604D01*
X183022857Y-54988366D01*
X182927619Y-54797890D01*
X182927619Y-54035985D01*
X183975238Y-56035985D02*
X182356190Y-56035985D01*
X182165714Y-56131223D01*
X182070476Y-56226461D01*
X181975238Y-56416938D01*
X181975238Y-56797890D01*
X182070476Y-56988366D01*
X182165714Y-57083604D01*
X182356190Y-57178842D01*
X183975238Y-57178842D01*
X181975238Y-58131223D02*
X183975238Y-58131223D01*
X183975238Y-58893128D01*
X183880000Y-59083604D01*
X183784761Y-59178842D01*
X183594285Y-59274080D01*
X183308571Y-59274080D01*
X183118095Y-59178842D01*
X183022857Y-59083604D01*
X182927619Y-58893128D01*
X182927619Y-58131223D01*
X183975238Y-60512176D02*
X183975238Y-60893128D01*
X183880000Y-61083604D01*
X183689523Y-61274080D01*
X183308571Y-61369319D01*
X182641904Y-61369319D01*
X182260952Y-61274080D01*
X182070476Y-61083604D01*
X181975238Y-60893128D01*
X181975238Y-60512176D01*
X182070476Y-60321700D01*
X182260952Y-60131223D01*
X182641904Y-60035985D01*
X183308571Y-60035985D01*
X183689523Y-60131223D01*
X183880000Y-60321700D01*
X183975238Y-60512176D01*
X183975238Y-64131223D02*
X183975238Y-64321700D01*
X183880000Y-64512176D01*
X183784761Y-64607414D01*
X183594285Y-64702652D01*
X183213333Y-64797890D01*
X182737142Y-64797890D01*
X182356190Y-64702652D01*
X182165714Y-64607414D01*
X182070476Y-64512176D01*
X181975238Y-64321700D01*
X181975238Y-64131223D01*
X182070476Y-63940747D01*
X182165714Y-63845509D01*
X182356190Y-63750271D01*
X182737142Y-63655033D01*
X183213333Y-63655033D01*
X183594285Y-63750271D01*
X183784761Y-63845509D01*
X183880000Y-63940747D01*
X183975238Y-64131223D01*
X183975238Y-66512176D02*
X183975238Y-66131223D01*
X183880000Y-65940747D01*
X183784761Y-65845509D01*
X183499047Y-65655033D01*
X183118095Y-65559795D01*
X182356190Y-65559795D01*
X182165714Y-65655033D01*
X182070476Y-65750271D01*
X181975238Y-65940747D01*
X181975238Y-66321700D01*
X182070476Y-66512176D01*
X182165714Y-66607414D01*
X182356190Y-66702652D01*
X182832380Y-66702652D01*
X183022857Y-66607414D01*
X183118095Y-66512176D01*
X183213333Y-66321700D01*
X183213333Y-65940747D01*
X183118095Y-65750271D01*
X183022857Y-65655033D01*
X182832380Y-65559795D01*
D11*
%TO.C,DS1*%
X194492440Y-166011100D02*
X72212440Y-166011100D01*
X194492440Y-121731100D02*
X194492440Y-166011100D01*
X72212440Y-121731100D02*
X72212440Y-166011100D01*
X72212440Y-121731100D02*
X194492440Y-121731100D01*
X143252440Y-121371100D02*
X147252440Y-121371100D01*
X76852440Y-148871100D02*
X76852440Y-151071100D01*
X76852440Y-151071100D02*
X74852440Y-151071100D01*
X74852440Y-151071100D02*
X74852440Y-148871100D01*
X76852440Y-138871100D02*
X76852440Y-136671100D01*
X76852440Y-136671100D02*
X74852440Y-136671100D01*
X74852440Y-136671100D02*
X74852440Y-138871100D01*
X80952440Y-148871100D02*
X73852440Y-148871100D01*
X73852440Y-148871100D02*
X73852440Y-138871100D01*
X73852440Y-138871100D02*
X80952440Y-138871100D01*
X181852440Y-158371100D02*
X84352440Y-158371100D01*
X182852440Y-134371100D02*
X182852440Y-157371100D01*
X84352440Y-133371100D02*
X181852440Y-133371100D01*
X83352440Y-157371100D02*
X83352440Y-134371100D01*
X185352440Y-163571100D02*
X80952440Y-163571100D01*
X80952440Y-163571100D02*
X80952440Y-128171100D01*
X80952440Y-128171100D02*
X185352440Y-128171100D01*
X185352440Y-128171100D02*
X185352440Y-163571100D01*
X181852440Y-158371100D02*
G75*
G03*
X182852440Y-157371100I0J1000000D01*
G01*
X182852440Y-134371100D02*
G75*
G03*
X181852440Y-133371100I-1000000J0D01*
G01*
X84352440Y-133371100D02*
G75*
G03*
X83352440Y-134371100I0J-1000000D01*
G01*
X83352440Y-157371100D02*
G75*
G03*
X84352440Y-158371100I1000000J0D01*
G01*
D12*
%TO.C,Y3*%
X117170000Y-72491600D02*
G75*
G03*
X117170000Y-72491600I-1600000J0D01*
G01*
D13*
X115711419Y-70091600D02*
G75*
G03*
X115711419Y-70091600I-141419J0D01*
G01*
D14*
%TO.C,J3*%
X154313300Y-49362600D02*
X154313300Y-41362600D01*
X154313300Y-41362600D02*
X142273300Y-41362600D01*
X142273300Y-41362600D02*
X142273300Y-49362600D01*
X154313300Y-54362600D02*
X154313300Y-57662600D01*
X154313300Y-57662600D02*
X142273300Y-57662600D01*
X142273300Y-57662600D02*
X142273300Y-53862600D01*
D15*
%TO.C,SW1*%
X147447500Y-97688400D02*
G75*
G03*
X147447500Y-97688400I-100000J0D01*
G01*
D12*
X146852500Y-102133400D02*
G75*
G03*
X146852500Y-102133400I-1755000J0D01*
G01*
X146247500Y-99138400D02*
X143947500Y-99138400D01*
X142102500Y-104433400D02*
X142102500Y-99833400D01*
X146247500Y-105133400D02*
X143947500Y-105133400D01*
X148092500Y-99933400D02*
X148092500Y-104433400D01*
D11*
%TO.C,RV1*%
X161018800Y-121109900D02*
X151248800Y-121109900D01*
X161018800Y-116039900D02*
X151248800Y-116039900D01*
X161018800Y-121109900D02*
X161018800Y-116039900D01*
X151248800Y-121109900D02*
X151248800Y-116039900D01*
%TO.C,C5*%
X159236080Y-62379048D02*
X159236080Y-62901552D01*
X157766080Y-62379048D02*
X157766080Y-62901552D01*
D12*
%TO.C,J2*%
X100574600Y-56824000D02*
X100574600Y-47824000D01*
X100574600Y-47824000D02*
X114974600Y-47824000D01*
X114974600Y-56824000D02*
X113824600Y-56824000D01*
X114974600Y-47824000D02*
X114974600Y-49674000D01*
X108724600Y-56824000D02*
X100574600Y-56824000D01*
X114974600Y-54874000D02*
X114974600Y-56824000D01*
D16*
X116474600Y-52324000D02*
G75*
G03*
X116474600Y-52324000I-200000J0D01*
G01*
D11*
%TO.C,Y2*%
X138823460Y-65594960D02*
X138823460Y-71994960D01*
X143873460Y-65594960D02*
X143873460Y-71994960D01*
X138823460Y-71994960D02*
G75*
G03*
X143873460Y-71994960I2525000J0D01*
G01*
X138823460Y-65594960D02*
G75*
G02*
X143873460Y-65594960I2525000J0D01*
G01*
D15*
%TO.C,SW2*%
X176139780Y-86187720D02*
G75*
G03*
X176139780Y-86187720I-100000J0D01*
G01*
D12*
X182239780Y-88437720D02*
G75*
G03*
X182239780Y-88437720I-1755000J0D01*
G01*
X177489780Y-87287720D02*
X177489780Y-89587720D01*
X182784780Y-91432720D02*
X178184780Y-91432720D01*
X183484780Y-87287720D02*
X183484780Y-89587720D01*
X178284780Y-85442720D02*
X182784780Y-85442720D01*
D11*
%TO.C,Y1*%
X157846000Y-83491800D02*
X157846000Y-89891800D01*
X152796000Y-83491800D02*
X152796000Y-89891800D01*
X152796000Y-83491800D02*
G75*
G02*
X157846000Y-83491800I2525000J0D01*
G01*
X152796000Y-89891800D02*
G75*
G03*
X157846000Y-89891800I2525000J0D01*
G01*
%TO.C,C1*%
X161715120Y-85648432D02*
X161715120Y-85125928D01*
X160245120Y-85648432D02*
X160245120Y-85125928D01*
%TO.C,C2*%
X161745600Y-89123888D02*
X161745600Y-89646392D01*
X160275600Y-89123888D02*
X160275600Y-89646392D01*
%TO.C,C3*%
X117806800Y-49861012D02*
X117806800Y-49338508D01*
X119276800Y-49861012D02*
X119276800Y-49338508D01*
D15*
%TO.C,C4*%
X113976340Y-61859060D02*
X117801340Y-61859060D01*
X117176340Y-60259060D02*
X113976340Y-60259060D01*
D11*
%TO.C,C6*%
X141578660Y-60063748D02*
X141578660Y-60586252D01*
X143048660Y-60063748D02*
X143048660Y-60586252D01*
%TO.C,C7*%
X137501300Y-66702572D02*
X137501300Y-66180068D01*
X136031300Y-66702572D02*
X136031300Y-66180068D01*
%TO.C,C8*%
X136000820Y-70761492D02*
X136000820Y-70238988D01*
X137470820Y-70761492D02*
X137470820Y-70238988D01*
%TO.C,C9*%
X111178708Y-69224220D02*
X111701212Y-69224220D01*
X111178708Y-70694220D02*
X111701212Y-70694220D01*
%TO.C,C10*%
X111736772Y-74417860D02*
X111214268Y-74417860D01*
X111736772Y-72947860D02*
X111214268Y-72947860D01*
%TO.C,C11*%
X131882248Y-99287000D02*
X132404752Y-99287000D01*
X131882248Y-97817000D02*
X132404752Y-97817000D01*
%TO.C,C12*%
X132047348Y-91657500D02*
X132569852Y-91657500D01*
X132047348Y-93127500D02*
X132569852Y-93127500D01*
%TO.C,C13*%
X132423840Y-60438932D02*
X132423840Y-59916428D01*
X130953840Y-60438932D02*
X130953840Y-59916428D01*
D17*
%TO.C,D2*%
X117543580Y-53840775D02*
X117543580Y-55841505D01*
X119499380Y-55841505D02*
X119499380Y-53840775D01*
X118597680Y-51951140D02*
G75*
G03*
X118597680Y-51951140I-76200J0D01*
G01*
%TO.C,D3*%
X178513345Y-50129440D02*
X176512615Y-50129440D01*
X176512615Y-52085240D02*
X178513345Y-52085240D01*
X180479180Y-51107340D02*
G75*
G03*
X180479180Y-51107340I-76200J0D01*
G01*
%TO.C,D4*%
X180486800Y-54648100D02*
G75*
G03*
X180486800Y-54648100I-76200J0D01*
G01*
X176520235Y-55626000D02*
X178520965Y-55626000D01*
X178520965Y-53670200D02*
X176520235Y-53670200D01*
%TO.C,D5*%
X178513345Y-61295280D02*
X176512615Y-61295280D01*
X176512615Y-63251080D02*
X178513345Y-63251080D01*
X180479180Y-62273180D02*
G75*
G03*
X180479180Y-62273180I-76200J0D01*
G01*
%TO.C,D6*%
X180466480Y-58257440D02*
G75*
G03*
X180466480Y-58257440I-76200J0D01*
G01*
X176499915Y-59235340D02*
X178500645Y-59235340D01*
X178500645Y-57279540D02*
X176499915Y-57279540D01*
D11*
%TO.C,J1*%
X152726700Y-109699100D02*
X152726700Y-107039100D01*
X139966700Y-109699100D02*
X152726700Y-109699100D01*
X139966700Y-107039100D02*
X152726700Y-107039100D01*
X139966700Y-109699100D02*
X139966700Y-107039100D01*
X138696700Y-109699100D02*
X137366700Y-109699100D01*
X137366700Y-109699100D02*
X137366700Y-108369100D01*
%TO.C,J6*%
X109648300Y-113185900D02*
X106988300Y-113185900D01*
X109648300Y-118325900D02*
X109648300Y-113185900D01*
X106988300Y-118325900D02*
X106988300Y-113185900D01*
X109648300Y-118325900D02*
X106988300Y-118325900D01*
X109648300Y-119595900D02*
X109648300Y-120925900D01*
X109648300Y-120925900D02*
X108318300Y-120925900D01*
%TO.C,J7*%
X115676680Y-120844620D02*
X115676680Y-118184620D01*
X115676680Y-120844620D02*
X148756680Y-120844620D01*
X148756680Y-120844620D02*
X148756680Y-118184620D01*
X115676680Y-118184620D02*
X148756680Y-118184620D01*
X113076680Y-118184620D02*
X114406680Y-118184620D01*
X113076680Y-119514620D02*
X113076680Y-118184620D01*
%TO.C,R1*%
X150760100Y-103554264D02*
X150760100Y-103100136D01*
X149290100Y-103554264D02*
X149290100Y-103100136D01*
%TO.C,R2*%
X120755740Y-59312544D02*
X120755740Y-58858416D01*
X122225740Y-59312544D02*
X122225740Y-58858416D01*
%TO.C,R4*%
X134255460Y-59969296D02*
X134255460Y-60423424D01*
X135725460Y-59969296D02*
X135725460Y-60423424D01*
%TO.C,R5*%
X131030040Y-73046856D02*
X131030040Y-73500984D01*
X132500040Y-73046856D02*
X132500040Y-73500984D01*
%TO.C,R6*%
X128669720Y-73013076D02*
X128669720Y-73467204D01*
X127199720Y-73013076D02*
X127199720Y-73467204D01*
%TO.C,R7*%
X119683796Y-80877080D02*
X120137924Y-80877080D01*
X119683796Y-79407080D02*
X120137924Y-79407080D01*
%TO.C,R8*%
X119721896Y-89653440D02*
X120176024Y-89653440D01*
X119721896Y-91123440D02*
X120176024Y-91123440D01*
%TO.C,R9*%
X119737136Y-82711620D02*
X120191264Y-82711620D01*
X119737136Y-84181620D02*
X120191264Y-84181620D01*
%TO.C,R10*%
X119676176Y-87763020D02*
X120130304Y-87763020D01*
X119676176Y-86293020D02*
X120130304Y-86293020D01*
%TO.C,R11*%
X119523776Y-101047220D02*
X119977904Y-101047220D01*
X119523776Y-99577220D02*
X119977904Y-99577220D01*
%TO.C,R12*%
X119455196Y-96232040D02*
X119909324Y-96232040D01*
X119455196Y-97702040D02*
X119909324Y-97702040D01*
%TO.C,R13*%
X119620296Y-103095120D02*
X120074424Y-103095120D01*
X119620296Y-104565120D02*
X120074424Y-104565120D01*
%TO.C,R14*%
X119607596Y-108009360D02*
X120061724Y-108009360D01*
X119607596Y-106539360D02*
X120061724Y-106539360D01*
%TO.C,R15*%
X132370564Y-102373100D02*
X131916436Y-102373100D01*
X132370564Y-100903100D02*
X131916436Y-100903100D01*
%TO.C,R16*%
X132484864Y-94705500D02*
X132030736Y-94705500D01*
X132484864Y-96175500D02*
X132030736Y-96175500D01*
%TO.C,R17*%
X171987476Y-50377420D02*
X172441604Y-50377420D01*
X171987476Y-51847420D02*
X172441604Y-51847420D01*
%TO.C,R18*%
X172012876Y-53679420D02*
X172467004Y-53679420D01*
X172012876Y-55149420D02*
X172467004Y-55149420D01*
%TO.C,R19*%
X172033196Y-61505160D02*
X172487324Y-61505160D01*
X172033196Y-62975160D02*
X172487324Y-62975160D01*
%TO.C,R20*%
X172061136Y-58997520D02*
X172515264Y-58997520D01*
X172061136Y-57527520D02*
X172515264Y-57527520D01*
%TO.C,R21*%
X139368200Y-59970936D02*
X139368200Y-60425064D01*
X137898200Y-59970936D02*
X137898200Y-60425064D01*
D14*
%TO.C,RV2*%
X182547200Y-95270440D02*
X182547200Y-112270440D01*
X182547200Y-112270440D02*
X173047200Y-112270440D01*
X173047200Y-112270440D02*
X173047200Y-95270440D01*
X173047200Y-95270440D02*
X182547200Y-95270440D01*
D12*
%TO.C,SW3*%
X177924100Y-69021620D02*
X182424100Y-69021620D01*
X183124100Y-70866620D02*
X183124100Y-73166620D01*
X182424100Y-75011620D02*
X177824100Y-75011620D01*
X177129100Y-70866620D02*
X177129100Y-73166620D01*
X181879100Y-72016620D02*
G75*
G03*
X181879100Y-72016620I-1755000J0D01*
G01*
D15*
X175779100Y-69766620D02*
G75*
G03*
X175779100Y-69766620I-100000J0D01*
G01*
D12*
%TO.C,SW4*%
X177924100Y-77152160D02*
X182424100Y-77152160D01*
X183124100Y-78997160D02*
X183124100Y-81297160D01*
X182424100Y-83142160D02*
X177824100Y-83142160D01*
X177129100Y-78997160D02*
X177129100Y-81297160D01*
X181879100Y-80147160D02*
G75*
G03*
X181879100Y-80147160I-1755000J0D01*
G01*
D15*
X175779100Y-77897160D02*
G75*
G03*
X175779100Y-77897160I-100000J0D01*
G01*
D12*
%TO.C,SW5*%
X168216220Y-73166900D02*
X172716220Y-73166900D01*
X173416220Y-75011900D02*
X173416220Y-77311900D01*
X172716220Y-79156900D02*
X168116220Y-79156900D01*
X167421220Y-75011900D02*
X167421220Y-77311900D01*
X172171220Y-76161900D02*
G75*
G03*
X172171220Y-76161900I-1755000J0D01*
G01*
D15*
X166071220Y-73911900D02*
G75*
G03*
X166071220Y-73911900I-100000J0D01*
G01*
%TO.C,SW6*%
X174961220Y-86646580D02*
G75*
G03*
X174961220Y-86646580I-100000J0D01*
G01*
D12*
X172171220Y-84396580D02*
G75*
G03*
X172171220Y-84396580I-1755000J0D01*
G01*
X173411220Y-85546580D02*
X173411220Y-83246580D01*
X168116220Y-81401580D02*
X172716220Y-81401580D01*
X167416220Y-85546580D02*
X167416220Y-83246580D01*
X172616220Y-87391580D02*
X168116220Y-87391580D01*
D18*
%TO.C,U1*%
X140392400Y-82912200D02*
X140392400Y-83487200D01*
X150742400Y-82912200D02*
X150742400Y-83587200D01*
X150742400Y-93262200D02*
X150742400Y-92587200D01*
X140392400Y-93262200D02*
X140392400Y-92587200D01*
X140392400Y-82912200D02*
X141067400Y-82912200D01*
X140392400Y-93262200D02*
X141067400Y-93262200D01*
X150742400Y-93262200D02*
X150067400Y-93262200D01*
X150742400Y-82912200D02*
X150067400Y-82912200D01*
X140392400Y-83487200D02*
X139117400Y-83487200D01*
D11*
%TO.C,U2*%
X150980140Y-72920840D02*
X154840140Y-72920840D01*
X154840140Y-72920840D02*
X154840140Y-72685840D01*
X150980140Y-72920840D02*
X147120140Y-72920840D01*
X147120140Y-72920840D02*
X147120140Y-72685840D01*
X150980140Y-59900840D02*
X154840140Y-59900840D01*
X154840140Y-59900840D02*
X154840140Y-60135840D01*
X150980140Y-59900840D02*
X147120140Y-59900840D01*
X147120140Y-59900840D02*
X147120140Y-60135840D01*
X147120140Y-60135840D02*
X145305140Y-60135840D01*
D15*
%TO.C,U4*%
X124180800Y-91890200D02*
X127380800Y-91890200D01*
X127380800Y-91890200D02*
X127380800Y-100540200D01*
X127380800Y-100540200D02*
X124180800Y-100540200D01*
X124180800Y-100540200D02*
X124180800Y-91890200D01*
X122280800Y-91730200D02*
X123830800Y-91730200D01*
D11*
%TO.C,U5*%
X122962620Y-55483680D02*
X124222620Y-55483680D01*
X129782620Y-55483680D02*
X128522620Y-55483680D01*
X122962620Y-51723680D02*
X122962620Y-55483680D01*
X129782620Y-49473680D02*
X129782620Y-55483680D01*
D15*
%TO.C,U3*%
X120548600Y-71337000D02*
X123748600Y-71337000D01*
X123748600Y-71337000D02*
X123748600Y-76237000D01*
X123748600Y-76237000D02*
X120548600Y-76237000D01*
X120548600Y-76237000D02*
X120548600Y-71337000D01*
X118698600Y-71207000D02*
X120198600Y-71207000D01*
D11*
%TO.C,C14*%
X161798940Y-93728172D02*
X161798940Y-93205668D01*
X160328940Y-93728172D02*
X160328940Y-93205668D01*
%TO.C,C15*%
X122366672Y-68919420D02*
X121844168Y-68919420D01*
X122366672Y-70389420D02*
X121844168Y-70389420D01*
%TO.C,C16*%
X125671948Y-101365380D02*
X126194452Y-101365380D01*
X125671948Y-102835380D02*
X126194452Y-102835380D01*
%TO.C,J4*%
X117591620Y-90018520D02*
X117591620Y-88018520D01*
X115351620Y-90018520D02*
X117591620Y-90018520D01*
X114374620Y-83518520D02*
X114424620Y-83568520D01*
X111941620Y-81085520D02*
X111965620Y-81110520D01*
X114616620Y-83326520D02*
X114641620Y-83350520D01*
X112158620Y-80868520D02*
X112208620Y-80917520D01*
X106731620Y-79658520D02*
X117351620Y-79658520D01*
X106731620Y-89778520D02*
X117351620Y-89778520D01*
X117351620Y-89778520D02*
X117351620Y-79658520D01*
X106731620Y-89778520D02*
X106731620Y-79658520D01*
X110291620Y-89778520D02*
X110291620Y-79658520D01*
X111291620Y-89778520D02*
X111291620Y-79658520D01*
X115291620Y-89778520D02*
X115291620Y-79658520D01*
X115071620Y-82218520D02*
G75*
G03*
X115071620Y-82218520I-1780000J0D01*
G01*
X114930119Y-86523019D02*
G75*
G02*
X115071620Y-87218520I-1638499J-695501D01*
G01*
X112596104Y-85579315D02*
G75*
G02*
X113987620Y-85579520I695516J-1639205D01*
G01*
X111652415Y-87914036D02*
G75*
G02*
X111652620Y-86522520I1639205J695516D01*
G01*
X113987136Y-88857725D02*
G75*
G02*
X112595620Y-88857520I-695516J1639205D01*
G01*
X115072009Y-87187706D02*
G75*
G02*
X114930620Y-87914520I-1780389J-30814D01*
G01*
%TO.C,J5*%
X114975489Y-103362426D02*
G75*
G02*
X114834100Y-104089240I-1780389J-30814D01*
G01*
X113890616Y-105032445D02*
G75*
G02*
X112499100Y-105032240I-695516J1639205D01*
G01*
X111555895Y-104088756D02*
G75*
G02*
X111556100Y-102697240I1639205J695516D01*
G01*
X112499584Y-101754035D02*
G75*
G02*
X113891100Y-101754240I695516J-1639205D01*
G01*
X114833599Y-102697739D02*
G75*
G02*
X114975100Y-103393240I-1638499J-695501D01*
G01*
X114975100Y-98393240D02*
G75*
G03*
X114975100Y-98393240I-1780000J0D01*
G01*
X115195100Y-105953240D02*
X115195100Y-95833240D01*
X111195100Y-105953240D02*
X111195100Y-95833240D01*
X110195100Y-105953240D02*
X110195100Y-95833240D01*
X106635100Y-105953240D02*
X106635100Y-95833240D01*
X117255100Y-105953240D02*
X117255100Y-95833240D01*
X106635100Y-105953240D02*
X117255100Y-105953240D01*
X106635100Y-95833240D02*
X117255100Y-95833240D01*
X112062100Y-97043240D02*
X112112100Y-97092240D01*
X114520100Y-99501240D02*
X114545100Y-99525240D01*
X111845100Y-97260240D02*
X111869100Y-97285240D01*
X114278100Y-99693240D02*
X114328100Y-99743240D01*
X115255100Y-106193240D02*
X117495100Y-106193240D01*
X117495100Y-106193240D02*
X117495100Y-104193240D01*
%TO.C,DS1*%
D18*
X182097514Y-121013480D02*
X182097514Y-120013480D01*
X182335609Y-120013480D01*
X182478466Y-120061100D01*
X182573704Y-120156338D01*
X182621323Y-120251576D01*
X182668942Y-120442052D01*
X182668942Y-120584909D01*
X182621323Y-120775385D01*
X182573704Y-120870623D01*
X182478466Y-120965861D01*
X182335609Y-121013480D01*
X182097514Y-121013480D01*
X183049895Y-120965861D02*
X183192752Y-121013480D01*
X183430847Y-121013480D01*
X183526085Y-120965861D01*
X183573704Y-120918242D01*
X183621323Y-120823004D01*
X183621323Y-120727766D01*
X183573704Y-120632528D01*
X183526085Y-120584909D01*
X183430847Y-120537290D01*
X183240371Y-120489671D01*
X183145133Y-120442052D01*
X183097514Y-120394433D01*
X183049895Y-120299195D01*
X183049895Y-120203957D01*
X183097514Y-120108719D01*
X183145133Y-120061100D01*
X183240371Y-120013480D01*
X183478466Y-120013480D01*
X183621323Y-120061100D01*
X184573704Y-121013480D02*
X184002276Y-121013480D01*
X184287990Y-121013480D02*
X184287990Y-120013480D01*
X184192752Y-120156338D01*
X184097514Y-120251576D01*
X184002276Y-120299195D01*
%TO.C,Y3*%
X115068409Y-74931590D02*
X115068409Y-75407780D01*
X114735076Y-74407780D02*
X115068409Y-74931590D01*
X115401742Y-74407780D01*
X115639838Y-74407780D02*
X116258885Y-74407780D01*
X115925552Y-74788733D01*
X116068409Y-74788733D01*
X116163647Y-74836352D01*
X116211266Y-74883971D01*
X116258885Y-74979209D01*
X116258885Y-75217304D01*
X116211266Y-75312542D01*
X116163647Y-75360161D01*
X116068409Y-75407780D01*
X115782695Y-75407780D01*
X115687457Y-75360161D01*
X115639838Y-75312542D01*
%TO.C,J3*%
D13*
X154904923Y-56824033D02*
X155812066Y-56824033D01*
X155993495Y-56884509D01*
X156114447Y-57005461D01*
X156174923Y-57186890D01*
X156174923Y-57307842D01*
X154904923Y-56340223D02*
X154904923Y-55554033D01*
X155388733Y-55977366D01*
X155388733Y-55795938D01*
X155449209Y-55674985D01*
X155509685Y-55614509D01*
X155630638Y-55554033D01*
X155933019Y-55554033D01*
X156053971Y-55614509D01*
X156114447Y-55674985D01*
X156174923Y-55795938D01*
X156174923Y-56158795D01*
X156114447Y-56279747D01*
X156053971Y-56340223D01*
%TO.C,SW1*%
D18*
X141491601Y-105625733D02*
X141539220Y-105482876D01*
X141539220Y-105244780D01*
X141491601Y-105149542D01*
X141443982Y-105101923D01*
X141348744Y-105054304D01*
X141253506Y-105054304D01*
X141158268Y-105101923D01*
X141110649Y-105149542D01*
X141063030Y-105244780D01*
X141015411Y-105435257D01*
X140967792Y-105530495D01*
X140920173Y-105578114D01*
X140824935Y-105625733D01*
X140729697Y-105625733D01*
X140634459Y-105578114D01*
X140586840Y-105530495D01*
X140539220Y-105435257D01*
X140539220Y-105197161D01*
X140586840Y-105054304D01*
X140539220Y-104720971D02*
X141539220Y-104482876D01*
X140824935Y-104292400D01*
X141539220Y-104101923D01*
X140539220Y-103863828D01*
X141539220Y-102959066D02*
X141539220Y-103530495D01*
X141539220Y-103244780D02*
X140539220Y-103244780D01*
X140682078Y-103340019D01*
X140777316Y-103435257D01*
X140824935Y-103530495D01*
%TO.C,RV1*%
X155398861Y-115491520D02*
X155065528Y-115015330D01*
X154827433Y-115491520D02*
X154827433Y-114491520D01*
X155208385Y-114491520D01*
X155303623Y-114539140D01*
X155351242Y-114586759D01*
X155398861Y-114681997D01*
X155398861Y-114824854D01*
X155351242Y-114920092D01*
X155303623Y-114967711D01*
X155208385Y-115015330D01*
X154827433Y-115015330D01*
X155684576Y-114491520D02*
X156017909Y-115491520D01*
X156351242Y-114491520D01*
X157208385Y-115491520D02*
X156636957Y-115491520D01*
X156922671Y-115491520D02*
X156922671Y-114491520D01*
X156827433Y-114634378D01*
X156732195Y-114729616D01*
X156636957Y-114777235D01*
%TO.C,C5*%
X160538222Y-62806966D02*
X160585841Y-62854585D01*
X160633460Y-62997442D01*
X160633460Y-63092680D01*
X160585841Y-63235538D01*
X160490603Y-63330776D01*
X160395365Y-63378395D01*
X160204889Y-63426014D01*
X160062032Y-63426014D01*
X159871556Y-63378395D01*
X159776318Y-63330776D01*
X159681080Y-63235538D01*
X159633460Y-63092680D01*
X159633460Y-62997442D01*
X159681080Y-62854585D01*
X159728699Y-62806966D01*
X159633460Y-61902204D02*
X159633460Y-62378395D01*
X160109651Y-62426014D01*
X160062032Y-62378395D01*
X160014413Y-62283157D01*
X160014413Y-62045061D01*
X160062032Y-61949823D01*
X160109651Y-61902204D01*
X160204889Y-61854585D01*
X160442984Y-61854585D01*
X160538222Y-61902204D01*
X160585841Y-61949823D01*
X160633460Y-62045061D01*
X160633460Y-62283157D01*
X160585841Y-62378395D01*
X160538222Y-62426014D01*
%TO.C,J2*%
X110880291Y-59103828D02*
X110880291Y-59818704D01*
X110832632Y-59961679D01*
X110737315Y-60056996D01*
X110594340Y-60104655D01*
X110499023Y-60104655D01*
X111309216Y-59199144D02*
X111356875Y-59151486D01*
X111452192Y-59103828D01*
X111690484Y-59103828D01*
X111785801Y-59151486D01*
X111833459Y-59199144D01*
X111881118Y-59294461D01*
X111881118Y-59389778D01*
X111833459Y-59532753D01*
X111261558Y-60104655D01*
X111881118Y-60104655D01*
%TO.C,Y2*%
X141001809Y-75376090D02*
X141001809Y-75852280D01*
X140668476Y-74852280D02*
X141001809Y-75376090D01*
X141335142Y-74852280D01*
X141620857Y-74947519D02*
X141668476Y-74899900D01*
X141763714Y-74852280D01*
X142001809Y-74852280D01*
X142097047Y-74899900D01*
X142144666Y-74947519D01*
X142192285Y-75042757D01*
X142192285Y-75137995D01*
X142144666Y-75280852D01*
X141573238Y-75852280D01*
X142192285Y-75852280D01*
%TO.C,SW2*%
X176788746Y-84998083D02*
X176931603Y-85045702D01*
X177169699Y-85045702D01*
X177264937Y-84998083D01*
X177312556Y-84950464D01*
X177360175Y-84855226D01*
X177360175Y-84759988D01*
X177312556Y-84664750D01*
X177264937Y-84617131D01*
X177169699Y-84569512D01*
X176979222Y-84521893D01*
X176883984Y-84474274D01*
X176836365Y-84426655D01*
X176788746Y-84331417D01*
X176788746Y-84236179D01*
X176836365Y-84140941D01*
X176883984Y-84093322D01*
X176979222Y-84045702D01*
X177217318Y-84045702D01*
X177360175Y-84093322D01*
X177693508Y-84045702D02*
X177931603Y-85045702D01*
X178122080Y-84331417D01*
X178312556Y-85045702D01*
X178550651Y-84045702D01*
X178883984Y-84140941D02*
X178931603Y-84093322D01*
X179026841Y-84045702D01*
X179264937Y-84045702D01*
X179360175Y-84093322D01*
X179407794Y-84140941D01*
X179455413Y-84236179D01*
X179455413Y-84331417D01*
X179407794Y-84474274D01*
X178836365Y-85045702D01*
X179455413Y-85045702D01*
%TO.C,Y1*%
X158822190Y-87167990D02*
X159298380Y-87167990D01*
X158298380Y-87501323D02*
X158822190Y-87167990D01*
X158298380Y-86834657D01*
X159298380Y-85977514D02*
X159298380Y-86548942D01*
X159298380Y-86263228D02*
X158298380Y-86263228D01*
X158441238Y-86358466D01*
X158536476Y-86453704D01*
X158584095Y-86548942D01*
%TO.C,C1*%
X163041602Y-85424306D02*
X163089221Y-85471925D01*
X163136840Y-85614782D01*
X163136840Y-85710020D01*
X163089221Y-85852878D01*
X162993983Y-85948116D01*
X162898745Y-85995735D01*
X162708269Y-86043354D01*
X162565412Y-86043354D01*
X162374936Y-85995735D01*
X162279698Y-85948116D01*
X162184460Y-85852878D01*
X162136840Y-85710020D01*
X162136840Y-85614782D01*
X162184460Y-85471925D01*
X162232079Y-85424306D01*
X163136840Y-84471925D02*
X163136840Y-85043354D01*
X163136840Y-84757640D02*
X162136840Y-84757640D01*
X162279698Y-84852878D01*
X162374936Y-84948116D01*
X162422555Y-85043354D01*
%TO.C,C2*%
X163153362Y-89577206D02*
X163200981Y-89624825D01*
X163248600Y-89767682D01*
X163248600Y-89862920D01*
X163200981Y-90005778D01*
X163105743Y-90101016D01*
X163010505Y-90148635D01*
X162820029Y-90196254D01*
X162677172Y-90196254D01*
X162486696Y-90148635D01*
X162391458Y-90101016D01*
X162296220Y-90005778D01*
X162248600Y-89862920D01*
X162248600Y-89767682D01*
X162296220Y-89624825D01*
X162343839Y-89577206D01*
X162343839Y-89196254D02*
X162296220Y-89148635D01*
X162248600Y-89053397D01*
X162248600Y-88815301D01*
X162296220Y-88720063D01*
X162343839Y-88672444D01*
X162439077Y-88624825D01*
X162534315Y-88624825D01*
X162677172Y-88672444D01*
X163248600Y-89243873D01*
X163248600Y-88624825D01*
%TO.C,C3*%
X120740442Y-49925266D02*
X120788061Y-49972885D01*
X120835680Y-50115742D01*
X120835680Y-50210980D01*
X120788061Y-50353838D01*
X120692823Y-50449076D01*
X120597585Y-50496695D01*
X120407109Y-50544314D01*
X120264252Y-50544314D01*
X120073776Y-50496695D01*
X119978538Y-50449076D01*
X119883300Y-50353838D01*
X119835680Y-50210980D01*
X119835680Y-50115742D01*
X119883300Y-49972885D01*
X119930919Y-49925266D01*
X119835680Y-49591933D02*
X119835680Y-48972885D01*
X120216633Y-49306219D01*
X120216633Y-49163361D01*
X120264252Y-49068123D01*
X120311871Y-49020504D01*
X120407109Y-48972885D01*
X120645204Y-48972885D01*
X120740442Y-49020504D01*
X120788061Y-49068123D01*
X120835680Y-49163361D01*
X120835680Y-49449076D01*
X120788061Y-49544314D01*
X120740442Y-49591933D01*
%TO.C,C4*%
D13*
X115415473Y-63493831D02*
X115354997Y-63554307D01*
X115173568Y-63614783D01*
X115052616Y-63614783D01*
X114871187Y-63554307D01*
X114750235Y-63433355D01*
X114689759Y-63312402D01*
X114629282Y-63070498D01*
X114629282Y-62889069D01*
X114689759Y-62647164D01*
X114750235Y-62526212D01*
X114871187Y-62405260D01*
X115052616Y-62344783D01*
X115173568Y-62344783D01*
X115354997Y-62405260D01*
X115415473Y-62465736D01*
X116504044Y-62768117D02*
X116504044Y-63614783D01*
X116201663Y-62284307D02*
X115899282Y-63191450D01*
X116685473Y-63191450D01*
%TO.C,C6*%
D18*
X140994402Y-60517066D02*
X141042021Y-60564685D01*
X141089640Y-60707542D01*
X141089640Y-60802780D01*
X141042021Y-60945638D01*
X140946783Y-61040876D01*
X140851545Y-61088495D01*
X140661069Y-61136114D01*
X140518212Y-61136114D01*
X140327736Y-61088495D01*
X140232498Y-61040876D01*
X140137260Y-60945638D01*
X140089640Y-60802780D01*
X140089640Y-60707542D01*
X140137260Y-60564685D01*
X140184879Y-60517066D01*
X140089640Y-59659923D02*
X140089640Y-59850400D01*
X140137260Y-59945638D01*
X140184879Y-59993257D01*
X140327736Y-60088495D01*
X140518212Y-60136114D01*
X140899164Y-60136114D01*
X140994402Y-60088495D01*
X141042021Y-60040876D01*
X141089640Y-59945638D01*
X141089640Y-59755161D01*
X141042021Y-59659923D01*
X140994402Y-59612304D01*
X140899164Y-59564685D01*
X140661069Y-59564685D01*
X140565831Y-59612304D01*
X140518212Y-59659923D01*
X140470593Y-59755161D01*
X140470593Y-59945638D01*
X140518212Y-60040876D01*
X140565831Y-60088495D01*
X140661069Y-60136114D01*
%TO.C,C7*%
X135443442Y-66607986D02*
X135491061Y-66655605D01*
X135538680Y-66798462D01*
X135538680Y-66893700D01*
X135491061Y-67036558D01*
X135395823Y-67131796D01*
X135300585Y-67179415D01*
X135110109Y-67227034D01*
X134967252Y-67227034D01*
X134776776Y-67179415D01*
X134681538Y-67131796D01*
X134586300Y-67036558D01*
X134538680Y-66893700D01*
X134538680Y-66798462D01*
X134586300Y-66655605D01*
X134633919Y-66607986D01*
X134538680Y-66274653D02*
X134538680Y-65607986D01*
X135538680Y-66036558D01*
%TO.C,C8*%
X135412962Y-70666906D02*
X135460581Y-70714525D01*
X135508200Y-70857382D01*
X135508200Y-70952620D01*
X135460581Y-71095478D01*
X135365343Y-71190716D01*
X135270105Y-71238335D01*
X135079629Y-71285954D01*
X134936772Y-71285954D01*
X134746296Y-71238335D01*
X134651058Y-71190716D01*
X134555820Y-71095478D01*
X134508200Y-70952620D01*
X134508200Y-70857382D01*
X134555820Y-70714525D01*
X134603439Y-70666906D01*
X134936772Y-70095478D02*
X134889153Y-70190716D01*
X134841534Y-70238335D01*
X134746296Y-70285954D01*
X134698677Y-70285954D01*
X134603439Y-70238335D01*
X134555820Y-70190716D01*
X134508200Y-70095478D01*
X134508200Y-69905001D01*
X134555820Y-69809763D01*
X134603439Y-69762144D01*
X134698677Y-69714525D01*
X134746296Y-69714525D01*
X134841534Y-69762144D01*
X134889153Y-69809763D01*
X134936772Y-69905001D01*
X134936772Y-70095478D01*
X134984391Y-70190716D01*
X135032010Y-70238335D01*
X135127248Y-70285954D01*
X135317724Y-70285954D01*
X135412962Y-70238335D01*
X135460581Y-70190716D01*
X135508200Y-70095478D01*
X135508200Y-69905001D01*
X135460581Y-69809763D01*
X135412962Y-69762144D01*
X135317724Y-69714525D01*
X135127248Y-69714525D01*
X135032010Y-69762144D01*
X134984391Y-69809763D01*
X134936772Y-69905001D01*
%TO.C,C9*%
X111308853Y-68751722D02*
X111261234Y-68799341D01*
X111118377Y-68846960D01*
X111023139Y-68846960D01*
X110880281Y-68799341D01*
X110785043Y-68704103D01*
X110737424Y-68608865D01*
X110689805Y-68418389D01*
X110689805Y-68275532D01*
X110737424Y-68085056D01*
X110785043Y-67989818D01*
X110880281Y-67894580D01*
X111023139Y-67846960D01*
X111118377Y-67846960D01*
X111261234Y-67894580D01*
X111308853Y-67942199D01*
X111785043Y-68846960D02*
X111975520Y-68846960D01*
X112070758Y-68799341D01*
X112118377Y-68751722D01*
X112213615Y-68608865D01*
X112261234Y-68418389D01*
X112261234Y-68037437D01*
X112213615Y-67942199D01*
X112165996Y-67894580D01*
X112070758Y-67846960D01*
X111880281Y-67846960D01*
X111785043Y-67894580D01*
X111737424Y-67942199D01*
X111689805Y-68037437D01*
X111689805Y-68275532D01*
X111737424Y-68370770D01*
X111785043Y-68418389D01*
X111880281Y-68466008D01*
X112070758Y-68466008D01*
X112165996Y-68418389D01*
X112213615Y-68370770D01*
X112261234Y-68275532D01*
%TO.C,C10*%
X110832662Y-72475362D02*
X110785043Y-72522981D01*
X110642186Y-72570600D01*
X110546948Y-72570600D01*
X110404091Y-72522981D01*
X110308853Y-72427743D01*
X110261234Y-72332505D01*
X110213615Y-72142029D01*
X110213615Y-71999172D01*
X110261234Y-71808696D01*
X110308853Y-71713458D01*
X110404091Y-71618220D01*
X110546948Y-71570600D01*
X110642186Y-71570600D01*
X110785043Y-71618220D01*
X110832662Y-71665839D01*
X111785043Y-72570600D02*
X111213615Y-72570600D01*
X111499329Y-72570600D02*
X111499329Y-71570600D01*
X111404091Y-71713458D01*
X111308853Y-71808696D01*
X111213615Y-71856315D01*
X112404091Y-71570600D02*
X112499329Y-71570600D01*
X112594567Y-71618220D01*
X112642186Y-71665839D01*
X112689805Y-71761077D01*
X112737424Y-71951553D01*
X112737424Y-72189648D01*
X112689805Y-72380124D01*
X112642186Y-72475362D01*
X112594567Y-72522981D01*
X112499329Y-72570600D01*
X112404091Y-72570600D01*
X112308853Y-72522981D01*
X112261234Y-72475362D01*
X112213615Y-72380124D01*
X112165996Y-72189648D01*
X112165996Y-71951553D01*
X112213615Y-71761077D01*
X112261234Y-71665839D01*
X112308853Y-71618220D01*
X112404091Y-71570600D01*
%TO.C,C11*%
X131513342Y-97321642D02*
X131465723Y-97369261D01*
X131322866Y-97416880D01*
X131227628Y-97416880D01*
X131084771Y-97369261D01*
X130989533Y-97274023D01*
X130941914Y-97178785D01*
X130894295Y-96988309D01*
X130894295Y-96845452D01*
X130941914Y-96654976D01*
X130989533Y-96559738D01*
X131084771Y-96464500D01*
X131227628Y-96416880D01*
X131322866Y-96416880D01*
X131465723Y-96464500D01*
X131513342Y-96512119D01*
X132465723Y-97416880D02*
X131894295Y-97416880D01*
X132180009Y-97416880D02*
X132180009Y-96416880D01*
X132084771Y-96559738D01*
X131989533Y-96654976D01*
X131894295Y-96702595D01*
X133418104Y-97416880D02*
X132846676Y-97416880D01*
X133132390Y-97416880D02*
X133132390Y-96416880D01*
X133037152Y-96559738D01*
X132941914Y-96654976D01*
X132846676Y-96702595D01*
%TO.C,C12*%
X131665742Y-91069642D02*
X131618123Y-91117261D01*
X131475266Y-91164880D01*
X131380028Y-91164880D01*
X131237171Y-91117261D01*
X131141933Y-91022023D01*
X131094314Y-90926785D01*
X131046695Y-90736309D01*
X131046695Y-90593452D01*
X131094314Y-90402976D01*
X131141933Y-90307738D01*
X131237171Y-90212500D01*
X131380028Y-90164880D01*
X131475266Y-90164880D01*
X131618123Y-90212500D01*
X131665742Y-90260119D01*
X132618123Y-91164880D02*
X132046695Y-91164880D01*
X132332409Y-91164880D02*
X132332409Y-90164880D01*
X132237171Y-90307738D01*
X132141933Y-90402976D01*
X132046695Y-90450595D01*
X132999076Y-90260119D02*
X133046695Y-90212500D01*
X133141933Y-90164880D01*
X133380028Y-90164880D01*
X133475266Y-90212500D01*
X133522885Y-90260119D01*
X133570504Y-90355357D01*
X133570504Y-90450595D01*
X133522885Y-90593452D01*
X132951457Y-91164880D01*
X133570504Y-91164880D01*
%TO.C,C13*%
X130365982Y-60820537D02*
X130413601Y-60868156D01*
X130461220Y-61011013D01*
X130461220Y-61106251D01*
X130413601Y-61249108D01*
X130318363Y-61344346D01*
X130223125Y-61391965D01*
X130032649Y-61439584D01*
X129889792Y-61439584D01*
X129699316Y-61391965D01*
X129604078Y-61344346D01*
X129508840Y-61249108D01*
X129461220Y-61106251D01*
X129461220Y-61011013D01*
X129508840Y-60868156D01*
X129556459Y-60820537D01*
X130461220Y-59868156D02*
X130461220Y-60439584D01*
X130461220Y-60153870D02*
X129461220Y-60153870D01*
X129604078Y-60249108D01*
X129699316Y-60344346D01*
X129746935Y-60439584D01*
X129461220Y-59534822D02*
X129461220Y-58915775D01*
X129842173Y-59249108D01*
X129842173Y-59106251D01*
X129889792Y-59011013D01*
X129937411Y-58963394D01*
X130032649Y-58915775D01*
X130270744Y-58915775D01*
X130365982Y-58963394D01*
X130413601Y-59011013D01*
X130461220Y-59106251D01*
X130461220Y-59391965D01*
X130413601Y-59487203D01*
X130365982Y-59534822D01*
%TO.C,D2*%
X120802660Y-55655435D02*
X119802660Y-55655435D01*
X119802660Y-55417340D01*
X119850280Y-55274482D01*
X119945518Y-55179244D01*
X120040756Y-55131625D01*
X120231232Y-55084006D01*
X120374089Y-55084006D01*
X120564565Y-55131625D01*
X120659803Y-55179244D01*
X120755041Y-55274482D01*
X120802660Y-55417340D01*
X120802660Y-55655435D01*
X119897899Y-54703054D02*
X119850280Y-54655435D01*
X119802660Y-54560197D01*
X119802660Y-54322101D01*
X119850280Y-54226863D01*
X119897899Y-54179244D01*
X119993137Y-54131625D01*
X120088375Y-54131625D01*
X120231232Y-54179244D01*
X120802660Y-54750673D01*
X120802660Y-54131625D01*
%TO.C,D3*%
X176820604Y-49741080D02*
X176820604Y-48741080D01*
X177058700Y-48741080D01*
X177201557Y-48788700D01*
X177296795Y-48883938D01*
X177344414Y-48979176D01*
X177392033Y-49169652D01*
X177392033Y-49312509D01*
X177344414Y-49502985D01*
X177296795Y-49598223D01*
X177201557Y-49693461D01*
X177058700Y-49741080D01*
X176820604Y-49741080D01*
X177725366Y-48741080D02*
X178344414Y-48741080D01*
X178011080Y-49122033D01*
X178153938Y-49122033D01*
X178249176Y-49169652D01*
X178296795Y-49217271D01*
X178344414Y-49312509D01*
X178344414Y-49550604D01*
X178296795Y-49645842D01*
X178249176Y-49693461D01*
X178153938Y-49741080D01*
X177868223Y-49741080D01*
X177772985Y-49693461D01*
X177725366Y-49645842D01*
%TO.C,D4*%
X176728904Y-53449480D02*
X176728904Y-52449480D01*
X176967000Y-52449480D01*
X177109857Y-52497100D01*
X177205095Y-52592338D01*
X177252714Y-52687576D01*
X177300333Y-52878052D01*
X177300333Y-53020909D01*
X177252714Y-53211385D01*
X177205095Y-53306623D01*
X177109857Y-53401861D01*
X176967000Y-53449480D01*
X176728904Y-53449480D01*
X178157476Y-52782814D02*
X178157476Y-53449480D01*
X177919380Y-52401861D02*
X177681285Y-53116147D01*
X178300333Y-53116147D01*
%TO.C,D5*%
X176757104Y-60967880D02*
X176757104Y-59967880D01*
X176995200Y-59967880D01*
X177138057Y-60015500D01*
X177233295Y-60110738D01*
X177280914Y-60205976D01*
X177328533Y-60396452D01*
X177328533Y-60539309D01*
X177280914Y-60729785D01*
X177233295Y-60825023D01*
X177138057Y-60920261D01*
X176995200Y-60967880D01*
X176757104Y-60967880D01*
X178233295Y-59967880D02*
X177757104Y-59967880D01*
X177709485Y-60444071D01*
X177757104Y-60396452D01*
X177852342Y-60348833D01*
X178090438Y-60348833D01*
X178185676Y-60396452D01*
X178233295Y-60444071D01*
X178280914Y-60539309D01*
X178280914Y-60777404D01*
X178233295Y-60872642D01*
X178185676Y-60920261D01*
X178090438Y-60967880D01*
X177852342Y-60967880D01*
X177757104Y-60920261D01*
X177709485Y-60872642D01*
%TO.C,D6*%
X176795204Y-57005480D02*
X176795204Y-56005480D01*
X177033300Y-56005480D01*
X177176157Y-56053100D01*
X177271395Y-56148338D01*
X177319014Y-56243576D01*
X177366633Y-56434052D01*
X177366633Y-56576909D01*
X177319014Y-56767385D01*
X177271395Y-56862623D01*
X177176157Y-56957861D01*
X177033300Y-57005480D01*
X176795204Y-57005480D01*
X178223776Y-56005480D02*
X178033300Y-56005480D01*
X177938061Y-56053100D01*
X177890442Y-56100719D01*
X177795204Y-56243576D01*
X177747585Y-56434052D01*
X177747585Y-56815004D01*
X177795204Y-56910242D01*
X177842823Y-56957861D01*
X177938061Y-57005480D01*
X178128538Y-57005480D01*
X178223776Y-56957861D01*
X178271395Y-56910242D01*
X178319014Y-56815004D01*
X178319014Y-56576909D01*
X178271395Y-56481671D01*
X178223776Y-56434052D01*
X178128538Y-56386433D01*
X177938061Y-56386433D01*
X177842823Y-56434052D01*
X177795204Y-56481671D01*
X177747585Y-56576909D01*
%TO.C,J1*%
X135819080Y-108702433D02*
X136533366Y-108702433D01*
X136676223Y-108750052D01*
X136771461Y-108845290D01*
X136819080Y-108988147D01*
X136819080Y-109083385D01*
X136819080Y-107702433D02*
X136819080Y-108273861D01*
X136819080Y-107988147D02*
X135819080Y-107988147D01*
X135961938Y-108083385D01*
X136057176Y-108178623D01*
X136104795Y-108273861D01*
%TO.C,J6*%
X107946866Y-111618780D02*
X107946866Y-112333066D01*
X107899247Y-112475923D01*
X107804009Y-112571161D01*
X107661152Y-112618780D01*
X107565914Y-112618780D01*
X108851628Y-111618780D02*
X108661152Y-111618780D01*
X108565914Y-111666400D01*
X108518295Y-111714019D01*
X108423057Y-111856876D01*
X108375438Y-112047352D01*
X108375438Y-112428304D01*
X108423057Y-112523542D01*
X108470676Y-112571161D01*
X108565914Y-112618780D01*
X108756390Y-112618780D01*
X108851628Y-112571161D01*
X108899247Y-112523542D01*
X108946866Y-112428304D01*
X108946866Y-112190209D01*
X108899247Y-112094971D01*
X108851628Y-112047352D01*
X108756390Y-111999733D01*
X108565914Y-111999733D01*
X108470676Y-112047352D01*
X108423057Y-112094971D01*
X108375438Y-112190209D01*
%TO.C,J7*%
X149551140Y-119936853D02*
X150265426Y-119936853D01*
X150408283Y-119984472D01*
X150503521Y-120079710D01*
X150551140Y-120222567D01*
X150551140Y-120317805D01*
X149551140Y-119555900D02*
X149551140Y-118889234D01*
X150551140Y-119317805D01*
%TO.C,R1*%
X152186900Y-103465926D02*
X151710710Y-103799260D01*
X152186900Y-104037355D02*
X151186900Y-104037355D01*
X151186900Y-103656402D01*
X151234520Y-103561164D01*
X151282139Y-103513545D01*
X151377377Y-103465926D01*
X151520234Y-103465926D01*
X151615472Y-103513545D01*
X151663091Y-103561164D01*
X151710710Y-103656402D01*
X151710710Y-104037355D01*
X152186900Y-102513545D02*
X152186900Y-103084974D01*
X152186900Y-102799260D02*
X151186900Y-102799260D01*
X151329758Y-102894498D01*
X151424996Y-102989736D01*
X151472615Y-103084974D01*
%TO.C,R2*%
X120293120Y-59252146D02*
X119816930Y-59585480D01*
X120293120Y-59823575D02*
X119293120Y-59823575D01*
X119293120Y-59442622D01*
X119340740Y-59347384D01*
X119388359Y-59299765D01*
X119483597Y-59252146D01*
X119626454Y-59252146D01*
X119721692Y-59299765D01*
X119769311Y-59347384D01*
X119816930Y-59442622D01*
X119816930Y-59823575D01*
X119388359Y-58871194D02*
X119340740Y-58823575D01*
X119293120Y-58728337D01*
X119293120Y-58490241D01*
X119340740Y-58395003D01*
X119388359Y-58347384D01*
X119483597Y-58299765D01*
X119578835Y-58299765D01*
X119721692Y-58347384D01*
X120293120Y-58918813D01*
X120293120Y-58299765D01*
%TO.C,R4*%
X133909060Y-60364666D02*
X133432870Y-60698000D01*
X133909060Y-60936095D02*
X132909060Y-60936095D01*
X132909060Y-60555142D01*
X132956680Y-60459904D01*
X133004299Y-60412285D01*
X133099537Y-60364666D01*
X133242394Y-60364666D01*
X133337632Y-60412285D01*
X133385251Y-60459904D01*
X133432870Y-60555142D01*
X133432870Y-60936095D01*
X133242394Y-59507523D02*
X133909060Y-59507523D01*
X132861441Y-59745619D02*
X133575727Y-59983714D01*
X133575727Y-59364666D01*
%TO.C,R5*%
X133867420Y-73440586D02*
X133391230Y-73773920D01*
X133867420Y-74012015D02*
X132867420Y-74012015D01*
X132867420Y-73631062D01*
X132915040Y-73535824D01*
X132962659Y-73488205D01*
X133057897Y-73440586D01*
X133200754Y-73440586D01*
X133295992Y-73488205D01*
X133343611Y-73535824D01*
X133391230Y-73631062D01*
X133391230Y-74012015D01*
X132867420Y-72535824D02*
X132867420Y-73012015D01*
X133343611Y-73059634D01*
X133295992Y-73012015D01*
X133248373Y-72916777D01*
X133248373Y-72678681D01*
X133295992Y-72583443D01*
X133343611Y-72535824D01*
X133438849Y-72488205D01*
X133676944Y-72488205D01*
X133772182Y-72535824D01*
X133819801Y-72583443D01*
X133867420Y-72678681D01*
X133867420Y-72916777D01*
X133819801Y-73012015D01*
X133772182Y-73059634D01*
%TO.C,R6*%
X130037100Y-73406806D02*
X129560910Y-73740140D01*
X130037100Y-73978235D02*
X129037100Y-73978235D01*
X129037100Y-73597282D01*
X129084720Y-73502044D01*
X129132339Y-73454425D01*
X129227577Y-73406806D01*
X129370434Y-73406806D01*
X129465672Y-73454425D01*
X129513291Y-73502044D01*
X129560910Y-73597282D01*
X129560910Y-73978235D01*
X129037100Y-72549663D02*
X129037100Y-72740140D01*
X129084720Y-72835378D01*
X129132339Y-72882997D01*
X129275196Y-72978235D01*
X129465672Y-73025854D01*
X129846624Y-73025854D01*
X129941862Y-72978235D01*
X129989481Y-72930616D01*
X130037100Y-72835378D01*
X130037100Y-72644901D01*
X129989481Y-72549663D01*
X129941862Y-72502044D01*
X129846624Y-72454425D01*
X129608529Y-72454425D01*
X129513291Y-72502044D01*
X129465672Y-72549663D01*
X129418053Y-72644901D01*
X129418053Y-72835378D01*
X129465672Y-72930616D01*
X129513291Y-72978235D01*
X129608529Y-73025854D01*
%TO.C,R7*%
X119744193Y-78944460D02*
X119410860Y-78468270D01*
X119172764Y-78944460D02*
X119172764Y-77944460D01*
X119553717Y-77944460D01*
X119648955Y-77992080D01*
X119696574Y-78039699D01*
X119744193Y-78134937D01*
X119744193Y-78277794D01*
X119696574Y-78373032D01*
X119648955Y-78420651D01*
X119553717Y-78468270D01*
X119172764Y-78468270D01*
X120077526Y-77944460D02*
X120744193Y-77944460D01*
X120315621Y-78944460D01*
%TO.C,R8*%
X119782293Y-89190820D02*
X119448960Y-88714630D01*
X119210864Y-89190820D02*
X119210864Y-88190820D01*
X119591817Y-88190820D01*
X119687055Y-88238440D01*
X119734674Y-88286059D01*
X119782293Y-88381297D01*
X119782293Y-88524154D01*
X119734674Y-88619392D01*
X119687055Y-88667011D01*
X119591817Y-88714630D01*
X119210864Y-88714630D01*
X120353721Y-88619392D02*
X120258483Y-88571773D01*
X120210864Y-88524154D01*
X120163245Y-88428916D01*
X120163245Y-88381297D01*
X120210864Y-88286059D01*
X120258483Y-88238440D01*
X120353721Y-88190820D01*
X120544198Y-88190820D01*
X120639436Y-88238440D01*
X120687055Y-88286059D01*
X120734674Y-88381297D01*
X120734674Y-88428916D01*
X120687055Y-88524154D01*
X120639436Y-88571773D01*
X120544198Y-88619392D01*
X120353721Y-88619392D01*
X120258483Y-88667011D01*
X120210864Y-88714630D01*
X120163245Y-88809868D01*
X120163245Y-89000344D01*
X120210864Y-89095582D01*
X120258483Y-89143201D01*
X120353721Y-89190820D01*
X120544198Y-89190820D01*
X120639436Y-89143201D01*
X120687055Y-89095582D01*
X120734674Y-89000344D01*
X120734674Y-88809868D01*
X120687055Y-88714630D01*
X120639436Y-88667011D01*
X120544198Y-88619392D01*
%TO.C,R9*%
X119728953Y-82334360D02*
X119395620Y-81858170D01*
X119157524Y-82334360D02*
X119157524Y-81334360D01*
X119538477Y-81334360D01*
X119633715Y-81381980D01*
X119681334Y-81429599D01*
X119728953Y-81524837D01*
X119728953Y-81667694D01*
X119681334Y-81762932D01*
X119633715Y-81810551D01*
X119538477Y-81858170D01*
X119157524Y-81858170D01*
X120205143Y-82334360D02*
X120395620Y-82334360D01*
X120490858Y-82286741D01*
X120538477Y-82239122D01*
X120633715Y-82096265D01*
X120681334Y-81905789D01*
X120681334Y-81524837D01*
X120633715Y-81429599D01*
X120586096Y-81381980D01*
X120490858Y-81334360D01*
X120300381Y-81334360D01*
X120205143Y-81381980D01*
X120157524Y-81429599D01*
X120109905Y-81524837D01*
X120109905Y-81762932D01*
X120157524Y-81858170D01*
X120205143Y-81905789D01*
X120300381Y-81953408D01*
X120490858Y-81953408D01*
X120586096Y-81905789D01*
X120633715Y-81858170D01*
X120681334Y-81762932D01*
%TO.C,R10*%
X119260382Y-85830400D02*
X118927049Y-85354210D01*
X118688954Y-85830400D02*
X118688954Y-84830400D01*
X119069906Y-84830400D01*
X119165144Y-84878020D01*
X119212763Y-84925639D01*
X119260382Y-85020877D01*
X119260382Y-85163734D01*
X119212763Y-85258972D01*
X119165144Y-85306591D01*
X119069906Y-85354210D01*
X118688954Y-85354210D01*
X120212763Y-85830400D02*
X119641335Y-85830400D01*
X119927049Y-85830400D02*
X119927049Y-84830400D01*
X119831811Y-84973258D01*
X119736573Y-85068496D01*
X119641335Y-85116115D01*
X120831811Y-84830400D02*
X120927049Y-84830400D01*
X121022287Y-84878020D01*
X121069906Y-84925639D01*
X121117525Y-85020877D01*
X121165144Y-85211353D01*
X121165144Y-85449448D01*
X121117525Y-85639924D01*
X121069906Y-85735162D01*
X121022287Y-85782781D01*
X120927049Y-85830400D01*
X120831811Y-85830400D01*
X120736573Y-85782781D01*
X120688954Y-85735162D01*
X120641335Y-85639924D01*
X120593716Y-85449448D01*
X120593716Y-85211353D01*
X120641335Y-85020877D01*
X120688954Y-84925639D01*
X120736573Y-84878020D01*
X120831811Y-84830400D01*
%TO.C,R11*%
X119107982Y-99114600D02*
X118774649Y-98638410D01*
X118536554Y-99114600D02*
X118536554Y-98114600D01*
X118917506Y-98114600D01*
X119012744Y-98162220D01*
X119060363Y-98209839D01*
X119107982Y-98305077D01*
X119107982Y-98447934D01*
X119060363Y-98543172D01*
X119012744Y-98590791D01*
X118917506Y-98638410D01*
X118536554Y-98638410D01*
X120060363Y-99114600D02*
X119488935Y-99114600D01*
X119774649Y-99114600D02*
X119774649Y-98114600D01*
X119679411Y-98257458D01*
X119584173Y-98352696D01*
X119488935Y-98400315D01*
X121012744Y-99114600D02*
X120441316Y-99114600D01*
X120727030Y-99114600D02*
X120727030Y-98114600D01*
X120631792Y-98257458D01*
X120536554Y-98352696D01*
X120441316Y-98400315D01*
%TO.C,R12*%
X119039402Y-95769420D02*
X118706069Y-95293230D01*
X118467974Y-95769420D02*
X118467974Y-94769420D01*
X118848926Y-94769420D01*
X118944164Y-94817040D01*
X118991783Y-94864659D01*
X119039402Y-94959897D01*
X119039402Y-95102754D01*
X118991783Y-95197992D01*
X118944164Y-95245611D01*
X118848926Y-95293230D01*
X118467974Y-95293230D01*
X119991783Y-95769420D02*
X119420355Y-95769420D01*
X119706069Y-95769420D02*
X119706069Y-94769420D01*
X119610831Y-94912278D01*
X119515593Y-95007516D01*
X119420355Y-95055135D01*
X120372736Y-94864659D02*
X120420355Y-94817040D01*
X120515593Y-94769420D01*
X120753688Y-94769420D01*
X120848926Y-94817040D01*
X120896545Y-94864659D01*
X120944164Y-94959897D01*
X120944164Y-95055135D01*
X120896545Y-95197992D01*
X120325117Y-95769420D01*
X120944164Y-95769420D01*
%TO.C,R13*%
X119204502Y-102632500D02*
X118871169Y-102156310D01*
X118633074Y-102632500D02*
X118633074Y-101632500D01*
X119014026Y-101632500D01*
X119109264Y-101680120D01*
X119156883Y-101727739D01*
X119204502Y-101822977D01*
X119204502Y-101965834D01*
X119156883Y-102061072D01*
X119109264Y-102108691D01*
X119014026Y-102156310D01*
X118633074Y-102156310D01*
X120156883Y-102632500D02*
X119585455Y-102632500D01*
X119871169Y-102632500D02*
X119871169Y-101632500D01*
X119775931Y-101775358D01*
X119680693Y-101870596D01*
X119585455Y-101918215D01*
X120490217Y-101632500D02*
X121109264Y-101632500D01*
X120775931Y-102013453D01*
X120918788Y-102013453D01*
X121014026Y-102061072D01*
X121061645Y-102108691D01*
X121109264Y-102203929D01*
X121109264Y-102442024D01*
X121061645Y-102537262D01*
X121014026Y-102584881D01*
X120918788Y-102632500D01*
X120633074Y-102632500D01*
X120537836Y-102584881D01*
X120490217Y-102537262D01*
%TO.C,R14*%
X119191802Y-106076740D02*
X118858469Y-105600550D01*
X118620374Y-106076740D02*
X118620374Y-105076740D01*
X119001326Y-105076740D01*
X119096564Y-105124360D01*
X119144183Y-105171979D01*
X119191802Y-105267217D01*
X119191802Y-105410074D01*
X119144183Y-105505312D01*
X119096564Y-105552931D01*
X119001326Y-105600550D01*
X118620374Y-105600550D01*
X120144183Y-106076740D02*
X119572755Y-106076740D01*
X119858469Y-106076740D02*
X119858469Y-105076740D01*
X119763231Y-105219598D01*
X119667993Y-105314836D01*
X119572755Y-105362455D01*
X121001326Y-105410074D02*
X121001326Y-106076740D01*
X120763231Y-105029121D02*
X120525136Y-105743407D01*
X121144183Y-105743407D01*
%TO.C,R15*%
X131538742Y-100541080D02*
X131205409Y-100064890D01*
X130967314Y-100541080D02*
X130967314Y-99541080D01*
X131348266Y-99541080D01*
X131443504Y-99588700D01*
X131491123Y-99636319D01*
X131538742Y-99731557D01*
X131538742Y-99874414D01*
X131491123Y-99969652D01*
X131443504Y-100017271D01*
X131348266Y-100064890D01*
X130967314Y-100064890D01*
X132491123Y-100541080D02*
X131919695Y-100541080D01*
X132205409Y-100541080D02*
X132205409Y-99541080D01*
X132110171Y-99683938D01*
X132014933Y-99779176D01*
X131919695Y-99826795D01*
X133395885Y-99541080D02*
X132919695Y-99541080D01*
X132872076Y-100017271D01*
X132919695Y-99969652D01*
X133014933Y-99922033D01*
X133253028Y-99922033D01*
X133348266Y-99969652D01*
X133395885Y-100017271D01*
X133443504Y-100112509D01*
X133443504Y-100350604D01*
X133395885Y-100445842D01*
X133348266Y-100493461D01*
X133253028Y-100541080D01*
X133014933Y-100541080D01*
X132919695Y-100493461D01*
X132872076Y-100445842D01*
%TO.C,R16*%
X131678442Y-94419680D02*
X131345109Y-93943490D01*
X131107014Y-94419680D02*
X131107014Y-93419680D01*
X131487966Y-93419680D01*
X131583204Y-93467300D01*
X131630823Y-93514919D01*
X131678442Y-93610157D01*
X131678442Y-93753014D01*
X131630823Y-93848252D01*
X131583204Y-93895871D01*
X131487966Y-93943490D01*
X131107014Y-93943490D01*
X132630823Y-94419680D02*
X132059395Y-94419680D01*
X132345109Y-94419680D02*
X132345109Y-93419680D01*
X132249871Y-93562538D01*
X132154633Y-93657776D01*
X132059395Y-93705395D01*
X133487966Y-93419680D02*
X133297490Y-93419680D01*
X133202252Y-93467300D01*
X133154633Y-93514919D01*
X133059395Y-93657776D01*
X133011776Y-93848252D01*
X133011776Y-94229204D01*
X133059395Y-94324442D01*
X133107014Y-94372061D01*
X133202252Y-94419680D01*
X133392728Y-94419680D01*
X133487966Y-94372061D01*
X133535585Y-94324442D01*
X133583204Y-94229204D01*
X133583204Y-93991109D01*
X133535585Y-93895871D01*
X133487966Y-93848252D01*
X133392728Y-93800633D01*
X133202252Y-93800633D01*
X133107014Y-93848252D01*
X133059395Y-93895871D01*
X133011776Y-93991109D01*
%TO.C,R17*%
X171571682Y-49914800D02*
X171238349Y-49438610D01*
X171000254Y-49914800D02*
X171000254Y-48914800D01*
X171381206Y-48914800D01*
X171476444Y-48962420D01*
X171524063Y-49010039D01*
X171571682Y-49105277D01*
X171571682Y-49248134D01*
X171524063Y-49343372D01*
X171476444Y-49390991D01*
X171381206Y-49438610D01*
X171000254Y-49438610D01*
X172524063Y-49914800D02*
X171952635Y-49914800D01*
X172238349Y-49914800D02*
X172238349Y-48914800D01*
X172143111Y-49057658D01*
X172047873Y-49152896D01*
X171952635Y-49200515D01*
X172857397Y-48914800D02*
X173524063Y-48914800D01*
X173095492Y-49914800D01*
%TO.C,R18*%
X171597082Y-53216800D02*
X171263749Y-52740610D01*
X171025654Y-53216800D02*
X171025654Y-52216800D01*
X171406606Y-52216800D01*
X171501844Y-52264420D01*
X171549463Y-52312039D01*
X171597082Y-52407277D01*
X171597082Y-52550134D01*
X171549463Y-52645372D01*
X171501844Y-52692991D01*
X171406606Y-52740610D01*
X171025654Y-52740610D01*
X172549463Y-53216800D02*
X171978035Y-53216800D01*
X172263749Y-53216800D02*
X172263749Y-52216800D01*
X172168511Y-52359658D01*
X172073273Y-52454896D01*
X171978035Y-52502515D01*
X173120892Y-52645372D02*
X173025654Y-52597753D01*
X172978035Y-52550134D01*
X172930416Y-52454896D01*
X172930416Y-52407277D01*
X172978035Y-52312039D01*
X173025654Y-52264420D01*
X173120892Y-52216800D01*
X173311368Y-52216800D01*
X173406606Y-52264420D01*
X173454225Y-52312039D01*
X173501844Y-52407277D01*
X173501844Y-52454896D01*
X173454225Y-52550134D01*
X173406606Y-52597753D01*
X173311368Y-52645372D01*
X173120892Y-52645372D01*
X173025654Y-52692991D01*
X172978035Y-52740610D01*
X172930416Y-52835848D01*
X172930416Y-53026324D01*
X172978035Y-53121562D01*
X173025654Y-53169181D01*
X173120892Y-53216800D01*
X173311368Y-53216800D01*
X173406606Y-53169181D01*
X173454225Y-53121562D01*
X173501844Y-53026324D01*
X173501844Y-52835848D01*
X173454225Y-52740610D01*
X173406606Y-52692991D01*
X173311368Y-52645372D01*
%TO.C,R19*%
X171617402Y-61042540D02*
X171284069Y-60566350D01*
X171045974Y-61042540D02*
X171045974Y-60042540D01*
X171426926Y-60042540D01*
X171522164Y-60090160D01*
X171569783Y-60137779D01*
X171617402Y-60233017D01*
X171617402Y-60375874D01*
X171569783Y-60471112D01*
X171522164Y-60518731D01*
X171426926Y-60566350D01*
X171045974Y-60566350D01*
X172569783Y-61042540D02*
X171998355Y-61042540D01*
X172284069Y-61042540D02*
X172284069Y-60042540D01*
X172188831Y-60185398D01*
X172093593Y-60280636D01*
X171998355Y-60328255D01*
X173045974Y-61042540D02*
X173236450Y-61042540D01*
X173331688Y-60994921D01*
X173379307Y-60947302D01*
X173474545Y-60804445D01*
X173522164Y-60613969D01*
X173522164Y-60233017D01*
X173474545Y-60137779D01*
X173426926Y-60090160D01*
X173331688Y-60042540D01*
X173141212Y-60042540D01*
X173045974Y-60090160D01*
X172998355Y-60137779D01*
X172950736Y-60233017D01*
X172950736Y-60471112D01*
X172998355Y-60566350D01*
X173045974Y-60613969D01*
X173141212Y-60661588D01*
X173331688Y-60661588D01*
X173426926Y-60613969D01*
X173474545Y-60566350D01*
X173522164Y-60471112D01*
%TO.C,R20*%
X171645342Y-57064900D02*
X171312009Y-56588710D01*
X171073914Y-57064900D02*
X171073914Y-56064900D01*
X171454866Y-56064900D01*
X171550104Y-56112520D01*
X171597723Y-56160139D01*
X171645342Y-56255377D01*
X171645342Y-56398234D01*
X171597723Y-56493472D01*
X171550104Y-56541091D01*
X171454866Y-56588710D01*
X171073914Y-56588710D01*
X172026295Y-56160139D02*
X172073914Y-56112520D01*
X172169152Y-56064900D01*
X172407247Y-56064900D01*
X172502485Y-56112520D01*
X172550104Y-56160139D01*
X172597723Y-56255377D01*
X172597723Y-56350615D01*
X172550104Y-56493472D01*
X171978676Y-57064900D01*
X172597723Y-57064900D01*
X173216771Y-56064900D02*
X173312009Y-56064900D01*
X173407247Y-56112520D01*
X173454866Y-56160139D01*
X173502485Y-56255377D01*
X173550104Y-56445853D01*
X173550104Y-56683948D01*
X173502485Y-56874424D01*
X173454866Y-56969662D01*
X173407247Y-57017281D01*
X173312009Y-57064900D01*
X173216771Y-57064900D01*
X173121533Y-57017281D01*
X173073914Y-56969662D01*
X173026295Y-56874424D01*
X172978676Y-56683948D01*
X172978676Y-56445853D01*
X173026295Y-56255377D01*
X173073914Y-56160139D01*
X173121533Y-56112520D01*
X173216771Y-56064900D01*
%TO.C,R21*%
X137327900Y-60782437D02*
X136851710Y-61115770D01*
X137327900Y-61353865D02*
X136327900Y-61353865D01*
X136327900Y-60972913D01*
X136375520Y-60877675D01*
X136423139Y-60830056D01*
X136518377Y-60782437D01*
X136661234Y-60782437D01*
X136756472Y-60830056D01*
X136804091Y-60877675D01*
X136851710Y-60972913D01*
X136851710Y-61353865D01*
X136423139Y-60401484D02*
X136375520Y-60353865D01*
X136327900Y-60258627D01*
X136327900Y-60020532D01*
X136375520Y-59925294D01*
X136423139Y-59877675D01*
X136518377Y-59830056D01*
X136613615Y-59830056D01*
X136756472Y-59877675D01*
X137327900Y-60449103D01*
X137327900Y-59830056D01*
X137327900Y-58877675D02*
X137327900Y-59449103D01*
X137327900Y-59163389D02*
X136327900Y-59163389D01*
X136470758Y-59258627D01*
X136565996Y-59353865D01*
X136613615Y-59449103D01*
%TO.C,RV2*%
D13*
X172519523Y-104555592D02*
X171914761Y-104978925D01*
X172519523Y-105281306D02*
X171249523Y-105281306D01*
X171249523Y-104797497D01*
X171310000Y-104676544D01*
X171370476Y-104616068D01*
X171491428Y-104555592D01*
X171672857Y-104555592D01*
X171793809Y-104616068D01*
X171854285Y-104676544D01*
X171914761Y-104797497D01*
X171914761Y-105281306D01*
X171249523Y-104192735D02*
X172519523Y-103769401D01*
X171249523Y-103346068D01*
X171370476Y-102983211D02*
X171310000Y-102922735D01*
X171249523Y-102801782D01*
X171249523Y-102499401D01*
X171310000Y-102378449D01*
X171370476Y-102317973D01*
X171491428Y-102257497D01*
X171612380Y-102257497D01*
X171793809Y-102317973D01*
X172519523Y-103043687D01*
X172519523Y-102257497D01*
%TO.C,SW3*%
D18*
X176428066Y-68576983D02*
X176570923Y-68624602D01*
X176809019Y-68624602D01*
X176904257Y-68576983D01*
X176951876Y-68529364D01*
X176999495Y-68434126D01*
X176999495Y-68338888D01*
X176951876Y-68243650D01*
X176904257Y-68196031D01*
X176809019Y-68148412D01*
X176618542Y-68100793D01*
X176523304Y-68053174D01*
X176475685Y-68005555D01*
X176428066Y-67910317D01*
X176428066Y-67815079D01*
X176475685Y-67719841D01*
X176523304Y-67672222D01*
X176618542Y-67624602D01*
X176856638Y-67624602D01*
X176999495Y-67672222D01*
X177332828Y-67624602D02*
X177570923Y-68624602D01*
X177761400Y-67910317D01*
X177951876Y-68624602D01*
X178189971Y-67624602D01*
X178475685Y-67624602D02*
X179094733Y-67624602D01*
X178761400Y-68005555D01*
X178904257Y-68005555D01*
X178999495Y-68053174D01*
X179047114Y-68100793D01*
X179094733Y-68196031D01*
X179094733Y-68434126D01*
X179047114Y-68529364D01*
X178999495Y-68576983D01*
X178904257Y-68624602D01*
X178618542Y-68624602D01*
X178523304Y-68576983D01*
X178475685Y-68529364D01*
%TO.C,SW4*%
X176428066Y-76707523D02*
X176570923Y-76755142D01*
X176809019Y-76755142D01*
X176904257Y-76707523D01*
X176951876Y-76659904D01*
X176999495Y-76564666D01*
X176999495Y-76469428D01*
X176951876Y-76374190D01*
X176904257Y-76326571D01*
X176809019Y-76278952D01*
X176618542Y-76231333D01*
X176523304Y-76183714D01*
X176475685Y-76136095D01*
X176428066Y-76040857D01*
X176428066Y-75945619D01*
X176475685Y-75850381D01*
X176523304Y-75802762D01*
X176618542Y-75755142D01*
X176856638Y-75755142D01*
X176999495Y-75802762D01*
X177332828Y-75755142D02*
X177570923Y-76755142D01*
X177761400Y-76040857D01*
X177951876Y-76755142D01*
X178189971Y-75755142D01*
X178999495Y-76088476D02*
X178999495Y-76755142D01*
X178761400Y-75707523D02*
X178523304Y-76421809D01*
X179142352Y-76421809D01*
%TO.C,SW5*%
X166720186Y-72722263D02*
X166863043Y-72769882D01*
X167101139Y-72769882D01*
X167196377Y-72722263D01*
X167243996Y-72674644D01*
X167291615Y-72579406D01*
X167291615Y-72484168D01*
X167243996Y-72388930D01*
X167196377Y-72341311D01*
X167101139Y-72293692D01*
X166910662Y-72246073D01*
X166815424Y-72198454D01*
X166767805Y-72150835D01*
X166720186Y-72055597D01*
X166720186Y-71960359D01*
X166767805Y-71865121D01*
X166815424Y-71817502D01*
X166910662Y-71769882D01*
X167148758Y-71769882D01*
X167291615Y-71817502D01*
X167624948Y-71769882D02*
X167863043Y-72769882D01*
X168053520Y-72055597D01*
X168243996Y-72769882D01*
X168482091Y-71769882D01*
X169339234Y-71769882D02*
X168863043Y-71769882D01*
X168815424Y-72246073D01*
X168863043Y-72198454D01*
X168958281Y-72150835D01*
X169196377Y-72150835D01*
X169291615Y-72198454D01*
X169339234Y-72246073D01*
X169386853Y-72341311D01*
X169386853Y-72579406D01*
X169339234Y-72674644D01*
X169291615Y-72722263D01*
X169196377Y-72769882D01*
X168958281Y-72769882D01*
X168863043Y-72722263D01*
X168815424Y-72674644D01*
%TO.C,SW6*%
X166395566Y-80770361D02*
X166538423Y-80817980D01*
X166776519Y-80817980D01*
X166871757Y-80770361D01*
X166919376Y-80722742D01*
X166966995Y-80627504D01*
X166966995Y-80532266D01*
X166919376Y-80437028D01*
X166871757Y-80389409D01*
X166776519Y-80341790D01*
X166586042Y-80294171D01*
X166490804Y-80246552D01*
X166443185Y-80198933D01*
X166395566Y-80103695D01*
X166395566Y-80008457D01*
X166443185Y-79913219D01*
X166490804Y-79865600D01*
X166586042Y-79817980D01*
X166824138Y-79817980D01*
X166966995Y-79865600D01*
X167300328Y-79817980D02*
X167538423Y-80817980D01*
X167728900Y-80103695D01*
X167919376Y-80817980D01*
X168157471Y-79817980D01*
X168966995Y-79817980D02*
X168776519Y-79817980D01*
X168681280Y-79865600D01*
X168633661Y-79913219D01*
X168538423Y-80056076D01*
X168490804Y-80246552D01*
X168490804Y-80627504D01*
X168538423Y-80722742D01*
X168586042Y-80770361D01*
X168681280Y-80817980D01*
X168871757Y-80817980D01*
X168966995Y-80770361D01*
X169014614Y-80722742D01*
X169062233Y-80627504D01*
X169062233Y-80389409D01*
X169014614Y-80294171D01*
X168966995Y-80246552D01*
X168871757Y-80198933D01*
X168681280Y-80198933D01*
X168586042Y-80246552D01*
X168538423Y-80294171D01*
X168490804Y-80389409D01*
%TO.C,U1*%
X144805495Y-80089580D02*
X144805495Y-80899104D01*
X144853114Y-80994342D01*
X144900733Y-81041961D01*
X144995971Y-81089580D01*
X145186447Y-81089580D01*
X145281685Y-81041961D01*
X145329304Y-80994342D01*
X145376923Y-80899104D01*
X145376923Y-80089580D01*
X146376923Y-81089580D02*
X145805495Y-81089580D01*
X146091209Y-81089580D02*
X146091209Y-80089580D01*
X145995971Y-80232438D01*
X145900733Y-80327676D01*
X145805495Y-80375295D01*
%TO.C,U2*%
X150218235Y-58513220D02*
X150218235Y-59322744D01*
X150265854Y-59417982D01*
X150313473Y-59465601D01*
X150408711Y-59513220D01*
X150599187Y-59513220D01*
X150694425Y-59465601D01*
X150742044Y-59417982D01*
X150789663Y-59322744D01*
X150789663Y-58513220D01*
X151218235Y-58608459D02*
X151265854Y-58560840D01*
X151361092Y-58513220D01*
X151599187Y-58513220D01*
X151694425Y-58560840D01*
X151742044Y-58608459D01*
X151789663Y-58703697D01*
X151789663Y-58798935D01*
X151742044Y-58941792D01*
X151170616Y-59513220D01*
X151789663Y-59513220D01*
%TO.C,U4*%
D13*
X124813180Y-95519723D02*
X124813180Y-96547819D01*
X124873657Y-96668771D01*
X124934133Y-96729247D01*
X125055085Y-96789723D01*
X125296990Y-96789723D01*
X125417942Y-96729247D01*
X125478419Y-96668771D01*
X125538895Y-96547819D01*
X125538895Y-95519723D01*
X126687942Y-95943057D02*
X126687942Y-96789723D01*
X126385561Y-95459247D02*
X126083180Y-96366390D01*
X126869371Y-96366390D01*
%TO.C,U5*%
D18*
X130325000Y-54335584D02*
X131134524Y-54335584D01*
X131229762Y-54287965D01*
X131277381Y-54240346D01*
X131325000Y-54145108D01*
X131325000Y-53954632D01*
X131277381Y-53859394D01*
X131229762Y-53811775D01*
X131134524Y-53764156D01*
X130325000Y-53764156D01*
X130325000Y-52811775D02*
X130325000Y-53287965D01*
X130801191Y-53335584D01*
X130753572Y-53287965D01*
X130705953Y-53192727D01*
X130705953Y-52954632D01*
X130753572Y-52859394D01*
X130801191Y-52811775D01*
X130896429Y-52764156D01*
X131134524Y-52764156D01*
X131229762Y-52811775D01*
X131277381Y-52859394D01*
X131325000Y-52954632D01*
X131325000Y-53192727D01*
X131277381Y-53287965D01*
X131229762Y-53335584D01*
%TO.C,U3*%
D13*
X121153040Y-76777063D02*
X121153040Y-77805159D01*
X121213517Y-77926111D01*
X121273993Y-77986587D01*
X121394945Y-78047063D01*
X121636850Y-78047063D01*
X121757802Y-77986587D01*
X121818279Y-77926111D01*
X121878755Y-77805159D01*
X121878755Y-76777063D01*
X122362564Y-76777063D02*
X123148755Y-76777063D01*
X122725421Y-77260873D01*
X122906850Y-77260873D01*
X123027802Y-77321349D01*
X123088279Y-77381825D01*
X123148755Y-77502778D01*
X123148755Y-77805159D01*
X123088279Y-77926111D01*
X123027802Y-77986587D01*
X122906850Y-78047063D01*
X122543993Y-78047063D01*
X122423040Y-77986587D01*
X122362564Y-77926111D01*
%TO.C,C14*%
D18*
X163295602Y-94119937D02*
X163343221Y-94167556D01*
X163390840Y-94310413D01*
X163390840Y-94405651D01*
X163343221Y-94548508D01*
X163247983Y-94643746D01*
X163152745Y-94691365D01*
X162962269Y-94738984D01*
X162819412Y-94738984D01*
X162628936Y-94691365D01*
X162533698Y-94643746D01*
X162438460Y-94548508D01*
X162390840Y-94405651D01*
X162390840Y-94310413D01*
X162438460Y-94167556D01*
X162486079Y-94119937D01*
X163390840Y-93167556D02*
X163390840Y-93738984D01*
X163390840Y-93453270D02*
X162390840Y-93453270D01*
X162533698Y-93548508D01*
X162628936Y-93643746D01*
X162676555Y-93738984D01*
X162724174Y-92310413D02*
X163390840Y-92310413D01*
X162343221Y-92548508D02*
X163057507Y-92786603D01*
X163057507Y-92167556D01*
%TO.C,C15*%
X121462562Y-68215782D02*
X121414943Y-68263401D01*
X121272086Y-68311020D01*
X121176848Y-68311020D01*
X121033991Y-68263401D01*
X120938753Y-68168163D01*
X120891134Y-68072925D01*
X120843515Y-67882449D01*
X120843515Y-67739592D01*
X120891134Y-67549116D01*
X120938753Y-67453878D01*
X121033991Y-67358640D01*
X121176848Y-67311020D01*
X121272086Y-67311020D01*
X121414943Y-67358640D01*
X121462562Y-67406259D01*
X122414943Y-68311020D02*
X121843515Y-68311020D01*
X122129229Y-68311020D02*
X122129229Y-67311020D01*
X122033991Y-67453878D01*
X121938753Y-67549116D01*
X121843515Y-67596735D01*
X123319705Y-67311020D02*
X122843515Y-67311020D01*
X122795896Y-67787211D01*
X122843515Y-67739592D01*
X122938753Y-67691973D01*
X123176848Y-67691973D01*
X123272086Y-67739592D01*
X123319705Y-67787211D01*
X123367324Y-67882449D01*
X123367324Y-68120544D01*
X123319705Y-68215782D01*
X123272086Y-68263401D01*
X123176848Y-68311020D01*
X122938753Y-68311020D01*
X122843515Y-68263401D01*
X122795896Y-68215782D01*
%TO.C,C16*%
X125330982Y-104192342D02*
X125283363Y-104239961D01*
X125140506Y-104287580D01*
X125045268Y-104287580D01*
X124902411Y-104239961D01*
X124807173Y-104144723D01*
X124759554Y-104049485D01*
X124711935Y-103859009D01*
X124711935Y-103716152D01*
X124759554Y-103525676D01*
X124807173Y-103430438D01*
X124902411Y-103335200D01*
X125045268Y-103287580D01*
X125140506Y-103287580D01*
X125283363Y-103335200D01*
X125330982Y-103382819D01*
X126283363Y-104287580D02*
X125711935Y-104287580D01*
X125997649Y-104287580D02*
X125997649Y-103287580D01*
X125902411Y-103430438D01*
X125807173Y-103525676D01*
X125711935Y-103573295D01*
X127140506Y-103287580D02*
X126950030Y-103287580D01*
X126854792Y-103335200D01*
X126807173Y-103382819D01*
X126711935Y-103525676D01*
X126664316Y-103716152D01*
X126664316Y-104097104D01*
X126711935Y-104192342D01*
X126759554Y-104239961D01*
X126854792Y-104287580D01*
X127045268Y-104287580D01*
X127140506Y-104239961D01*
X127188125Y-104192342D01*
X127235744Y-104097104D01*
X127235744Y-103859009D01*
X127188125Y-103763771D01*
X127140506Y-103716152D01*
X127045268Y-103668533D01*
X126854792Y-103668533D01*
X126759554Y-103716152D01*
X126711935Y-103763771D01*
X126664316Y-103859009D01*
%TO.C,J4*%
X111881326Y-78029820D02*
X111881326Y-78744106D01*
X111833707Y-78886963D01*
X111738469Y-78982201D01*
X111595612Y-79029820D01*
X111500374Y-79029820D01*
X112786088Y-78363154D02*
X112786088Y-79029820D01*
X112547993Y-77982201D02*
X112309898Y-78696487D01*
X112928945Y-78696487D01*
%TO.C,J5*%
X112158186Y-94395040D02*
X112158186Y-95109326D01*
X112110567Y-95252183D01*
X112015329Y-95347421D01*
X111872472Y-95395040D01*
X111777234Y-95395040D01*
X113110567Y-94395040D02*
X112634377Y-94395040D01*
X112586758Y-94871231D01*
X112634377Y-94823612D01*
X112729615Y-94775993D01*
X112967710Y-94775993D01*
X113062948Y-94823612D01*
X113110567Y-94871231D01*
X113158186Y-94966469D01*
X113158186Y-95204564D01*
X113110567Y-95299802D01*
X113062948Y-95347421D01*
X112967710Y-95395040D01*
X112729615Y-95395040D01*
X112634377Y-95347421D01*
X112586758Y-95299802D01*
%TD*%
M02*
